<svg width="24" height="24" viewBox="0 0 24 24" fill="none" xmlns="http://www.w3.org/2000/svg">
<g id="close ">
<path id="Vector" d="M17.2769 6.00023C17.0934 6.0039 16.9136 6.08463 16.7852 6.21674L11.9998 11.002L7.21448 6.21674C7.08237 6.08096 6.89889 6.0039 6.70806 6.0039C6.42182 6.0039 6.16494 6.18004 6.05485 6.44426C5.94843 6.70848 6.01081 7.01307 6.21632 7.2149L11.0017 12.0002L6.21632 16.7855C6.03283 16.9617 5.95943 17.2259 6.02182 17.4718C6.08787 17.7176 6.28237 17.9121 6.52824 17.9782C6.77412 18.0406 7.03834 17.9672 7.21448 17.7837L11.9998 12.9984L16.7852 17.7837C16.9613 17.9672 17.2255 18.0406 17.4714 17.9782C17.7173 17.9121 17.9118 17.7176 17.9778 17.4718C18.0402 17.2259 17.9668 16.9617 17.7833 16.7855L12.998 12.0002L17.7833 7.2149C17.9925 7.01307 18.0586 6.70481 17.9448 6.43325C17.8347 6.16536 17.5705 5.99289 17.2769 6.00023Z" fill="#0D1011"/>
</g>
</svg>
