<svg width="24" height="24" viewBox="0 0 24 24" fill="none" xmlns="http://www.w3.org/2000/svg">
<g id="error ">
<path id="Vector" d="M11.9973 2.52637C11.2201 2.52637 10.4428 2.90537 10.0227 3.66406L2.28244 17.6475C1.46613 19.1224 2.57133 21 4.25705 21H19.7385C21.4242 21 22.5294 19.1224 21.7131 17.6475L13.9719 3.66406C13.5517 2.90537 12.7745 2.52637 11.9973 2.52637ZM11.9973 3.97461C12.2516 3.97461 12.5056 4.11282 12.6594 4.39062L20.4006 18.374C20.6973 18.9101 20.3498 19.5 19.7385 19.5H4.25705C3.64578 19.5 3.29825 18.9101 3.59494 18.374L11.3352 4.39062C11.489 4.11282 11.743 3.97461 11.9973 3.97461ZM11.9856 7.98926C11.7868 7.99236 11.5974 8.07423 11.459 8.21686C11.3206 8.3595 11.2444 8.55125 11.2473 8.75V13.75C11.2459 13.8494 11.2642 13.9481 11.3013 14.0403C11.3384 14.1325 11.3934 14.2164 11.4632 14.2872C11.533 14.358 11.6161 14.4142 11.7078 14.4526C11.7995 14.4909 11.8979 14.5107 11.9973 14.5107C12.0967 14.5107 12.1951 14.4909 12.2868 14.4526C12.3785 14.4142 12.4616 14.358 12.5314 14.2872C12.6012 14.2164 12.6562 14.1325 12.6933 14.0403C12.7303 13.9481 12.7487 13.8494 12.7473 13.75V8.75C12.7487 8.64962 12.73 8.54997 12.6922 8.45695C12.6544 8.36394 12.5984 8.27946 12.5273 8.20852C12.4563 8.13758 12.3717 8.08161 12.2787 8.04395C12.1856 8.00629 12.0859 7.98769 11.9856 7.98926ZM11.9973 16C11.7321 16 11.4777 16.1054 11.2902 16.2929C11.1026 16.4804 10.9973 16.7348 10.9973 17C10.9973 17.2652 11.1026 17.5196 11.2902 17.7071C11.4777 17.8946 11.7321 18 11.9973 18C12.2625 18 12.5169 17.8946 12.7044 17.7071C12.8919 17.5196 12.9973 17.2652 12.9973 17C12.9973 16.7348 12.8919 16.4804 12.7044 16.2929C12.5169 16.1054 12.2625 16 11.9973 16Z" fill="#0D1011"/>
</g>
</svg>
