<svg width="24" height="24" viewBox="0 0 24 24" fill="none" xmlns="http://www.w3.org/2000/svg">
<g id="Hourglass ">
<path id="Vector" d="M4.74609 3.00014C4.47526 2.99493 4.22526 3.14076 4.08984 3.36993C3.94922 3.6043 3.94922 3.89597 4.08984 4.13034C4.22526 4.35951 4.47526 4.50534 4.74609 4.50014H4.99609V5.50014C4.99609 8.46368 6.88151 10.9428 9.49609 11.9585V12.0418C6.88151 13.0574 4.99609 15.5366 4.99609 18.5001V19.5001H4.74609C4.47526 19.4949 4.22526 19.6408 4.08984 19.8699C3.94922 20.1043 3.94922 20.396 4.08984 20.6303C4.22526 20.8595 4.47526 21.0053 4.74609 21.0001H19.2461C19.5169 21.0053 19.7669 20.8595 19.9023 20.6303C20.043 20.396 20.043 20.1043 19.9023 19.8699C19.7669 19.6408 19.5169 19.4949 19.2461 19.5001H18.9961V18.5001C18.9961 15.5366 17.1107 13.0574 14.4961 12.0418V11.9585C17.1107 10.9428 18.9961 8.46368 18.9961 5.50014V4.50014H19.2461C19.5169 4.50534 19.7669 4.35951 19.9023 4.13034C20.043 3.89597 20.043 3.6043 19.9023 3.36993C19.7669 3.14076 19.5169 2.99493 19.2461 3.00014H4.74609ZM6.49609 4.50014H17.4961V5.50014C17.4961 8.01055 15.819 10.1095 13.5378 10.7762C13.2148 10.8699 12.9961 11.1616 12.9961 11.4949V12.5053C12.9961 12.8387 13.2148 13.1303 13.5378 13.2241C15.819 13.8908 17.4961 15.9897 17.4961 18.5001V19.5001H15.6732C15.3242 17.7866 13.8086 16.5001 11.9961 16.5001C10.1836 16.5001 8.66797 17.7866 8.31901 19.5001H6.49609V18.5001C6.49609 15.9897 8.17318 13.8908 10.4544 13.2241C10.7773 13.1303 10.9961 12.8387 10.9961 12.5053V11.4949C10.9961 11.1616 10.7773 10.8699 10.4544 10.7762C8.17318 10.1095 6.49609 8.01055 6.49609 5.50014V4.50014ZM9.99609 8.00014C9.99609 9.1043 10.8919 10.0001 11.9961 10.0001C13.1003 10.0001 13.9961 9.1043 13.9961 8.00014H9.99609Z" fill="#0D1011"/>
</g>
</svg>
