<svg width="24" height="24" viewBox="0 0 24 24" fill="none" xmlns="http://www.w3.org/2000/svg">
<g id="search ">
<path id="Vector" d="M11.1507 3C6.65919 3 3 6.65919 3 11.1507C3 15.6422 6.65919 19.3014 11.1507 19.3014C13.0936 19.3014 14.8797 18.6151 16.2822 17.4746L19.5485 20.7408C19.6262 20.8217 19.7192 20.8863 19.8222 20.9308C19.9252 20.9753 20.036 20.9988 20.1482 21C20.2603 21.0011 20.3716 20.9798 20.4755 20.9374C20.5793 20.895 20.6737 20.8323 20.753 20.753C20.8323 20.6737 20.895 20.5793 20.9374 20.4755C20.9798 20.3716 21.0011 20.2603 21 20.1482C20.9988 20.036 20.9753 19.9252 20.9308 19.8222C20.8863 19.7192 20.8217 19.6262 20.7408 19.5485L17.4746 16.2822C18.6151 14.8797 19.3014 13.0936 19.3014 11.1507C19.3014 6.65919 15.6423 3 11.1507 3ZM11.1507 4.68636C14.7309 4.68636 17.6151 7.57056 17.6151 11.1507C17.6151 12.8948 16.9272 14.4704 15.8113 15.6312C15.7425 15.6818 15.6818 15.7425 15.6312 15.8113C14.4704 16.9272 12.8948 17.6151 11.1507 17.6151C7.57056 17.6151 4.68636 14.7309 4.68636 11.1507C4.68636 7.57056 7.57056 4.68636 11.1507 4.68636Z" fill="#0D1011"/>
</g>
</svg>
