<svg width="24" height="24" viewBox="0 0 24 24" fill="none" xmlns="http://www.w3.org/2000/svg">
<g id="success_fill">
<path id="Vector" d="M12 2C6.48698 2 2 6.48698 2 12C2 17.513 6.48698 22 12 22C17.513 22 22 17.513 22 12C22 6.48698 17.513 2 12 2ZM16.2812 10.2812L11.2812 15.2812C11.1328 15.4271 10.9427 15.5 10.75 15.5C10.5573 15.5 10.3672 15.4271 10.2188 15.2812L7.71875 12.7812C7.42708 12.487 7.42708 12.013 7.71875 11.7188C8.01302 11.4271 8.48698 11.4271 8.78125 11.7188L10.75 13.6901L15.2188 9.21875C15.513 8.92708 15.987 8.92708 16.2786 9.21875C16.5729 9.51302 16.5729 9.98698 16.2812 10.2812Z" fill="#0D1011"/>
</g>
</svg>
