<svg width="10" height="10" viewBox="0 0 10 10" fill="none" xmlns="http://www.w3.org/2000/svg">
<path d="M9.10687 0.332207C8.96415 0.335061 8.8243 0.397854 8.7244 0.500606L5.00247 4.22251L1.28054 0.500606C1.17778 0.395 1.03507 0.335061 0.886652 0.335061C0.664021 0.335061 0.464224 0.472064 0.378597 0.677568C0.295824 0.883072 0.344346 1.11997 0.504183 1.27695L4.22611 4.99886L0.504183 8.72077C0.361472 8.85777 0.304386 9.06328 0.352909 9.25451C0.404285 9.44574 0.555559 9.59702 0.746794 9.64839C0.938028 9.69692 1.14353 9.63983 1.28054 9.49712L5.00247 5.77521L8.7244 9.49712C8.8614 9.63983 9.06691 9.69692 9.25814 9.64839C9.44937 9.59702 9.60065 9.44574 9.65203 9.25451C9.70055 9.06328 9.64346 8.85777 9.50075 8.72077L5.77882 4.99886L9.50075 1.27695C9.66344 1.11997 9.71482 0.880217 9.62634 0.669005C9.54071 0.460646 9.33521 0.326498 9.10687 0.332207Z" fill="#29333A"/>
</svg>
