<svg xmlns="http://www.w3.org/2000/svg" width="101" height="100" fill="none" viewBox="0 0 101 100">
  <mask id="a" width="101" height="100" x="0" y="0" maskUnits="userSpaceOnUse" style="mask-type:alpha">
    <path fill="#D9D9D9" d="M.5 0h100v100H.5z"/>
  </mask>
  <g mask="url(#a)">
    <path fill="#FAD4DA" d="M50.5 54.166c1.181 0 2.172-.4 2.971-1.2.798-.797 1.196-1.786 1.196-2.966V33.229c0-1.18-.398-2.153-1.196-2.917-.8-.764-1.79-1.146-2.97-1.146-1.18 0-2.17.399-2.967 1.196-.8.8-1.2 1.79-1.2 2.971v16.77c0 1.181.4 2.154 1.2 2.917.797.764 1.786 1.146 2.967 1.146Zm0 16.667c1.181 0 2.172-.4 2.971-1.2.798-.797 1.196-1.786 1.196-2.967 0-1.18-.398-2.17-1.196-2.97-.8-.798-1.79-1.196-2.97-1.196-1.18 0-2.17.398-2.967 1.196-.8.8-1.2 1.79-1.2 2.97 0 1.18.4 2.17 1.2 2.967.797.8 1.786 1.2 2.967 1.2Zm0 20.833c-5.763 0-11.18-1.094-16.25-3.283-5.069-2.186-9.479-5.154-13.229-8.904s-6.718-8.16-8.904-13.23C9.928 61.18 8.834 55.765 8.834 50c0-5.763 1.094-11.18 3.283-16.25 2.186-5.069 5.154-9.479 8.904-13.229s8.16-6.719 13.23-8.908c5.07-2.186 10.486-3.279 16.25-3.279 5.764 0 11.18 1.093 16.25 3.28C71.82 13.8 76.23 16.77 79.98 20.52s6.718 8.16 8.904 13.23c2.189 5.07 3.283 10.486 3.283 16.25 0 5.764-1.094 11.18-3.283 16.25-2.186 5.07-5.154 9.479-8.904 13.229s-8.16 6.718-13.23 8.904c-5.069 2.189-10.486 3.283-16.25 3.283Zm0-8.333c9.237 0 17.102-3.246 23.597-9.737C80.588 67.1 83.834 59.236 83.834 50s-3.246-17.102-9.737-23.596c-6.495-6.492-14.36-9.738-23.596-9.738s-17.1 3.246-23.592 9.738c-6.494 6.494-9.742 14.36-9.742 23.596s3.247 17.1 9.743 23.596c6.492 6.491 14.355 9.737 23.592 9.737Z"/>
  </g>
</svg>
