<svg xmlns="http://www.w3.org/2000/svg" width="101" height="101" fill="none" viewBox="0 0 101 101">
  <mask id="a" width="101" height="101" x="0" y="0" maskUnits="userSpaceOnUse" style="mask-type:alpha">
    <path fill="#D9D9D9" d="M.5.5h100v100H.5z"/>
  </mask>
  <g mask="url(#a)">
    <path fill="#FAD4DA" d="M33.834 83.833h33.333v-12.5c0-4.583-1.632-8.507-4.896-11.77-3.264-3.265-7.187-4.897-11.77-4.897-4.584 0-8.508 1.632-11.771 4.896-3.264 3.264-4.896 7.188-4.896 11.771v12.5Zm16.666-37.5c4.584 0 8.507-1.632 11.771-4.896 3.264-3.264 4.896-7.187 4.896-11.77v-12.5H33.834v12.5c0 4.583 1.632 8.506 4.895 11.77 3.264 3.264 7.188 4.896 11.771 4.896Zm29.167 45.833H21.334c-1.18 0-2.171-.4-2.971-1.2-.797-.797-1.196-1.786-1.196-2.966 0-1.18.399-2.17 1.196-2.967.8-.8 1.79-1.2 2.97-1.2H25.5v-12.5c0-4.236.99-8.212 2.971-11.93 1.978-3.713 4.738-6.681 8.28-8.903-3.542-2.222-6.302-5.192-8.28-8.909-1.98-3.714-2.97-7.688-2.97-11.925v-12.5h-4.167c-1.18 0-2.171-.4-2.971-1.2-.797-.797-1.196-1.786-1.196-2.966 0-1.18.399-2.171 1.196-2.971.8-.797 1.79-1.196 2.97-1.196h58.334c1.18 0 2.17.399 2.967 1.196.8.8 1.2 1.79 1.2 2.97 0 1.181-.4 2.17-1.2 2.967-.798.8-1.786 1.2-2.967 1.2H75.5v12.5c0 4.237-.989 8.211-2.966 11.925-1.98 3.717-4.742 6.687-8.284 8.909 3.542 2.222 6.303 5.19 8.284 8.904C74.51 63.12 75.5 67.097 75.5 71.333v12.5h4.167c1.18 0 2.17.4 2.967 1.2.8.797 1.2 1.786 1.2 2.967 0 1.18-.4 2.17-1.2 2.966-.798.8-1.786 1.2-2.967 1.2Z"/>
  </g>
</svg>
