<svg width="24" height="24" viewBox="0 0 24 24" fill="none" xmlns="http://www.w3.org/2000/svg">
<path d="M11.9896 1.98851C11.5729 1.99372 11.2448 2.33747 11.25 2.74893V5.24893C11.2448 5.51976 11.3906 5.76976 11.6198 5.90518C11.8542 6.0458 12.1458 6.0458 12.3802 5.90518C12.6094 5.76976 12.7552 5.51976 12.75 5.24893V2.74893C12.7552 2.5458 12.6719 2.35309 12.5312 2.20726C12.3854 2.06664 12.1927 1.9833 11.9896 1.98851ZM7.33854 3.22809C7.07812 3.23851 6.83854 3.38955 6.70833 3.61872C6.58333 3.8531 6.58854 4.13434 6.72396 4.36351L7.97396 6.53018C8.10417 6.76455 8.35417 6.9156 8.63021 6.9156C8.90104 6.9208 9.15104 6.77497 9.28646 6.53539C9.42187 6.30101 9.41667 6.00935 9.27604 5.78018L8.02604 3.61351C7.88541 3.36872 7.625 3.21768 7.33854 3.22809ZM16.6354 3.22809C16.3646 3.22809 16.1094 3.37393 15.974 3.61351L14.724 5.78018C14.5833 6.00935 14.5781 6.30101 14.7135 6.53539C14.849 6.77497 15.099 6.9208 15.3698 6.9156C15.6458 6.9156 15.8958 6.76455 16.026 6.53018L17.276 4.36351C17.4115 4.13434 17.4167 3.84789 17.2812 3.61351C17.151 3.37914 16.9062 3.2333 16.6354 3.22809ZM4.01042 6.61872C3.66146 6.6083 3.35417 6.83226 3.26042 7.1656C3.16667 7.49893 3.3125 7.8531 3.61458 8.02497L5.78125 9.27497C6.01042 9.4156 6.30208 9.42081 6.53646 9.28539C6.77604 9.14997 6.92187 8.89997 6.91667 8.62914C6.91667 8.3531 6.76562 8.1031 6.53125 7.97289L4.36458 6.72289C4.25521 6.66039 4.13542 6.62393 4.01042 6.61872ZM20.0417 6.61872C19.901 6.61351 19.7604 6.64997 19.6354 6.72289L17.4687 7.97289C17.2344 8.1031 17.0833 8.3531 17.0833 8.62914C17.0781 8.89997 17.224 9.14997 17.4635 9.28539C17.6979 9.42081 17.9896 9.4156 18.2187 9.27497L20.3854 8.02497C20.6823 7.8583 20.8281 7.51976 20.75 7.19164C20.6667 6.86351 20.3802 6.62914 20.0417 6.61872ZM2.75 11.2489C2.47917 11.2437 2.22917 11.3896 2.09375 11.6187C1.95313 11.8531 1.95313 12.1448 2.09375 12.3791C2.22917 12.6083 2.47917 12.7541 2.75 12.7489H5.25C5.52083 12.7541 5.77083 12.6083 5.90625 12.3791C6.04687 12.1448 6.04687 11.8531 5.90625 11.6187C5.77083 11.3896 5.52083 11.2437 5.25 11.2489H2.75ZM18.75 11.2489C18.4792 11.2437 18.2292 11.3896 18.0937 11.6187C17.9531 11.8531 17.9531 12.1448 18.0937 12.3791C18.2292 12.6083 18.4792 12.7541 18.75 12.7489H21.25C21.5208 12.7541 21.7708 12.6083 21.9062 12.3791C22.0469 12.1448 22.0469 11.8531 21.9062 11.6187C21.7708 11.3896 21.5208 11.2437 21.25 11.2489H18.75ZM6.1875 14.6187C6.04167 14.6135 5.90104 14.65 5.78125 14.7229L3.61458 15.9729C3.375 16.1031 3.22917 16.3531 3.22396 16.6291C3.22396 16.9 3.36979 17.15 3.60417 17.2854C3.84375 17.4208 4.13021 17.4156 4.36458 17.275L6.53125 16.025C6.82292 15.8583 6.97396 15.5198 6.89062 15.1916C6.8125 14.8635 6.52604 14.6291 6.1875 14.6187ZM17.8646 14.6187C17.5156 14.6083 17.2083 14.8323 17.1146 15.1656C17.0208 15.4989 17.1667 15.8531 17.4687 16.025L19.6354 17.275C19.8698 17.4156 20.1562 17.4208 20.3958 17.2854C20.6302 17.15 20.776 16.9 20.776 16.6291C20.7708 16.3531 20.625 16.1031 20.3854 15.9729L18.2187 14.7229C18.1146 14.6604 17.9896 14.6239 17.8646 14.6187ZM8.63542 17.0823C8.36458 17.0823 8.10937 17.2281 7.97396 17.4677L6.72396 19.6343C6.58333 19.8687 6.57812 20.1552 6.71354 20.3948C6.84896 20.6291 7.09896 20.775 7.36979 20.775C7.64583 20.7698 7.89583 20.6239 8.02604 20.3843L9.27604 18.2177C9.41146 17.9885 9.41667 17.7021 9.28646 17.4677C9.15104 17.2333 8.90625 17.0875 8.63542 17.0823ZM15.3385 17.0875C15.0781 17.0979 14.8385 17.2437 14.7083 17.4781C14.5833 17.7125 14.5885 17.9937 14.724 18.2177L15.974 20.3843C16.1042 20.6239 16.3542 20.7698 16.6302 20.775C16.901 20.775 17.151 20.6291 17.2865 20.3948C17.4219 20.1552 17.4167 19.8687 17.276 19.6343L16.026 17.4677C15.8854 17.2229 15.625 17.0771 15.3385 17.0875ZM11.9896 17.9885C11.5729 17.9937 11.2448 18.3375 11.25 18.7489V21.2489C11.2448 21.5198 11.3906 21.7698 11.6198 21.9052C11.8542 22.0458 12.1458 22.0458 12.3802 21.9052C12.6094 21.7698 12.7552 21.5198 12.75 21.2489V18.7489C12.7552 18.5458 12.6719 18.3531 12.5312 18.2073C12.3854 18.0666 12.1927 17.9833 11.9896 17.9885Z" fill="#475664"/>
</svg>
