<svg width="24" height="24" viewBox="0 0 24 24" fill="none" xmlns="http://www.w3.org/2000/svg">
<g id="warning_fill">
<path id="Vector" d="M22 12C22 17.513 17.513 22 12 22C6.48698 22 2 17.513 2 12C2 6.48698 6.48698 2 12 2C17.513 2 22 6.48698 22 12ZM12 15C11.4479 15 11 15.4479 11 16C11 16.5521 11.4479 17 12 17C12.5521 17 13 16.5521 13 16C13 15.4479 12.5521 15 12 15ZM12.75 12.75V7.75C12.75 7.33594 12.4141 7 12 7C11.5859 7 11.25 7.33594 11.25 7.75V12.75C11.25 13.1641 11.5859 13.5 12 13.5C12.4141 13.5 12.75 13.1641 12.75 12.75Z" fill="#0D1011"/>
</g>
</svg>
