<svg width="24" height="24" viewBox="0 0 24 24" fill="none" xmlns="http://www.w3.org/2000/svg">
<g id="add">
<path id="Vector" d="M11.9857 2.48949C11.569 2.4947 11.2409 2.83845 11.2461 3.2499V11.2499H3.24609C2.97526 11.2447 2.72526 11.3905 2.58984 11.6197C2.44922 11.8541 2.44922 12.1457 2.58984 12.3801C2.72526 12.6093 2.97526 12.7551 3.24609 12.7499H11.2461V20.7499C11.2409 21.0207 11.3867 21.2707 11.6159 21.4062C11.8503 21.5468 12.1419 21.5468 12.3763 21.4062C12.6055 21.2707 12.7513 21.0207 12.7461 20.7499V12.7499H20.7461C21.0169 12.7551 21.2669 12.6093 21.4023 12.3801C21.543 12.1457 21.543 11.8541 21.4023 11.6197C21.2669 11.3905 21.0169 11.2447 20.7461 11.2499H12.7461V3.2499C12.7513 3.04678 12.668 2.85407 12.5273 2.70824C12.3815 2.56761 12.1888 2.48428 11.9857 2.48949Z" fill="#0D1011"/>
</g>
</svg>
