<svg width="24" height="24" viewBox="0 0 24 24" fill="none" xmlns="http://www.w3.org/2000/svg">
<g id="add_image ">
<path id="Vector" d="M5.75 3C4.235 3 3 4.235 3 5.75V18.25C3 19.765 4.235 21 5.75 21H12.0254C11.7304 20.535 11.4903 20.035 11.3203 19.5H5.75C5.7 19.5 5.64961 19.4952 5.59961 19.4902H5.59766L11.6348 13.6445C11.8098 13.4795 12.1047 13.4596 12.3047 13.5996C12.6047 13.1996 12.9548 12.8299 13.3398 12.5049C12.5798 11.8349 11.3297 11.8554 10.5947 12.5654L4.51465 18.4473V18.4453C4.50465 18.3803 4.5 18.315 4.5 18.25V5.75C4.5 5.06 5.06 4.5 5.75 4.5H18.25C18.94 4.5 19.5 5.06 19.5 5.75V11.3203C20.035 11.4903 20.535 11.7304 21 12.0254V5.75C21 4.235 19.765 3 18.25 3H5.75ZM15.25 6.5C14.5625 6.5 13.9519 6.78482 13.5645 7.2207C13.177 7.65659 13 8.20833 13 8.75C13 9.29167 13.177 9.84341 13.5645 10.2793C13.9519 10.7152 14.5625 11 15.25 11C15.9375 11 16.5481 10.7152 16.9355 10.2793C17.323 9.84341 17.5 9.29167 17.5 8.75C17.5 8.20833 17.323 7.65659 16.9355 7.2207C16.5481 6.78482 15.9375 6.5 15.25 6.5ZM15.25 8C15.5625 8 15.7019 8.09018 15.8145 8.2168C15.927 8.34341 16 8.54167 16 8.75C16 8.95833 15.927 9.15659 15.8145 9.2832C15.7019 9.40982 15.5625 9.5 15.25 9.5C14.9375 9.5 14.7981 9.40982 14.6855 9.2832C14.573 9.15659 14.5 8.95833 14.5 8.75C14.5 8.54167 14.573 8.34341 14.6855 8.2168C14.7981 8.09018 14.9375 8 15.25 8ZM17.5 12C14.4625 12 12 14.4625 12 17.5C12 20.5375 14.4625 23 17.5 23C20.5375 23 23 20.5375 23 17.5C23 14.4625 20.5375 12 17.5 12ZM17.5 13.5C17.776 13.5 18 13.724 18 14V17H21C21.276 17 21.5 17.224 21.5 17.5C21.5 17.776 21.276 18 21 18H18V21C18 21.276 17.776 21.5 17.5 21.5C17.224 21.5 17 21.276 17 21V18H14C13.724 18 13.5 17.776 13.5 17.5C13.5 17.224 13.724 17 14 17H17V14C17 13.724 17.224 13.5 17.5 13.5Z" fill="#0D1011"/>
</g>
</svg>
