<svg width="24" height="24" viewBox="0 0 24 24" fill="none" xmlns="http://www.w3.org/2000/svg">
<g id="add_camera">
<path id="Vector" d="M10.237 2.5C9.4375 2.5 8.69531 2.92708 8.29427 3.61719L7.19531 5.5H5.25C3.46354 5.5 2 6.96354 2 8.75V18.25C2 20.0365 3.46354 21.5 5.25 21.5H18.75C20.5365 21.5 22 20.0365 22 18.25V8.75C22 6.96354 20.5365 5.5 18.75 5.5H16.8047L15.7057 3.61719C15.3047 2.92708 14.5625 2.5 13.763 2.5H10.237ZM10.237 4H13.763C14.0313 4 14.276 4.14063 14.4115 4.3724L15.7266 6.6276C15.862 6.85938 16.1094 7 16.375 7H18.75C19.724 7 20.5 7.77604 20.5 8.75V18.25C20.5 19.224 19.724 20 18.75 20H5.25C4.27604 20 3.5 19.224 3.5 18.25V8.75C3.5 7.77604 4.27604 7 5.25 7H7.625C7.89063 7 8.13802 6.85938 8.27344 6.6276L9.58854 4.3724C9.72396 4.14063 9.96875 4 10.237 4ZM11.987 8.48958C11.5755 8.49479 11.2448 8.83594 11.25 9.25V12.25H8.25C7.97917 12.2474 7.72917 12.388 7.59115 12.6224C7.45573 12.8568 7.45573 13.1432 7.59115 13.3776C7.72917 13.612 7.97917 13.7526 8.25 13.75H11.25V16.75C11.2474 17.0208 11.388 17.2708 11.6224 17.4089C11.8568 17.5443 12.1432 17.5443 12.3776 17.4089C12.612 17.2708 12.7526 17.0208 12.75 16.75V13.75H15.75C16.0208 13.7526 16.2708 13.612 16.4089 13.3776C16.5443 13.1432 16.5443 12.8568 16.4089 12.6224C16.2708 12.388 16.0208 12.2474 15.75 12.25H12.75V9.25C12.7526 9.04688 12.6745 8.85156 12.5312 8.70833C12.3854 8.5651 12.1901 8.48698 11.987 8.48958Z" fill="#0D1011"/>
</g>
</svg>
