<svg width="24" height="24" viewBox="0 0 24 24" fill="none" xmlns="http://www.w3.org/2000/svg">
<g id="alarm_clock ">
<path id="Vector" d="M5.40446 0.894689C5.26112 0.896004 5.12115 0.938366 5.00114 1.01676C3.40533 2.02744 2.02939 3.40338 1.01872 4.99918C0.962669 5.08234 0.923864 5.17589 0.904598 5.2743C0.885332 5.37271 0.885995 5.47399 0.906549 5.57214C0.927102 5.67029 0.967129 5.76333 1.02426 5.84574C1.08139 5.92815 1.15447 5.99828 1.23917 6.05196C1.32388 6.10564 1.41848 6.14179 1.5174 6.15828C1.61632 6.17476 1.71753 6.17124 1.81507 6.14793C1.9126 6.12462 2.00447 6.08199 2.08524 6.02256C2.16601 5.96312 2.23404 5.8881 2.28532 5.80192C3.17464 4.39772 4.39968 3.17269 5.80387 2.28336C5.94333 2.19745 6.05084 2.06825 6.10996 1.91549C6.16909 1.76273 6.17658 1.59482 6.13131 1.43741C6.08603 1.27999 5.99047 1.14172 5.85922 1.04372C5.72797 0.945722 5.56825 0.893379 5.40446 0.894689ZM18.5773 0.894689C18.4154 0.89819 18.259 0.953983 18.1315 1.05373C18.0039 1.15348 17.9121 1.29182 17.8696 1.44809C17.8272 1.60436 17.8365 1.77016 17.8961 1.92071C17.9557 2.07126 18.0625 2.19849 18.2004 2.28336C19.6046 3.17269 20.8296 4.39772 21.7189 5.80192C21.7702 5.8881 21.8382 5.96312 21.919 6.02256C21.9998 6.08199 22.0916 6.12462 22.1892 6.14793C22.2867 6.17124 22.3879 6.17476 22.4868 6.15828C22.5857 6.14179 22.6804 6.10564 22.7651 6.05196C22.8498 5.99828 22.9228 5.92815 22.98 5.84574C23.0371 5.76333 23.0771 5.67029 23.0977 5.57214C23.1182 5.47399 23.1189 5.37271 23.0996 5.2743C23.0804 5.17589 23.0416 5.08234 22.9855 4.99918C21.9748 3.40338 20.5989 2.02744 19.0031 1.01676C18.8767 0.934136 18.7283 0.891591 18.5773 0.894689ZM12.0021 2.00016C6.48815 2.00016 2.00211 6.4862 2.00211 12.0002C2.00211 14.9958 3.33324 17.6805 5.42692 19.5148L4.22184 20.7199C4.14986 20.789 4.0924 20.8718 4.05281 20.9634C4.01322 21.055 3.99231 21.1535 3.9913 21.2533C3.99028 21.3531 4.00919 21.4521 4.0469 21.5445C4.08462 21.6368 4.14039 21.7208 4.21095 21.7913C4.28151 21.8619 4.36543 21.9177 4.45782 21.9554C4.5502 21.9931 4.64918 22.012 4.74896 22.011C4.84874 22.01 4.94731 21.989 5.03891 21.9495C5.1305 21.9099 5.21328 21.8524 5.28239 21.7804L6.63786 20.425C8.19007 21.4169 10.0274 22.0002 12.0021 22.0002C13.9769 22.0002 15.8142 21.4169 17.3664 20.425L18.7218 21.7804C18.791 21.8524 18.8737 21.9099 18.9653 21.9495C19.0569 21.989 19.1555 22.01 19.2553 22.011C19.3551 22.012 19.454 21.9931 19.5464 21.9554C19.6388 21.9177 19.7227 21.8619 19.7933 21.7913C19.8638 21.7208 19.9196 21.6368 19.9573 21.5445C19.995 21.4521 20.0139 21.3531 20.0129 21.2533C20.0119 21.1535 19.991 21.055 19.9514 20.9634C19.9118 20.8718 19.8544 20.789 19.7824 20.7199L18.5773 19.5148C20.671 17.6805 22.0021 14.9958 22.0021 12.0002C22.0021 6.4862 17.5161 2.00016 12.0021 2.00016ZM12.0021 3.50016C16.7054 3.50016 20.5021 7.29685 20.5021 12.0002C20.5021 16.7035 16.7054 20.5002 12.0021 20.5002C7.29881 20.5002 3.50211 16.7035 3.50211 12.0002C3.50211 7.29685 7.29881 3.50016 12.0021 3.50016ZM11.7404 5.98942C11.5417 5.99252 11.3523 6.07438 11.2138 6.21702C11.0754 6.35966 10.9993 6.55141 11.0021 6.75016V12.7502C11.0021 12.9491 11.0812 13.1398 11.2218 13.2805C11.3625 13.4211 11.5532 13.5001 11.7521 13.5002H15.7521C15.8515 13.5016 15.9502 13.4832 16.0424 13.4461C16.1346 13.4091 16.2186 13.3541 16.2893 13.2843C16.3601 13.2145 16.4163 13.1313 16.4547 13.0396C16.493 12.948 16.5128 12.8496 16.5128 12.7502C16.5128 12.6508 16.493 12.5524 16.4547 12.4607C16.4163 12.369 16.3601 12.2858 16.2893 12.216C16.2186 12.1463 16.1346 12.0912 16.0424 12.0542C15.9502 12.0171 15.8515 11.9988 15.7521 12.0002H12.5021V6.75016C12.5036 6.64978 12.4848 6.55012 12.447 6.45711C12.4093 6.3641 12.3532 6.27962 12.2822 6.20868C12.2111 6.13773 12.1266 6.08177 12.0335 6.04411C11.9405 6.00645 11.8408 5.98785 11.7404 5.98942Z" fill="#0D1011"/>
</g>
</svg>
