<svg width="24" height="24" viewBox="0 0 24 24" fill="none" xmlns="http://www.w3.org/2000/svg">
<g id="align_justify ">
<path id="Vector" d="M2.75287 5.00008C2.65349 4.99867 2.55481 5.01703 2.46259 5.05409C2.37036 5.09115 2.28642 5.14617 2.21564 5.21595C2.14487 5.28574 2.08866 5.36889 2.0503 5.46059C2.01194 5.55228 1.99219 5.65068 1.99219 5.75007C1.99219 5.84947 2.01194 5.94787 2.0503 6.03956C2.08866 6.13126 2.14487 6.21441 2.21564 6.2842C2.28642 6.35398 2.37036 6.409 2.46259 6.44606C2.55481 6.48312 2.65349 6.50148 2.75287 6.50007H21.2529C21.3523 6.50148 21.4509 6.48312 21.5432 6.44606C21.6354 6.409 21.7193 6.35398 21.7901 6.2842C21.8609 6.21441 21.9171 6.13126 21.9554 6.03956C21.9938 5.94787 22.0135 5.84947 22.0135 5.75007C22.0135 5.65068 21.9938 5.55228 21.9554 5.46059C21.9171 5.36889 21.8609 5.28574 21.7901 5.21595C21.7193 5.14617 21.6354 5.09115 21.5432 5.05409C21.4509 5.01703 21.3523 4.99867 21.2529 5.00008H2.75287ZM2.75287 11.5001C2.65349 11.4987 2.55481 11.517 2.46259 11.5541C2.37036 11.5912 2.28642 11.6462 2.21564 11.716C2.14487 11.7857 2.08866 11.8689 2.0503 11.9606C2.01194 12.0523 1.99219 12.1507 1.99219 12.2501C1.99219 12.3495 2.01194 12.4479 2.0503 12.5396C2.08866 12.6313 2.14487 12.7144 2.21564 12.7842C2.28642 12.854 2.37036 12.909 2.46259 12.9461C2.55481 12.9831 2.65349 13.0015 2.75287 13.0001H21.2529C21.3523 13.0015 21.4509 12.9831 21.5432 12.9461C21.6354 12.909 21.7193 12.854 21.7901 12.7842C21.8609 12.7144 21.9171 12.6313 21.9554 12.5396C21.9938 12.4479 22.0135 12.3495 22.0135 12.2501C22.0135 12.1507 21.9938 12.0523 21.9554 11.9606C21.9171 11.8689 21.8609 11.7857 21.7901 11.716C21.7193 11.6462 21.6354 11.5912 21.5432 11.5541C21.4509 11.517 21.3523 11.4987 21.2529 11.5001H2.75287ZM2.75287 18.0001C2.65349 17.9987 2.55481 18.017 2.46259 18.0541C2.37036 18.0912 2.28642 18.1462 2.21564 18.216C2.14487 18.2857 2.08866 18.3689 2.0503 18.4606C2.01194 18.5523 1.99219 18.6507 1.99219 18.7501C1.99219 18.8495 2.01194 18.9479 2.0503 19.0396C2.08866 19.1313 2.14487 19.2144 2.21564 19.2842C2.28642 19.354 2.37036 19.409 2.46259 19.4461C2.55481 19.4831 2.65349 19.5015 2.75287 19.5001H21.2529C21.3523 19.5015 21.4509 19.4831 21.5432 19.4461C21.6354 19.409 21.7193 19.354 21.7901 19.2842C21.8609 19.2144 21.9171 19.1313 21.9554 19.0396C21.9938 18.9479 22.0135 18.8495 22.0135 18.7501C22.0135 18.6507 21.9938 18.5523 21.9554 18.4606C21.9171 18.3689 21.8609 18.2857 21.7901 18.216C21.7193 18.1462 21.6354 18.0912 21.5432 18.0541C21.4509 18.017 21.3523 17.9987 21.2529 18.0001H2.75287Z" fill="#0D1011"/>
</g>
</svg>
