<svg width="24" height="24" viewBox="0 0 24 24" fill="none" xmlns="http://www.w3.org/2000/svg">
<g id="ascending_sorting ">
<path id="Vector" d="M3.75287 3.50008C3.65349 3.49867 3.55481 3.51703 3.46259 3.55409C3.37036 3.59115 3.28642 3.64617 3.21564 3.71595C3.14487 3.78574 3.08866 3.86889 3.0503 3.96059C3.01194 4.05228 2.99219 4.15068 2.99219 4.25007C2.99219 4.34947 3.01194 4.44787 3.0503 4.53956C3.08866 4.63126 3.14487 4.71441 3.21564 4.7842C3.28642 4.85398 3.37036 4.909 3.46259 4.94606C3.55481 4.98312 3.65349 5.00148 3.75287 5.00007H13.2529C13.3523 5.00148 13.4509 4.98312 13.5432 4.94606C13.6354 4.909 13.7193 4.85398 13.7901 4.7842C13.8609 4.71441 13.9171 4.63126 13.9554 4.53956C13.9938 4.44787 14.0136 4.34947 14.0136 4.25007C14.0136 4.15068 13.9938 4.05228 13.9554 3.96059C13.9171 3.86889 13.8609 3.78574 13.7901 3.71595C13.7193 3.64617 13.6354 3.59115 13.5432 3.55409C13.4509 3.51703 13.3523 3.49867 13.2529 3.50008H3.75287ZM16.7421 6.75008C16.547 6.75293 16.3606 6.83175 16.2226 6.9698L12.7226 10.4698C12.6506 10.5389 12.5932 10.6217 12.5536 10.7133C12.514 10.8049 12.4931 10.9035 12.4921 11.0032C12.491 11.103 12.5099 11.202 12.5477 11.2944C12.5854 11.3868 12.6411 11.4707 12.7117 11.5412C12.7823 11.6118 12.8662 11.6676 12.9586 11.7053C13.051 11.743 13.1499 11.7619 13.2497 11.7609C13.3495 11.7599 13.4481 11.739 13.5397 11.6994C13.6313 11.6598 13.714 11.6023 13.7831 11.5303L16.0029 9.31062V20.2501C16.0015 20.3495 16.0198 20.4481 16.0569 20.5404C16.0939 20.6326 16.149 20.7165 16.2187 20.7873C16.2885 20.8581 16.3717 20.9143 16.4634 20.9526C16.5551 20.991 16.6535 21.0108 16.7529 21.0108C16.8523 21.0108 16.9507 20.991 17.0424 20.9526C17.1341 20.9143 17.2172 20.8581 17.287 20.7873C17.3568 20.7165 17.4118 20.6326 17.4489 20.5404C17.4859 20.4481 17.5043 20.3495 17.5029 20.2501V9.31062L19.7226 11.5303C19.7917 11.6023 19.8745 11.6598 19.9661 11.6994C20.0577 11.739 20.1562 11.7599 20.256 11.7609C20.3558 11.7619 20.4548 11.743 20.5472 11.7053C20.6395 11.6676 20.7235 11.6118 20.794 11.5412C20.8646 11.4707 20.9204 11.3868 20.9581 11.2944C20.9958 11.202 21.0147 11.103 21.0137 11.0032C21.0127 10.9035 20.9918 10.8049 20.9522 10.7133C20.9126 10.6217 20.8551 10.5389 20.7831 10.4698L17.2831 6.9698C17.2122 6.89887 17.1278 6.84287 17.0349 6.80513C16.942 6.76739 16.8424 6.74867 16.7421 6.75008ZM3.75287 7.50007C3.65349 7.49867 3.55481 7.51703 3.46259 7.55409C3.37036 7.59115 3.28642 7.64617 3.21564 7.71595C3.14487 7.78574 3.08866 7.86889 3.0503 7.96059C3.01194 8.05228 2.99219 8.15068 2.99219 8.25007C2.99219 8.34947 3.01194 8.44787 3.0503 8.53956C3.08866 8.63126 3.14487 8.71441 3.21564 8.78419C3.28642 8.85398 3.37036 8.909 3.46259 8.94606C3.55481 8.98312 3.65349 9.00148 3.75287 9.00007H11.2529C11.3523 9.00148 11.4509 8.98312 11.5432 8.94606C11.6354 8.909 11.7193 8.85398 11.7901 8.78419C11.8609 8.71441 11.9171 8.63126 11.9554 8.53956C11.9938 8.44787 12.0136 8.34947 12.0136 8.25007C12.0136 8.15068 11.9938 8.05228 11.9554 7.96059C11.9171 7.86889 11.8609 7.78574 11.7901 7.71595C11.7193 7.64617 11.6354 7.59115 11.5432 7.55409C11.4509 7.51703 11.3523 7.49867 11.2529 7.50007H3.75287ZM3.75287 11.5001C3.65349 11.4987 3.55481 11.517 3.46259 11.5541C3.37036 11.5912 3.28642 11.6462 3.21564 11.716C3.14487 11.7857 3.08866 11.8689 3.0503 11.9606C3.01194 12.0523 2.99219 12.1507 2.99219 12.2501C2.99219 12.3495 3.01194 12.4479 3.0503 12.5396C3.08866 12.6313 3.14487 12.7144 3.21564 12.7842C3.28642 12.854 3.37036 12.909 3.46259 12.9461C3.55481 12.9831 3.65349 13.0015 3.75287 13.0001H9.25287C9.35225 13.0015 9.45093 12.9831 9.54315 12.9461C9.63538 12.909 9.71932 12.854 9.7901 12.7842C9.86087 12.7144 9.91708 12.6313 9.95544 12.5396C9.9938 12.4479 10.0136 12.3495 10.0136 12.2501C10.0136 12.1507 9.9938 12.0523 9.95544 11.9606C9.91708 11.8689 9.86087 11.7857 9.7901 11.716C9.71932 11.6462 9.63538 11.5912 9.54315 11.5541C9.45093 11.517 9.35225 11.4987 9.25287 11.5001H3.75287ZM3.75287 15.5001C3.65349 15.4987 3.55481 15.517 3.46259 15.5541C3.37036 15.5912 3.28642 15.6462 3.21564 15.716C3.14487 15.7857 3.08866 15.8689 3.0503 15.9606C3.01194 16.0523 2.99219 16.1507 2.99219 16.2501C2.99219 16.3495 3.01194 16.4479 3.0503 16.5396C3.08866 16.6313 3.14487 16.7144 3.21564 16.7842C3.28642 16.854 3.37036 16.909 3.46259 16.9461C3.55481 16.9831 3.65349 17.0015 3.75287 17.0001H7.25287C7.35225 17.0015 7.45093 16.9831 7.54315 16.9461C7.63538 16.909 7.71932 16.854 7.7901 16.7842C7.86087 16.7144 7.91708 16.6313 7.95544 16.5396C7.9938 16.4479 8.01355 16.3495 8.01355 16.2501C8.01355 16.1507 7.9938 16.0523 7.95544 15.9606C7.91708 15.8689 7.86087 15.7857 7.7901 15.716C7.71932 15.6462 7.63538 15.5912 7.54315 15.5541C7.45093 15.517 7.35225 15.4987 7.25287 15.5001H3.75287ZM3.75287 19.5001C3.65349 19.4987 3.55481 19.517 3.46259 19.5541C3.37036 19.5912 3.28642 19.6462 3.21564 19.716C3.14487 19.7857 3.08866 19.8689 3.0503 19.9606C3.01194 20.0523 2.99219 20.1507 2.99219 20.2501C2.99219 20.3495 3.01194 20.4479 3.0503 20.5396C3.08866 20.6313 3.14487 20.7144 3.21564 20.7842C3.28642 20.854 3.37036 20.909 3.46259 20.9461C3.55481 20.9831 3.65349 21.0015 3.75287 21.0001H5.25287C5.35225 21.0015 5.45093 20.9831 5.54315 20.9461C5.63538 20.909 5.71932 20.854 5.7901 20.7842C5.86087 20.7144 5.91708 20.6313 5.95544 20.5396C5.9938 20.4479 6.01355 20.3495 6.01355 20.2501C6.01355 20.1507 5.9938 20.0523 5.95544 19.9606C5.91708 19.8689 5.86087 19.7857 5.7901 19.716C5.71932 19.6462 5.63538 19.5912 5.54315 19.5541C5.45093 19.517 5.35225 19.4987 5.25287 19.5001H3.75287Z" fill="#0D1011"/>
</g>
</svg>
