<svg width="24" height="24" viewBox="0 0 24 24" fill="none" xmlns="http://www.w3.org/2000/svg">
<g id="attach">
<path id="Vector" d="M16.2088 2.01855C14.7948 2.01855 13.3781 2.55501 12.3052 3.63053L2.21405 13.7191C2.01874 13.9092 1.94062 14.1878 2.00832 14.4508C2.07603 14.7139 2.28176 14.9196 2.54478 14.9873C2.8078 15.055 3.08645 14.9769 3.27655 14.7816L13.3651 4.69303C14.9406 3.11491 17.4771 3.11491 19.0552 4.69303C20.6307 6.26855 20.6307 8.80501 19.0552 10.3805L9.53176 19.904C8.71405 20.7217 7.41197 20.7217 6.59166 19.904C5.77395 19.0837 5.77395 17.7816 6.59166 16.9639L14.2766 9.28158C14.4719 9.09147 14.55 8.81283 14.4823 8.5498C14.4146 8.28678 14.2088 8.08106 13.9458 8.01335C13.6828 7.94564 13.4042 8.02376 13.2141 8.21908L5.53176 15.904C4.14114 17.2946 4.14114 19.5732 5.53176 20.9639C6.92239 22.3545 9.20103 22.3545 10.5917 20.9639L20.1151 11.4404C22.2661 9.29199 22.2661 5.78158 20.1151 3.63053C19.0396 2.55501 17.6229 2.01855 16.2088 2.01855Z" fill="#0D1011"/>
</g>
</svg>
