<svg width="24" height="24" viewBox="0 0 24 24" fill="none" xmlns="http://www.w3.org/2000/svg">
<g id="Baby Calendar_fill">
<path id="Vector" d="M6.25 3C4.45833 3 3 4.45833 3 6.25V7H21V6.25C21 4.45833 19.5417 3 17.75 3H6.25ZM3 8.5V11.6068C1.85156 11.9375 1 13 1 14.25V15.75C1 17.1615 1.91667 18.3698 3.18229 18.8151C3.625 20.0859 4.82813 21 6.25 21H17.75C19.5443 21 21 19.5443 21 17.75V16.987C20.4948 17.3125 19.8932 17.5 19.25 17.5H4.25C3.27604 17.5 2.5 16.724 2.5 15.75V14.25C2.5 13.5521 3.05208 13 3.75 13H14.75C15.4401 13 16 13.5599 16 14.25C16 15.2161 16.7839 16 17.75 16H19C20.1042 16 21 15.1042 21 14V8.5H3Z" fill="#0D1011"/>
</g>
</svg>
