<svg width="24" height="24" viewBox="0 0 24 24" fill="none" xmlns="http://www.w3.org/2000/svg">
<g id="Baby Calendar ">
<path id="Vector" d="M6.25 3C4.46354 3 3 4.46354 3 6.25V10.5729C3.24479 10.526 3.49479 10.5 3.75 10.5H4.5V8.5H19.5V14.25C19.5 15.224 18.724 16 17.75 16C16.776 16 16 15.224 16 14.25C16 12.7396 14.7604 11.5 13.25 11.5H3.75C2.23958 11.5 1 12.7396 1 14.25C1 16.0365 2.46354 17.5 4.25 17.5H17.75C19.5365 17.5 21 16.0365 21 14.25V6.25C21 4.46354 19.5365 3 17.75 3H6.25ZM6.25 4.5H17.75C18.724 4.5 19.5 5.27604 19.5 6.25V7H4.5V6.25C4.5 5.27604 5.27604 4.5 6.25 4.5ZM3.75 13H13.25C13.9479 13 14.5 13.5521 14.5 14.25C14.5 14.9063 14.7448 15.4844 15.0885 16H4.25C3.27604 16 2.5 15.224 2.5 14.25C2.5 13.5521 3.05208 13 3.75 13ZM21 16.9844C20.5833 17.4792 20.0573 17.8802 19.4531 18.1406C19.276 18.9167 18.5781 19.5 17.75 19.5H6.25C5.55208 19.5 4.94792 19.0885 4.66667 18.5H4.25C3.83333 18.5 3.43229 18.4375 3.05208 18.3281C3.32292 19.8438 4.65625 21 6.25 21H17.75C19.5417 21 21 19.5417 21 17.75V16.9844Z" fill="#0D1011"/>
</g>
</svg>
