<svg width="24" height="24" viewBox="0 0 24 24" fill="none" xmlns="http://www.w3.org/2000/svg">
<g id="bank">
<path id="Vector" d="M18.25 9.75H19.25C19.8021 9.75 20.25 9.30208 20.25 8.75C20.25 7.81771 19.7656 7.45312 18.9688 6.97396L12 2.75L5.19271 6.875C4.29688 7.41667 3.75 7.89062 3.75 8.9375C3.75 9.38542 4.11458 9.75 4.5625 9.75H18.25Z" stroke="#0D1011" stroke-width="1.5" stroke-miterlimit="10" stroke-linecap="round" stroke-linejoin="round"/>
<path id="Vector_2" d="M5.75 12.25V18.25L3.75 20.75H20.25L18.25 18.25V12.25" stroke="#0D1011" stroke-width="1.5" stroke-miterlimit="10" stroke-linecap="round" stroke-linejoin="round"/>
<path id="Vector_3" d="M10.75 18V13.5C10.75 12.8073 10.1927 12.25 9.5 12.25C8.80729 12.25 8.25 12.8073 8.25 13.5V18" stroke="#0D1011" stroke-width="1.5" stroke-miterlimit="10" stroke-linecap="round" stroke-linejoin="round"/>
<path id="Vector_4" d="M13.25 18V13.5C13.25 12.8073 13.8073 12.25 14.5 12.25C15.1927 12.25 15.75 12.8073 15.75 13.5V18" stroke="#0D1011" stroke-width="1.5" stroke-miterlimit="10" stroke-linecap="round" stroke-linejoin="round"/>
<path id="Vector_5" d="M5.75 18.25H18.25" stroke="#0D1011" stroke-width="1.5" stroke-miterlimit="10" stroke-linecap="round" stroke-linejoin="round"/>
</g>
</svg>
