<svg width="24" height="24" viewBox="0 0 24 24" fill="none" xmlns="http://www.w3.org/2000/svg">
<g id="Bank Safe ">
<path id="Vector" d="M12.8333 2.745C11.9375 2.71375 11.125 3.22937 10.7396 4.00021H4.75C3.23958 4.00021 2 5.23979 2 6.75021V17.2502C2 18.6773 3.10417 19.8596 4.5 19.9898C4.5 20.2554 4.59896 20.5106 4.78646 20.7033C4.97917 20.8908 5.23437 21.0002 5.5 21.0002C6.05208 21.0002 6.5 20.5523 6.5 20.0002H10.7396C11.1563 20.8387 12.0885 21.3804 13.0833 21.2346L17.6667 20.5471C17.849 20.8283 18.1615 21.0002 18.5 21.0002C18.9427 21.0002 19.3385 20.7033 19.4583 20.2762L19.6563 20.2502C21 20.0471 22 18.8856 22 17.5262V6.47417C22 5.11479 21 3.95333 19.6563 3.75541L13.0833 2.76583C13 2.75541 12.9167 2.745 12.8333 2.745ZM12.6927 4.23979C12.7448 4.23979 12.8021 4.23979 12.8594 4.25021L19.4375 5.23458C20.0521 5.32833 20.5 5.84917 20.5 6.47417V17.5262C20.5 18.1512 20.0521 18.6721 19.4375 18.7658L12.8594 19.7502C12.4688 19.8075 12.1302 19.5783 12.0313 19.219C12.0313 19.1617 12.0208 19.1096 12.0052 19.0523C12.0052 19.0367 12 19.0262 12 19.0106V4.98979C12 4.97937 12.0052 4.96375 12.0052 4.95333C12.0208 4.89604 12.026 4.83875 12.0313 4.78146C12.1146 4.47937 12.3698 4.26062 12.6927 4.23979ZM4.75 5.50021H10.5V18.5002H4.75C4.05208 18.5002 3.5 17.9481 3.5 17.2502V6.75021C3.5 6.05229 4.05208 5.50021 4.75 5.50021ZM16.5 7.50021C16.0052 7.50021 15.5469 7.71896 15.224 8.02625C14.8958 8.33354 14.6667 8.71375 14.4948 9.13562C14.1458 9.97417 14 10.9846 14 12.0002C14 13.0158 14.1458 14.0262 14.4948 14.8648C14.6667 15.2867 14.8958 15.6669 15.224 15.9742C15.5469 16.2815 16.0052 16.5002 16.5 16.5002C16.9948 16.5002 17.4531 16.2815 17.776 15.9742C18.1042 15.6669 18.3333 15.2867 18.5052 14.8648C18.8542 14.0262 19 13.0158 19 12.0002C19 10.9846 18.8542 9.97417 18.5052 9.13562C18.3333 8.71375 18.1042 8.33354 17.776 8.02625C17.4531 7.71896 16.9948 7.50021 16.5 7.50021ZM16.5 9.00021C16.5885 9.00021 16.6406 9.01583 16.7552 9.12C16.8646 9.22417 17 9.42729 17.1198 9.70854C17.3542 10.2762 17.5 11.1408 17.5 12.0002C17.5 12.8596 17.3542 13.7242 17.1198 14.2919C17 14.5731 16.8646 14.7762 16.7552 14.8804C16.6406 14.9846 16.5885 15.0002 16.5 15.0002C16.4115 15.0002 16.3594 14.9846 16.2448 14.8804C16.1354 14.7762 16 14.5731 15.8802 14.2919C15.6458 13.7242 15.5 12.8596 15.5 12.0002C15.5 11.1408 15.6458 10.2762 15.8802 9.70854C16 9.42729 16.1354 9.22417 16.2448 9.12C16.3594 9.01583 16.4115 9.00021 16.5 9.00021Z" fill="#0D1011"/>
</g>
</svg>
