<svg width="24" height="24" viewBox="0 0 24 24" fill="none" xmlns="http://www.w3.org/2000/svg">
<g id="bill 2">
<path id="Vector" d="M2.75 4C2.13021 4 1.5625 4.25521 1.16146 4.66146C0.755208 5.0625 0.5 5.63021 0.5 6.25C0.5 7.48437 1.51563 8.5 2.75 8.5H4.5V20.75C4.5 21 4.625 21.2292 4.82813 21.3698C5.03646 21.5104 5.29687 21.5365 5.52604 21.4479L7.71354 20.5729L9.41667 21.4219C9.61458 21.5208 9.84896 21.526 10.0521 21.4375L12 20.5729L13.9479 21.4375C14.151 21.526 14.3854 21.5208 14.5833 21.4219L16.2865 20.5729L18.474 21.4479C18.7031 21.5365 18.9635 21.5104 19.1719 21.3698C19.375 21.2292 19.5 21 19.5 20.75V8.5H21.25C21.8698 8.5 22.4375 8.24479 22.8385 7.83854C23.2448 7.4375 23.5 6.86979 23.5 6.25C23.5 5.01563 22.4844 4 21.25 4H2.75ZM2.75 5.5H4.5V7H2.75C2.32292 7 2 6.67708 2 6.25C2 6.04167 2.08333 5.85417 2.21875 5.71875C2.35417 5.58333 2.54167 5.5 2.75 5.5ZM6 5.5H18V19.6406L16.526 19.0521C16.3281 18.974 16.1042 18.9844 15.9167 19.0781L14.2292 19.9219L12.3021 19.0625C12.1094 18.9792 11.8906 18.9792 11.6979 19.0625L9.77083 19.9219L8.08333 19.0781C7.89583 18.9844 7.67188 18.974 7.47396 19.0521L6 19.6406V5.5ZM19.5 5.5H21.25C21.6771 5.5 22 5.82292 22 6.25C22 6.45833 21.9167 6.64583 21.7812 6.78125C21.6458 6.91667 21.4583 7 21.25 7H19.5V5.5ZM8.75 8.5C8.47917 8.49479 8.22917 8.64063 8.09375 8.86979C7.95313 9.10417 7.95313 9.39583 8.09375 9.63021C8.22917 9.85937 8.47917 10.0052 8.75 10H15.25C15.5208 10.0052 15.7708 9.85937 15.9063 9.63021C16.0469 9.39583 16.0469 9.10417 15.9063 8.86979C15.7708 8.64063 15.5208 8.49479 15.25 8.5H8.75ZM8.75 11.5C8.47917 11.4948 8.22917 11.6406 8.09375 11.8698C7.95313 12.1042 7.95313 12.3958 8.09375 12.6302C8.22917 12.8594 8.47917 13.0052 8.75 13H15.25C15.5208 13.0052 15.7708 12.8594 15.9063 12.6302C16.0469 12.3958 16.0469 12.1042 15.9063 11.8698C15.7708 11.6406 15.5208 11.4948 15.25 11.5H8.75ZM8.75 14.5C8.47917 14.4948 8.22917 14.6406 8.09375 14.8698C7.95313 15.1042 7.95313 15.3958 8.09375 15.6302C8.22917 15.8594 8.47917 16.0052 8.75 16H12.75C13.0208 16.0052 13.2708 15.8594 13.4063 15.6302C13.5469 15.3958 13.5469 15.1042 13.4063 14.8698C13.2708 14.6406 13.0208 14.4948 12.75 14.5H8.75Z" fill="#0D1011"/>
</g>
</svg>
