<svg width="24" height="24" viewBox="0 0 24 24" fill="none" xmlns="http://www.w3.org/2000/svg">
<g id="bill">
<path id="Vector" d="M4.73958 2.49984C4.32813 2.50505 4 2.83838 4 3.24984V18.4998C3.17187 18.4998 2.5 19.1717 2.5 19.9998C2.5 20.828 3.17187 21.4998 4 21.4998H20C20.8281 21.4998 21.5 20.828 21.5 19.9998C21.5 19.1717 20.8281 18.4998 20 18.4998V3.24984C20 2.9738 19.849 2.71859 19.6042 2.58838C19.3594 2.45817 19.0625 2.4738 18.8333 2.62484L16.9792 3.86442L14.8854 2.604C14.6458 2.46338 14.3542 2.46338 14.1146 2.604L12 3.87484L9.88542 2.604C9.64583 2.46338 9.35417 2.46338 9.11458 2.604L7.02083 3.86442L5.16667 2.62484C5.04167 2.5415 4.89063 2.49984 4.73958 2.49984ZM9.5 4.12484L11.6146 5.39046C11.8542 5.5363 12.1458 5.5363 12.3854 5.39046L14.5 4.12484L16.6146 5.39567C16.8646 5.5415 17.1771 5.5363 17.4167 5.37484L18.5 4.65088V19.9998H5.5V4.65088L6.58333 5.37484C6.82292 5.5363 7.13542 5.5415 7.38542 5.39567L9.5 4.12484ZM7.75 7.99984C7.47917 7.99463 7.22917 8.14046 7.09375 8.36963C6.95313 8.604 6.95313 8.89567 7.09375 9.13004C7.22917 9.35921 7.47917 9.50505 7.75 9.49984H16.25C16.5208 9.50505 16.7708 9.35921 16.9063 9.13004C17.0469 8.89567 17.0469 8.604 16.9063 8.36963C16.7708 8.14046 16.5208 7.99463 16.25 7.99984H7.75ZM7.75 11.9998C7.47917 11.9946 7.22917 12.1405 7.09375 12.3696C6.95313 12.604 6.95313 12.8957 7.09375 13.13C7.22917 13.3592 7.47917 13.505 7.75 13.4998H12.25C12.5208 13.505 12.7708 13.3592 12.9063 13.13C13.0469 12.8957 13.0469 12.604 12.9063 12.3696C12.7708 12.1405 12.5208 11.9946 12.25 11.9998H7.75ZM15.25 11.9998C14.9792 11.9946 14.7292 12.1405 14.5937 12.3696C14.4531 12.604 14.4531 12.8957 14.5937 13.13C14.7292 13.3592 14.9792 13.505 15.25 13.4998H16.25C16.5208 13.505 16.7708 13.3592 16.9063 13.13C17.0469 12.8957 17.0469 12.604 16.9063 12.3696C16.7708 12.1405 16.5208 11.9946 16.25 11.9998H15.25ZM7.75 14.9998C7.47917 14.9946 7.22917 15.1405 7.09375 15.3696C6.95313 15.604 6.95313 15.8957 7.09375 16.13C7.22917 16.3592 7.47917 16.505 7.75 16.4998H11.25C11.5208 16.505 11.7708 16.3592 11.9063 16.13C12.0469 15.8957 12.0469 15.604 11.9063 15.3696C11.7708 15.1405 11.5208 14.9946 11.25 14.9998H7.75ZM15.25 14.9998C14.9792 14.9946 14.7292 15.1405 14.5937 15.3696C14.4531 15.604 14.4531 15.8957 14.5937 16.13C14.7292 16.3592 14.9792 16.505 15.25 16.4998H16.25C16.5208 16.505 16.7708 16.3592 16.9063 16.13C17.0469 15.8957 17.0469 15.604 16.9063 15.3696C16.7708 15.1405 16.5208 14.9946 16.25 14.9998H15.25Z" fill="#0D1011"/>
</g>
</svg>
