<svg width="24" height="24" viewBox="0 0 24 24" fill="none" xmlns="http://www.w3.org/2000/svg">
<g id="bookmark">
<path id="Vector" d="M8.25 2.5C6.46354 2.5 5 3.96354 5 5.75V20.75C5 21.0312 5.15885 21.2891 5.40885 21.4167C5.65885 21.5469 5.96094 21.5234 6.1875 21.3594L12 17.1745L17.8125 21.3594C18.0391 21.5234 18.3411 21.5469 18.5911 21.4167C18.8411 21.2891 19 21.0312 19 20.75V5.75C19 3.96354 17.5365 2.5 15.75 2.5H8.25ZM8.25 4H15.75C16.724 4 17.5 4.77604 17.5 5.75V19.2865L12.4375 15.6406C12.1771 15.4531 11.8229 15.4531 11.5625 15.6406L6.5 19.2865V5.75C6.5 4.77604 7.27604 4 8.25 4Z" fill="#0D1011"/>
</g>
</svg>
