<svg width="24" height="24" viewBox="0 0 24 24" fill="none" xmlns="http://www.w3.org/2000/svg">
<g id="British Pound ">
<path id="Vector" d="M12 2C6.48698 2 2 6.48698 2 12C2 17.513 6.48698 22 12 22C17.513 22 22 17.513 22 12C22 6.48698 17.513 2 12 2ZM12 3.5C16.7031 3.5 20.5 7.29688 20.5 12C20.5 16.7031 16.7031 20.5 12 20.5C7.29688 20.5 3.5 16.7031 3.5 12C3.5 7.29688 7.29688 3.5 12 3.5ZM12 6.5C10.0755 6.5 8.5 8.07552 8.5 10V10.25C8.5 10.9141 8.64063 11.474 8.77865 12H8.25C7.97917 11.9974 7.72917 12.138 7.59115 12.3724C7.45573 12.6068 7.45573 12.8932 7.59115 13.1276C7.72917 13.362 7.97917 13.5026 8.25 13.5H8.9349C8.89583 14.125 8.6875 14.7734 7.75 15.6849C7.52604 15.875 7.4375 16.1797 7.52083 16.4609C7.52083 16.4635 7.52083 16.4661 7.52344 16.4661C7.52865 16.4844 7.53385 16.5 7.53906 16.5182C7.54167 16.526 7.54427 16.5365 7.54948 16.5443C7.55208 16.5521 7.55469 16.5573 7.5599 16.5651C7.69531 16.8672 8.01563 17.0443 8.34375 17H15.25C15.5208 17.0026 15.7708 16.862 15.9089 16.6276C16.0443 16.3932 16.0443 16.1068 15.9089 15.8724C15.7708 15.638 15.5208 15.4974 15.25 15.5H9.79948C10.2318 14.7917 10.3568 14.1328 10.3958 13.5H13.25C13.5208 13.5026 13.7708 13.362 13.9089 13.1276C14.0443 12.8932 14.0443 12.6068 13.9089 12.3724C13.7708 12.138 13.5208 11.9974 13.25 12H10.3281C10.1823 11.362 10 10.6667 10 10.25V10C10 8.88542 10.8854 8 12 8C12.9141 8 13.6719 8.60417 13.9167 9.42708C13.987 9.69271 14.1953 9.89583 14.4609 9.96354C14.7266 10.0286 15.0052 9.94531 15.1901 9.74479C15.3776 9.54688 15.4401 9.26042 15.3542 9C14.9245 7.55208 13.5781 6.5 12 6.5Z" fill="#0D1011"/>
</g>
</svg>
