<svg width="24" height="24" viewBox="0 0 24 24" fill="none" xmlns="http://www.w3.org/2000/svg">
<g id="Calendar_fill">
<path id="Vector" d="M21 7V6.25C21 4.45833 19.5417 3 17.75 3H6.25C4.45833 3 3 4.45833 3 6.25V7H21ZM3 8.5V17.75C3 19.5417 4.45833 21 6.25 21H17.75C19.5417 21 21 19.5417 21 17.75V8.5H3ZM7.75 18C7.0599 18 6.5 17.4401 6.5 16.75C6.5 16.0599 7.0599 15.5 7.75 15.5C8.4401 15.5 9 16.0599 9 16.75C9 17.4401 8.4401 18 7.75 18ZM7.75 13.5C7.0599 13.5 6.5 12.9401 6.5 12.25C6.5 11.5599 7.0599 11 7.75 11C8.4401 11 9 11.5599 9 12.25C9 12.9401 8.4401 13.5 7.75 13.5ZM12 18C11.3099 18 10.75 17.4401 10.75 16.75C10.75 16.0599 11.3099 15.5 12 15.5C12.6901 15.5 13.25 16.0599 13.25 16.75C13.25 17.4401 12.6901 18 12 18ZM12 13.5C11.3099 13.5 10.75 12.9401 10.75 12.25C10.75 11.5599 11.3099 11 12 11C12.6901 11 13.25 11.5599 13.25 12.25C13.25 12.9401 12.6901 13.5 12 13.5ZM16.25 13.5C15.5599 13.5 15 12.9401 15 12.25C15 11.5599 15.5599 11 16.25 11C16.9401 11 17.5 11.5599 17.5 12.25C17.5 12.9401 16.9401 13.5 16.25 13.5Z" fill="#0D1011"/>
</g>
</svg>
