<svg width="24" height="24" viewBox="0 0 24 24" fill="none" xmlns="http://www.w3.org/2000/svg">
<g id="cash">
<path id="Vector" d="M4.25 3C3.29167 3 2.5 3.79167 2.5 4.75V13.25C2.5 14.2083 3.29167 15 4.25 15H19.75C20.7083 15 21.5 14.2083 21.5 13.25V4.75C21.5 3.79167 20.7083 3 19.75 3H4.25ZM5.5 4.5H18.5C18.5 5.33073 19.1693 6 20 6V12C19.1693 12 18.5 12.6693 18.5 13.5H5.5C5.5 12.6693 4.83073 12 4 12V6C4.83073 6 5.5 5.33073 5.5 4.5ZM12 5.5C11.0208 5.5 10.1979 5.99219 9.70573 6.66927C9.21354 7.34375 9 8.17708 9 9C9 9.82292 9.21354 10.6562 9.70573 11.3307C10.1979 12.0078 11.0208 12.5 12 12.5C12.9792 12.5 13.8021 12.0078 14.2943 11.3307C14.7865 10.6562 15 9.82292 15 9C15 8.17708 14.7865 7.34375 14.2943 6.66927C13.8021 5.99219 12.9792 5.5 12 5.5ZM12 7C12.5208 7 12.8229 7.19531 13.0807 7.54948C13.3385 7.90625 13.5 8.44792 13.5 9C13.5 9.55208 13.3385 10.0938 13.0807 10.4505C12.8229 10.8047 12.5208 11 12 11C11.4792 11 11.1771 10.8047 10.9193 10.4505C10.6615 10.0938 10.5 9.55208 10.5 9C10.5 8.44792 10.6615 7.90625 10.9193 7.54948C11.1771 7.19531 11.4792 7 12 7ZM6 8C5.44792 8 5 8.44792 5 9C5 9.55208 5.44792 10 6 10C6.55208 10 7 9.55208 7 9C7 8.44792 6.55208 8 6 8ZM18 8C17.4479 8 17 8.44792 17 9C17 9.55208 17.4479 10 18 10C18.5521 10 19 9.55208 19 9C19 8.44792 18.5521 8 18 8ZM4.02344 16C4.13281 16.8255 4.81771 17.4688 5.67969 17.5C11.1172 17.6875 15.1406 19.4974 17.3047 20.4714C17.6875 20.6458 18.0208 20.7943 18.2943 20.9062C18.4453 20.9661 18.6042 20.9974 18.763 20.9974C19.0052 20.9974 19.2448 20.9271 19.4505 20.7891C19.7943 20.5573 20 20.1719 20 19.7578V16H18.5V18C17.9323 18 17.4453 18.3177 17.1901 18.7812C14.8151 17.7318 10.9036 16.1797 5.73177 16C5.72917 16 5.72917 16 5.72917 16H4.02344Z" fill="#0D1011"/>
</g>
</svg>
