<svg width="24" height="24" viewBox="0 0 24 24" fill="none" xmlns="http://www.w3.org/2000/svg">
<g id="chart_bar ">
<path id="Vector" d="M12.0029 2.5C10.6297 2.5 9.49994 3.62971 9.49994 5.00293V19.9971H8.00775C8.008 18.4985 8.01068 10.2955 8.01068 9.50293C8.01068 8.12971 6.88097 7 5.50775 7C4.13453 7 3.0058 8.12971 3.0058 9.50293C3.0058 10.2931 3.00311 18.4963 3.00287 19.9971H2.75287C2.65349 19.9957 2.55481 20.014 2.46259 20.0511C2.37036 20.0881 2.28642 20.1432 2.21564 20.2129C2.14487 20.2827 2.08866 20.3659 2.0503 20.4576C2.01194 20.5493 1.99219 20.6477 1.99219 20.7471C1.99219 20.8465 2.01194 20.9449 2.0503 21.0366C2.08866 21.1283 2.14487 21.2114 2.21564 21.2812C2.28642 21.351 2.37036 21.406 2.46259 21.4431C2.55481 21.4801 2.65349 21.4985 2.75287 21.4971H21.2529C21.3523 21.4985 21.4509 21.4801 21.5432 21.4431C21.6354 21.406 21.7193 21.351 21.7901 21.2812C21.8609 21.2114 21.9171 21.1283 21.9554 21.0366C21.9938 20.9449 22.0135 20.8465 22.0135 20.7471C22.0135 20.6477 21.9938 20.5493 21.9554 20.4576C21.9171 20.3659 21.8609 20.2827 21.7901 20.2129C21.7193 20.1432 21.6354 20.0881 21.5432 20.0511C21.4509 20.014 21.3523 19.9957 21.2529 19.9971H21.0029V13.5C21.0029 12.1268 19.8732 10.9971 18.4999 10.9971C17.1267 10.9971 15.998 12.1268 15.998 13.5V19.9971H14.5058V5.00293C14.5058 3.62971 13.3761 2.5 12.0029 2.5ZM12.0029 4C12.5657 4 13.0058 4.44015 13.0058 5.00293V19.9971H10.9999V5.00293C10.9999 4.44015 11.4401 4 12.0029 4ZM5.50775 8.5C6.07054 8.5 6.51068 8.94015 6.51068 9.50293C6.51068 10.2926 6.508 18.4959 6.50775 19.9971H4.50287C4.50311 18.4989 4.5058 10.2959 4.5058 9.50293C4.5058 8.94015 4.94497 8.5 5.50775 8.5ZM18.4999 12.4971C19.0627 12.4971 19.5029 12.9372 19.5029 13.5V19.9971H17.498V13.5C17.498 12.9372 17.9372 12.4971 18.4999 12.4971Z" fill="#0D1011"/>
</g>
</svg>
