<svg width="24" height="24" viewBox="0 0 24 24" fill="none" xmlns="http://www.w3.org/2000/svg">
<g id="chat ">
<path id="Vector" d="M9.99785 2.5C5.5916 2.5 1.99785 6.09375 1.99785 10.5C1.99785 11.8048 2.34552 12.9947 2.86016 14.0342L2.03594 17.0127C1.89502 17.4354 2.05883 17.92 2.33476 18.1787C2.6107 18.4374 2.98096 18.5552 3.3709 18.4902C3.39691 18.4857 3.42266 18.4799 3.44805 18.4727L6.46465 17.6377C6.77895 17.7969 7.10343 17.9334 7.43437 18.0508C8.87621 20.1531 11.2849 21.5 13.9979 21.5C15.2431 21.5 16.4416 21.1895 17.5311 20.6377L20.5477 21.4727C20.573 21.4799 20.5988 21.4857 20.6248 21.4902C21.0147 21.5552 21.385 21.4374 21.6609 21.1787C21.9369 20.92 22.1007 20.4354 21.9598 20.0127L21.1355 17.0342C21.6502 15.9947 21.9979 14.8048 21.9979 13.5C21.9979 9.9729 19.697 6.97827 16.5213 5.88867C15.0697 3.84295 12.6876 2.5 9.99785 2.5ZM9.99785 4C13.5916 4 16.4979 6.90625 16.4979 10.5C16.4979 14.0938 13.5916 17 9.99785 17C8.86785 17 7.7997 16.7305 6.86992 16.1992C6.78402 16.15 6.68923 16.1183 6.59101 16.1059C6.49279 16.0935 6.39309 16.1006 6.29766 16.127L3.63262 16.8652L4.3709 14.2002C4.42316 14.0117 4.39968 13.8101 4.30547 13.6387C3.81282 12.7429 3.49785 11.6654 3.49785 10.5C3.49785 6.90625 6.4041 4 9.99785 4ZM17.6307 8.1084C19.3576 9.29008 20.4979 11.2592 20.4979 13.5C20.4979 14.6654 20.1829 15.7429 19.6902 16.6387C19.596 16.8101 19.5725 17.0117 19.6248 17.2002L20.3631 19.8652L17.698 19.127C17.6026 19.1006 17.5029 19.0935 17.4047 19.1059C17.3065 19.1183 17.2117 19.15 17.1258 19.1992C16.196 19.7305 15.1279 20 13.9979 20C12.4116 20 10.9766 19.4356 9.85527 18.4951C9.90288 18.496 9.9501 18.5 9.99785 18.5C14.4041 18.5 17.9979 14.9062 17.9979 10.5C17.9979 9.6672 17.8686 8.86437 17.6307 8.1084Z" fill="#0D1011"/>
</g>
</svg>
