<svg width="24" height="24" viewBox="0 0 24 24" fill="none" xmlns="http://www.w3.org/2000/svg">
<g id="circled_arrow_up_left">
<path id="Vector" d="M4.92969 4.92969C3.03906 6.81771 2 9.32813 2 12C2 14.6719 3.03906 17.1823 4.92969 19.0703C6.81771 20.9609 9.32813 22 12 22C14.6719 22 17.1823 20.9609 19.0703 19.0703C20.9609 17.1823 22 14.6719 22 12C22 9.32813 20.9609 6.81771 19.0703 4.92969C17.1823 3.03906 14.6719 2 12 2C9.32813 2 6.81771 3.03906 4.92969 4.92969ZM14.5 9.75C14.5 10.1641 14.1641 10.5 13.75 10.5H11.5599L15.2812 14.2188C15.5729 14.513 15.5729 14.987 15.2812 15.2812C15.1328 15.4271 14.9427 15.5 14.75 15.5C14.5573 15.5 14.3672 15.4271 14.2188 15.2812L10.5 11.5599V13.75C10.5 14.1641 10.1641 14.5 9.75 14.5C9.33594 14.5 9 14.1641 9 13.75V9.75C9 9.65365 9.02083 9.5625 9.05208 9.47656C9.05469 9.47135 9.05469 9.46875 9.05729 9.46615C9.13281 9.28125 9.28125 9.13281 9.46354 9.05729C9.46875 9.05469 9.47135 9.05469 9.47656 9.05469C9.5625 9.02083 9.65365 9 9.75 9H13.75C14.1641 9 14.5 9.33594 14.5 9.75Z" fill="#0D1011"/>
</g>
</svg>
