<svg width="24" height="24" viewBox="0 0 24 24" fill="none" xmlns="http://www.w3.org/2000/svg">
<g id="circled_arrow_down">
<path id="Vector" d="M22 12C22 17.513 17.513 22 12 22C6.48698 22 2 17.513 2 12C2 6.48698 6.48698 2 12 2C17.513 2 22 6.48698 22 12ZM15.8021 12.7422C15.5208 12.4375 15.0443 12.4193 14.7422 12.6979L12.75 14.5365V7.75C12.75 7.33594 12.4141 7 12 7C11.5859 7 11.25 7.33594 11.25 7.75V14.5365L9.25781 12.6979C8.95573 12.4193 8.48177 12.4375 8.19792 12.7422C7.91927 13.0443 7.9375 13.5208 8.24219 13.8021L11.4922 16.8021C11.6354 16.9323 11.8177 17 12 17C12.1823 17 12.3646 16.9323 12.5078 16.8021L15.7578 13.8021C16.0625 13.5208 16.0807 13.0469 15.8021 12.7422Z" fill="#0D1011"/>
</g>
</svg>
