<svg width="24" height="24" viewBox="0 0 24 24" fill="none" xmlns="http://www.w3.org/2000/svg">
<g id="circled_arrow_up_right">
<path id="Vector" d="M12 22C14.6719 22 17.1823 20.9609 19.0703 19.0703C20.9609 17.1823 22 14.6719 22 12C22 9.32813 20.9609 6.81771 19.0703 4.92969C17.1823 3.03906 14.6719 2 12 2C9.32813 2 6.81771 3.03906 4.92969 4.92969C3.03906 6.81771 2 9.32813 2 12C2 14.6719 3.03906 17.1823 4.92969 19.0703C6.81771 20.9609 9.32813 22 12 22ZM8.71875 14.2188L12.4401 10.5H10.25C9.83594 10.5 9.5 10.1641 9.5 9.75C9.5 9.33594 9.83594 9 10.25 9H14.25C14.3464 9 14.4375 9.02083 14.5234 9.05208C14.5286 9.05469 14.5313 9.05469 14.5339 9.05729C14.7188 9.13281 14.8672 9.28125 14.9427 9.46354C14.9453 9.46875 14.9453 9.47135 14.9453 9.47656C14.9792 9.5625 15 9.65365 15 9.75V13.75C15 14.1641 14.6641 14.5 14.25 14.5C13.8359 14.5 13.5 14.1641 13.5 13.75V11.5599L9.78125 15.2812C9.63281 15.4271 9.44271 15.5 9.25 15.5C9.05729 15.5 8.86719 15.4271 8.71875 15.2812C8.42708 14.987 8.42708 14.513 8.71875 14.2188Z" fill="#0D1011"/>
</g>
</svg>
