<svg width="24" height="24" viewBox="0 0 24 24" fill="none" xmlns="http://www.w3.org/2000/svg">
<g id="circled_arrow_right">
<path id="Vector" d="M12 22C17.513 22 22 17.513 22 12C22 6.48698 17.513 2 12 2C6.48698 2 2 6.48698 2 12C2 17.513 6.48698 22 12 22ZM8.25 11.25H13.9401L12.2188 9.53125C11.9271 9.23698 11.9271 8.76302 12.2188 8.46875C12.513 8.17708 12.987 8.17708 13.2812 8.46875L16.2812 11.4688C16.5729 11.763 16.5729 12.237 16.2812 12.5312L13.2812 15.5312C13.1328 15.6771 12.9427 15.75 12.75 15.75C12.5573 15.75 12.3672 15.6771 12.2188 15.5312C11.9271 15.237 11.9271 14.763 12.2188 14.4688L13.9401 12.75H8.25C7.83594 12.75 7.5 12.4141 7.5 12C7.5 11.5859 7.83594 11.25 8.25 11.25Z" fill="#0D1011"/>
</g>
</svg>
