<svg width="24" height="24" viewBox="0 0 24 24" fill="none" xmlns="http://www.w3.org/2000/svg">
<g id="circled_arrow_left">
<path id="Vector" d="M12 22C17.513 22 22 17.513 22 12C22 6.48698 17.513 2 12 2C6.48698 2 2 6.48698 2 12C2 17.513 6.48698 22 12 22ZM7.71875 11.4688L10.7188 8.46875C11.013 8.17708 11.487 8.17708 11.7812 8.46875C12.0729 8.76302 12.0729 9.23698 11.7812 9.53125L10.0599 11.25H15.75C16.1641 11.25 16.5 11.5859 16.5 12C16.5 12.4141 16.1641 12.75 15.75 12.75H10.0599L11.7812 14.4688C12.0729 14.763 12.0729 15.237 11.7812 15.5312C11.6328 15.6771 11.4427 15.75 11.25 15.75C11.0573 15.75 10.8672 15.6771 10.7188 15.5312L7.71875 12.5312C7.42708 12.237 7.42708 11.763 7.71875 11.4688Z" fill="#0D1011"/>
</g>
</svg>
