<svg width="24" height="24" viewBox="0 0 24 24" fill="none" xmlns="http://www.w3.org/2000/svg">
<g id="circled_arrow_down_left">
<path id="Vector" d="M19.0703 4.92969C15.1719 1.03125 8.82813 1.03125 4.92969 4.92969C3.03906 6.81771 2 9.32813 2 12C2 14.6719 3.03906 17.1823 4.92969 19.0703C6.8776 21.0208 9.4401 21.9948 12 21.9948C14.5599 21.9948 17.1224 21.0208 19.0703 19.0703C20.9609 17.1823 22 14.6719 22 12C22 9.32813 20.9609 6.81771 19.0703 4.92969ZM15.2812 9.78125L11.5599 13.5H13.75C14.1641 13.5 14.5 13.8359 14.5 14.25C14.5 14.6641 14.1641 15 13.75 15H9.75C9.65365 15 9.5625 14.9792 9.47656 14.9453C9.47135 14.9453 9.46875 14.9453 9.46615 14.9427C9.28125 14.8672 9.13281 14.7188 9.05729 14.5339C9.05469 14.5313 9.05469 14.5286 9.05469 14.5234C9.02083 14.4375 9 14.3464 9 14.25V10.25C9 9.83594 9.33594 9.5 9.75 9.5C10.1641 9.5 10.5 9.83594 10.5 10.25V12.4401L14.2188 8.71875C14.513 8.42708 14.987 8.42708 15.2812 8.71875C15.5729 9.01302 15.5729 9.48698 15.2812 9.78125Z" fill="#0D1011"/>
</g>
</svg>
