<svg width="24" height="24" viewBox="0 0 24 24" fill="none" xmlns="http://www.w3.org/2000/svg">
<g id="circled_arrow_down_right">
<path id="Vector" d="M19.0745 4.92545C15.1737 1.02485 8.82627 1.02485 4.92554 4.92545C1.02482 8.82604 1.02482 15.1733 4.92554 19.0739C6.8746 21.0255 9.4386 22 12 22C14.5614 22 17.1254 21.0255 19.0745 19.0739C22.9752 15.1733 22.9752 8.82604 19.0745 4.92545ZM15.0018 14.2509C15.0018 14.3473 14.9809 14.4411 14.947 14.5245C14.947 14.5297 14.947 14.5323 14.9444 14.5349C14.8689 14.7199 14.7203 14.8685 14.5353 14.944C14.5327 14.9466 14.5275 14.9466 14.5249 14.9492C14.4415 14.9805 14.3477 15.0013 14.2513 15.0013H10.249C9.83467 15.0013 9.49853 14.6652 9.49853 14.2509C9.49853 13.8366 9.83467 13.5005 10.249 13.5005H12.4404L8.71683 9.7797C8.42499 9.48526 8.42499 9.01104 8.71683 8.71661C9.01127 8.42478 9.48551 8.42478 9.77995 8.71661L13.5009 12.44V10.2487C13.5009 9.83441 13.837 9.49829 14.2513 9.49829C14.6656 9.49829 15.0018 9.83441 15.0018 10.2487V14.2509Z" fill="#0D1011"/>
</g>
</svg>
