<svg width="24" height="24" viewBox="0 0 24 24" fill="none" xmlns="http://www.w3.org/2000/svg">
<g id="circled_arrow_up">
<path id="Vector" d="M22 12C22 17.513 17.513 22 12 22C6.48698 22 2 17.513 2 12C2 6.48698 6.48698 2 12 2C17.513 2 22 6.48698 22 12ZM15.7578 10.1979L12.5078 7.19792C12.2214 6.9349 11.7786 6.9349 11.4922 7.19792L8.24219 10.1979C7.9375 10.4792 7.91927 10.9531 8.19792 11.2578C8.48177 11.5625 8.95573 11.5807 9.25781 11.3021L11.25 9.46354V16.25C11.25 16.6641 11.5859 17 12 17C12.4141 17 12.75 16.6641 12.75 16.25V9.46354L14.7422 11.3021C14.8854 11.4349 15.0677 11.5 15.25 11.5C15.4505 11.5 15.6536 11.4193 15.8021 11.2578C16.0807 10.9531 16.0625 10.4792 15.7578 10.1979Z" fill="#0D1011"/>
</g>
</svg>
