<svg width="24" height="24" viewBox="0 0 24 24" fill="none" xmlns="http://www.w3.org/2000/svg">
<g id="clipboard ">
<path id="Vector" d="M10.25 1.5C9.10319 1.5 8.15326 2.38452 8.02539 3.5H6.25C5.01765 3.5 4 4.51765 4 5.75V19.25C4 20.4824 5.01765 21.5 6.25 21.5H17.75C18.9824 21.5 20 20.4824 20 19.25V5.75C20 4.51765 18.9824 3.5 17.75 3.5H15.9746C15.8467 2.38452 14.8968 1.5 13.75 1.5H10.25ZM10.25 3H13.75C14.2176 3 14.5 3.28235 14.5 3.75C14.5 4.21765 14.2176 4.5 13.75 4.5H10.25C9.78235 4.5 9.5 4.21765 9.5 3.75C9.5 3.28235 9.78235 3 10.25 3ZM6.25 5H8.38477C8.79091 5.60101 9.47824 6 10.25 6H13.75C14.5218 6 15.2091 5.60101 15.6152 5H17.75C18.2176 5 18.5 5.28235 18.5 5.75V19.25C18.5 19.7176 18.2176 20 17.75 20H6.25C5.78235 20 5.5 19.7176 5.5 19.25V5.75C5.5 5.28235 5.78235 5 6.25 5ZM8.25 8.5C8.15062 8.49859 8.05194 8.51696 7.95972 8.55402C7.86749 8.59108 7.78355 8.6461 7.71277 8.71588C7.642 8.78566 7.58579 8.86882 7.54743 8.96051C7.50907 9.0522 7.48932 9.15061 7.48932 9.25C7.48932 9.34939 7.50907 9.4478 7.54743 9.53949C7.58579 9.63118 7.642 9.71434 7.71277 9.78412C7.78355 9.8539 7.86749 9.90892 7.95972 9.94598C8.05194 9.98304 8.15062 10.0014 8.25 10H15.75C15.8494 10.0014 15.9481 9.98304 16.0403 9.94598C16.1325 9.90892 16.2164 9.8539 16.2872 9.78412C16.358 9.71434 16.4142 9.63118 16.4526 9.53949C16.4909 9.4478 16.5107 9.34939 16.5107 9.25C16.5107 9.15061 16.4909 9.0522 16.4526 8.96051C16.4142 8.86882 16.358 8.78566 16.2872 8.71588C16.2164 8.6461 16.1325 8.59108 16.0403 8.55402C15.9481 8.51696 15.8494 8.49859 15.75 8.5H8.25ZM8.25 12.5C8.15062 12.4986 8.05194 12.517 7.95972 12.554C7.86749 12.5911 7.78355 12.6461 7.71277 12.7159C7.642 12.7857 7.58579 12.8688 7.54743 12.9605C7.50907 13.0522 7.48932 13.1506 7.48932 13.25C7.48932 13.3494 7.50907 13.4478 7.54743 13.5395C7.58579 13.6312 7.642 13.7143 7.71277 13.7841C7.78355 13.8539 7.86749 13.9089 7.95972 13.946C8.05194 13.983 8.15062 14.0014 8.25 14H11.75C11.8494 14.0014 11.9481 13.983 12.0403 13.946C12.1325 13.9089 12.2164 13.8539 12.2872 13.7841C12.358 13.7143 12.4142 13.6312 12.4526 13.5395C12.4909 13.4478 12.5107 13.3494 12.5107 13.25C12.5107 13.1506 12.4909 13.0522 12.4526 12.9605C12.4142 12.8688 12.358 12.7857 12.2872 12.7159C12.2164 12.6461 12.1325 12.5911 12.0403 12.554C11.9481 12.517 11.8494 12.4986 11.75 12.5H8.25ZM8.25 16.5C8.15062 16.4986 8.05194 16.517 7.95972 16.554C7.86749 16.5911 7.78355 16.6461 7.71277 16.7159C7.642 16.7857 7.58579 16.8688 7.54743 16.9605C7.50907 17.0522 7.48932 17.1506 7.48932 17.25C7.48932 17.3494 7.50907 17.4478 7.54743 17.5395C7.58579 17.6312 7.642 17.7143 7.71277 17.7841C7.78355 17.8539 7.86749 17.9089 7.95972 17.946C8.05194 17.983 8.15062 18.0014 8.25 18H13.75C13.8494 18.0014 13.9481 17.983 14.0403 17.946C14.1325 17.9089 14.2164 17.8539 14.2872 17.7841C14.358 17.7143 14.4142 17.6312 14.4526 17.5395C14.4909 17.4478 14.5107 17.3494 14.5107 17.25C14.5107 17.1506 14.4909 17.0522 14.4526 16.9605C14.4142 16.8688 14.358 16.7857 14.2872 16.7159C14.2164 16.6461 14.1325 16.5911 14.0403 16.554C13.9481 16.517 13.8494 16.4986 13.75 16.5H8.25Z" fill="#0D1011"/>
</g>
</svg>
