<svg width="24" height="24" viewBox="0 0 24 24" fill="none" xmlns="http://www.w3.org/2000/svg">
<g id="clock">
<path id="Vector" d="M12 2C6.48437 2 2 6.48437 2 12C2 17.5156 6.48437 22 12 22C17.5156 22 22 17.5156 22 12C22 6.48437 17.5156 2 12 2ZM12 3.5C16.7031 3.5 20.5 7.29688 20.5 12C20.5 16.7031 16.7031 20.5 12 20.5C7.29688 20.5 3.5 16.7031 3.5 12C3.5 7.29688 7.29688 3.5 12 3.5ZM11.2396 5.98958C10.8229 5.99479 10.4948 6.33854 10.5 6.75V12.25C10.5 12.4479 10.5781 12.6406 10.7187 12.7813L13.2187 15.2813C13.4062 15.474 13.6875 15.5573 13.9479 15.4844C14.2135 15.4167 14.4167 15.2135 14.4844 14.9479C14.5573 14.6875 14.474 14.4062 14.2813 14.2187L12 11.9375V6.75C12.0052 6.54688 11.9219 6.35417 11.7813 6.20833C11.6354 6.06771 11.4427 5.98437 11.2396 5.98958Z" fill="#0D1011"/>
</g>
</svg>
