<svg width="24" height="24" viewBox="0 0 24 24" fill="none" xmlns="http://www.w3.org/2000/svg">
<g id="clock_fill">
<path id="Vector" d="M12 2C6.48698 2 2 6.48698 2 12C2 17.513 6.48698 22 12 22C17.513 22 22 17.513 22 12C22 6.48698 17.513 2 12 2ZM14.2812 15.2812C14.1328 15.4271 13.9427 15.5 13.75 15.5C13.5573 15.5 13.3672 15.4271 13.2188 15.2812L10.7188 12.7812C10.5781 12.6406 10.5 12.4479 10.5 12.25V6.75C10.5 6.33594 10.8359 6 11.25 6C11.6641 6 12 6.33594 12 6.75V11.9401L14.2812 14.2188C14.5729 14.513 14.5729 14.987 14.2812 15.2812Z" fill="#0D1011"/>
</g>
</svg>
