<svg width="24" height="24" viewBox="0 0 24 24" fill="none" xmlns="http://www.w3.org/2000/svg">
<g id="Closed Eye">
<path id="Vector" d="M11.9887 3C8.53215 3 5.34926 4.55342 3.18214 6.95014C2.9208 7.2411 2.94299 7.68986 3.23391 7.9537C3.52483 8.21753 3.97355 8.19288 4.23735 7.90192C6.14313 5.7937 8.96113 4.42027 11.9887 4.42027C15.0187 4.42027 17.8417 5.7937 19.7524 7.90438C19.92 8.09918 20.1814 8.18794 20.4328 8.13616C20.6868 8.08438 20.8914 7.89945 20.9678 7.65288C21.0443 7.4063 20.9826 7.13753 20.8027 6.95014C18.6331 4.55342 15.4452 3 11.9887 3ZM19.7474 11.5093C19.4343 11.5266 19.1705 11.746 19.0941 12.0493C18.3347 14.8997 15.3442 17.2027 11.9887 17.2027C8.63323 17.2027 5.65251 14.8997 4.89315 12.0493C4.81426 11.7386 4.5406 11.5192 4.22255 11.5118C3.99573 11.5068 3.78124 11.6079 3.64318 11.7879C3.50511 11.9655 3.46073 12.1973 3.5199 12.4142C3.74919 13.2674 4.13133 14.0638 4.62689 14.7888L3.27829 15.9131C3.07612 16.0734 2.97751 16.3299 3.01942 16.5838C3.06133 16.8378 3.23884 17.0499 3.48046 17.1362C3.72454 17.2249 3.99573 17.1732 4.18804 17.003L5.6032 15.8219C6.11848 16.3521 6.67074 16.8205 7.31175 17.2126L6.44392 18.7167C6.24668 19.057 6.36502 19.491 6.70279 19.6882C7.04302 19.883 7.47694 19.7671 7.67417 19.4268L8.57406 17.8685C9.43203 18.2236 10.3245 18.4874 11.2836 18.5638V20.28C11.2811 20.5364 11.4142 20.7731 11.6361 20.9038C11.858 21.0321 12.1292 21.0321 12.3511 20.9038C12.573 20.7731 12.7061 20.5364 12.7037 20.28V18.5638C13.6627 18.4874 14.5552 18.2236 15.4132 17.8685L16.3131 19.4268C16.5103 19.7671 16.9442 19.883 17.2845 19.6882C17.6222 19.491 17.7406 19.057 17.5433 18.7167L16.6755 17.2101C17.3165 16.8181 17.8663 16.3521 18.3816 15.8195L19.7992 17.003C19.9915 17.1732 20.2627 17.2249 20.5068 17.1362C20.7484 17.0499 20.9259 16.8378 20.9678 16.5838C21.0098 16.3299 20.9111 16.0734 20.709 15.9131L19.3604 14.7888C19.8559 14.0638 20.2381 13.2674 20.4674 12.4142C20.529 12.1948 20.4821 11.9581 20.3391 11.7781C20.1962 11.5981 19.9767 11.4995 19.7474 11.5093Z" fill="#0D1011"/>
</g>
</svg>
