<svg width="24" height="24" viewBox="0 0 24 24" fill="none" xmlns="http://www.w3.org/2000/svg">
<g id="cloud_sync ">
<path id="Vector" d="M12 3.5C8.25 3.5 5.1498 6.35 4.7998 10H4.5C2 10 0 12 0 14.5C0 17 2 19 4.5 19H5.90039C5.80039 18.7 5.7498 18.3998 5.7998 18.0498L5.84961 17.5H4.5C2.85 17.5 1.5 16.15 1.5 14.5C1.5 12.85 2.85 11.5 4.5 11.5H5.5C5.9 11.5 6.25 11.15 6.25 10.75C6.25 7.6 8.85 5 12 5C15.15 5 17.75 7.6 17.75 10.75C17.75 11.15 18.1 11.5 18.5 11.5H19.5C21.15 11.5 22.5 12.85 22.5 14.5C22.5 16.15 21.15 17.5 19.5 17.5H17.2002C16.8502 18.05 16.4502 18.6 15.9502 19H19.5C22 19 24 17 24 14.5C24 12 22 10 19.5 10H19.2002C18.8502 6.35 15.75 3.5 12 3.5ZM15.9248 9.99023C15.739 9.99663 15.5622 10.0718 15.4286 10.2012C15.2951 10.3306 15.2144 10.5049 15.2021 10.6904L15.1533 11.3037C14.3408 10.5017 13.2316 10 12 10C10.0318 10 8.34549 11.2535 7.74121 13.0059C7.70628 13.0996 7.69047 13.1995 7.69471 13.2994C7.69895 13.3994 7.72315 13.4976 7.7659 13.588C7.80864 13.6785 7.86906 13.7595 7.94359 13.8263C8.01813 13.8931 8.10527 13.9443 8.19989 13.9769C8.29452 14.0095 8.3947 14.0228 8.49455 14.016C8.5944 14.0093 8.69189 13.9827 8.78128 13.9377C8.87067 13.8927 8.95016 13.8303 9.01506 13.7541C9.07996 13.6779 9.12896 13.5895 9.15918 13.4941C9.5549 12.3465 10.6682 11.5 12 11.5C12.8266 11.5 13.5612 11.8328 14.1006 12.3662L13.3096 12.3027C13.2103 12.2928 13.1101 12.3029 13.0147 12.3322C12.9194 12.3615 12.8309 12.4095 12.7543 12.4735C12.6778 12.5374 12.6147 12.616 12.5689 12.7046C12.5231 12.7932 12.4954 12.8901 12.4875 12.9895C12.4796 13.089 12.4916 13.189 12.5228 13.2837C12.554 13.3785 12.6038 13.466 12.6692 13.5413C12.7347 13.6166 12.8145 13.678 12.904 13.7221C12.9935 13.7661 13.0909 13.7919 13.1904 13.7979L15.6904 13.998C15.7887 14.0059 15.8875 13.9943 15.9813 13.964C16.075 13.9336 16.1619 13.8851 16.2369 13.8212C16.3119 13.7572 16.3736 13.6791 16.4184 13.5914C16.4632 13.5036 16.4903 13.4078 16.498 13.3096L16.6973 10.8096C16.7072 10.7035 16.6944 10.5965 16.6597 10.4958C16.625 10.395 16.5693 10.3028 16.4962 10.2253C16.4231 10.1478 16.3344 10.0868 16.2358 10.0462C16.1373 10.0057 16.0313 9.98659 15.9248 9.99023ZM15.5664 14.9902C15.4063 14.9874 15.2494 15.036 15.1189 15.1288C14.9883 15.2216 14.8909 15.3537 14.8408 15.5059C14.4451 16.6535 13.3318 17.5 12 17.5C11.1734 17.5 10.4388 17.1672 9.89941 16.6338L10.6904 16.6973C10.7897 16.7072 10.8899 16.6971 10.9853 16.6678C11.0806 16.6385 11.1691 16.5905 11.2457 16.5265C11.3222 16.4626 11.3853 16.384 11.4311 16.2954C11.4769 16.2068 11.5046 16.1099 11.5125 16.0105C11.5204 15.911 11.5084 15.811 11.4772 15.7163C11.446 15.6215 11.3962 15.534 11.3308 15.4587C11.2653 15.3834 11.1855 15.322 11.096 15.2779C11.0065 15.2339 10.9091 15.2081 10.8096 15.2021L8.30957 15.002C8.28488 15.0001 8.26011 14.9994 8.23535 15C8.04922 15.0036 7.87107 15.0762 7.73552 15.2038C7.59997 15.3314 7.51672 15.5049 7.50195 15.6904L7.30273 18.1904C7.29285 18.2897 7.30285 18.3899 7.33217 18.4853C7.36149 18.5806 7.40954 18.6691 7.47349 18.7457C7.53745 18.8222 7.61603 18.8853 7.70463 18.9311C7.79324 18.9769 7.8901 19.0046 7.98953 19.0125C8.08897 19.0204 8.18898 19.0084 8.28373 18.9772C8.37847 18.946 8.46604 18.8962 8.54131 18.8308C8.61658 18.7653 8.67804 18.6855 8.72209 18.596C8.76614 18.5065 8.7919 18.4091 8.79785 18.3096L8.84668 17.6963C9.65917 18.4983 10.7684 19 12 19C13.9682 19 15.6545 17.7465 16.2588 15.9941C16.2992 15.882 16.3122 15.7618 16.2968 15.6436C16.2815 15.5253 16.2382 15.4125 16.1705 15.3143C16.1028 15.2162 16.0127 15.1356 15.9076 15.0792C15.8026 15.0229 15.6856 14.9924 15.5664 14.9902Z" fill="#0D1011"/>
</g>
</svg>
