<svg width="24" height="24" viewBox="0 0 24 24" fill="none" xmlns="http://www.w3.org/2000/svg">
<g id="co-admin">
<path id="Vector" d="M11.5 2C8.7474 2 6.5 4.2474 6.5 7C6.5 9.7526 8.7474 12 11.5 12C14.2526 12 16.5 9.7526 16.5 7C16.5 4.2474 14.2526 2 11.5 2ZM11.5 3.5C13.4427 3.5 15 5.05729 15 7C15 8.94271 13.4427 10.5 11.5 10.5C9.55729 10.5 8 8.94271 8 7C8 5.05729 9.55729 3.5 11.5 3.5ZM18 12C17.7057 12 17.4193 12.026 17.138 12.0729L16.9661 12.7891C16.6979 13.901 15.5521 14.5625 14.4557 14.237L13.8516 14.0599C13.4896 14.526 13.2005 15.0547 13 15.6276L13.4479 16.0599C14.2656 16.8464 14.2656 18.1536 13.4479 18.9401L13 19.3724C13.2005 19.9453 13.4896 20.474 13.8516 20.9401L14.4557 20.763C15.5521 20.4401 16.6979 21.1016 16.9661 22.2135L17.138 22.9297C17.4193 22.9766 17.7057 23 18 23C18.2943 23 18.5807 22.974 18.862 22.9271L19.0339 22.2109C19.3021 21.099 20.4479 20.4375 21.5443 20.763L22.1484 20.9401C22.5104 20.474 22.7995 19.9453 23 19.3724L22.5521 18.9401C21.7344 18.1536 21.7344 16.8464 22.5521 16.0599L23 15.6276C22.7995 15.0547 22.5104 14.526 22.1484 14.0599L21.5443 14.237C20.4479 14.5625 19.3021 13.901 19.0339 12.7891L18.862 12.0729C18.5807 12.026 18.2943 12 18 12ZM6.25 14C5.01042 14 4 15.0104 4 16.25V16.849C4 19.737 7.51302 22 12 22C12.4297 22 12.8464 21.9714 13.2552 21.9323C12.8542 21.5026 12.5078 21.0208 12.2344 20.4922C12.1563 20.4948 12.0807 20.5 12 20.5C7.98437 20.5 5.5 18.6042 5.5 16.849V16.25C5.5 15.8359 5.83594 15.5 6.25 15.5H11.8177C11.9896 14.9661 12.2318 14.4635 12.5286 14H6.25ZM18 16C18.8281 16 19.5 16.6719 19.5 17.5C19.5 18.3281 18.8281 19 18 19C17.1719 19 16.5 18.3281 16.5 17.5C16.5 16.6719 17.1719 16 18 16Z" fill="#0D1011"/>
</g>
</svg>
