<svg width="24" height="24" viewBox="0 0 24 24" fill="none" xmlns="http://www.w3.org/2000/svg">
<g id="Coin Wallet ">
<path id="Vector" d="M10.75 1C8.6875 1 7 2.6875 7 4.75C7 5.1875 7.07813 5.60938 7.21875 6H5.25C4.83854 6 4.5 5.66146 4.5 5.25C4.5 4.83854 4.83854 4.5 5.25 4.5H6.01042C6.04167 3.97396 6.15104 3.46875 6.33854 3H5.25C4.06771 3 3.10417 3.92187 3.01563 5.08854C3.00521 5.14063 3 5.19271 3 5.25V18.75C3 19.9844 4.01563 21 5.25 21H18.75C19.9844 21 21 19.9844 21 18.75V8.25C21 7.08854 20.0938 6.125 18.9583 6.02083C18.9844 5.84896 19 5.67708 19 5.5C19 3.57813 17.4219 2 15.5 2C14.8542 2 14.25 2.18229 13.7292 2.48958C13.0417 1.58854 11.9635 1 10.75 1ZM10.75 2.5C11.5417 2.5 12.224 2.90625 12.625 3.51563C12.2292 4.07813 12 4.76563 12 5.5C12 5.67188 12.0156 5.83854 12.0417 6H8.89063C8.64583 5.64063 8.5 5.21875 8.5 4.75C8.5 3.5 9.5 2.5 10.75 2.5ZM15.5 3.5C16.6146 3.5 17.5 4.38542 17.5 5.5C17.5 5.67188 17.474 5.83854 17.4323 6H13.5677C13.526 5.83854 13.5 5.67188 13.5 5.5C13.5 4.38542 14.3854 3.5 15.5 3.5ZM4.5 7.5H18.75C19.1719 7.5 19.5 7.82813 19.5 8.25V18.75C19.5 19.1719 19.1719 19.5 18.75 19.5H5.25C4.82813 19.5 4.5 19.1719 4.5 18.75V7.5ZM16.75 12C16.0573 12 15.5 12.5573 15.5 13.25C15.5 13.9427 16.0573 14.5 16.75 14.5C17.4427 14.5 18 13.9427 18 13.25C18 12.5573 17.4427 12 16.75 12Z" fill="#0D1011"/>
</g>
</svg>
