<svg width="24" height="24" viewBox="0 0 24 24" fill="none" xmlns="http://www.w3.org/2000/svg">
<g id="comments ">
<path id="Vector" d="M5.25 3.5C3.46403 3.5 2 4.96403 2 6.75V15.25C2 17.036 3.46403 18.5 5.25 18.5H6V21.25C6 22.233 7.21365 22.8395 8 22.25L13 18.5H18.75C20.536 18.5 22 17.036 22 15.25V6.75C22 4.96403 20.536 3.5 18.75 3.5H5.25ZM5.25 5H18.75C19.725 5 20.5 5.77497 20.5 6.75V15.25C20.5 16.225 19.725 17 18.75 17H12.75C12.5876 17.0001 12.4296 17.0528 12.2998 17.1504L7.5 20.75V17.75C7.49998 17.5511 7.42096 17.3603 7.28031 17.2197C7.13966 17.079 6.94891 17 6.75 17H5.25C4.27497 17 3.5 16.225 3.5 15.25V6.75C3.5 5.77497 4.27497 5 5.25 5ZM7.75 8.49902C7.65062 8.49762 7.55194 8.51598 7.45972 8.55304C7.36749 8.5901 7.28355 8.64512 7.21277 8.7149C7.142 8.78469 7.08579 8.86784 7.04743 8.95953C7.00907 9.05123 6.98932 9.14963 6.98932 9.24902C6.98932 9.34842 7.00907 9.44682 7.04743 9.53851C7.08579 9.63021 7.142 9.71336 7.21277 9.78314C7.28355 9.85293 7.36749 9.90795 7.45972 9.94501C7.55194 9.98207 7.65062 10.0004 7.75 9.99902H16.25C16.3494 10.0004 16.4481 9.98207 16.5403 9.94501C16.6325 9.90795 16.7164 9.85293 16.7872 9.78314C16.858 9.71336 16.9142 9.63021 16.9526 9.53851C16.9909 9.44682 17.0107 9.34842 17.0107 9.24902C17.0107 9.14963 16.9909 9.05123 16.9526 8.95953C16.9142 8.86784 16.858 8.78469 16.7872 8.7149C16.7164 8.64512 16.6325 8.5901 16.5403 8.55304C16.4481 8.51598 16.3494 8.49762 16.25 8.49902H7.75ZM7.75 11.999C7.65062 11.9976 7.55194 12.016 7.45972 12.053C7.36749 12.0901 7.28355 12.1451 7.21277 12.2149C7.142 12.2847 7.08579 12.3678 7.04743 12.4595C7.00907 12.5512 6.98932 12.6496 6.98932 12.749C6.98932 12.8484 7.00907 12.9468 7.04743 13.0385C7.08579 13.1302 7.142 13.2134 7.21277 13.2831C7.28355 13.3529 7.36749 13.4079 7.45972 13.445C7.55194 13.4821 7.65062 13.5004 7.75 13.499H14.25C14.3494 13.5004 14.4481 13.4821 14.5403 13.445C14.6325 13.4079 14.7164 13.3529 14.7872 13.2831C14.858 13.2134 14.9142 13.1302 14.9526 13.0385C14.9909 12.9468 15.0107 12.8484 15.0107 12.749C15.0107 12.6496 14.9909 12.5512 14.9526 12.4595C14.9142 12.3678 14.858 12.2847 14.7872 12.2149C14.7164 12.1451 14.6325 12.0901 14.5403 12.053C14.4481 12.016 14.3494 11.9976 14.25 11.999H7.75Z" fill="#0D1011"/>
</g>
</svg>
