<svg width="24" height="24" viewBox="0 0 24 24" fill="none" xmlns="http://www.w3.org/2000/svg">
<g id="compact_camera ">
<path id="Vector" d="M5.25 2.5C4.8355 2.5 4.5 2.8355 4.5 3.25V3.5918C3.07251 3.93366 2 5.2224 2 6.75V17.25C2 19.036 3.46403 20.5 5.25 20.5H18.75C20.536 20.5 22 19.036 22 17.25V6.75C22 4.96403 20.536 3.5 18.75 3.5H9.5V3.25C9.5 2.8355 9.1645 2.5 8.75 2.5H5.25ZM5.25 5H18.75C19.725 5 20.5 5.77497 20.5 6.75V17.25C20.5 18.225 19.725 19 18.75 19H5.25C4.27497 19 3.5 18.225 3.5 17.25V6.75C3.5 5.77497 4.27497 5 5.25 5ZM6.25 7.5C6.15062 7.49859 6.05194 7.51696 5.95972 7.55402C5.86749 7.59108 5.78355 7.6461 5.71277 7.71588C5.642 7.78566 5.58579 7.86882 5.54743 7.96051C5.50907 8.0522 5.48932 8.15061 5.48932 8.25C5.48932 8.34939 5.50907 8.4478 5.54743 8.53949C5.58579 8.63118 5.642 8.71434 5.71277 8.78412C5.78355 8.8539 5.86749 8.90892 5.95972 8.94598C6.05194 8.98304 6.15062 9.00141 6.25 9H7.75C7.84938 9.00141 7.94806 8.98304 8.04028 8.94598C8.13251 8.90892 8.21645 8.8539 8.28723 8.78412C8.358 8.71434 8.41421 8.63118 8.45257 8.53949C8.49093 8.4478 8.51068 8.34939 8.51068 8.25C8.51068 8.15061 8.49093 8.0522 8.45257 7.96051C8.41421 7.86882 8.358 7.78566 8.28723 7.71588C8.21645 7.6461 8.13251 7.59108 8.04028 7.55402C7.94806 7.51696 7.84938 7.49859 7.75 7.5H6.25ZM14 7.5C11.5236 7.5 9.5 9.5236 9.5 12C9.5 14.4764 11.5236 16.5 14 16.5C16.4764 16.5 18.5 14.4764 18.5 12C18.5 9.5236 16.4764 7.5 14 7.5ZM14 9C15.6657 9 17 10.3343 17 12C17 13.6657 15.6657 15 14 15C12.3343 15 11 13.6657 11 12C11 10.3343 12.3343 9 14 9Z" fill="#0D1011"/>
</g>
</svg>
