<svg width="24" height="24" viewBox="0 0 24 24" fill="none" xmlns="http://www.w3.org/2000/svg">
<g id="copy ">
<path id="Vector" d="M9.25 2.5C7.74091 2.5 6.5 3.74091 6.5 5.25V16.25C6.5 17.7591 7.74091 19 9.25 19H17.25C18.7591 19 20 17.7591 20 16.25V5.25C20 3.74091 18.7591 2.5 17.25 2.5H9.25ZM9.25 4H17.25C17.9409 4 18.5 4.55909 18.5 5.25V16.25C18.5 16.9409 17.9409 17.5 17.25 17.5H9.25C8.55909 17.5 8 16.9409 8 16.25V5.25C8 4.55909 8.55909 4 9.25 4ZM5.5498 4.75C4.5998 5.6 4 6.85 4 8.25V16.75C4 19.35 6.15 21.5 8.75 21.5H14.25C15.6 21.5 16.85 20.9002 17.75 19.9502C17.55 20.0002 17.4 20 17.25 20H8.75C6.95 20 5.5 18.55 5.5 16.75V5.25C5.5 5.1 5.4998 4.95 5.5498 4.75Z" fill="#0D1011"/>
</g>
</svg>
