<svg width="24" height="24" viewBox="0 0 24 24" fill="none" xmlns="http://www.w3.org/2000/svg">
<g id="crop ">
<path id="Vector" d="M6.24115 1.98935C6.04241 1.99245 5.85302 2.07432 5.7146 2.21696C5.57617 2.35959 5.50002 2.55135 5.50287 2.75009V5.50009H2.75287C2.65349 5.49869 2.55481 5.51705 2.46259 5.55411C2.37036 5.59117 2.28642 5.64619 2.21564 5.71597C2.14487 5.78575 2.08866 5.86891 2.0503 5.9606C2.01194 6.0523 1.99219 6.1507 1.99219 6.25009C1.99219 6.34949 2.01194 6.44789 2.0503 6.53958C2.08866 6.63127 2.14487 6.71443 2.21564 6.78421C2.28642 6.85399 2.37036 6.90902 2.46259 6.94608C2.55481 6.98314 2.65349 7.0015 2.75287 7.00009H5.50287V15.2501C5.50287 17.0361 6.9669 18.5001 8.75287 18.5001H17.0029V21.2501C17.0015 21.3495 17.0198 21.4481 17.0569 21.5404C17.0939 21.6326 17.149 21.7165 17.2187 21.7873C17.2885 21.8581 17.3717 21.9143 17.4634 21.9527C17.5551 21.991 17.6535 22.0108 17.7529 22.0108C17.8523 22.0108 17.9507 21.991 18.0424 21.9527C18.1341 21.9143 18.2172 21.8581 18.287 21.7873C18.3568 21.7165 18.4118 21.6326 18.4489 21.5404C18.4859 21.4481 18.5043 21.3495 18.5029 21.2501V18.5001H21.2529C21.3523 18.5015 21.4509 18.4831 21.5432 18.4461C21.6354 18.409 21.7193 18.354 21.7901 18.2842C21.8609 18.2144 21.9171 18.1313 21.9554 18.0396C21.9938 17.9479 22.0135 17.8495 22.0135 17.7501C22.0135 17.6507 21.9938 17.5523 21.9554 17.4606C21.9171 17.3689 21.8609 17.2858 21.7901 17.216C21.7193 17.1462 21.6354 17.0912 21.5432 17.0541C21.4509 17.017 21.3523 16.9987 21.2529 17.0001H17.8759C17.7954 16.9869 17.7133 16.9869 17.6328 17.0001H8.75287C7.77784 17.0001 7.00287 16.2251 7.00287 15.2501V6.37314C7.0161 6.29262 7.0161 6.21049 7.00287 6.12997V2.75009C7.00431 2.64971 6.98558 2.55006 6.9478 2.45705C6.91002 2.36403 6.85395 2.27955 6.78291 2.20861C6.71188 2.13767 6.62733 2.0817 6.53427 2.04404C6.44121 2.00638 6.34153 1.98778 6.24115 1.98935ZM8.00287 5.50009V7.00009H15.2529C16.2279 7.00009 17.0029 7.77506 17.0029 8.75009V16.0001H18.5029V8.75009C18.5029 6.96412 17.0388 5.50009 15.2529 5.50009H8.00287Z" fill="#0D1011"/>
</g>
</svg>
