<svg width="24" height="24" viewBox="0 0 24 24" fill="none" xmlns="http://www.w3.org/2000/svg">
<g id="data_transfer ">
<path id="Vector" d="M16.7451 2.49219C16.5958 2.49222 16.4499 2.53679 16.3261 2.62019C16.2024 2.70358 16.1063 2.82202 16.0502 2.96033C15.9941 3.09865 15.9805 3.25056 16.0112 3.39662C16.0419 3.54269 16.1155 3.67627 16.2226 3.78027L18.9423 6.5H3.25287C3.15349 6.49859 3.05481 6.51696 2.96259 6.55402C2.87036 6.59108 2.78642 6.6461 2.71564 6.71588C2.64487 6.78566 2.58866 6.86882 2.5503 6.96051C2.51194 7.0522 2.49219 7.15061 2.49219 7.25C2.49219 7.34939 2.51194 7.4478 2.5503 7.53949C2.58866 7.63118 2.64487 7.71434 2.71564 7.78412C2.78642 7.8539 2.87036 7.90892 2.96259 7.94598C3.05481 7.98304 3.15349 8.00141 3.25287 8H18.9423L16.2226 10.7197C16.1506 10.7888 16.0932 10.8716 16.0536 10.9632C16.014 11.0548 15.9931 11.1534 15.9921 11.2532C15.991 11.3529 16.0099 11.4519 16.0477 11.5443C16.0854 11.6367 16.1411 11.7206 16.2117 11.7912C16.2823 11.8617 16.3662 11.9175 16.4586 11.9552C16.551 11.9929 16.6499 12.0118 16.7497 12.0108C16.8495 12.0098 16.9481 11.9889 17.0397 11.9493C17.1313 11.9097 17.214 11.8523 17.2831 11.7803L21.2831 7.78027C21.4237 7.63962 21.5027 7.44888 21.5027 7.25C21.5027 7.05112 21.4237 6.86038 21.2831 6.71973L17.2831 2.71973C17.2132 2.64773 17.1296 2.5905 17.0372 2.55142C16.9447 2.51233 16.8454 2.49219 16.7451 2.49219ZM7.23822 11.9932C7.04344 11.9988 6.85852 12.0801 6.7226 12.2197L2.7226 16.2197C2.582 16.3604 2.50301 16.5511 2.50301 16.75C2.50301 16.9489 2.582 17.1396 2.7226 17.2803L6.7226 21.2803C6.79171 21.3523 6.87448 21.4097 6.96608 21.4493C7.05767 21.4889 7.15625 21.5098 7.25603 21.5108C7.35581 21.5118 7.45479 21.4929 7.54717 21.4552C7.63955 21.4175 7.72348 21.3617 7.79403 21.2912C7.86459 21.2206 7.92036 21.1367 7.95808 21.0443C7.9958 20.9519 8.0147 20.8529 8.01369 20.7532C8.01267 20.6534 7.99176 20.5548 7.95217 20.4632C7.91259 20.3716 7.85512 20.2888 7.78314 20.2197L5.06342 17.5H20.7529C20.8523 17.5014 20.9509 17.483 21.0432 17.446C21.1354 17.4089 21.2193 17.3539 21.2901 17.2841C21.3609 17.2143 21.4171 17.1312 21.4554 17.0395C21.4938 16.9478 21.5135 16.8494 21.5135 16.75C21.5135 16.6506 21.4938 16.5522 21.4554 16.4605C21.4171 16.3688 21.3609 16.2857 21.2901 16.2159C21.2193 16.1461 21.1354 16.0911 21.0432 16.054C20.9509 16.017 20.8523 15.9986 20.7529 16H5.06342L7.78314 13.2803C7.89134 13.1749 7.96521 13.0393 7.99508 12.8913C8.02494 12.7432 8.00942 12.5896 7.95054 12.4505C7.89165 12.3114 7.79215 12.1933 7.66506 12.1117C7.53796 12.0301 7.38919 11.9888 7.23822 11.9932Z" fill="#0D1011"/>
</g>
</svg>
