<svg width="24" height="24" viewBox="0 0 24 24" fill="none" xmlns="http://www.w3.org/2000/svg">
<g id="delete_shield ">
<path id="Vector" d="M12.0244 1.00012C11.831 0.994086 11.6428 1.06301 11.499 1.1925C11.499 1.1925 7.74508 4.50012 3.25 4.50012C3.05109 4.50014 2.86034 4.57916 2.71969 4.71981C2.57904 4.86046 2.50002 5.05121 2.5 5.25012V11.38C2.5 14.719 4.04471 20.2133 11.709 23.4415C11.8011 23.4803 11.9 23.5003 12 23.5003C12.1 23.5003 12.1989 23.4803 12.291 23.4415C19.9553 20.2133 21.5 14.719 21.5 11.38V5.25012C21.5 5.05121 21.421 4.86046 21.2803 4.71981C21.1397 4.57916 20.9489 4.50014 20.75 4.50012C16.2549 4.50012 12.501 1.1925 12.501 1.1925C12.3697 1.07426 12.201 1.00613 12.0244 1.00012ZM12 2.71399C13.0315 3.5433 16.0556 5.66872 20 5.93762V11.38C20 14.2511 18.8967 18.883 12 21.9132C5.10328 18.883 4 14.2511 4 11.38V5.93762C7.94437 5.66872 10.9685 3.5433 12 2.71399ZM15.2432 7.98938C15.0451 7.99406 14.8569 8.07691 14.7197 8.21985L12 10.9396L9.28027 8.21985C9.21036 8.14785 9.12672 8.09062 9.03429 8.05154C8.94187 8.01245 8.84254 7.99231 8.74219 7.99231C8.59293 7.99234 8.44707 8.03691 8.32328 8.12031C8.19949 8.20371 8.1034 8.32214 8.0473 8.46045C7.99119 8.59877 7.97763 8.75068 8.00835 8.89675C8.03907 9.04281 8.11267 9.17639 8.21973 9.28039L10.9395 12.0001L8.21973 14.7198C8.14775 14.789 8.09028 14.8717 8.0507 14.9633C8.01111 15.0549 7.9902 15.1535 7.98918 15.2533C7.98817 15.3531 8.00707 15.452 8.04479 15.5444C8.08251 15.6368 8.13828 15.7207 8.20883 15.7913C8.27939 15.8618 8.36332 15.9176 8.4557 15.9553C8.54808 15.993 8.64706 16.012 8.74684 16.0109C8.84662 16.0099 8.9452 15.989 9.03679 15.9494C9.12839 15.9098 9.21116 15.8524 9.28027 15.7804L12 13.0607L14.7197 15.7804C14.7888 15.8524 14.8716 15.9098 14.9632 15.9494C15.0548 15.989 15.1534 16.0099 15.2532 16.0109C15.3529 16.012 15.4519 15.993 15.5443 15.9553C15.6367 15.9176 15.7206 15.8618 15.7912 15.7913C15.8617 15.7207 15.9175 15.6368 15.9552 15.5444C15.9929 15.452 16.0118 15.3531 16.0108 15.2533C16.0098 15.1535 15.9889 15.0549 15.9493 14.9633C15.9097 14.8717 15.8523 14.789 15.7803 14.7198L13.0605 12.0001L15.7803 9.28039C15.8893 9.17572 15.9642 9.04052 15.9951 8.89254C16.026 8.74456 16.0115 8.5907 15.9534 8.45113C15.8953 8.31155 15.7965 8.19278 15.6697 8.11038C15.543 8.02799 15.3943 7.98581 15.2432 7.98938Z" fill="#0D1011"/>
</g>
</svg>
