<svg width="24" height="24" viewBox="0 0 24 24" fill="none" xmlns="http://www.w3.org/2000/svg">
<g id="delete_shield_fill">
<path id="Vector" d="M12.0234 1.00004C11.8307 0.994827 11.6432 1.06254 11.5 1.19274C11.5 1.19274 7.74479 4.50004 3.25 4.50004C2.83594 4.50004 2.5 4.83597 2.5 5.25004V11.3802C2.5 14.7188 4.04427 20.2136 11.7083 23.4401C11.8958 23.5209 12.1042 23.5209 12.2917 23.4401C19.9557 20.2136 21.5 14.7188 21.5 11.3802V5.25004C21.5 4.83597 21.1641 4.50004 20.75 4.50004C16.2552 4.50004 12.5 1.19274 12.5 1.19274C12.3698 1.07295 12.2005 1.00524 12.0234 1.00004ZM8.75 8.00004C8.94271 8.00004 9.13281 8.07295 9.28125 8.21879L12 10.9401L14.7188 8.21879C15.013 7.92712 15.487 7.92712 15.7812 8.21879C16.0729 8.51306 16.0729 8.98702 15.7812 9.28129L13.0599 12L15.7812 14.7188C16.0729 15.0131 16.0729 15.487 15.7812 15.7813C15.6328 15.9271 15.4427 16 15.25 16C15.0573 16 14.8672 15.9271 14.7188 15.7813L12 13.0599L9.28125 15.7813C9.13281 15.9271 8.94271 16 8.75 16C8.55729 16 8.36719 15.9271 8.21875 15.7813C7.92708 15.487 7.92708 15.0131 8.21875 14.7188L10.9401 12L8.21875 9.28129C7.92708 8.98702 7.92708 8.51306 8.21875 8.21879C8.36719 8.07295 8.55729 8.00004 8.75 8.00004Z" fill="#0D1011"/>
</g>
</svg>
