<svg width="24" height="24" viewBox="0 0 24 24" fill="none" xmlns="http://www.w3.org/2000/svg">
<g id="deviation ">
<path id="Vector" d="M5.25 3C4.01625 3 3 4.01625 3 5.25V8.75C3 9.98375 4.01625 11 5.25 11H8.75C9.98375 11 11 9.98375 11 8.75V5.25C11 4.01625 9.98375 3 8.75 3H5.25ZM17 3C14.7997 3 13 4.79975 13 7C13 9.20025 14.7997 11 17 11C19.2003 11 21 9.20025 21 7C21 4.79975 19.2003 3 17 3ZM5.25 4.5H8.75C9.17325 4.5 9.5 4.82675 9.5 5.25V8.75C9.5 9.17325 9.17325 9.5 8.75 9.5H5.25C4.82675 9.5 4.5 9.17325 4.5 8.75V5.25C4.5 4.82675 4.82675 4.5 5.25 4.5ZM17 4.5C18.3896 4.5 19.5 5.6104 19.5 7C19.5 8.3896 18.3896 9.5 17 9.5C15.6104 9.5 14.5 8.3896 14.5 7C14.5 5.6104 15.6104 4.5 17 4.5ZM5.25 13C4.01625 13 3 14.0162 3 15.25V18.75C3 19.9838 4.01625 21 5.25 21H8.75C9.98375 21 11 19.9838 11 18.75V15.25C11 14.0162 9.98375 13 8.75 13H5.25ZM15.25 13C14.0162 13 13 14.0162 13 15.25V18.75C13 19.9838 14.0162 21 15.25 21H18.75C19.9838 21 21 19.9838 21 18.75V15.25C21 14.0162 19.9838 13 18.75 13H15.25ZM5.25 14.5H8.75C9.17325 14.5 9.5 14.8268 9.5 15.25V18.75C9.5 19.1733 9.17325 19.5 8.75 19.5H5.25C4.82675 19.5 4.5 19.1733 4.5 18.75V15.25C4.5 14.8268 4.82675 14.5 5.25 14.5ZM15.25 14.5H18.75C19.1733 14.5 19.5 14.8268 19.5 15.25V18.75C19.5 19.1733 19.1733 19.5 18.75 19.5H15.25C14.8268 19.5 14.5 19.1733 14.5 18.75V15.25C14.5 14.8268 14.8268 14.5 15.25 14.5Z" fill="#0D1011"/>
</g>
</svg>
