<svg width="24" height="24" viewBox="0 0 24 24" fill="none" xmlns="http://www.w3.org/2000/svg">
<g id="Discount ">
<path id="Vector" d="M8.90208 1.99456C8.58437 1.98414 8.25625 2.03102 7.92552 2.16644C7.0401 2.53362 6.64166 3.33831 6.32916 4.01019C6.01927 4.67946 5.75104 5.29144 5.52187 5.52321H5.51927C5.26406 5.77842 4.65208 6.05185 3.98802 6.36175C3.32135 6.67164 2.52708 7.05446 2.1651 7.92685C1.80572 8.79925 2.09739 9.63258 2.34739 10.3227C2.6 11.0128 2.83697 11.6404 2.83697 11.9998C2.83697 12.3253 2.59739 12.9477 2.34218 13.643C2.08697 14.3357 1.80052 15.1873 2.1651 16.0727C2.53229 16.9581 3.33697 17.3565 4.00885 17.669C4.67812 17.9789 5.2901 18.2472 5.51927 18.4763V18.4789H5.52187C5.77708 18.7341 6.04791 19.3461 6.36041 20.0102C6.67031 20.6769 7.05312 21.4711 7.92552 21.8305C8.79791 22.1925 9.63125 21.9008 10.3213 21.6508C11.0115 21.3982 11.6391 21.1612 11.9984 21.1612C12.324 21.1612 12.9463 21.4008 13.6417 21.656C14.3344 21.9112 15.1859 22.1977 16.0713 21.8305C16.9568 21.4659 17.3552 20.6612 17.6651 19.9894C17.975 19.3201 18.2458 18.7081 18.475 18.4789V18.4763C18.7302 18.2211 19.3422 17.9503 20.0089 17.6378C20.6729 17.3279 21.4698 16.9451 21.8292 16.0727C22.1911 15.2003 21.8995 14.367 21.6495 13.6769C21.3969 12.9867 21.1573 12.3591 21.1573 11.9998C21.1599 11.6742 21.3995 11.0519 21.6547 10.3565C21.9099 9.66383 22.1964 8.81227 21.8292 7.92685C21.4646 7.04144 20.6599 6.643 19.988 6.3331C19.3187 6.02321 18.7068 5.75237 18.475 5.52321C18.2198 5.268 17.9463 4.65602 17.6365 3.98935C17.3266 3.32529 16.9437 2.52842 16.0713 2.16644C15.199 1.80706 14.3656 2.09873 13.6755 2.34873C12.9854 2.60133 12.3578 2.84092 11.9984 2.83831C11.6729 2.83831 11.0505 2.59873 10.3552 2.34352C10.0088 2.21592 9.62343 2.0805 9.21197 2.02321C9.11041 2.00758 9.00624 1.99717 8.90208 1.99456ZM8.73281 3.50758C8.99843 3.49456 9.37343 3.5805 9.83958 3.74977C10.4594 3.97894 11.1573 4.33831 11.9984 4.33831C12.8474 4.34092 13.5635 3.98675 14.1885 3.75758C14.8109 3.53102 15.2667 3.4581 15.4958 3.55446C15.725 3.64821 15.9958 4.0206 16.2771 4.62477C16.5583 5.22633 16.8135 5.98154 17.4151 6.5831C18.0115 7.17685 18.7589 7.41644 19.3578 7.69508C19.9594 7.97112 20.337 8.23935 20.4437 8.49977V8.50237C20.5531 8.76279 20.475 9.22112 20.2484 9.84092C20.0193 10.4607 19.6599 11.1586 19.6573 11.9998C19.6573 12.8487 20.0115 13.5649 20.2406 14.1899C20.4672 14.8149 20.5401 15.2706 20.4437 15.4998C20.35 15.7289 19.9776 15.9972 19.3734 16.2784C18.7719 16.5597 18.0167 16.8175 17.4151 17.419C16.8213 18.0128 16.5818 18.7602 16.3031 19.3591C16.0271 19.9607 15.7588 20.3383 15.4984 20.4451H15.4958C15.2354 20.5545 14.7771 20.4789 14.1573 20.2498C13.5375 20.0206 12.8396 19.6612 11.9984 19.6612C11.1495 19.6612 10.4333 20.0128 9.80833 20.242C9.18333 20.4685 8.7276 20.5414 8.49843 20.4451C8.26927 20.3513 8.00104 19.9789 7.71979 19.3748C7.43854 18.7732 7.18072 18.018 6.57916 17.4164C5.98541 16.8227 5.23802 16.5831 4.63906 16.3071C4.0375 16.0284 3.65989 15.7602 3.55312 15.4998C3.44375 15.2367 3.51927 14.781 3.74843 14.1586C3.9776 13.5388 4.33697 12.8409 4.33697 11.9998C4.33697 11.1508 3.98541 10.4347 3.75625 9.80967C3.52968 9.18727 3.45677 8.73154 3.55312 8.50237C3.64687 8.27321 4.01927 8.00237 4.62343 7.72112C5.225 7.43987 5.9802 7.18467 6.58177 6.5831C7.17552 5.98675 7.4151 5.23935 7.69114 4.6404C7.96979 4.03883 8.23802 3.66123 8.49843 3.55446C8.56354 3.52581 8.64166 3.51019 8.73281 3.50758ZM15.7328 7.49196C15.5401 7.49977 15.3552 7.5805 15.2172 7.71852L7.71718 15.2185C7.52187 15.4086 7.44375 15.6873 7.51145 15.9503C7.57916 16.2133 7.78489 16.419 8.04791 16.4867C8.31093 16.5545 8.58958 16.4763 8.77968 16.281L16.2797 8.78102C16.501 8.56487 16.5661 8.23414 16.4463 7.95029C16.3266 7.66644 16.0427 7.48414 15.7328 7.49196ZM9.24843 7.49977C8.28229 7.49977 7.49843 8.28362 7.49843 9.24977C7.49843 10.2159 8.28229 10.9998 9.24843 10.9998C10.2146 10.9998 10.9984 10.2159 10.9984 9.24977C10.9984 8.28362 10.2146 7.49977 9.24843 7.49977ZM14.7484 12.9998C13.7823 12.9998 12.9984 13.7836 12.9984 14.7498C12.9984 15.7159 13.7823 16.4998 14.7484 16.4998C15.7146 16.4998 16.4984 15.7159 16.4984 14.7498C16.4984 13.7836 15.7146 12.9998 14.7484 12.9998Z" fill="#0D1011"/>
</g>
</svg>
