<svg width="24" height="24" viewBox="0 0 24 24" fill="none" xmlns="http://www.w3.org/2000/svg">
<g id="dislike">
<path id="Vector" d="M13.4427 22.5031C13.2188 22.4875 12.9948 22.4354 12.7865 22.3208C12.3698 22.0969 12.1198 21.6906 11.9687 21.274C11.9687 21.2687 11.9635 21.2687 11.9635 21.2687C11.9271 21.1646 11.9479 21.2115 11.9427 21.1906C11.9323 21.1646 11.9219 21.1281 11.9115 21.0865C11.8854 21.0031 11.8542 20.8885 11.8177 20.7531C11.7396 20.4771 11.6354 20.1177 11.5313 19.7635C11.3281 19.05 11.1302 18.3417 11.1302 18.3417C11.1302 18.3417 11.1302 18.3417 11.1302 18.3365C11.0729 18.1333 11.0208 18.0292 11.0052 17.9979C11 17.9979 11 17.9979 11 17.9927C10.2656 16.8469 9.46875 15.6854 8.69792 14.5135H5.25C4.01563 14.5135 3 13.4979 3 12.2635V4.26354C3 3.02917 4.01563 2.01354 5.25 2.01354H7.25C7.88021 2.01354 8.44792 2.27917 8.85417 2.70104C10.0104 2.45104 11.2969 2.175 12.349 1.95625C12.8958 1.83646 13.3802 1.7375 13.7448 1.66458C14.1094 1.59167 14.2448 1.55 14.4844 1.52916C14.6406 1.51354 14.7917 1.50833 14.9427 1.50833C17.0833 1.50833 18.974 2.96146 19.5208 5.07604C19.9427 6.69583 20.8021 10.0552 20.8021 10.0656C20.875 10.326 20.9688 10.6698 20.9948 11.0865C21.0417 11.9771 20.7292 12.8469 20.1198 13.4927C19.5 14.149 18.6354 14.5135 17.7187 14.5135H15.7344C15.9115 15.1437 16.0833 15.7479 16.2083 16.2427C16.5104 17.4302 16.5833 18.4875 16.3958 19.5031C16.401 19.5031 16.401 19.5031 16.3958 19.5031C16.3073 20.0083 16.1354 20.7479 15.6094 21.4302C15.2292 21.925 14.7031 22.2844 14.1094 22.4302C13.8958 22.4875 13.6667 22.5135 13.4427 22.5031ZM13.5417 21.0083C13.5781 21.0083 13.6406 21.0031 13.7448 20.9771C14.0104 20.9094 14.2188 20.7792 14.4219 20.5135C14.7188 20.1281 14.8438 19.6594 14.9219 19.2375C15.0625 18.4615 15.0208 17.649 14.7552 16.6125C14.5781 15.9094 14.026 13.9667 14.026 13.9667C13.9635 13.7427 14.0104 13.4979 14.151 13.3104C14.2917 13.1229 14.5156 13.0135 14.75 13.0135H17.7187C18.2448 13.0135 18.6979 12.8156 19.0313 12.4615C19.3594 12.1177 19.5208 11.6698 19.4948 11.1646C19.4844 10.9458 19.4271 10.7167 19.3542 10.4615C19.3542 10.4562 19.3542 10.451 19.3542 10.451C19.3542 10.451 18.4896 7.07083 18.0729 5.45625C17.6875 3.98229 16.4115 3.00833 14.9427 3.00833C14.8385 3.00833 14.7344 3.01354 14.6302 3.02395C14.7448 3.01354 14.401 3.06041 14.0417 3.13333C13.6875 3.20625 13.2031 3.30521 12.6563 3.425C11.7031 3.62291 10.5417 3.87291 9.46875 4.10729C9.47396 4.15937 9.5 4.20625 9.5 4.26354V13.0083C10.3854 14.3885 11.3542 15.7635 12.2656 17.1854C12.4271 17.4406 12.5 17.6906 12.5729 17.9302C12.5729 17.9354 12.7708 18.6385 12.974 19.3521C13.0781 19.7115 13.1771 20.0656 13.2552 20.3417C13.2969 20.4771 13.3281 20.5917 13.3542 20.6698C13.3646 20.7115 13.375 20.7427 13.3802 20.7687C13.4583 20.9823 13.5104 21.0083 13.5052 21.0031C13.5 21.0031 13.5052 21.0083 13.5417 21.0083ZM5.25 13.0135H8V4.26354C8 3.84167 7.67188 3.51354 7.25 3.51354H5.25C4.82813 3.51354 4.5 3.84167 4.5 4.26354V12.2635C4.5 12.6854 4.82813 13.0135 5.25 13.0135Z" fill="#0D1011"/>
</g>
</svg>
