<svg width="24" height="24" viewBox="0 0 24 24" fill="none" xmlns="http://www.w3.org/2000/svg">
<g id="Diversity ">
<path id="Vector" d="M7.25 3C4.91146 3 3 4.91146 3 7.25C3 9.58854 4.91146 11.5 7.25 11.5C9.58854 11.5 11.5 9.58854 11.5 7.25C11.5 4.91146 9.58854 3 7.25 3ZM15.25 3.5C14.0156 3.5 13 4.51563 13 5.75V8.75C13 9.98438 14.0156 11 15.25 11H18.25C19.4844 11 20.5 9.98438 20.5 8.75V5.75C20.5 4.51563 19.4844 3.5 18.25 3.5H15.25ZM7.25 4.5C8.77604 4.5 10 5.72396 10 7.25C10 8.77604 8.77604 10 7.25 10C5.72396 10 4.5 8.77604 4.5 7.25C4.5 5.72396 5.72396 4.5 7.25 4.5ZM15.25 5H18.25C18.6719 5 19 5.32813 19 5.75V8.75C19 9.17188 18.6719 9.5 18.25 9.5H15.25C14.8281 9.5 14.5 9.17188 14.5 8.75V5.75C14.5 5.32813 14.8281 5 15.25 5ZM16.7448 12.5C16.2656 12.4948 15.7813 12.6406 15.375 12.9375L13.3542 14.3958C12.5365 14.9844 12.1927 16.0417 12.5 17L13.2604 19.3698C13.5677 20.3281 14.4635 20.9844 15.474 20.9896L17.9635 20.9948C18.974 21 19.8698 20.349 20.1875 19.3958L20.9635 17.026C21.2813 16.0677 20.9375 15.0104 20.125 14.4167L18.1146 12.9479C17.7083 12.651 17.2292 12.5 16.7448 12.5ZM7.25 13.0313C6.56771 13.0313 5.88021 13.3594 5.50521 14.0208L3.27083 17.9271C2.51563 19.2604 3.48437 21 5.02083 21H9.47917C11.0156 21 11.9844 19.2604 11.2292 17.9271L8.99479 14.0208C8.61979 13.3594 7.93229 13.0313 7.25 13.0313ZM16.7396 13.9948C16.9115 13.9948 17.0833 14.0521 17.2292 14.1563L19.2396 15.6302C19.5365 15.8438 19.651 16.2135 19.5417 16.5573C19.5417 16.5573 19.5417 16.5573 19.5365 16.5573L18.7604 18.9271C18.6458 19.2708 18.3333 19.5 17.9687 19.4948L15.4792 19.4896C15.1146 19.4896 14.8021 19.2552 14.6875 18.9115L13.9271 16.5417C13.8177 16.1927 13.9375 15.8229 14.2344 15.6146C14.2344 15.6094 14.2344 15.6094 14.2344 15.6094L16.2552 14.151C16.401 14.0469 16.5729 13.9948 16.7396 13.9948ZM7.25 14.4687C7.41667 14.4687 7.58333 14.5677 7.69271 14.7656L9.92187 18.6719C10.151 19.0729 9.90625 19.5 9.47917 19.5H5.02083C4.59375 19.5 4.34896 19.0729 4.57813 18.6719L6.80729 14.7656C6.92188 14.5677 7.08333 14.4687 7.25 14.4687Z" fill="#0D1011"/>
</g>
</svg>
