<svg width="24" height="24" viewBox="0 0 24 24" fill="none" xmlns="http://www.w3.org/2000/svg">
<g id="docs ">
<path id="Vector" d="M6.25 2C5.01625 2 4 3.01625 4 4.25V19.75C4 20.9838 5.01625 22 6.25 22H17.75C18.9838 22 20 20.9838 20 19.75V8.25C20 8.0511 19.9209 7.86036 19.7803 7.71973L19.7725 7.71191L14.2803 2.21973C14.1396 2.07907 13.9489 2.00004 13.75 2H6.25ZM6.25 3.5H13V6.75C13 7.98375 14.0162 9 15.25 9H18.5V19.75C18.5 20.1733 18.1732 20.5 17.75 20.5H6.25C5.82675 20.5 5.5 20.1733 5.5 19.75V4.25C5.5 3.82675 5.82675 3.5 6.25 3.5ZM14.5 4.56055L17.4395 7.5H15.25C14.8268 7.5 14.5 7.17325 14.5 6.75V4.56055ZM8.75 11C8.65062 10.9986 8.55194 11.017 8.45972 11.054C8.36749 11.0911 8.28355 11.1461 8.21277 11.2159C8.142 11.2857 8.08579 11.3688 8.04743 11.4605C8.00907 11.5522 7.98932 11.6506 7.98932 11.75C7.98932 11.8494 8.00907 11.9478 8.04743 12.0395C8.08579 12.1312 8.142 12.2143 8.21277 12.2841C8.28355 12.3539 8.36749 12.4089 8.45972 12.446C8.55194 12.483 8.65062 12.5014 8.75 12.5H15.25C15.3494 12.5014 15.4481 12.483 15.5403 12.446C15.6325 12.4089 15.7164 12.3539 15.7872 12.2841C15.858 12.2143 15.9142 12.1312 15.9526 12.0395C15.9909 11.9478 16.0107 11.8494 16.0107 11.75C16.0107 11.6506 15.9909 11.5522 15.9526 11.4605C15.9142 11.3688 15.858 11.2857 15.7872 11.2159C15.7164 11.1461 15.6325 11.0911 15.5403 11.054C15.4481 11.017 15.3494 10.9986 15.25 11H8.75ZM8.75 14C8.65062 13.9986 8.55194 14.017 8.45972 14.054C8.36749 14.0911 8.28355 14.1461 8.21277 14.2159C8.142 14.2857 8.08579 14.3688 8.04743 14.4605C8.00907 14.5522 7.98932 14.6506 7.98932 14.75C7.98932 14.8494 8.00907 14.9478 8.04743 15.0395C8.08579 15.1312 8.142 15.2143 8.21277 15.2841C8.28355 15.3539 8.36749 15.4089 8.45972 15.446C8.55194 15.483 8.65062 15.5014 8.75 15.5H15.25C15.3494 15.5014 15.4481 15.483 15.5403 15.446C15.6325 15.4089 15.7164 15.3539 15.7872 15.2841C15.858 15.2143 15.9142 15.1312 15.9526 15.0395C15.9909 14.9478 16.0107 14.8494 16.0107 14.75C16.0107 14.6506 15.9909 14.5522 15.9526 14.4605C15.9142 14.3688 15.858 14.2857 15.7872 14.2159C15.7164 14.1461 15.6325 14.0911 15.5403 14.054C15.4481 14.017 15.3494 13.9986 15.25 14H8.75ZM8.75 17C8.65062 16.9986 8.55194 17.017 8.45972 17.054C8.36749 17.0911 8.28355 17.1461 8.21277 17.2159C8.142 17.2857 8.08579 17.3688 8.04743 17.4605C8.00907 17.5522 7.98932 17.6506 7.98932 17.75C7.98932 17.8494 8.00907 17.9478 8.04743 18.0395C8.08579 18.1312 8.142 18.2143 8.21277 18.2841C8.28355 18.3539 8.36749 18.4089 8.45972 18.446C8.55194 18.483 8.65062 18.5014 8.75 18.5H13.25C13.3494 18.5014 13.4481 18.483 13.5403 18.446C13.6325 18.4089 13.7164 18.3539 13.7872 18.2841C13.858 18.2143 13.9142 18.1312 13.9526 18.0395C13.9909 17.9478 14.0107 17.8494 14.0107 17.75C14.0107 17.6506 13.9909 17.5522 13.9526 17.4605C13.9142 17.3688 13.858 17.2857 13.7872 17.2159C13.7164 17.1461 13.6325 17.0911 13.5403 17.054C13.4481 17.017 13.3494 16.9986 13.25 17H8.75Z" fill="#0D1011"/>
</g>
</svg>
