<svg width="24" height="24" viewBox="0 0 24 24" fill="none" xmlns="http://www.w3.org/2000/svg">
<g id="documentary ">
<path id="Vector" d="M13 3C11.2829 3 9.7854 3.97433 9.02734 5.39648C8.29237 4.5437 7.20747 4 6 4C3.79974 4 2 5.79975 2 8C2 9.08826 2.44109 10.0778 3.15234 10.8008C2.46994 11.1892 2 11.9157 2 12.75V18.75C2 19.9838 3.01625 21 4.25 21H14.75C15.8789 21 16.816 20.1465 16.9688 19.0566L19.3496 20.4844C20.4838 21.165 22 20.3062 22 18.9834V13.0156C22 12.0235 21.1471 11.2926 20.2422 11.2764C19.9405 11.2709 19.6332 11.3455 19.3496 11.5156L17 12.9248V12.75C17 11.9651 16.5867 11.2713 15.9697 10.8682C16.9048 10.0422 17.5 8.83908 17.5 7.5C17.5 5.0236 15.4764 3 13 3ZM13 4.5C14.6657 4.5 16 5.83426 16 7.5C16 9.16574 14.6657 10.5 13 10.5C11.3343 10.5 10 9.16574 10 7.5C10 5.83426 11.3343 4.5 13 4.5ZM6 5.5C7.3896 5.5 8.5 6.6104 8.5 8C8.5 9.3896 7.3896 10.5 6 10.5C4.6104 10.5 3.5 9.3896 3.5 8C3.5 6.6104 4.6104 5.5 6 5.5ZM4.25 12H6H13H14.75C15.1732 12 15.5 12.3268 15.5 12.75V18.75C15.5 19.1733 15.1732 19.5 14.75 19.5H4.25C3.82675 19.5 3.5 19.1733 3.5 18.75V12.75C3.5 12.3268 3.82675 12 4.25 12ZM20.2646 12.752C20.3992 12.7409 20.5 12.8415 20.5 13.0156V18.9834C20.5 19.2156 20.3199 19.3176 20.1211 19.1982L17 17.3252V14.6748L20.1211 12.8018C20.1708 12.7719 20.2198 12.7556 20.2646 12.752Z" fill="#0D1011"/>
</g>
</svg>
