<svg width="24" height="24" viewBox="0 0 24 24" fill="none" xmlns="http://www.w3.org/2000/svg">
<g id="donate">
<path id="Vector" d="M14.2839 0.995117C14.1901 0.995117 14.0964 1.00553 14.0078 1.03678L8.46615 2.88574C8.46094 2.88574 8.45573 2.89095 8.45052 2.89095C7.6901 3.16178 7.02865 3.65658 6.54948 4.30762C6.54948 4.31803 6.54427 4.32324 6.53906 4.32845L4.05469 7.96907C3.6901 8.51074 3.49219 9.15137 3.49219 9.80241L3.4974 14.8857C3.4974 16.1774 4.34114 17.2816 5.50781 17.6722C5.59635 20.6097 8.01302 22.9899 10.9766 23.0003C14.0026 23.0107 16.487 20.5524 16.4974 17.5212C16.4974 17.0732 16.4453 16.6357 16.3464 16.2191L19.138 14.516C19.8776 14.0628 20.4453 13.3649 20.7318 12.5368C21.2266 11.0889 21.9974 8.35449 21.9974 5.25033C22.0026 5.0472 21.9193 4.85449 21.7786 4.70866C21.6328 4.56803 21.4401 4.4847 21.237 4.48991C20.8203 4.49512 20.4922 4.83887 20.4974 5.25033C20.4974 8.10449 19.7734 10.6982 19.3099 12.0524C19.1432 12.5472 18.8047 12.9639 18.3568 13.2347L13.1849 16.3857C13.1797 16.391 13.1745 16.391 13.1745 16.3962C12.9505 16.5368 12.6693 16.5107 12.4714 16.3389C11.8776 15.7191 11.8776 14.7607 12.4766 14.1462L15.2109 12.0107C15.3932 11.8701 15.4974 11.6514 15.4974 11.4222C15.4974 9.80762 14.7057 8.43783 13.5234 7.69824C12.3411 6.96387 10.7526 6.88574 9.36198 7.7347C8.41927 8.31803 7.9401 8.99512 7.21615 9.71907C7.07552 9.8597 6.9974 10.0524 6.9974 10.2503V13.7399C6.3776 14.4014 5.91927 15.2087 5.6849 16.1097C5.27344 15.8597 4.9974 15.4118 4.9974 14.8857L4.99219 9.80241C4.99219 9.44824 5.09635 9.10449 5.29427 8.81283L7.76302 5.19303C8.0651 4.78678 8.47656 4.47428 8.95573 4.30241L14.487 2.46387C14.8307 2.35449 15.0495 2.00553 15.0026 1.64616C14.9505 1.28158 14.6484 1.01074 14.2839 0.995117ZM11.5182 8.60449C11.9505 8.6097 12.362 8.74512 12.7266 8.97428C13.3828 9.38053 13.8255 10.1566 13.9245 11.1149L12.513 12.2139C12.0391 12.0785 11.5391 12.0003 11.0182 12.0003C10.112 11.9951 9.25781 12.2191 8.4974 12.6097V10.5732C9.13281 9.91699 9.54948 9.38574 10.1484 9.01595C10.6172 8.72428 11.0807 8.59928 11.5182 8.60449ZM11.013 13.5003C11.0339 13.5003 11.0547 13.5003 11.0703 13.5055C10.2474 14.6982 10.3672 16.3649 11.4245 17.4274C11.4349 17.4326 11.4453 17.443 11.4557 17.4535C12.1536 18.0785 13.1849 18.1618 13.9766 17.6618L14.9661 17.0576C14.9818 17.2087 14.9974 17.3597 14.9974 17.516C14.987 19.7347 13.2005 21.5107 10.9818 21.5003C8.76302 21.4899 6.98698 19.7035 6.9974 17.4847C7.00781 15.266 8.79427 13.4899 11.013 13.5003Z" fill="#0D1011"/>
</g>
</svg>
