<svg width="24" height="24" viewBox="0 0 24 24" fill="none" xmlns="http://www.w3.org/2000/svg">
<g id="double_chevron_up">
<path id="Vector" d="M12.0002 6C11.8058 6 11.6093 6.06047 11.4625 6.17824L4.22175 11.9854C3.92608 12.2225 3.92608 12.6108 4.22175 12.8479C4.51939 13.0867 5.00357 13.0867 5.30121 12.8479L12.0002 7.47526L18.7013 12.8479C18.8501 12.9689 19.0446 13.0278 19.239 13.0278C19.4335 13.0278 19.6279 12.9689 19.7768 12.8479C20.0744 12.6108 20.0744 12.2225 19.7768 11.9854L12.538 6.17824C12.3912 6.06047 12.1947 6 12.0002 6ZM12.0002 9.97222C11.8058 9.97222 11.6093 10.0327 11.4625 10.1521L4.22175 15.9576C3.92608 16.1947 3.92608 16.583 4.22175 16.8202C4.51939 17.0589 5.00357 17.0589 5.30121 16.8202L12.0002 11.4475L18.7013 16.8202C18.8501 16.9411 19.0446 17 19.239 17C19.4335 17 19.6279 16.9411 19.7768 16.8202C20.0744 16.583 20.0744 16.1947 19.7768 15.9576L12.538 10.1521C12.3912 10.0327 12.1947 9.97222 12.0002 9.97222Z" fill="#0D1011"/>
</g>
</svg>
