<svg width="24" height="24" viewBox="0 0 24 24" fill="none" xmlns="http://www.w3.org/2000/svg">
<g id="double_chevron_right">
<path id="Vector" d="M6.52353 4C6.41976 4.00003 6.31836 4.03395 6.2323 4.09744C6.14624 4.16092 6.07943 4.25108 6.04043 4.35637C6.00143 4.46166 5.992 4.57729 6.01336 4.68848C6.03471 4.79967 6.08588 4.90136 6.16031 4.98053L12.57 11.9988L6.16031 19.0172C6.11027 19.0698 6.07032 19.1328 6.04279 19.2025C6.01527 19.2722 6.00073 19.3473 6.00003 19.4232C5.99932 19.4992 6.01246 19.5745 6.03869 19.6448C6.06491 19.7152 6.10368 19.7791 6.15273 19.8328C6.20179 19.8865 6.26014 19.9289 6.32436 19.9576C6.38859 19.9864 6.4574 20.0007 6.52677 20C6.59614 19.9992 6.66467 19.9833 6.72835 19.9531C6.79203 19.923 6.84958 19.8793 6.89762 19.8245L13.676 12.4025C13.7738 12.2954 13.8287 12.1502 13.8287 11.9988C13.8287 11.8474 13.7738 11.7023 13.676 11.5952L6.89762 4.17321C6.84902 4.11841 6.79087 4.07484 6.72661 4.04509C6.66235 4.01533 6.5933 4 6.52353 4ZM10.6949 4C10.5911 4.00003 10.4897 4.03395 10.4036 4.09744C10.3176 4.16092 10.2508 4.25108 10.2118 4.35637C10.1727 4.46166 10.1633 4.57729 10.1847 4.68848C10.206 4.79967 10.2572 4.90136 10.3316 4.98053L16.7414 11.9988L10.3316 19.0172C10.2816 19.0698 10.2416 19.1328 10.2141 19.2025C10.1866 19.2722 10.1721 19.3473 10.1714 19.4232C10.1706 19.4992 10.1838 19.5745 10.21 19.6448C10.2362 19.7152 10.275 19.7791 10.3241 19.8328C10.3731 19.8865 10.4315 19.9289 10.4957 19.9576C10.5599 19.9864 10.6287 20.0007 10.6981 20C10.7675 19.9992 10.836 19.9833 10.8997 19.9531C10.9634 19.923 11.0209 19.8793 11.0689 19.8245L17.8473 12.4025C17.9451 12.2954 18 12.1502 18 11.9988C18 11.8474 17.9451 11.7023 17.8473 11.5952L11.0689 4.17321C11.0203 4.11841 10.9622 4.07484 10.8979 4.04509C10.8337 4.01533 10.7646 4 10.6949 4Z" fill="#0D1011"/>
</g>
</svg>
