<svg width="24" height="24" viewBox="0 0 24 24" fill="none" xmlns="http://www.w3.org/2000/svg">
<g id="double_chevron_dwon">
<path id="Vector" d="M4.76148 7C4.56702 7 4.37057 7.06047 4.22175 7.17824C3.92608 7.41696 3.92608 7.80527 4.22175 8.04398L11.4625 13.8479C11.6113 13.9689 11.8058 14.0278 12.0002 14.0278C12.1947 14.0278 12.3892 13.9689 12.538 13.8479L19.7768 8.04398C20.0744 7.80527 20.0744 7.41696 19.7768 7.17824C19.4811 6.94112 18.9969 6.94112 18.7013 7.17824L12.0002 12.5525L5.30121 7.17824C5.15239 7.06047 4.95594 7 4.76148 7ZM4.76148 10.9722C4.56702 10.9722 4.37057 11.0327 4.22175 11.1521C3.92608 11.3892 3.92608 11.7775 4.22175 12.0146L11.4625 17.8202C11.6113 17.9411 11.8058 18 12.0002 18C12.1947 18 12.3892 17.9411 12.538 17.8202L19.7768 12.0146C20.0744 11.7775 20.0744 11.3892 19.7768 11.1521C19.4811 10.9133 18.9969 10.9133 18.7013 11.1521L12.0002 16.5247L5.30121 11.1521C5.15239 11.0327 4.95594 10.9722 4.76148 10.9722Z" fill="#0D1011"/>
</g>
</svg>
