<svg width="24" height="24" viewBox="0 0 24 24" fill="none" xmlns="http://www.w3.org/2000/svg">
<g id="Double Tick ">
<path id="Vector" d="M18.2215 5.49488C18.0288 5.50529 17.8413 5.58863 17.711 5.72925L9.19542 14.6355L6.28396 11.7188C6.09646 11.5261 5.81521 11.4428 5.5548 11.5157C5.28917 11.5834 5.08605 11.7865 5.01834 12.0522C4.94542 12.3126 5.02875 12.5938 5.22146 12.7813L8.15896 15.7188L7.2423 16.6772L2.28396 11.7188C2.09646 11.5261 1.81521 11.4428 1.5548 11.5157C1.28917 11.5834 1.08605 11.7865 1.01834 12.0522C0.945421 12.3126 1.02875 12.5938 1.22146 12.7813L6.72146 18.2813C6.8673 18.422 7.06 18.5001 7.26313 18.5001C7.46105 18.5001 7.65375 18.4168 7.79438 18.2709L9.22146 16.7761L10.7215 18.2813C10.8673 18.422 11.06 18.5001 11.2631 18.5001C11.461 18.5001 11.6538 18.4168 11.7944 18.2709L22.7944 6.77092C23.0131 6.54696 23.0704 6.21884 22.9454 5.93238C22.8152 5.65113 22.5288 5.47925 22.2215 5.49488C22.0288 5.50529 21.8413 5.58863 21.711 5.72925L11.2423 16.6772L10.2579 15.6928L18.7944 6.77092C19.0131 6.54696 19.0704 6.21884 18.9454 5.93238C18.8152 5.65113 18.5288 5.47925 18.2215 5.49488Z" fill="#0D1011"/>
</g>
</svg>
