<svg width="24" height="24" viewBox="0 0 24 24" fill="none" xmlns="http://www.w3.org/2000/svg">
<g id="double_chevron_left">
<path id="Vector" d="M13.2895 4.00024C13.1541 4.00456 13.0256 4.06641 12.9311 4.17271L6.15266 11.5949C6.05491 11.702 6 11.8472 6 11.9986C6 12.15 6.05491 12.2952 6.15266 12.4023L12.9311 19.8245C12.9791 19.8793 13.0367 19.923 13.1003 19.9531C13.164 19.9833 13.2325 19.9992 13.3019 20C13.3713 20.0007 13.4401 19.9864 13.5043 19.9576C13.5685 19.9289 13.6269 19.8865 13.6759 19.8328C13.725 19.779 13.7638 19.7152 13.79 19.6448C13.8162 19.5745 13.8294 19.4992 13.8287 19.4232C13.8279 19.3472 13.8134 19.2722 13.7859 19.2025C13.7584 19.1327 13.7184 19.0697 13.6684 19.0171L7.25863 11.9986L13.6684 4.98005C13.7436 4.89983 13.7949 4.79662 13.8157 4.68391C13.8365 4.57121 13.8257 4.45426 13.7847 4.34838C13.7438 4.24251 13.6746 4.15263 13.5863 4.09051C13.4979 4.02839 13.3945 3.99693 13.2895 4.00024ZM17.4609 4.00024C17.3254 4.00456 17.1969 4.06641 17.1024 4.17271L10.324 11.5949C10.2262 11.702 10.1713 11.8472 10.1713 11.9986C10.1713 12.15 10.2262 12.2952 10.324 12.4023L17.1024 19.8245C17.1504 19.8793 17.208 19.923 17.2717 19.9531C17.3353 19.9833 17.4039 19.9992 17.4732 20C17.5426 20.0007 17.6114 19.9864 17.6756 19.9576C17.7399 19.9289 17.7982 19.8865 17.8473 19.8328C17.8963 19.779 17.9351 19.7152 17.9613 19.6448C17.9875 19.5745 18.0007 19.4992 18 19.4232C17.9993 19.3472 17.9847 19.2722 17.9572 19.2025C17.9297 19.1327 17.8897 19.0697 17.8397 19.0171L11.43 11.9986L17.8397 4.98005C17.9149 4.89983 17.9663 4.79662 17.987 4.68391C18.0078 4.57121 17.997 4.45426 17.9561 4.34838C17.9151 4.24251 17.846 4.15263 17.7576 4.09051C17.6692 4.02839 17.5658 3.99693 17.4609 4.00024Z" fill="#0D1011"/>
</g>
</svg>
