<svg width="24" height="24" viewBox="0 0 24 24" fill="none" xmlns="http://www.w3.org/2000/svg">
<g id="down_left_arrow">
<path id="Vector" d="M5.5 10.0002C4.94792 10.0002 4.5 10.4481 4.5 11.0002V18.5002C4.5 18.5653 4.50781 18.6304 4.51823 18.6955C4.52604 18.7267 4.53646 18.7528 4.54427 18.7814C4.55469 18.8153 4.5625 18.8491 4.57552 18.883C4.59115 18.9168 4.60937 18.9481 4.6276 18.9819C4.64063 19.0054 4.65104 19.0314 4.66927 19.0549C4.74219 19.1642 4.83594 19.258 4.94531 19.3309C4.96875 19.3491 4.99479 19.3595 5.01823 19.3726C5.05208 19.3908 5.08333 19.409 5.11719 19.4246C5.15104 19.4377 5.1849 19.4455 5.21875 19.4559C5.2474 19.4637 5.27344 19.4741 5.30469 19.4819C5.36979 19.4924 5.4349 19.5002 5.5 19.5002H13C13.5521 19.5002 14 19.0522 14 18.5002C14 17.9481 13.5521 17.5002 13 17.5002H7.91406L19.2057 6.20589C19.5964 5.81787 19.5964 5.18245 19.2057 4.79443C18.8177 4.40381 18.1823 4.40381 17.7943 4.79443L6.5 16.0861V11.0002C6.5 10.4481 6.05208 10.0002 5.5 10.0002Z" fill="#0D1011"/>
</g>
</svg>
