<svg width="24" height="24" viewBox="0 0 24 24" fill="none" xmlns="http://www.w3.org/2000/svg">
<g id="downloading_updates ">
<path id="Vector" d="M11.9884 2.98935C11.7896 2.99245 11.6002 3.07432 11.4618 3.21696C11.3234 3.35959 11.2472 3.55135 11.2501 3.75009V14.4395L9.53035 12.7198C9.46044 12.6478 9.3768 12.5906 9.28437 12.5515C9.19195 12.5124 9.09262 12.4923 8.99226 12.4923C8.843 12.4923 8.69715 12.5369 8.57336 12.6203C8.44957 12.7037 8.35348 12.8221 8.29737 12.9604C8.24127 13.0987 8.22771 13.2507 8.25843 13.3967C8.28914 13.5428 8.36274 13.6764 8.4698 13.7804L11.4698 16.7804C11.6105 16.921 11.8012 16.9999 12.0001 16.9999C12.199 16.9999 12.3897 16.921 12.5304 16.7804L15.5304 13.7804C15.6023 13.7113 15.6598 13.6285 15.6994 13.5369C15.739 13.4453 15.7599 13.3467 15.7609 13.2469C15.7619 13.1472 15.743 13.0482 15.7053 12.9558C15.6676 12.8634 15.6118 12.7795 15.5412 12.7089C15.4707 12.6384 15.3868 12.5826 15.2944 12.5449C15.202 12.5072 15.103 12.4883 15.0032 12.4893C14.9035 12.4903 14.8049 12.5112 14.7133 12.5508C14.6217 12.5904 14.5389 12.6478 14.4698 12.7198L12.7501 14.4395V3.75009C12.7515 3.64971 12.7328 3.55006 12.695 3.45705C12.6572 3.36403 12.6012 3.27955 12.5301 3.20861C12.4591 3.13767 12.3745 3.0817 12.2815 3.04404C12.1884 3.00638 12.0887 2.98778 11.9884 2.98935ZM3.73836 15.4893C3.53962 15.4925 3.35023 15.5743 3.21181 15.717C3.07338 15.8596 2.99723 16.0513 3.00008 16.2501V18.2501C3.00008 19.76 4.24019 21.0001 5.75008 21.0001H18.2501C19.76 21.0001 21.0001 19.76 21.0001 18.2501V16.2501C21.0015 16.1507 20.9831 16.052 20.9461 15.9598C20.909 15.8676 20.854 15.7836 20.7842 15.7129C20.7144 15.6421 20.6313 15.5859 20.5396 15.5475C20.4479 15.5092 20.3495 15.4894 20.2501 15.4894C20.1507 15.4894 20.0523 15.5092 19.9606 15.5475C19.8689 15.5859 19.7857 15.6421 19.716 15.7129C19.6462 15.7836 19.5912 15.8676 19.5541 15.9598C19.517 16.052 19.4987 16.1507 19.5001 16.2501V18.2501C19.5001 18.9492 18.9492 19.5001 18.2501 19.5001H5.75008C5.05096 19.5001 4.50008 18.9492 4.50008 18.2501V16.2501C4.50152 16.1497 4.48279 16.0501 4.44501 15.957C4.40723 15.864 4.35116 15.7796 4.28012 15.7086C4.20909 15.6377 4.12454 15.5817 4.03147 15.544C3.93841 15.5064 3.83874 15.4878 3.73836 15.4893Z" fill="#0D1011"/>
</g>
</svg>
