<svg width="24" height="24" viewBox="0 0 24 24" fill="none" xmlns="http://www.w3.org/2000/svg">
<g id="down_right_arrow">
<path id="Vector" d="M11.4987 17.5002C10.9466 17.5002 10.4987 17.9481 10.4987 18.5002C10.4987 19.0522 10.9466 19.5002 11.4987 19.5002H18.4987C18.5638 19.5002 18.6289 19.4924 18.694 19.4819C18.7253 19.4741 18.7513 19.4637 18.7799 19.4559C18.8138 19.4455 18.8477 19.4377 18.8815 19.4246C18.9154 19.409 18.944 19.3908 18.9779 19.3726C19.0039 19.3595 19.0299 19.3491 19.0534 19.3309C19.1628 19.258 19.2591 19.1642 19.332 19.0549C19.3477 19.0314 19.3581 19.0054 19.3711 18.9793C19.3893 18.9481 19.4102 18.9168 19.4232 18.883C19.4362 18.8491 19.444 18.8153 19.4544 18.7814C19.4622 18.7528 19.4727 18.7267 19.4805 18.6955C19.4909 18.6304 19.4987 18.5653 19.4987 18.5002V11.5002C19.4987 10.9481 19.0508 10.5002 18.4987 10.5002C17.9466 10.5002 17.4987 10.9481 17.4987 11.5002V16.0861L6.20443 4.79443C5.81641 4.40381 5.18099 4.40381 4.79297 4.79443C4.40234 5.18245 4.40234 5.81787 4.79297 6.20589L16.0846 17.5002H11.4987Z" fill="#0D1011"/>
</g>
</svg>
