<svg width="24" height="24" viewBox="0 0 24 24" fill="none" xmlns="http://www.w3.org/2000/svg">
<g id="down_arrow">
<path id="Vector" d="M11.9844 3.00017C11.4333 3.00757 10.994 3.43658 11.0018 3.95928V17.7689L5.71687 12.7589C5.46732 12.5098 5.09558 12.4112 4.74724 12.4975C4.3963 12.5838 4.12334 12.8427 4.03236 13.1755C3.94137 13.5059 4.04536 13.8585 4.30531 14.0952L11.2955 20.7226C11.6829 21.0925 12.3172 21.0925 12.7045 20.7226L19.6921 14.0952C19.9547 13.8585 20.0587 13.5059 19.9677 13.1755C19.8767 12.8427 19.6037 12.5838 19.2528 12.4975C18.9045 12.4112 18.5327 12.5098 18.2832 12.7589L12.9983 17.7689V3.95928C13.0008 3.70286 12.8969 3.4563 12.7045 3.27632C12.5147 3.09633 12.2548 2.99524 11.9844 3.00017Z" fill="#0D1011"/>
</g>
</svg>
