<svg width="24" height="24" viewBox="0 0 24 24" fill="none" xmlns="http://www.w3.org/2000/svg">
<g id="drag_reorder ">
<path id="Vector" d="M11.9921 2.00007C11.797 2.00293 11.6106 2.08175 11.4726 2.2198L8.9726 4.7198C8.90062 4.78891 8.84315 4.87169 8.80357 4.96328C8.76398 5.05488 8.74306 5.15345 8.74205 5.25323C8.74104 5.35301 8.75994 5.45199 8.79766 5.54437C8.83537 5.63675 8.89114 5.72068 8.9617 5.79124C9.03226 5.8618 9.11619 5.91757 9.20857 5.95529C9.30095 5.993 9.39993 6.01191 9.49971 6.01089C9.59949 6.00988 9.69807 5.98897 9.78966 5.94938C9.88126 5.90979 9.96403 5.85233 10.0331 5.78035L12.0029 3.81062L13.9726 5.78035C14.0417 5.85233 14.1245 5.90979 14.2161 5.94938C14.3077 5.98897 14.4062 6.00988 14.506 6.01089C14.6058 6.01191 14.7048 5.993 14.7972 5.95529C14.8895 5.91757 14.9735 5.8618 15.044 5.79124C15.1146 5.72068 15.1704 5.63675 15.2081 5.54437C15.2458 5.45199 15.2647 5.35301 15.2637 5.25323C15.2627 5.15345 15.2418 5.05488 15.2022 4.96328C15.1626 4.87169 15.1051 4.78891 15.0331 4.7198L12.5331 2.2198C12.4622 2.14886 12.3778 2.09287 12.2849 2.05513C12.192 2.01739 12.0924 1.99867 11.9921 2.00007ZM2.75287 8.00007C2.65349 7.99867 2.55481 8.01703 2.46259 8.05409C2.37036 8.09115 2.28642 8.14617 2.21564 8.21595C2.14487 8.28574 2.08866 8.36889 2.0503 8.46058C2.01194 8.55228 1.99219 8.65068 1.99219 8.75007C1.99219 8.84947 2.01194 8.94787 2.0503 9.03956C2.08866 9.13126 2.14487 9.21441 2.21564 9.28419C2.28642 9.35398 2.37036 9.409 2.46259 9.44606C2.55481 9.48312 2.65349 9.50148 2.75287 9.50007H21.2529C21.3523 9.50148 21.4509 9.48312 21.5432 9.44606C21.6354 9.409 21.7193 9.35398 21.7901 9.28419C21.8609 9.21441 21.9171 9.13126 21.9554 9.03956C21.9938 8.94787 22.0135 8.84947 22.0135 8.75007C22.0135 8.65068 21.9938 8.55228 21.9554 8.46058C21.9171 8.36889 21.8609 8.28574 21.7901 8.21595C21.7193 8.14617 21.6354 8.09115 21.5432 8.05409C21.4509 8.01703 21.3523 7.99867 21.2529 8.00007H2.75287ZM2.75287 11.5001C2.65349 11.4987 2.55481 11.517 2.46259 11.5541C2.37036 11.5912 2.28642 11.6462 2.21564 11.716C2.14487 11.7857 2.08866 11.8689 2.0503 11.9606C2.01194 12.0523 1.99219 12.1507 1.99219 12.2501C1.99219 12.3495 2.01194 12.4479 2.0503 12.5396C2.08866 12.6313 2.14487 12.7144 2.21564 12.7842C2.28642 12.854 2.37036 12.909 2.46259 12.9461C2.55481 12.9831 2.65349 13.0015 2.75287 13.0001H21.2529C21.3523 13.0015 21.4509 12.9831 21.5432 12.9461C21.6354 12.909 21.7193 12.854 21.7901 12.7842C21.8609 12.7144 21.9171 12.6313 21.9554 12.5396C21.9938 12.4479 22.0135 12.3495 22.0135 12.2501C22.0135 12.1507 21.9938 12.0523 21.9554 11.9606C21.9171 11.8689 21.8609 11.7857 21.7901 11.716C21.7193 11.6462 21.6354 11.5912 21.5432 11.5541C21.4509 11.517 21.3523 11.4987 21.2529 11.5001H2.75287ZM2.75287 15.0001C2.65349 14.9987 2.55481 15.017 2.46259 15.0541C2.37036 15.0912 2.28642 15.1462 2.21564 15.216C2.14487 15.2857 2.08866 15.3689 2.0503 15.4606C2.01194 15.5523 1.99219 15.6507 1.99219 15.7501C1.99219 15.8495 2.01194 15.9479 2.0503 16.0396C2.08866 16.1313 2.14487 16.2144 2.21564 16.2842C2.28642 16.354 2.37036 16.409 2.46259 16.4461C2.55481 16.4831 2.65349 16.5015 2.75287 16.5001H21.2529C21.3523 16.5015 21.4509 16.4831 21.5432 16.4461C21.6354 16.409 21.7193 16.354 21.7901 16.2842C21.8609 16.2144 21.9171 16.1313 21.9554 16.0396C21.9938 15.9479 22.0135 15.8495 22.0135 15.7501C22.0135 15.6507 21.9938 15.5523 21.9554 15.4606C21.9171 15.3689 21.8609 15.2857 21.7901 15.216C21.7193 15.1462 21.6354 15.0912 21.5432 15.0541C21.4509 15.017 21.3523 14.9987 21.2529 15.0001H2.75287ZM14.496 18.4893C14.298 18.494 14.1098 18.5769 13.9726 18.7198L12.0029 20.6895L10.0331 18.7198C9.96323 18.6478 9.87959 18.5906 9.78716 18.5515C9.69474 18.5124 9.59541 18.4923 9.49506 18.4923C9.3458 18.4923 9.19994 18.5369 9.07615 18.6203C8.95236 18.7037 8.85627 18.8221 8.80017 18.9604C8.74406 19.0987 8.7305 19.2506 8.76122 19.3967C8.79194 19.5428 8.86553 19.6763 8.9726 19.7803L11.4726 22.2803C11.6133 22.4209 11.804 22.4999 12.0029 22.4999C12.2017 22.4999 12.3925 22.4209 12.5331 22.2803L15.0331 19.7803C15.1422 19.6757 15.2171 19.5405 15.248 19.3925C15.2789 19.2445 15.2643 19.0907 15.2063 18.9511C15.1482 18.8115 15.0493 18.6927 14.9226 18.6103C14.7958 18.5279 14.6472 18.4858 14.496 18.4893Z" fill="#0D1011"/>
</g>
</svg>
