<svg width="24" height="24" viewBox="0 0 24 24" fill="none" xmlns="http://www.w3.org/2000/svg">
<g id="edit ">
<path id="Vector" d="M17.9994 2.50488C17.102 2.50488 16.2048 2.84507 15.5247 3.52539L4.45736 14.5918C4.24738 14.8018 4.09359 15.0629 4.01205 15.3496L2.52865 20.5439C2.49207 20.6725 2.49049 20.8084 2.52408 20.9378C2.55766 21.0671 2.6252 21.1852 2.71969 21.2797C2.81419 21.3742 2.93221 21.4417 3.06156 21.4753C3.19091 21.5089 3.32688 21.5073 3.45541 21.4707L8.65072 19.9873L8.6517 19.9863C8.93646 19.9045 9.19696 19.7526 9.40756 19.542L20.474 8.47461C21.8345 7.11405 21.8345 4.88595 20.474 3.52539C19.794 2.84507 18.8967 2.50488 17.9994 2.50488ZM17.9994 3.99609C18.5098 3.99609 19.0194 4.19276 19.4124 4.58594H19.4134C20.2009 5.37337 20.2009 6.62663 19.4134 7.41406L18.4437 8.38379L15.6156 5.55566L16.5853 4.58594C16.9783 4.19276 17.489 3.99609 17.9994 3.99609ZM14.555 6.61621L17.3831 9.44434L8.34604 18.4814C8.31672 18.5106 8.27959 18.5329 8.23764 18.5449L4.34115 19.6582L5.45443 15.7607V15.7598C5.4659 15.7195 5.4869 15.6834 5.51791 15.6523L14.555 6.61621Z" fill="#0D1011"/>
</g>
</svg>
