<svg width="24" height="24" viewBox="0 0 24 24" fill="none" xmlns="http://www.w3.org/2000/svg">
<g id="emoji-smile">
<path id="Vector" d="M12 2C6.48698 2 2 6.48698 2 12C2 17.513 6.48698 22 12 22C17.513 22 22 17.513 22 12C22 6.48698 17.513 2 12 2ZM12 3.5C16.7031 3.5 20.5 7.29688 20.5 12C20.5 16.7031 16.7031 20.5 12 20.5C7.29688 20.5 3.5 16.7031 3.5 12C3.5 7.29688 7.29688 3.5 12 3.5ZM9 8.5C7.91667 8.5 7.21875 9.21875 7.21875 9.21875C7.02344 9.40885 6.94531 9.6875 7.01302 9.95052C7.08073 10.2135 7.28646 10.4193 7.54948 10.487C7.8125 10.5547 8.09115 10.4766 8.28125 10.2812C8.28125 10.2812 8.58333 10 9 10C9.41667 10 9.71875 10.2812 9.71875 10.2812C9.90885 10.4766 10.1875 10.5547 10.4505 10.487C10.7135 10.4193 10.9193 10.2135 10.987 9.95052C11.0547 9.6875 10.9766 9.40885 10.7812 9.21875C10.7812 9.21875 10.0833 8.5 9 8.5ZM15 8.5C13.9167 8.5 13.2188 9.21875 13.2188 9.21875C13.0234 9.40885 12.9453 9.6875 13.013 9.95052C13.0807 10.2135 13.2865 10.4193 13.5495 10.487C13.8125 10.5547 14.0911 10.4766 14.2812 10.2812C14.2812 10.2812 14.5833 10 15 10C15.4167 10 15.7188 10.2812 15.7188 10.2812C15.9089 10.4766 16.1875 10.5547 16.4505 10.487C16.7135 10.4193 16.9193 10.2135 16.987 9.95052C17.0547 9.6875 16.9766 9.40885 16.7812 9.21875C16.7812 9.21875 16.0833 8.5 15 8.5ZM7.88802 13.4922C7.59635 13.487 7.32813 13.651 7.20052 13.9141C7.07292 14.1745 7.10677 14.487 7.29167 14.7135C8.38802 16.1094 10.0964 17 12 17C13.9036 17 15.612 16.1094 16.7083 14.7135C16.8802 14.5026 16.9219 14.2188 16.8229 13.9661C16.724 13.7161 16.4974 13.5365 16.2292 13.5C15.9609 13.4609 15.6953 13.5703 15.5312 13.7865C14.7083 14.8307 13.4375 15.5 12 15.5C10.5625 15.5 9.29167 14.8307 8.46875 13.7865C8.33073 13.6042 8.11458 13.4948 7.88802 13.4922Z" fill="#0D1011"/>
</g>
</svg>
