<svg width="24" height="24" viewBox="0 0 24 24" fill="none" xmlns="http://www.w3.org/2000/svg">
<g id="error_fill">
<path id="Vector" d="M21.7177 17.6458L13.9755 3.66406C13.5718 2.9349 12.8348 2.5 12.0015 2.5C11.1682 2.5 10.4312 2.9349 10.0275 3.66406L2.28536 17.6458C1.89473 18.3542 1.90515 19.1927 2.31661 19.888C2.72546 20.5833 3.45463 21 4.26192 21H19.7437C20.5484 21 21.2775 20.5833 21.6864 19.888C22.0979 19.1927 22.1083 18.3542 21.7177 17.6458ZM11.2515 8.75C11.2515 8.33594 11.5874 8 12.0015 8C12.4156 8 12.7515 8.33594 12.7515 8.75V13.75C12.7515 14.1641 12.4156 14.5 12.0015 14.5C11.5874 14.5 11.2515 14.1641 11.2515 13.75V8.75ZM12.0015 18C11.4494 18 11.0015 17.5521 11.0015 17C11.0015 16.4479 11.4494 16 12.0015 16C12.5536 16 13.0015 16.4479 13.0015 17C13.0015 17.5521 12.5536 18 12.0015 18Z" fill="#0D1011"/>
</g>
</svg>
