<svg width="24" height="24" viewBox="0 0 24 24" fill="none" xmlns="http://www.w3.org/2000/svg">
<g id="enlarge/expand">
<path id="Vector" d="M3.54427 19.7812C3.55469 19.8151 3.5625 19.849 3.57552 19.8828C3.59115 19.9167 3.60937 19.9479 3.6276 19.9818C3.64063 20.0052 3.65365 20.0312 3.66927 20.0547C3.74219 20.1641 3.83594 20.2578 3.94531 20.3307C3.96875 20.349 3.99479 20.3594 4.02083 20.3724C4.05208 20.3906 4.08333 20.4089 4.11719 20.4245C4.15104 20.4375 4.1849 20.4453 4.21875 20.4557C4.2474 20.4635 4.27344 20.474 4.30469 20.4818C4.36979 20.4922 4.4349 20.5 4.5 20.5H11.5C12.0521 20.5 12.5 20.0521 12.5 19.5C12.5 18.9479 12.0521 18.5 11.5 18.5H6.91406L18.5 6.91406V11.5C18.5 12.0521 18.9479 12.5 19.5 12.5C20.0521 12.5 20.5 12.0521 20.5 11.5V4.5C20.5 4.4349 20.4922 4.36979 20.4818 4.30469C20.474 4.27344 20.4635 4.2474 20.4557 4.21875C20.4453 4.1849 20.4375 4.15104 20.4245 4.11719C20.4089 4.08333 20.3906 4.05208 20.3724 4.01823C20.3594 3.99479 20.349 3.96875 20.3307 3.94531C20.2578 3.83594 20.1641 3.74219 20.0547 3.66927C20.0312 3.65104 20.0052 3.64063 19.9818 3.6276C19.9479 3.60937 19.9167 3.59115 19.8828 3.57552C19.849 3.5625 19.8151 3.55469 19.7812 3.54427C19.7526 3.53646 19.7266 3.52604 19.6953 3.51823C19.6302 3.50781 19.5651 3.5 19.5 3.5H12.5C11.9479 3.5 11.5 3.94792 11.5 4.5C11.5 5.05208 11.9479 5.5 12.5 5.5H17.0859L5.5 17.0859V12.5C5.5 11.9479 5.05208 11.5 4.5 11.5C3.94792 11.5 3.5 11.9479 3.5 12.5V19.5C3.5 19.5651 3.50781 19.6302 3.51823 19.6953C3.52604 19.7266 3.53646 19.7526 3.54427 19.7812Z" fill="#0D1011"/>
</g>
</svg>
