<svg width="24" height="24" viewBox="0 0 24 24" fill="none" xmlns="http://www.w3.org/2000/svg">
<g id="external_link ">
<path id="Vector" d="M20.7354 2.49298C20.7082 2.4938 20.6812 2.49608 20.6543 2.49982H13.75C13.6506 2.49841 13.5519 2.51678 13.4597 2.55384C13.3675 2.5909 13.2836 2.64592 13.2128 2.7157C13.142 2.78548 13.0858 2.86864 13.0474 2.96033C13.0091 3.05202 12.9893 3.15043 12.9893 3.24982C12.9893 3.34921 13.0091 3.44762 13.0474 3.53931C13.0858 3.631 13.142 3.71416 13.2128 3.78394C13.2836 3.85372 13.3675 3.90874 13.4597 3.9458C13.5519 3.98286 13.6506 4.00123 13.75 3.99982H18.9395L11.2197 11.7195C11.1477 11.7887 11.0903 11.8714 11.0507 11.963C11.0111 12.0546 10.9902 12.1532 10.9892 12.253C10.9882 12.3528 11.0071 12.4517 11.0448 12.5441C11.0825 12.6365 11.1383 12.7204 11.2088 12.791C11.2794 12.8615 11.3633 12.9173 11.4557 12.955C11.5481 12.9927 11.6471 13.0117 11.7468 13.0106C11.8466 13.0096 11.9452 12.9887 12.0368 12.9491C12.1284 12.9095 12.2112 12.8521 12.2803 12.7801L20 5.06037V10.2498C19.9986 10.3492 20.017 10.4479 20.054 10.5401C20.0911 10.6323 20.1461 10.7163 20.2159 10.787C20.2857 10.8578 20.3688 10.914 20.4605 10.9524C20.5522 10.9907 20.6506 11.0105 20.75 11.0105C20.8494 11.0105 20.9478 10.9907 21.0395 10.9524C21.1312 10.914 21.2143 10.8578 21.2841 10.787C21.3539 10.7163 21.4089 10.6323 21.446 10.5401C21.483 10.4479 21.5014 10.3492 21.5 10.2498V3.34455C21.5148 3.23664 21.5059 3.12681 21.4739 3.02269C21.442 2.91857 21.3877 2.82265 21.315 2.74161C21.2422 2.66058 21.1527 2.59636 21.0526 2.55342C20.9525 2.51048 20.8442 2.48986 20.7354 2.49298ZM6.25 3.99982C4.18775 3.99982 2.5 5.68757 2.5 7.74982V17.7498C2.5 19.8121 4.18775 21.4998 6.25 21.4998H16.25C18.3123 21.4998 20 19.8121 20 17.7498V12.7498C20.0014 12.6504 19.983 12.5518 19.946 12.4595C19.9089 12.3673 19.8539 12.2834 19.7841 12.2126C19.7143 12.1418 19.6312 12.0856 19.5395 12.0473C19.4478 12.0089 19.3494 11.9891 19.25 11.9891C19.1506 11.9891 19.0522 12.0089 18.9605 12.0473C18.8688 12.0856 18.7857 12.1418 18.7159 12.2126C18.6461 12.2834 18.5911 12.3673 18.554 12.4595C18.517 12.5518 18.4986 12.6504 18.5 12.7498V17.7498C18.5 19.0016 17.5017 19.9998 16.25 19.9998H6.25C4.99825 19.9998 4 19.0016 4 17.7498V7.74982C4 6.49807 4.99825 5.49982 6.25 5.49982H11.25C11.3494 5.50123 11.4481 5.48286 11.5403 5.4458C11.6325 5.40874 11.7164 5.35372 11.7872 5.28394C11.858 5.21416 11.9142 5.131 11.9526 5.03931C11.9909 4.94762 12.0107 4.84921 12.0107 4.74982C12.0107 4.65043 11.9909 4.55202 11.9526 4.46033C11.9142 4.36864 11.858 4.28548 11.7872 4.2157C11.7164 4.14592 11.6325 4.0909 11.5403 4.05384C11.4481 4.01678 11.3494 3.99841 11.25 3.99982H6.25Z" fill="#0D1011"/>
</g>
</svg>
