<svg width="24" height="24" viewBox="0 0 24 24" fill="none" xmlns="http://www.w3.org/2000/svg">
<g id="Eye">
<path id="Vector" d="M11.9935 6C7.27807 6 3.12251 9.25486 2.02015 13.5212C1.93335 13.854 2.13516 14.1933 2.46934 14.2798C2.80352 14.3663 3.14421 14.1653 3.23101 13.8324C4.18147 10.1561 7.8618 7.24489 11.9935 7.24489C16.1273 7.24489 19.8185 10.1561 20.769 13.8324C20.8558 14.1653 21.1965 14.3663 21.5307 14.2798C21.8648 14.1933 22.0667 13.854 21.9799 13.5212C20.8775 9.25486 16.7111 6 11.9935 6ZM12 10.9796C9.78442 10.9796 7.97464 12.782 7.97464 14.9887C7.97464 17.1975 9.78442 19 12 19C14.2177 19 16.0275 17.1975 16.0275 14.9887C16.0275 12.782 14.2177 10.9796 12 10.9796Z" fill="#0D1011"/>
</g>
</svg>
