<svg width="24" height="24" viewBox="0 0 24 24" fill="none" xmlns="http://www.w3.org/2000/svg">
<g id="Facebook ">
<path id="Vector" d="M5.75 3C4.23958 3 3 4.23958 3 5.75V18.25C3 19.7604 4.23958 21 5.75 21H18.25C19.7604 21 21 19.7604 21 18.25V5.75C21 4.23958 19.7604 3 18.25 3H5.75ZM5.75 4.5H18.25C18.9479 4.5 19.5 5.05208 19.5 5.75V18.25C19.5 18.9479 18.9479 19.5 18.25 19.5H15V14.5H16.8125C17.0625 14.5 17.276 14.3125 17.3073 14.0625L17.4948 12.5625C17.5156 12.4219 17.4688 12.276 17.375 12.1667C17.2813 12.0625 17.1458 12 17 12H15V10.25C15 9.69792 15.4479 9.25 16 9.25H17C17.276 9.25 17.5 9.02604 17.5 8.75V7.0625C17.5 6.80208 17.3021 6.58854 17.0469 6.5625C17.0156 6.5625 16.3125 6.5 15.4167 6.5C13.2135 6.5 12 7.80729 12 10.1823V12H10C9.72396 12 9.5 12.224 9.5 12.5V14C9.5 14.276 9.72396 14.5 10 14.5H12V19.5H5.75C5.05208 19.5 4.5 18.9479 4.5 18.25V5.75C4.5 5.05208 5.05208 4.5 5.75 4.5Z" fill="#0D1011"/>
</g>
</svg>
