<svg width="24" height="24" viewBox="0 0 24 24" fill="none" xmlns="http://www.w3.org/2000/svg">
<g id="favorite ">
<path id="Vector" d="M7.5 3.5C4.46875 3.5 2 5.96875 2 9C2 11.0469 3.54167 12.974 5.42708 14.9531C7.30729 16.9323 9.625 18.9323 11.4687 20.7813C11.7604 21.0729 12.2396 21.0729 12.5313 20.7813C14.375 18.9323 16.6927 16.9323 18.5729 14.9531C20.4583 12.974 22 11.0469 22 9C22 5.96875 19.5313 3.5 16.5 3.5C14.7604 3.5 13.25 4.43229 12 6.02083C10.75 4.43229 9.23958 3.5 7.5 3.5ZM7.5 5C8.96354 5 10.1823 5.78125 11.3646 7.65104C11.5052 7.86979 11.7448 8 12 8C12.2552 8 12.4948 7.86979 12.6354 7.65104C13.8177 5.78125 15.0365 5 16.5 5C18.7188 5 20.5 6.78125 20.5 9C20.5 10.2031 19.2917 12.026 17.4896 13.9219C15.8438 15.651 13.7969 17.4583 12 19.2083C10.2031 17.4583 8.15625 15.651 6.51042 13.9219C4.70833 12.026 3.5 10.2031 3.5 9C3.5 6.78125 5.28125 5 7.5 5Z" fill="#0D1011"/>
</g>
</svg>
