<svg width="24" height="24" viewBox="0 0 24 24" fill="none" xmlns="http://www.w3.org/2000/svg">
<g id="Filter">
<path id="Vector" d="M11.1673 17C11.0571 17.0031 10.9475 16.9834 10.8452 16.9421C10.743 16.9008 10.6504 16.8388 10.5733 16.76C10.4947 16.683 10.4328 16.5906 10.3915 16.4885C10.3502 16.3865 10.3304 16.277 10.3333 16.167C10.3333 15.931 10.4133 15.733 10.5733 15.573C10.7333 15.413 10.9313 15.333 11.1673 15.333H12.8333C13.0693 15.333 13.2673 15.413 13.4273 15.573C13.5873 15.733 13.6673 15.931 13.6673 16.167C13.6673 16.403 13.5873 16.6007 13.4273 16.76C13.3502 16.8388 13.2576 16.9008 13.1554 16.9421C13.0532 16.9834 12.9435 17.0031 12.8333 17H11.1673ZM5.33331 8.667C5.22328 8.66995 5.11382 8.65015 5.01178 8.60885C4.90974 8.56756 4.81733 8.50565 4.74031 8.427C4.66154 8.34987 4.59956 8.25729 4.55826 8.15507C4.51696 8.05285 4.49723 7.9432 4.50031 7.833C4.50031 7.597 4.58031 7.39933 4.74031 7.24C4.90031 7.08 5.09798 7 5.33331 7H18.6673C18.9033 7 19.101 7.08 19.2603 7.24C19.4203 7.4 19.5003 7.59767 19.5003 7.833C19.5003 8.069 19.4203 8.267 19.2603 8.427C19.1833 8.50565 19.0909 8.56756 18.9888 8.60885C18.8868 8.65015 18.7773 8.66995 18.6673 8.667H5.33331ZM7.83331 12.833C7.72328 12.8359 7.61382 12.8162 7.51178 12.7749C7.40974 12.7336 7.31733 12.6716 7.24031 12.593C7.16166 12.516 7.09976 12.4236 7.05846 12.3215C7.01716 12.2195 6.99737 12.11 7.00031 12C7.00031 11.764 7.08031 11.566 7.24031 11.406C7.40031 11.246 7.59798 11.166 7.83331 11.166H16.1673C16.4033 11.166 16.601 11.246 16.7603 11.406C16.9203 11.566 17.0003 11.764 17.0003 12C17.0003 12.236 16.9203 12.434 16.7603 12.594C16.6833 12.6726 16.5909 12.7346 16.4888 12.7759C16.3868 12.8172 16.2773 12.8369 16.1673 12.834L7.83331 12.833Z" fill="#0D1011"/>
</g>
</svg>
