<svg width="24" height="24" viewBox="0 0 24 24" fill="none" xmlns="http://www.w3.org/2000/svg">
<g id="fingerprint ">
<path id="Vector" d="M12.2529 2C10.3562 2 8.55547 2.42274 6.93843 3.16992C6.8463 3.20944 6.76303 3.26702 6.69354 3.33926C6.62404 3.4115 6.56973 3.49694 6.53382 3.59053C6.4979 3.68412 6.48111 3.78396 6.48443 3.88414C6.48776 3.98433 6.51113 4.08284 6.55317 4.17384C6.59521 4.26484 6.65507 4.34649 6.7292 4.41397C6.80333 4.48144 6.89024 4.53337 6.98478 4.56669C7.07933 4.60001 7.17959 4.61404 7.27965 4.60796C7.37971 4.60187 7.47753 4.57579 7.56734 4.53125C8.9953 3.87143 10.5786 3.5 12.2529 3.5C13.9187 3.5 15.5037 3.87358 16.9365 4.53906C17.0258 4.58064 17.1224 4.60422 17.2209 4.60845C17.3193 4.61267 17.4176 4.59746 17.5102 4.56369C17.6028 4.52992 17.6878 4.47824 17.7603 4.41161C17.8329 4.34498 17.8917 4.26471 17.9332 4.17537C17.9748 4.08604 17.9983 3.98939 18.0025 3.89095C18.0067 3.79251 17.9915 3.69421 17.9577 3.60165C17.9239 3.5091 17.8722 3.42411 17.8056 3.35154C17.7389 3.27898 17.6586 3.22025 17.5693 3.17871C15.947 2.4252 14.1431 2 12.2529 2ZM4.74409 4.64453C4.57504 4.64843 4.41227 4.70935 4.28218 4.81738C3.49413 5.45228 2.77973 6.17685 2.15913 6.98145C2.09626 7.05916 2.04955 7.14866 2.02176 7.24468C1.99397 7.34071 1.98565 7.44132 1.99729 7.5406C2.00894 7.63989 2.04031 7.73584 2.08957 7.82283C2.13883 7.90981 2.20498 7.98607 2.28413 8.04713C2.36328 8.10819 2.45384 8.15281 2.55048 8.17836C2.64713 8.20392 2.7479 8.20991 2.84689 8.19596C2.94588 8.18202 3.04108 8.14843 3.1269 8.09717C3.21272 8.04591 3.28743 7.97801 3.34663 7.89746C3.89303 7.18906 4.52464 6.54846 5.22359 5.98535C5.34779 5.88826 5.43824 5.75451 5.4821 5.60309C5.52597 5.45166 5.521 5.29027 5.46792 5.14183C5.41483 4.99339 5.31633 4.86545 5.18639 4.77618C5.05646 4.68691 4.9017 4.64084 4.74409 4.64453ZM12.7197 5.02441C12.5258 5.03085 12.342 5.11212 12.2068 5.25116C12.0716 5.39021 11.9955 5.57622 11.9945 5.77017C11.9935 5.96411 12.0676 6.15091 12.2014 6.29135C12.3352 6.4318 12.5181 6.51498 12.7119 6.52344C16.9015 6.7551 20.2544 10.1066 20.4814 14.291C20.4868 14.3894 20.5115 14.4857 20.5541 14.5746C20.5967 14.6634 20.6564 14.743 20.7297 14.8087C20.8031 14.8745 20.8887 14.9252 20.9816 14.9578C21.0746 14.9905 21.1731 15.0046 21.2714 14.9992C21.3698 14.9938 21.4662 14.9691 21.555 14.9264C21.6438 14.8838 21.7234 14.8241 21.7891 14.7507C21.8549 14.6774 21.9055 14.5917 21.9382 14.4988C21.9708 14.4058 21.9848 14.3074 21.9794 14.209C21.7114 9.26843 17.7372 5.2997 12.7939 5.02637C12.7692 5.02449 12.7444 5.02384 12.7197 5.02441ZM9.74312 5.35742C9.67552 5.35946 9.6085 5.37063 9.5439 5.39062C5.48055 6.56877 2.50288 10.3196 2.50288 14.75C2.50288 15.1019 2.52121 15.8496 2.64155 16.8408C2.65346 16.9386 2.68451 17.0331 2.73295 17.1189C2.78138 17.2047 2.84624 17.2801 2.92382 17.3409C3.0014 17.4016 3.09019 17.4465 3.18511 17.4729C3.28003 17.4993 3.37923 17.5067 3.47703 17.4948C3.57483 17.4829 3.66932 17.4518 3.75511 17.4034C3.8409 17.3549 3.9163 17.29 3.97702 17.2124C4.03773 17.1348 4.08256 17.046 4.10895 16.9511C4.13534 16.8562 4.14277 16.757 4.13081 16.6592C4.01915 15.7394 4.00288 15.0481 4.00288 14.75C4.00288 10.9914 6.52722 7.82691 9.96187 6.83105C10.1391 6.78294 10.2926 6.67145 10.3931 6.51773C10.4937 6.364 10.5343 6.17872 10.5073 5.99703C10.4804 5.81533 10.3877 5.64985 10.2468 5.53196C10.1059 5.41407 9.92672 5.35196 9.74312 5.35742ZM12.2529 8C8.53763 8 5.50288 11.0347 5.50288 14.75C5.50288 15.4038 5.57457 17.5458 6.41988 19.9951C6.44971 20.0911 6.49853 20.1801 6.56343 20.2568C6.62833 20.3335 6.70799 20.3965 6.79767 20.4418C6.88736 20.4871 6.98525 20.514 7.08552 20.5208C7.18578 20.5276 7.2864 20.5141 7.38137 20.4813C7.47635 20.4484 7.56375 20.3968 7.63839 20.3295C7.71303 20.2622 7.77339 20.1806 7.81588 20.0895C7.85836 19.9985 7.88212 19.8998 7.88572 19.7993C7.88933 19.6989 7.87271 19.5988 7.83687 19.5049C7.07217 17.2892 7.00288 15.2852 7.00288 14.75C7.00288 11.8483 9.35114 9.5 12.2529 9.5C14.0056 9.5 15.5531 10.3651 16.5097 11.6895C16.5674 11.7693 16.6403 11.837 16.7242 11.8886C16.808 11.9403 16.9013 11.975 16.9985 11.9906C17.0958 12.0062 17.1952 12.0026 17.291 11.9798C17.3868 11.957 17.4773 11.9156 17.5571 11.8579C17.6369 11.8002 17.7046 11.7273 17.7563 11.6435C17.8079 11.5596 17.8426 11.4664 17.8582 11.3691C17.8739 11.2719 17.8702 11.1725 17.8474 11.0766C17.8247 10.9808 17.7832 10.8904 17.7255 10.8105C16.4992 9.11287 14.5001 8 12.2529 8ZM12.2529 10.999C10.1918 10.999 8.50288 12.6879 8.50288 14.749C8.50288 15.2607 8.55002 18.7363 10.5976 21.6777C10.6532 21.7602 10.7246 21.8308 10.8077 21.8854C10.8908 21.94 10.9839 21.9776 11.0816 21.9959C11.1794 22.0142 11.2798 22.0129 11.377 21.992C11.4742 21.9712 11.5663 21.9312 11.6479 21.8744C11.7296 21.8176 11.7991 21.7452 11.8525 21.6613C11.9059 21.5774 11.942 21.4838 11.9589 21.3858C11.9757 21.2878 11.9729 21.1874 11.9507 21.0905C11.9284 20.9936 11.887 20.9021 11.8291 20.8213C10.1036 18.3427 10.0029 15.0864 10.0029 14.749C10.0029 13.5011 11.005 12.499 12.2529 12.499C13.4976 12.499 14.5006 13.5012 14.5029 14.7461V14.751V14.7568C14.509 15.1321 14.5727 15.7767 14.7587 16.5078C14.9447 17.2389 15.2325 18.0479 15.8437 18.6592H15.8447L16.9746 19.7822C17.0439 19.8539 17.1269 19.911 17.2187 19.9503C17.3104 19.9895 17.409 20.01 17.5088 20.0106C17.6086 20.0113 17.7074 19.992 17.7997 19.9539C17.8919 19.9159 17.9756 19.8598 18.0459 19.789C18.1161 19.7182 18.1716 19.6341 18.209 19.5416C18.2463 19.4491 18.2649 19.3501 18.2635 19.2503C18.2622 19.1505 18.2409 19.0521 18.201 18.9606C18.1611 18.8692 18.1034 18.7866 18.0312 18.7178L16.9033 17.5967C16.6299 17.3224 16.3628 16.7309 16.2119 16.1377C16.0607 15.5437 16.0063 14.9397 16.0029 14.7324V14.7432C15.9991 12.685 14.3111 10.999 12.2529 10.999ZM18.2412 13.4893C18.0424 13.4924 17.853 13.5742 17.7146 13.7169C17.5762 13.8595 17.5 14.0513 17.5029 14.25V14.7393C17.5029 16.1497 18.3074 17.0098 18.7304 17.3408L18.6933 17.3096L19.2539 17.8096C19.3268 17.8785 19.4128 17.9321 19.5068 17.9671C19.6008 18.0022 19.7008 18.0181 19.8011 18.0138C19.9013 18.0095 19.9996 17.9852 20.0903 17.9422C20.181 17.8992 20.2621 17.8385 20.3288 17.7636C20.3956 17.6888 20.4467 17.6013 20.479 17.5063C20.5114 17.4113 20.5244 17.3108 20.5172 17.2108C20.51 17.1107 20.4828 17.0131 20.4373 16.9237C20.3917 16.8343 20.3287 16.755 20.2519 16.6904L19.6738 16.1738L19.6542 16.1592C19.4523 16.0012 19.0029 15.5968 19.0029 14.7393V14.25C19.0043 14.1496 18.9856 14.05 18.9478 13.957C18.91 13.8639 18.854 13.7795 18.7829 13.7085C18.7119 13.6376 18.6273 13.5816 18.5343 13.544C18.4412 13.5063 18.3415 13.4877 18.2412 13.4893ZM12.2412 13.9893C12.0424 13.9924 11.853 14.0742 11.7146 14.2169C11.5762 14.3595 11.5 14.5513 11.5029 14.75C11.5029 14.75 11.4132 18.4709 13.7226 20.7803L14.2226 21.2803C14.2917 21.3523 14.3745 21.4097 14.4661 21.4493C14.5577 21.4889 14.6563 21.5098 14.756 21.5108C14.8558 21.5118 14.9548 21.4929 15.0472 21.4552C15.1396 21.4175 15.2235 21.3617 15.294 21.2912C15.3646 21.2206 15.4204 21.1367 15.4581 21.0443C15.4958 20.9519 15.5147 20.8529 15.5137 20.7532C15.5127 20.6534 15.4918 20.5548 15.4522 20.4632C15.4126 20.3716 15.3551 20.2888 15.2832 20.2197L14.7832 19.7197C13.0925 18.0291 13.0029 14.75 13.0029 14.75C13.0043 14.6496 12.9856 14.55 12.9478 14.457C12.91 14.3639 12.854 14.2795 12.7829 14.2085C12.7119 14.1376 12.6273 14.0816 12.5343 14.044C12.4412 14.0063 12.3415 13.9877 12.2412 13.9893Z" fill="#0D1011"/>
</g>
</svg>
