<svg width="24" height="24" viewBox="0 0 24 24" fill="none" xmlns="http://www.w3.org/2000/svg">
<g id="fit_to_width ">
<path id="Vector" d="M3.74154 2.99219C3.63436 2.99229 3.52845 3.01536 3.43094 3.05985C3.33343 3.10433 3.24658 3.1692 3.17625 3.25008C3.10592 3.33096 3.05374 3.42597 3.02323 3.52871C2.99271 3.63146 2.98457 3.73955 2.99935 3.8457V7.75C2.99795 7.84938 3.01631 7.94806 3.05337 8.04028C3.09043 8.13251 3.14545 8.21645 3.21523 8.28723C3.28502 8.358 3.36817 8.41421 3.45986 8.45257C3.55156 8.49093 3.64996 8.51068 3.74935 8.51068C3.84875 8.51068 3.94715 8.49093 4.03884 8.45257C4.13054 8.41421 4.21369 8.358 4.28347 8.28723C4.35326 8.21645 4.40828 8.13251 4.44534 8.04028C4.4824 7.94806 4.50076 7.84938 4.49935 7.75V5.56055L8.21908 9.28027C8.28819 9.35225 8.37097 9.40972 8.46256 9.4493C8.55416 9.48889 8.65273 9.50981 8.75251 9.51082C8.85229 9.51183 8.95127 9.49293 9.04365 9.45521C9.13603 9.41749 9.21996 9.36172 9.29052 9.29117C9.36108 9.22061 9.41685 9.13668 9.45457 9.0443C9.49228 8.95192 9.51119 8.85294 9.51017 8.75316C9.50916 8.65338 9.48825 8.5548 9.44866 8.46321C9.40907 8.37161 9.35161 8.28884 9.27963 8.21973L5.5599 4.5H7.74935C7.84874 4.50141 7.94741 4.48304 8.03964 4.44598C8.13186 4.40892 8.2158 4.3539 8.28658 4.28412C8.35736 4.21434 8.41356 4.13118 8.45192 4.03949C8.49028 3.9478 8.51004 3.84939 8.51004 3.75C8.51004 3.65061 8.49028 3.5522 8.45192 3.46051C8.41356 3.36882 8.35736 3.28566 8.28658 3.21588C8.2158 3.1461 8.13186 3.09108 8.03964 3.05402C7.94741 3.01696 7.84874 2.99859 7.74935 3H3.84408C3.81012 2.99505 3.77586 2.99244 3.74154 2.99219ZM20.2347 2.99316C20.2076 2.99397 20.1805 2.99626 20.1537 3H16.2494C16.15 2.99859 16.0513 3.01696 15.9591 3.05402C15.8668 3.09108 15.7829 3.1461 15.7121 3.21588C15.6414 3.28566 15.5851 3.36882 15.5468 3.46051C15.5084 3.5522 15.4887 3.65061 15.4887 3.75C15.4887 3.84939 15.5084 3.9478 15.5468 4.03949C15.5851 4.13118 15.6414 4.21434 15.7121 4.28412C15.7829 4.3539 15.8668 4.40892 15.9591 4.44598C16.0513 4.48304 16.15 4.50141 16.2494 4.5H18.4388L14.7191 8.21973C14.6471 8.28884 14.5896 8.37161 14.55 8.46321C14.5105 8.5548 14.4895 8.65338 14.4885 8.75316C14.4875 8.85294 14.5064 8.95192 14.5441 9.0443C14.5819 9.13668 14.6376 9.22061 14.7082 9.29117C14.7787 9.36172 14.8627 9.41749 14.9551 9.45521C15.0474 9.49293 15.1464 9.51183 15.2462 9.51082C15.346 9.50981 15.4446 9.48889 15.5361 9.4493C15.6277 9.40972 15.7105 9.35225 15.7796 9.28027L19.4994 5.56055V7.75C19.4979 7.84938 19.5163 7.94806 19.5534 8.04028C19.5904 8.13251 19.6455 8.21645 19.7152 8.28723C19.785 8.358 19.8682 8.41421 19.9599 8.45257C20.0516 8.49093 20.15 8.51068 20.2494 8.51068C20.3487 8.51068 20.4472 8.49093 20.5388 8.45257C20.6305 8.41421 20.7137 8.358 20.7835 8.28723C20.8533 8.21645 20.9083 8.13251 20.9453 8.04028C20.9824 7.94806 21.0008 7.84938 20.9994 7.75V3.84473C21.0141 3.73682 21.0052 3.62699 20.9733 3.52287C20.9413 3.41875 20.8871 3.32283 20.8143 3.24179C20.7416 3.16076 20.652 3.09654 20.5519 3.0536C20.4518 3.01066 20.3436 2.99004 20.2347 2.99316ZM15.2415 14.4922C15.0923 14.4922 14.9464 14.5368 14.8226 14.6202C14.6988 14.7036 14.6028 14.822 14.5467 14.9603C14.4905 15.0986 14.477 15.2506 14.5077 15.3966C14.5384 15.5427 14.612 15.6763 14.7191 15.7803L18.4388 19.5H16.2494C16.15 19.4986 16.0513 19.517 15.9591 19.554C15.8668 19.5911 15.7829 19.6461 15.7121 19.7159C15.6414 19.7857 15.5851 19.8688 15.5468 19.9605C15.5084 20.0522 15.4887 20.1506 15.4887 20.25C15.4887 20.3494 15.5084 20.4478 15.5468 20.5395C15.5851 20.6312 15.6414 20.7143 15.7121 20.7841C15.7829 20.8539 15.8668 20.9089 15.9591 20.946C16.0513 20.983 16.15 21.0014 16.2494 21H20.1546C20.2693 21.0157 20.3861 21.0046 20.4958 20.9677C20.6055 20.9307 20.7052 20.8688 20.787 20.7869C20.8688 20.705 20.9306 20.6053 20.9674 20.4955C21.0043 20.3858 21.0152 20.269 20.9994 20.1543V16.25C21.0008 16.1506 20.9824 16.0519 20.9453 15.9597C20.9083 15.8675 20.8533 15.7836 20.7835 15.7128C20.7137 15.642 20.6305 15.5858 20.5388 15.5474C20.4472 15.5091 20.3487 15.4893 20.2494 15.4893C20.15 15.4893 20.0516 15.5091 19.9599 15.5474C19.8682 15.5858 19.785 15.642 19.7152 15.7128C19.6455 15.7836 19.5904 15.8675 19.5534 15.9597C19.5163 16.0519 19.4979 16.1506 19.4994 16.25V18.4395L15.7796 14.7197C15.7097 14.6477 15.6261 14.5905 15.5336 14.5514C15.4412 14.5123 15.3419 14.4922 15.2415 14.4922ZM8.73471 14.4932C8.53993 14.4988 8.355 14.5801 8.21908 14.7197L4.49935 18.4395V16.25C4.50076 16.1506 4.4824 16.0519 4.44534 15.9597C4.40828 15.8675 4.35326 15.7836 4.28347 15.7128C4.21369 15.642 4.13054 15.5858 4.03884 15.5474C3.94715 15.5091 3.84875 15.4893 3.74935 15.4893C3.64996 15.4893 3.55156 15.5091 3.45986 15.5474C3.36817 15.5858 3.28502 15.642 3.21523 15.7128C3.14545 15.7836 3.09043 15.8675 3.05337 15.9597C3.01631 16.0519 2.99795 16.1506 2.99935 16.25V20.1553C2.98366 20.27 2.99473 20.3868 3.03169 20.4965C3.06866 20.6062 3.13052 20.7058 3.21243 20.7877C3.29434 20.8695 3.39407 20.9312 3.50383 20.9681C3.61358 21.0049 3.73037 21.0158 3.84506 21H7.74935C7.84874 21.0014 7.94741 20.983 8.03964 20.946C8.13186 20.9089 8.2158 20.8539 8.28658 20.7841C8.35736 20.7143 8.41356 20.6312 8.45192 20.5395C8.49028 20.4478 8.51004 20.3494 8.51004 20.25C8.51004 20.1506 8.49028 20.0522 8.45192 19.9605C8.41356 19.8688 8.35736 19.7857 8.28658 19.7159C8.2158 19.6461 8.13186 19.5911 8.03964 19.554C7.94741 19.517 7.84874 19.4986 7.74935 19.5H5.5599L9.27963 15.7803C9.38783 15.6749 9.4617 15.5393 9.49156 15.3913C9.52143 15.2432 9.50591 15.0896 9.44702 14.9505C9.38814 14.8114 9.28864 14.6933 9.16154 14.6117C9.03445 14.5301 8.88568 14.4888 8.73471 14.4932Z" fill="#0D1011"/>
</g>
</svg>
