<svg width="24" height="24" viewBox="0 0 24 24" fill="none" xmlns="http://www.w3.org/2000/svg">
<g id="Flag ">
<path id="Vector" d="M4.25004 3C3.83597 3 3.50004 3.33594 3.50004 3.75V21.25C3.49743 21.5208 3.63806 21.7708 3.87243 21.9089C4.10681 22.0443 4.39326 22.0443 4.62764 21.9089C4.86201 21.7708 5.00264 21.5208 5.00004 21.25V16.5H20.75C21.0339 16.5 21.2943 16.3385 21.4219 16.0859C21.5469 15.8307 21.5209 15.526 21.349 15.2995L17.1875 9.75L21.349 4.20052C21.5209 3.97396 21.5469 3.66927 21.4219 3.41406C21.2943 3.16146 21.0339 3 20.75 3H4.25004ZM5.00004 4.5H19.25L15.6511 9.29948C15.4506 9.56771 15.4506 9.93229 15.6511 10.2005L19.25 15H5.00004V4.5Z" fill="#0D1011"/>
</g>
</svg>
