<svg width="24" height="24" viewBox="0 0 24 24" fill="none" xmlns="http://www.w3.org/2000/svg">
<g id="flash">
<path id="Vector" d="M8.25021 2C7.91427 2 7.6226 2.22135 7.52885 2.54427L4.52885 13.0443C4.46375 13.2708 4.51062 13.513 4.65125 13.7005C4.79448 13.888 5.01583 14 5.25021 14H7.78927L6.02364 21.0677C5.94031 21.3984 6.09135 21.7422 6.38823 21.9062C6.6851 22.0703 7.05489 22.0156 7.29187 21.7682L19.2919 9.26823C19.5002 9.05208 19.5575 8.73177 19.4403 8.45573C19.3231 8.17969 19.0497 8 18.7502 8H14.2919L15.9611 2.98698C16.0393 2.75781 16.0002 2.50781 15.8596 2.3125C15.719 2.11458 15.4924 2 15.2502 2H8.25021ZM8.81531 3.5H14.2085L12.5393 8.51302C12.4611 8.74219 12.5002 8.99219 12.6408 9.1875C12.7815 9.38542 13.008 9.5 13.2502 9.5H16.9898L8.16167 18.6979L9.47677 13.4323C9.53406 13.2083 9.48198 12.9714 9.34135 12.7891C9.19812 12.6068 8.98198 12.5 8.75021 12.5H6.245L8.81531 3.5Z" fill="#0D1011"/>
</g>
</svg>
