<svg width="24" height="24" viewBox="0 0 24 24" fill="none" xmlns="http://www.w3.org/2000/svg">
<g id="flash_fill">
<path id="Vector" d="M6.75021 22C6.62521 22 6.50281 21.9688 6.38823 21.9062C6.09135 21.7422 5.94031 21.3984 6.02364 21.0677L7.78927 14H5.25021C5.01583 14 4.79448 13.8906 4.65125 13.7005C4.51062 13.513 4.46375 13.2708 4.52885 13.0443L7.52885 2.54427C7.62 2.22135 7.91427 2 8.25021 2H15.2502C15.4924 2 15.719 2.11719 15.8596 2.3125C16.0002 2.50781 16.0393 2.75781 15.9611 2.98698L14.2919 8H18.7502C19.0497 8 19.3231 8.17969 19.4403 8.45573C19.5575 8.73177 19.5002 9.05208 19.2919 9.26823L7.29187 21.7682C7.14604 21.9193 6.94812 22 6.75021 22Z" fill="#0D1011"/>
</g>
</svg>
