<svg width="24" height="24" viewBox="0 0 24 24" fill="none" xmlns="http://www.w3.org/2000/svg">
<g id="folder_open">
<path id="Vector" d="M4.25 4C3.01563 4 2 5.01563 2 6.25V18.2031H2.00781C1.99219 19.138 2.75521 20 3.75 20H18.2734C19.2083 20 20.0521 19.4167 20.3802 18.5417L22.8828 11.875V11.8724C23.3125 10.75 22.4505 9.5 21.25 9.5H21V8.75C21 7.51563 19.9844 6.5 18.75 6.5H12.0208L9.78646 4.63802C9.29167 4.22656 8.66927 4 8.02604 4H4.25ZM4.25 5.5H8.02604C8.32031 5.5 8.60156 5.60156 8.82552 5.78906L11.2682 7.82552C11.4036 7.9375 11.5755 8 11.75 8H18.75C19.1745 8 19.5 8.32552 19.5 8.75V9.5H6.72656C5.79167 9.5 4.94792 10.0833 4.61979 10.9583L3.5 13.9401V6.25C3.5 5.82552 3.82552 5.5 4.25 5.5ZM6.72656 11H21.25C21.4479 11 21.5547 11.1536 21.4818 11.3385C21.4818 11.3411 21.4818 11.3411 21.4818 11.3438L18.9766 18.013C18.8646 18.3073 18.5885 18.5 18.2734 18.5H3.75C3.55208 18.5 3.44792 18.349 3.51563 18.1641C3.51823 18.1641 3.51823 18.1615 3.51823 18.1615L6.02344 11.487C6.13542 11.1927 6.41146 11 6.72656 11Z" fill="#0D1011"/>
</g>
</svg>
