<svg width="24" height="24" viewBox="0 0 24 24" fill="none" xmlns="http://www.w3.org/2000/svg">
<g id="forward_arrow ">
<path id="Vector" d="M13.7393 3.50007C13.5422 3.50292 13.3542 3.58318 13.2159 3.72353C13.0775 3.86387 13 4.05301 13 4.25007V8.14265C11.6711 8.29087 9.48646 8.67172 7.28711 10.0958C4.79 11.7126 2.57009 14.6852 2.51855 19.5928C2.5178 19.5966 2.51539 19.5989 2.51465 19.6026H2.5166C2.51607 19.6566 2.5 19.6956 2.5 19.7501C2.5002 19.936 2.56947 20.1153 2.69438 20.2531C2.81928 20.3909 2.99092 20.4773 3.17597 20.4957C3.36103 20.5141 3.54631 20.463 3.69587 20.3525C3.84543 20.242 3.94859 20.0798 3.98535 19.8975C4.57902 16.9294 6.42959 15.6141 8.48047 14.9395C10.2114 14.3702 11.9062 14.37 13 14.4278V18.2501C13.0001 18.3984 13.0441 18.5433 13.1265 18.6666C13.2089 18.7899 13.326 18.886 13.463 18.9428C13.6001 18.9995 13.7508 19.0144 13.8963 18.9855C14.0417 18.9566 14.1754 18.8852 14.2803 18.7803L21.2803 11.7803C21.4209 11.6397 21.4999 11.449 21.4999 11.2501C21.4999 11.0512 21.4209 10.8605 21.2803 10.7198L14.2803 3.7198C14.2094 3.64886 14.125 3.59287 14.032 3.55513C13.9391 3.51739 13.8395 3.49867 13.7393 3.50007ZM14.5 6.06062L19.6895 11.2501L14.5 16.4395V13.6925C14.5001 13.5057 14.4304 13.3256 14.3047 13.1874C14.179 13.0492 14.0063 12.9629 13.8203 12.9454C12.7783 12.8478 10.3948 12.7309 8.01172 13.5147C6.89836 13.8809 5.79271 14.4972 4.84375 15.378C5.60328 13.5209 6.77287 12.2165 8.10254 11.3555C10.2895 9.93949 12.8026 9.59532 13.8047 9.52156C13.9936 9.50773 14.1703 9.42291 14.2993 9.28415C14.4283 9.14539 14.5 8.96296 14.5 8.77351V6.06062Z" fill="#0D1011"/>
</g>
</svg>
