<svg width="24" height="24" viewBox="0 0 24 24" fill="none" xmlns="http://www.w3.org/2000/svg">
<g id="full_screen">
<path id="Vector" d="M5.75011 3.0001C4.24229 3.0001 3.00011 4.24229 3.00011 5.7501V8.5001C2.9949 8.85948 3.1824 9.19542 3.4949 9.37771C3.8074 9.56 4.19281 9.56 4.50271 9.37771C4.81521 9.19542 5.00531 8.85948 5.00011 8.5001V5.7501C5.00011 5.32823 5.32823 5.0001 5.75011 5.0001H8.50011C8.85948 5.00531 9.19542 4.81521 9.37771 4.50531C9.56 4.19281 9.56 3.8074 9.37771 3.4949C9.19542 3.185 8.85948 2.9949 8.50011 3.0001H5.75011ZM15.5001 3.0001C15.1407 2.9949 14.8048 3.185 14.6225 3.4949C14.4402 3.8074 14.4402 4.19281 14.6225 4.50531C14.8048 4.81521 15.1407 5.00531 15.5001 5.0001H18.2501C18.672 5.0001 19.0001 5.32823 19.0001 5.7501V8.5001C18.9949 8.85948 19.1824 9.19542 19.4949 9.37771C19.8074 9.56 20.1928 9.56 20.5027 9.37771C20.8152 9.19542 21.0053 8.85948 21.0001 8.5001V5.7501C21.0001 4.24229 19.7579 3.0001 18.2501 3.0001H15.5001ZM3.98448 14.4871C3.4324 14.4949 2.99229 14.948 3.00011 15.5001V18.2501C3.00011 19.7579 4.24229 21.0001 5.75011 21.0001H8.50011C8.85948 21.0053 9.19542 20.8152 9.37771 20.5053C9.56 20.1928 9.56 19.8074 9.37771 19.4949C9.19542 19.185 8.85948 18.9949 8.50011 19.0001H5.75011C5.32823 19.0001 5.00011 18.672 5.00011 18.2501V15.5001C5.00271 15.2293 4.89854 14.9689 4.70584 14.7788C4.51573 14.5886 4.25531 14.4819 3.98448 14.4871ZM19.9845 14.4871C19.4324 14.4949 18.9923 14.948 19.0001 15.5001V18.2501C19.0001 18.672 18.672 19.0001 18.2501 19.0001H15.5001C15.1407 18.9949 14.8048 19.185 14.6225 19.4949C14.4402 19.8074 14.4402 20.1928 14.6225 20.5053C14.8048 20.8152 15.1407 21.0053 15.5001 21.0001H18.2501C19.7579 21.0001 21.0001 19.7579 21.0001 18.2501V15.5001C21.0027 15.2293 20.8985 14.9689 20.7058 14.7788C20.5157 14.5886 20.2553 14.4819 19.9845 14.4871Z" fill="#0D1011"/>
</g>
</svg>
