<svg width="24" height="24" viewBox="0 0 24 24" fill="none" xmlns="http://www.w3.org/2000/svg">
<g id="gift">
<path id="Vector" d="M9.5 1.5C7.71354 1.5 6.25 2.96354 6.25 4.75C6.25 5.40625 6.4974 5.98698 6.83594 6.5H4.25C3.56771 6.5 3 7.06771 3 7.75V11.25C3 11.8359 3.45052 12.2656 4 12.3958V18.75C4 20.5365 5.46354 22 7.25 22H16.75C18.5365 22 20 20.5365 20 18.75V12.3958C20.5495 12.2656 21 11.8359 21 11.25V7.75C21 7.06771 20.4323 6.5 19.75 6.5H17.1641C17.5026 5.98698 17.75 5.40625 17.75 4.75C17.75 2.96354 16.2865 1.5 14.5 1.5C13.4766 1.5 12.5964 2.01042 12 2.75781C11.4036 2.01042 10.5234 1.5 9.5 1.5ZM9.5 3C10.474 3 11.25 3.77604 11.25 4.75V6.5H9.5C8.52604 6.5 7.75 5.72396 7.75 4.75C7.75 3.77604 8.52604 3 9.5 3ZM14.5 3C15.474 3 16.25 3.77604 16.25 4.75C16.25 5.72396 15.474 6.5 14.5 6.5H12.75V4.75C12.75 3.77604 13.526 3 14.5 3ZM4.5 8H11.25V11H4.5V8ZM12.75 8H19.5V11H12.75V8ZM5.5 12.5H11.25V20.5H7.25C6.27604 20.5 5.5 19.724 5.5 18.75V12.5ZM12.75 12.5H18.5V18.75C18.5 19.724 17.724 20.5 16.75 20.5H12.75V12.5Z" fill="#0D1011"/>
</g>
</svg>
