<svg width="24" height="24" viewBox="0 0 24 24" fill="none" xmlns="http://www.w3.org/2000/svg">
<g id="gift_card">
<path id="Vector" d="M4.25 3.5C2.73958 3.5 1.5 4.73958 1.5 6.25V17.75C1.5 19.2604 2.73958 20.5 4.25 20.5H19.75C21.2604 20.5 22.5 19.2604 22.5 17.75V6.25C22.5 4.73958 21.2604 3.5 19.75 3.5H4.25ZM4.25 5H9V10.1901L7.78125 8.96875C7.63802 8.82552 7.44531 8.74219 7.24219 8.74219C6.9375 8.74219 6.66146 8.92708 6.54687 9.21094C6.43229 9.49219 6.5 9.81771 6.71875 10.0312L7.9401 11.25H3V6.25C3 5.55208 3.55208 5 4.25 5ZM10.5 5H19.75C20.4479 5 21 5.55208 21 6.25V11.25H11.5599L12.7812 10.0312C12.9766 9.84115 13.0547 9.5625 12.987 9.29948C12.9193 9.03646 12.7135 8.83073 12.4505 8.76302C12.1875 8.69531 11.9089 8.77344 11.7188 8.96875L10.5 10.1901V5ZM3 12.75H7.9401L6.71875 13.9688C6.52344 14.1589 6.44531 14.4375 6.51302 14.7005C6.58073 14.9635 6.78646 15.1693 7.04948 15.237C7.3125 15.3047 7.59115 15.2266 7.78125 15.0312L9 13.8099V19H4.25C3.55208 19 3 18.4479 3 17.75V12.75ZM11.5599 12.75H21V17.75C21 18.4479 20.4479 19 19.75 19H10.5V13.8099L11.7188 15.0312C11.9089 15.2266 12.1875 15.3047 12.4505 15.237C12.7135 15.1693 12.9193 14.9635 12.987 14.7005C13.0547 14.4375 12.9766 14.1589 12.7812 13.9688L11.5599 12.75Z" fill="#0D1011"/>
</g>
</svg>
