<svg width="24" height="24" viewBox="0 0 24 24" fill="none" xmlns="http://www.w3.org/2000/svg">
<g id="globe">
<path id="Vector" d="M12 2C6.48603 2 2 6.48604 2 12C2 17.514 6.48603 22 12 22C17.514 22 22 17.514 22 12C22 6.48604 17.514 2 12 2ZM12 3.5C13.5874 3.5 15.0662 3.94045 16.3359 4.69434C16.2877 4.7443 16.2456 4.80155 16.2207 4.87207L16.1211 5.15527C16.0486 5.36127 16.1189 5.5902 16.2939 5.7207L16.4668 5.85059C16.7333 6.05059 16.7333 6.45039 16.4668 6.65039L16.2471 6.81543C16.1591 6.88143 16.0533 6.91504 15.9473 6.91504C15.8713 6.91504 15.7941 6.8978 15.7236 6.8623L15.1064 6.55273C15.0364 6.51773 14.9593 6.5 14.8818 6.5H13.6533C13.5073 6.5 13.3694 6.5643 13.2744 6.6748L12.1201 8.01953C11.9991 8.16103 11.9671 8.35875 12.0361 8.53125L12.1416 8.7959C12.2226 8.9984 12.4134 9.11035 12.6074 9.11035C12.7329 9.11035 12.8605 9.06337 12.96 8.96387C12.96 8.96387 13.2812 8.81503 13.3887 8.33203C13.4327 8.13253 13.6236 8 13.8281 8H14.2998C14.4283 8 14.5515 8.04967 14.6445 8.13867L14.8916 8.37402C15.0946 8.56802 15.0989 8.89134 14.9004 9.08984L14.5146 9.47559C14.4681 9.52159 14.413 9.55898 14.3525 9.58398L12.8145 10.2236C12.772 10.2411 12.7323 10.2645 12.6963 10.293L11.3076 11.3916C11.2186 11.4616 11.1101 11.5 10.9971 11.5H10.75C10.336 11.5 10 11.836 10 12.25C10 12.664 10.336 13 10.75 13H10.8662C11.0657 13 11.2611 12.9448 11.4316 12.8408L12.4482 12.2197C12.5292 12.1702 12.6195 12.1465 12.709 12.1465C12.8495 12.1465 12.9875 12.2054 13.085 12.3174L13.5322 12.8291C13.6272 12.9376 13.7647 13 13.9092 13H14C14.276 13 14.5 12.776 14.5 12.5V12.1973C14.5 12.0708 14.5478 11.9494 14.6338 11.8564L15.2051 11.2422C15.2426 11.2022 15.2865 11.1686 15.335 11.1426L16.2637 10.6445C16.3407 10.6035 16.4205 10.585 16.499 10.585C16.761 10.585 17 10.7945 17 11.085V11.5C17 11.776 16.776 12 16.5 12H16C15.724 12 15.5 12.224 15.5 12.5C15.5 12.776 15.724 13 16 13H16.7344C16.9004 13 17.0564 13.0822 17.1494 13.2197L18.2314 14.8232C18.3284 14.9672 18.4865 15.043 18.6465 15.043C18.7555 15.043 18.8665 15.0076 18.959 14.9336L19.3135 14.6504C19.4315 14.5554 19.5 14.4113 19.5 14.2598V14C19.5 13.724 19.276 13.5 19 13.5C18.724 13.5 18.5 13.276 18.5 13C18.5 12.724 18.724 12.5 19 12.5H19.1797C19.2262 12.5 19.2724 12.4935 19.3174 12.4805L20.4932 12.1396C20.46 14.1905 19.7065 16.06 18.4717 17.5098C18.4896 17.4554 18.5 17.3985 18.5 17.3408V17.043C18.5 16.743 18.257 16.5 17.957 16.5C17.774 16.5 17.6029 16.4079 17.5029 16.2549L16.4043 14.2891C16.3008 14.1311 16.1282 14.0439 15.9502 14.0439C15.8687 14.0439 15.7855 14.0621 15.708 14.1006L14.5537 14.7334C14.4777 14.7714 14.3945 14.79 14.3115 14.79C14.254 14.79 14.1961 14.7812 14.1406 14.7627L12.2744 14.0869C12.1074 14.0314 11.9342 14.0039 11.7607 14.0039C11.5872 14.0039 11.4131 14.0314 11.2461 14.0869L9.5498 14.7627C9.4133 14.8082 9.29985 14.9057 9.23535 15.0342L8.61133 16.2783C8.54083 16.4193 8.53473 16.583 8.59473 16.7285L9.18945 18.1641C9.27345 18.3671 9.47093 18.5 9.69043 18.5H10.7285C10.8995 18.5 11.0606 18.4197 11.1631 18.2832L11.3164 18.0791C11.4249 17.9341 11.588 17.8623 11.751 17.8623C11.914 17.8623 12.0756 17.9346 12.1846 18.0791L12.3916 18.3555C12.4616 18.4495 12.5 18.5632 12.5 18.6807V20.4746C12.3336 20.4843 12.1689 20.5 12 20.5C7.29669 20.5 3.5 16.7033 3.5 12C3.5 11.3307 3.58504 10.6828 3.73047 10.0586L4.52441 9.60352C4.59141 9.56502 4.66616 9.5459 4.74316 9.5459H5.05859C5.30259 9.5459 5.50098 9.34752 5.50098 9.10352V7.5332C5.50098 7.2892 5.69838 7.09082 5.94238 7.09082C6.13338 7.09082 6.3028 6.96861 6.3623 6.78711L7.15723 5.01367C7.56095 4.73363 7.99166 4.49281 8.44238 4.28516L7.52832 6.2793C7.41082 6.6338 7.67435 7 8.04785 7H9.16602C9.41052 7 9.64438 6.90347 9.81738 6.73047L10.8877 5.66016C10.9902 5.55766 11.0479 5.41894 11.0479 5.27344V5.04688C11.0479 4.74537 10.803 4.5 10.501 4.5H10.2744C10.1294 4.5 9.98972 4.55766 9.88672 4.66016L9.54785 5L9.54199 4.38184C9.54036 4.19198 9.44388 4.03618 9.30664 3.94043C10.1533 3.65859 11.0572 3.5 12 3.5ZM18.165 6.1748L18.1855 6.17578C19.317 7.37723 20.0985 8.90665 20.3779 10.6113L19.0381 11H19C18.8275 11 18.66 11.022 18.5 11.0635C18.488 9.97598 17.6041 9.09346 16.5156 9.08496C16.5376 8.96246 16.5484 8.83839 16.5469 8.71289C16.5454 8.58539 16.5314 8.45896 16.5059 8.33496C16.7364 8.26796 16.9545 8.15915 17.1475 8.01465L17.3672 7.84961C17.8682 7.47411 18.167 6.876 18.167 6.25C18.167 6.225 18.166 6.1998 18.165 6.1748ZM10.5 8C10.224 8 10 8.224 10 8.5V9C10 9.276 10.224 9.5 10.5 9.5C10.776 9.5 11 9.276 11 9V8.5C11 8.224 10.776 8 10.5 8ZM11.7607 15.5049C11.7717 15.5049 11.7825 15.5063 11.793 15.5088L13.6299 16.1748L13.6494 16.1816L13.668 16.1885C13.876 16.2575 14.092 16.292 14.3115 16.292C14.626 16.292 14.9412 16.2176 15.2227 16.0771L15.249 16.0645L15.2744 16.0508L15.5762 15.8848L16.1934 16.9883L16.2188 17.0342L16.2471 17.0781C16.3796 17.2801 16.5444 17.4537 16.7314 17.5938L15.5967 19.6963C15.0895 19.9331 14.5561 20.1211 14 20.2549V18.6816C14 18.2426 13.8553 17.8071 13.5918 17.4561L13.3848 17.1797C13.0013 16.6682 12.39 16.3633 11.75 16.3633C11.2105 16.3633 10.691 16.5806 10.3115 16.9561L10.1484 16.5615L10.4121 16.0352L11.7383 15.5068C11.7458 15.5053 11.7532 15.5049 11.7607 15.5049Z" fill="#0D1011"/>
</g>
</svg>
