<svg width="24" height="24" viewBox="0 0 24 24" fill="none" xmlns="http://www.w3.org/2000/svg">
<g id="growth_positive">
<path id="Vector" d="M18.9957 2C17.6233 2 16.4931 3.13021 16.4931 4.5026V19.5C16.4931 20.8724 17.6233 22.0026 18.9957 22.0026C20.3681 22.0026 21.4983 20.8724 21.4983 19.5V4.5026C21.4983 3.13021 20.3681 2 18.9957 2ZM8.74828 2.5C8.47745 2.4974 8.22745 2.63802 8.08943 2.8724C7.95401 3.10677 7.95401 3.39323 8.08943 3.6276C8.22745 3.86198 8.47745 4.0026 8.74828 4H10.3394L2.25089 11.1901C2.04256 11.3646 1.9462 11.6406 1.99828 11.9062C2.05037 12.1745 2.24568 12.3932 2.50349 12.4766C2.76391 12.5599 3.04776 12.4974 3.24568 12.3099L11.4983 4.97656V6.75C11.4957 7.02083 11.6363 7.27083 11.8707 7.40885C12.1051 7.54427 12.3915 7.54427 12.6259 7.40885C12.8603 7.27083 13.0009 7.02083 12.9983 6.75V3.25C12.9983 2.83594 12.6623 2.5 12.2483 2.5H8.74828ZM18.9957 3.5C19.5582 3.5 19.9983 3.9401 19.9983 4.5026V19.5C19.9983 20.0625 19.5582 20.5026 18.9957 20.5026C18.4332 20.5026 17.9931 20.0625 17.9931 19.5V4.5026C17.9931 3.9401 18.4332 3.5 18.9957 3.5ZM11.9983 9.5C10.6259 9.5 9.49568 10.6302 9.49568 12.0026V19.5C9.49568 20.8724 10.6259 22.0026 11.9983 22.0026C13.3707 22.0026 14.5009 20.8724 14.5009 19.5V12.0026C14.5009 10.6302 13.3707 9.5 11.9983 9.5ZM11.9983 11C12.5608 11 13.0009 11.4401 13.0009 12.0026V19.5C13.0009 20.0625 12.5608 20.5026 11.9983 20.5026C11.4358 20.5026 10.9957 20.0625 10.9957 19.5V12.0026C10.9957 11.4401 11.4358 11 11.9983 11ZM4.99568 13.9974C3.62328 13.9974 2.49308 15.1276 2.49308 16.5V19.5C2.49308 20.8724 3.62328 22.0026 4.99568 22.0026C6.36808 22.0026 7.49828 20.8724 7.49828 19.5V16.5C7.49828 15.1276 6.36808 13.9974 4.99568 13.9974ZM4.99568 15.4974C5.55818 15.4974 5.99828 15.9375 5.99828 16.5V19.5C5.99828 20.0625 5.55818 20.5026 4.99568 20.5026C4.43318 20.5026 3.99308 20.0625 3.99308 19.5V16.5C3.99308 15.9375 4.43318 15.4974 4.99568 15.4974Z" fill="#0D1011"/>
</g>
</svg>
