<svg width="24" height="24" viewBox="0 0 24 24" fill="none" xmlns="http://www.w3.org/2000/svg">
<g id="handshake_heart ">
<path id="Vector" d="M7.18871 3.50586C5.72274 3.50586 4.25692 4.06767 3.14476 5.19043C0.92044 7.4354 0.92055 11.0885 3.14476 13.334L11.092 21.3545C11.1006 21.3632 11.1094 21.3716 11.1184 21.3799C11.7919 21.9962 12.7485 22.0353 13.4104 21.6328C13.8153 21.3866 14.048 20.9408 14.1594 20.4463C15.1396 20.3198 15.9121 19.5626 16.0598 18.583C17.0196 18.4348 17.7654 17.6757 17.9075 16.71C18.5372 16.59 19.0871 16.2179 19.3977 15.6953C19.6142 15.3311 19.7104 14.886 19.6741 14.4365C19.766 14.3967 19.849 14.339 19.9182 14.2666L20.842 13.334C23.0664 11.089 23.0672 7.43586 20.843 5.19043C19.7309 4.06767 18.2641 3.50586 16.7981 3.50586C15.3321 3.50586 13.8663 4.06767 12.7541 5.19043L11.9934 5.95801L11.2327 5.19043C10.1205 4.06767 8.65468 3.50586 7.18871 3.50586ZM7.18871 4.99414C8.26454 4.99414 9.34038 5.41136 10.1672 6.24609L10.9377 7.02344L9.2434 8.73438H9.24242C8.81864 9.16217 8.63037 9.75455 8.71117 10.2842C8.79197 10.8138 9.1049 11.2682 9.54222 11.5625C10.4169 12.151 11.7958 12.0195 12.8957 10.9092L13.843 9.95215L17.9621 14.0869C18.2999 14.4289 18.2547 14.6829 18.1086 14.9287C17.9622 15.1751 17.7016 15.3362 17.3489 15.249C17.2187 15.2168 17.0824 15.2201 16.9539 15.2584C16.8255 15.2968 16.7097 15.3689 16.6186 15.4672C16.5275 15.5655 16.4643 15.6864 16.4358 15.8174C16.4073 15.9484 16.4143 16.0846 16.4563 16.2119C16.6391 16.7654 16.0959 17.3121 15.5598 17.1318C15.4278 17.0875 15.286 17.0807 15.1504 17.1124C15.0147 17.144 14.8906 17.2128 14.7918 17.3111C14.6931 17.4093 14.6236 17.5331 14.5913 17.6686C14.5589 17.8041 14.5649 17.9459 14.6086 18.0781C14.7914 18.6316 14.2482 19.1774 13.7121 18.9971C13.5801 18.9527 13.4383 18.946 13.3027 18.9776C13.1671 19.0093 13.0429 19.0781 12.9442 19.1763C12.8454 19.2746 12.776 19.3983 12.7436 19.5338C12.7113 19.6693 12.7173 19.8111 12.761 19.9434C12.8448 20.1973 12.7635 20.2711 12.6311 20.3516C12.499 20.4319 12.3464 20.4689 12.1321 20.2734L4.21019 12.2783C2.55641 10.6088 2.55652 7.91512 4.21019 6.24609C5.03704 5.41136 6.11287 4.99414 7.18871 4.99414ZM16.7981 4.99414C17.8739 4.99414 18.9498 5.41136 19.7766 6.24609C21.4304 7.91566 21.4303 10.6093 19.7766 12.2783L19.0295 13.0322C19.0285 13.0312 19.0276 13.0303 19.0266 13.0293L19.0246 13.0283L16.3342 10.3271C17.1797 10.3109 17.9991 10.0485 18.7346 9.4834C18.8136 9.4237 18.88 9.34895 18.9299 9.26348C18.9799 9.178 19.0124 9.08348 19.0256 8.98536C19.0389 8.88725 19.0326 8.78749 19.0071 8.69183C18.9815 8.59617 18.9374 8.5065 18.877 8.428C18.8167 8.3495 18.7414 8.28372 18.6556 8.23446C18.5697 8.18519 18.4749 8.1534 18.3767 8.14094C18.2785 8.12848 18.1788 8.13558 18.0833 8.16184C17.9879 8.1881 17.8986 8.233 17.8205 8.29395C16.6997 9.1551 15.674 9.12648 14.2317 8.24805C14.0875 8.16039 13.918 8.1239 13.7506 8.14445C13.5831 8.16501 13.4275 8.24141 13.3088 8.36133L11.8303 9.85352C11.0822 10.6087 10.6134 10.476 10.3791 10.3184C10.262 10.2396 10.2053 10.1352 10.1936 10.0586C10.1819 9.98202 10.1784 9.92175 10.3088 9.79004L13.8196 6.24609C14.6464 5.41136 15.7222 4.99414 16.7981 4.99414Z" fill="#0D1011"/>
</g>
</svg>
