<svg width="24" height="24" viewBox="0 0 24 24" fill="none" xmlns="http://www.w3.org/2000/svg">
<g id="Heart Plus ">
<path id="Vector" d="M7.5 3.5C4.46875 3.5 2 5.96875 2 9C2 11.0469 3.54167 12.974 5.42708 14.9531C7.30729 16.9323 9.625 18.9323 11.4687 20.7813C11.7604 21.0729 12.2396 21.0729 12.5313 20.7813C14.375 18.9323 16.6927 16.9323 18.5729 14.9531C20.4583 12.974 22 11.0469 22 9C22 5.96875 19.5313 3.5 16.5 3.5C14.7604 3.5 13.25 4.43229 12 6.02083C10.75 4.43229 9.23958 3.5 7.5 3.5ZM7.5 5C8.96354 5 10.1823 5.78125 11.3646 7.65104C11.5052 7.86979 11.7448 8 12 8C12.2552 8 12.4948 7.86979 12.6354 7.65104C13.8177 5.78125 15.0365 5 16.5 5C18.7188 5 20.5 6.78125 20.5 9C20.5 10.2031 19.2917 12.026 17.4896 13.9219C15.8438 15.651 13.7969 17.4583 12 19.2083C10.2031 17.4583 8.15625 15.651 6.51042 13.9219C4.70833 12.026 3.5 10.2031 3.5 9C3.5 6.78125 5.28125 5 7.5 5ZM15.9896 6.98958C15.5729 6.99479 15.2448 7.33854 15.25 7.75V8.75H14.25C13.9792 8.74479 13.7292 8.89063 13.5937 9.11979C13.4531 9.35417 13.4531 9.64583 13.5937 9.88021C13.7292 10.1094 13.9792 10.2552 14.25 10.25H15.25V11.25C15.2448 11.5208 15.3906 11.7708 15.6198 11.9063C15.8542 12.0469 16.1458 12.0469 16.3802 11.9063C16.6094 11.7708 16.7552 11.5208 16.75 11.25V10.25H17.75C18.0208 10.2552 18.2708 10.1094 18.4063 9.88021C18.5469 9.64583 18.5469 9.35417 18.4063 9.11979C18.2708 8.89063 18.0208 8.74479 17.75 8.75H16.75V7.75C16.7552 7.54688 16.6719 7.35417 16.5313 7.20833C16.3854 7.06771 16.1927 6.98437 15.9896 6.98958Z" fill="#0D1011"/>
</g>
</svg>
