<svg width="24" height="24" viewBox="0 0 24 24" fill="none" xmlns="http://www.w3.org/2000/svg">
<g id="help_fill">
<path id="Vector" d="M12 2C6.48698 2 2 6.48698 2 12C2 17.513 6.48698 22 12 22C17.513 22 22 17.513 22 12C22 6.48698 17.513 2 12 2ZM12 18C11.4479 18 11 17.5521 11 17C11 16.4479 11.4479 16 12 16C12.5521 16 13 16.4479 13 17C13 17.5521 12.5521 18 12 18ZM13.4948 12.4896C13 12.875 12.75 13.0677 12.75 13.75C12.75 14.1641 12.4141 14.5 12 14.5C11.5859 14.5 11.25 14.1641 11.25 13.75C11.25 12.3359 12.0156 11.7396 12.5729 11.3047C13.112 10.8854 13.5 10.5833 13.5 9.5C13.5 8.67188 12.8281 8 12 8C11.1719 8 10.5 8.67188 10.5 9.5V9.75C10.5 10.1641 10.1641 10.5 9.75 10.5C9.33594 10.5 9 10.1641 9 9.75V9.5C9 7.84635 10.3464 6.5 12 6.5C13.6536 6.5 15 7.84635 15 9.5C15 11.3151 14.1302 11.9948 13.4948 12.4896Z" fill="#0D1011"/>
</g>
</svg>
