<svg width="24" height="24" viewBox="0 0 24 24" fill="none" xmlns="http://www.w3.org/2000/svg">
<g id="high_importance ">
<path id="Vector" d="M12 2C6.48603 2 2 6.48604 2 12C2 17.514 6.48603 22 12 22C17.514 22 22 17.514 22 12C22 6.48604 17.514 2 12 2ZM12 3.5C16.7033 3.5 20.5 7.2967 20.5 12C20.5 16.7033 16.7033 20.5 12 20.5C7.29669 20.5 3.5 16.7033 3.5 12C3.5 7.2967 7.29669 3.5 12 3.5ZM11.9883 6.98926C11.7895 6.99236 11.6002 7.07423 11.4617 7.21686C11.3233 7.3595 11.2471 7.55125 11.25 7.75V12.75C11.2486 12.8494 11.267 12.9481 11.304 13.0403C11.3411 13.1325 11.3961 13.2164 11.4659 13.2872C11.5357 13.358 11.6188 13.4142 11.7105 13.4526C11.8022 13.4909 11.9006 13.5107 12 13.5107C12.0994 13.5107 12.1978 13.4909 12.2895 13.4526C12.3812 13.4142 12.4643 13.358 12.5341 13.2872C12.6039 13.2164 12.6589 13.1325 12.696 13.0403C12.733 12.9481 12.7514 12.8494 12.75 12.75V7.75C12.7514 7.64962 12.7327 7.54997 12.6949 7.45695C12.6571 7.36394 12.6011 7.27946 12.53 7.20852C12.459 7.13758 12.3745 7.08161 12.2814 7.04395C12.1883 7.00629 12.0887 6.98769 11.9883 6.98926ZM12 15C11.7348 15 11.4804 15.1054 11.2929 15.2929C11.1054 15.4804 11 15.7348 11 16C11 16.2652 11.1054 16.5196 11.2929 16.7071C11.4804 16.8946 11.7348 17 12 17C12.2652 17 12.5196 16.8946 12.7071 16.7071C12.8946 16.5196 13 16.2652 13 16C13 15.7348 12.8946 15.4804 12.7071 15.2929C12.5196 15.1054 12.2652 15 12 15Z" fill="#0D1011"/>
</g>
</svg>
