<svg width="24" height="24" viewBox="0 0 24 24" fill="none" xmlns="http://www.w3.org/2000/svg">
<g id="home ">
<path id="Vector" d="M11.9756 1.9999C11.8153 2.00516 11.661 2.06163 11.5352 2.16104L4.43652 7.76065C3.54677 8.45974 3 9.5501 3 10.7001V20.2499C3 20.5666 3.1184 20.9035 3.35742 21.1425C3.59644 21.3815 3.93333 21.4999 4.25 21.4999H9.25C9.56667 21.4999 9.90355 21.3815 10.1426 21.1425C10.3816 20.9035 10.5 20.5666 10.5 20.2499V15.2499C10.5 15.109 10.6091 14.9999 10.75 14.9999H13.25C13.3909 14.9999 13.5 15.109 13.5 15.2499V20.2499C13.5 20.5666 13.6184 20.9035 13.8574 21.1425C14.0964 21.3815 14.4333 21.4999 14.75 21.4999H19.75C20.0667 21.4999 20.4036 21.3815 20.6426 21.1425C20.8816 20.9035 21 20.5666 21 20.2499V10.7001C21 9.57788 20.506 8.45055 19.5439 7.74502L12.4648 2.16104C12.3259 2.05126 12.1526 1.99418 11.9756 1.9999ZM12 3.70498L18.6357 8.93838C18.6425 8.94404 18.6493 8.94957 18.6562 8.95498C19.1942 9.34945 19.5 10.0223 19.5 10.7001V19.9999H15V15.2499C15 14.2908 14.2091 13.4999 13.25 13.4999H10.75C9.79091 13.4999 9 14.2908 9 15.2499V19.9999H4.5V10.7001C4.5 10.0501 4.85304 9.34026 5.36328 8.93936C5.36361 8.93903 5.36393 8.93871 5.36426 8.93838L12 3.70498Z" fill="#0D1011"/>
</g>
</svg>
