<svg width="24" height="24" viewBox="0 0 24 24" fill="none" xmlns="http://www.w3.org/2000/svg">
<g id="Instagram ">
<path id="Vector" d="M8.25 2.5C5.08333 2.5 2.5 5.08333 2.5 8.25V15.75C2.5 18.9167 5.08333 21.5 8.25 21.5H15.75C18.9167 21.5 21.5 18.9167 21.5 15.75V8.25C21.5 5.08333 18.9167 2.5 15.75 2.5H8.25ZM8.25 4H15.75C18.1042 4 20 5.89583 20 8.25V15.75C20 18.1042 18.1042 20 15.75 20H8.25C5.89583 20 4 18.1042 4 15.75V8.25C4 5.89583 5.89583 4 8.25 4ZM17 6C16.4479 6 16 6.44792 16 7C16 7.55208 16.4479 8 17 8C17.5521 8 18 7.55208 18 7C18 6.44792 17.5521 6 17 6ZM12 7C9.25 7 7 9.25 7 12C7 14.75 9.25 17 12 17C14.75 17 17 14.75 17 12C17 9.25 14.75 7 12 7ZM12 8.5C13.9427 8.5 15.5 10.0573 15.5 12C15.5 13.9427 13.9427 15.5 12 15.5C10.0573 15.5 8.5 13.9427 8.5 12C8.5 10.0573 10.0573 8.5 12 8.5Z" fill="#0D1011"/>
</g>
</svg>
