<svg width="24" height="24" viewBox="0 0 24 24" fill="none" xmlns="http://www.w3.org/2000/svg">
<g id="invoice">
<path id="Vector" d="M6.25 2.5C5.01563 2.5 4 3.51563 4 4.75V16.5H3.25C2.83333 16.5 2.5 16.8333 2.5 17.25V18.25C2.5 20.0365 3.96354 21.5 5.75 21.5H16.75C18.5365 21.5 20 20.0365 20 18.25V4.75C20 3.51563 18.9844 2.5 17.75 2.5H6.25ZM6.25 4H17.75C18.1719 4 18.5 4.32813 18.5 4.75V18.25C18.5 19.224 17.724 20 16.75 20C15.776 20 15 19.224 15 18.25V17.25C15 16.8333 14.6667 16.5 14.25 16.5H5.5V4.75C5.5 4.32813 5.82813 4 6.25 4ZM8.25 6.5C7.83333 6.5 7.5 6.83333 7.5 7.25C7.5 7.66667 7.83333 8 8.25 8C8.66667 8 9 7.66667 9 7.25C9 6.83333 8.66667 6.5 8.25 6.5ZM10.75 6.5C10.4792 6.49479 10.2292 6.64063 10.0937 6.86979C9.95313 7.10417 9.95313 7.39583 10.0937 7.63021C10.2292 7.85937 10.4792 8.00521 10.75 8H15.75C16.0208 8.00521 16.2708 7.85937 16.4063 7.63021C16.5469 7.39583 16.5469 7.10417 16.4063 6.86979C16.2708 6.64063 16.0208 6.49479 15.75 6.5H10.75ZM8.25 9.5C7.83333 9.5 7.5 9.83333 7.5 10.25C7.5 10.6667 7.83333 11 8.25 11C8.66667 11 9 10.6667 9 10.25C9 9.83333 8.66667 9.5 8.25 9.5ZM10.75 9.5C10.4792 9.49479 10.2292 9.64063 10.0937 9.86979C9.95313 10.1042 9.95313 10.3958 10.0937 10.6302C10.2292 10.8594 10.4792 11.0052 10.75 11H15.75C16.0208 11.0052 16.2708 10.8594 16.4063 10.6302C16.5469 10.3958 16.5469 10.1042 16.4063 9.86979C16.2708 9.64063 16.0208 9.49479 15.75 9.5H10.75ZM8.25 12.5C7.83333 12.5 7.5 12.8333 7.5 13.25C7.5 13.6667 7.83333 14 8.25 14C8.66667 14 9 13.6667 9 13.25C9 12.8333 8.66667 12.5 8.25 12.5ZM10.75 12.5C10.4792 12.4948 10.2292 12.6406 10.0937 12.8698C9.95313 13.1042 9.95313 13.3958 10.0937 13.6302C10.2292 13.8594 10.4792 14.0052 10.75 14H15.75C16.0208 14.0052 16.2708 13.8594 16.4063 13.6302C16.5469 13.3958 16.5469 13.1042 16.4063 12.8698C16.2708 12.6406 16.0208 12.4948 15.75 12.5H10.75ZM4 18H13.5V18.25C13.5 18.9063 13.7448 19.4844 14.0885 20H5.75C4.77604 20 4 19.224 4 18.25V18Z" fill="#0D1011"/>
</g>
</svg>
