<svg width="24" height="24" viewBox="0 0 24 24" fill="none" xmlns="http://www.w3.org/2000/svg">
<g id="keyboard ">
<path id="Vector" d="M20.2344 3.49407C20.0911 3.49883 19.9521 3.54459 19.834 3.6259C19.834 3.6259 17.7273 4.99993 15.25 4.99993C14.0114 4.99993 13.0666 4.66917 12.0762 4.29778C11.0858 3.92638 10.0417 3.49993 8.75 3.49993C6.96403 3.49993 5.5 4.96396 5.5 6.74993V7.99993H4.25C2.74011 7.99993 1.5 9.24004 1.5 10.7499V17.7499C1.5 19.2598 2.74011 20.4999 4.25 20.4999H19.75C21.2599 20.4999 22.5 19.2598 22.5 17.7499V10.7499C22.5 9.24004 21.2599 7.99993 19.75 7.99993H7V6.74993C7 5.77489 7.77497 4.99993 8.75 4.99993C9.70833 4.99993 10.5392 5.32347 11.5488 5.70207C12.5584 6.08068 13.7386 6.49993 15.25 6.49993C18.2727 6.49993 20.666 4.87395 20.666 4.87395C20.8039 4.78498 20.9087 4.65327 20.9646 4.49899C21.0204 4.34471 21.0241 4.17638 20.9751 4.0198C20.9262 3.86321 20.8272 3.727 20.6934 3.63204C20.5596 3.53709 20.3984 3.48862 20.2344 3.49407ZM4.25 9.49993H6.12695C6.20747 9.51315 6.2896 9.51315 6.37012 9.49993H19.75C20.4491 9.49993 21 10.0508 21 10.7499V17.7499C21 18.449 20.4491 18.9999 19.75 18.9999H4.25C3.55089 18.9999 3 18.449 3 17.7499V10.7499C3 10.0508 3.55089 9.49993 4.25 9.49993ZM5.5 10.9999C5.224 10.9999 5 11.2239 5 11.4999V11.9999C5 12.2759 5.224 12.4999 5.5 12.4999H6C6.276 12.4999 6.5 12.2759 6.5 11.9999V11.4999C6.5 11.2239 6.276 10.9999 6 10.9999H5.5ZM8 10.9999C7.724 10.9999 7.5 11.2239 7.5 11.4999V11.9999C7.5 12.2759 7.724 12.4999 8 12.4999H8.5C8.776 12.4999 9 12.2759 9 11.9999V11.4999C9 11.2239 8.776 10.9999 8.5 10.9999H8ZM10.5 10.9999C10.224 10.9999 10 11.2239 10 11.4999V11.9999C10 12.2759 10.224 12.4999 10.5 12.4999H11C11.276 12.4999 11.5 12.2759 11.5 11.9999V11.4999C11.5 11.2239 11.276 10.9999 11 10.9999H10.5ZM13 10.9999C12.724 10.9999 12.5 11.2239 12.5 11.4999V11.9999C12.5 12.2759 12.724 12.4999 13 12.4999H13.5C13.776 12.4999 14 12.2759 14 11.9999V11.4999C14 11.2239 13.776 10.9999 13.5 10.9999H13ZM15.5 10.9999C15.224 10.9999 15 11.2239 15 11.4999V11.9999C15 12.2759 15.224 12.4999 15.5 12.4999H16C16.276 12.4999 16.5 12.2759 16.5 11.9999V11.4999C16.5 11.2239 16.276 10.9999 16 10.9999H15.5ZM18 10.9999C17.724 10.9999 17.5 11.2239 17.5 11.4999V11.9999C17.5 12.2759 17.724 12.4999 18 12.4999H18.5C18.776 12.4999 19 12.2759 19 11.9999V11.4999C19 11.2239 18.776 10.9999 18.5 10.9999H18ZM5.5 13.4999C5.224 13.4999 5 13.7239 5 13.9999V14.4999C5 14.7759 5.224 14.9999 5.5 14.9999H6C6.276 14.9999 6.5 14.7759 6.5 14.4999V13.9999C6.5 13.7239 6.276 13.4999 6 13.4999H5.5ZM8 13.4999C7.724 13.4999 7.5 13.7239 7.5 13.9999V14.4999C7.5 14.7759 7.724 14.9999 8 14.9999H8.5C8.776 14.9999 9 14.7759 9 14.4999V13.9999C9 13.7239 8.776 13.4999 8.5 13.4999H8ZM10.5 13.4999C10.224 13.4999 10 13.7239 10 13.9999V14.4999C10 14.7759 10.224 14.9999 10.5 14.9999H11C11.276 14.9999 11.5 14.7759 11.5 14.4999V13.9999C11.5 13.7239 11.276 13.4999 11 13.4999H10.5ZM13 13.4999C12.724 13.4999 12.5 13.7239 12.5 13.9999V14.4999C12.5 14.7759 12.724 14.9999 13 14.9999H13.5C13.776 14.9999 14 14.7759 14 14.4999V13.9999C14 13.7239 13.776 13.4999 13.5 13.4999H13ZM15.5 13.4999C15.224 13.4999 15 13.7239 15 13.9999V14.4999C15 14.7759 15.224 14.9999 15.5 14.9999H16C16.276 14.9999 16.5 14.7759 16.5 14.4999V13.9999C16.5 13.7239 16.276 13.4999 16 13.4999H15.5ZM18 13.4999C17.724 13.4999 17.5 13.7239 17.5 13.9999V14.4999C17.5 14.7759 17.724 14.9999 18 14.9999H18.5C18.776 14.9999 19 14.7759 19 14.4999V13.9999C19 13.7239 18.776 13.4999 18.5 13.4999H18ZM5.5 15.9999C5.224 15.9999 5 16.2239 5 16.4999V16.9999C5 17.2759 5.224 17.4999 5.5 17.4999H6C6.276 17.4999 6.5 17.2759 6.5 16.9999V16.4999C6.5 16.2239 6.276 15.9999 6 15.9999H5.5ZM8.25 15.9999C8.15062 15.9985 8.05194 16.0169 7.95972 16.0539C7.86749 16.091 7.78355 16.146 7.71277 16.2158C7.642 16.2856 7.58579 16.3687 7.54743 16.4604C7.50907 16.5521 7.48932 16.6505 7.48932 16.7499C7.48932 16.8493 7.50907 16.9477 7.54743 17.0394C7.58579 17.1311 7.642 17.2143 7.71277 17.284C7.78355 17.3538 7.86749 17.4088 7.95972 17.4459C8.05194 17.483 8.15062 17.5013 8.25 17.4999H15.75C15.8494 17.5013 15.9481 17.483 16.0403 17.4459C16.1325 17.4088 16.2164 17.3538 16.2872 17.284C16.358 17.2143 16.4142 17.1311 16.4526 17.0394C16.4909 16.9477 16.5107 16.8493 16.5107 16.7499C16.5107 16.6505 16.4909 16.5521 16.4526 16.4604C16.4142 16.3687 16.358 16.2856 16.2872 16.2158C16.2164 16.146 16.1325 16.091 16.0403 16.0539C15.9481 16.0169 15.8494 15.9985 15.75 15.9999H8.25ZM18 15.9999C17.724 15.9999 17.5 16.2239 17.5 16.4999V16.9999C17.5 17.2759 17.724 17.4999 18 17.4999H18.5C18.776 17.4999 19 17.2759 19 16.9999V16.4999C19 16.2239 18.776 15.9999 18.5 15.9999H18Z" fill="#0D1011"/>
</g>
</svg>
