<svg width="24" height="24" viewBox="0 0 24 24" fill="none" xmlns="http://www.w3.org/2000/svg">
<g id="laptop ">
<path id="Vector" d="M4.25287 4.5C3.29378 4.5 2.50287 5.29091 2.50287 6.25V15.75C2.50287 16.7091 3.29378 17.5 4.25287 17.5H19.7529C20.712 17.5 21.5029 16.7091 21.5029 15.75V6.25C21.5029 5.29091 20.712 4.5 19.7529 4.5H4.25287ZM4.25287 6H19.7529C19.8938 6 20.0029 6.10909 20.0029 6.25V15.75C20.0029 15.8909 19.8938 16 19.7529 16H4.25287C4.11196 16 4.00287 15.8909 4.00287 15.75V6.25C4.00287 6.10909 4.11196 6 4.25287 6ZM1.25287 19C1.15349 18.9986 1.05481 19.017 0.962587 19.054C0.870361 19.0911 0.78642 19.1461 0.715643 19.2159C0.644866 19.2857 0.588663 19.3688 0.550303 19.4605C0.511942 19.5522 0.492188 19.6506 0.492188 19.75C0.492187 19.8494 0.511942 19.9478 0.550303 20.0395C0.588663 20.1312 0.644866 20.2143 0.715643 20.2841C0.78642 20.3539 0.870361 20.4089 0.962587 20.446C1.05481 20.483 1.15349 20.5014 1.25287 20.5H22.7529C22.8523 20.5014 22.9509 20.483 23.0432 20.446C23.1354 20.4089 23.2193 20.3539 23.2901 20.2841C23.3609 20.2143 23.4171 20.1312 23.4554 20.0395C23.4938 19.9478 23.5135 19.8494 23.5135 19.75C23.5135 19.6506 23.4938 19.5522 23.4554 19.4605C23.4171 19.3688 23.3609 19.2857 23.2901 19.2159C23.2193 19.1461 23.1354 19.0911 23.0432 19.054C22.9509 19.017 22.8523 18.9986 22.7529 19H1.25287Z" fill="#0D1011"/>
</g>
</svg>
