<svg width="24" height="24" viewBox="0 0 24 24" fill="none" xmlns="http://www.w3.org/2000/svg">
<g id="left_arrow">
<path id="Vector" d="M10.293 19.7059C10.4883 19.9038 10.7435 20.0002 10.9987 20.0002C11.2539 20.0002 11.5091 19.9038 11.7044 19.7059C12.0951 19.3179 12.0951 18.6825 11.7044 18.2944L6.41276 13.0002H19.9987C20.5508 13.0002 20.9987 12.5522 20.9987 12.0002C20.9987 11.4481 20.5508 11.0002 19.9987 11.0002H6.41276L11.7044 5.70589C12.0951 5.31787 12.0951 4.68245 11.7044 4.29443C11.3164 3.90381 10.681 3.90381 10.293 4.29443L3.29297 11.2944C2.90234 11.6825 2.90234 12.3179 3.29297 12.7059L10.293 19.7059Z" fill="#0D1011"/>
</g>
</svg>
