<svg width="24" height="24" viewBox="0 0 24 24" fill="none" xmlns="http://www.w3.org/2000/svg">
<g id="light on" clip-path="url(#clip0_2362_433)">
<path id="Vector" d="M3.39323 0.890867C3.08854 0.890867 2.8125 1.07576 2.69792 1.35962C2.58333 1.64087 2.65104 1.96639 2.86979 2.17993L3.57812 2.88566C3.76562 3.08097 4.04427 3.1617 4.30729 3.09139C4.57031 3.02368 4.77604 2.81795 4.84375 2.55493C4.91406 2.29191 4.83333 2.01326 4.63802 1.82576L3.93229 1.11743C3.78906 0.9742 3.59635 0.890867 3.39323 0.890867ZM20.5885 0.890867C20.3958 0.898679 20.2109 0.979408 20.0729 1.11743L19.3672 1.82576C19.1719 2.01326 19.0911 2.29191 19.1615 2.55493C19.2292 2.81795 19.4349 3.02368 19.6979 3.09139C19.9609 3.1617 20.2396 3.08097 20.4271 2.88566L21.1354 2.17993C21.3568 1.96378 21.4219 1.63305 21.3021 1.3492C21.1823 1.06535 20.8984 0.883054 20.5885 0.890867ZM12.0026 2.00805C8.14844 2.00805 5.0026 5.14347 5.0026 9.00024C5.0026 11.0002 5.84896 12.8101 7.19792 14.0836C7.35677 14.2346 7.47135 14.4456 7.52604 14.6877L8.76042 20.2372C8.98698 21.2633 9.90625 22.0002 10.9557 22.0002H13.0495C14.099 22.0002 15.0182 21.2633 15.2448 20.2372L16.4792 14.6877V14.6851C16.5339 14.4456 16.6484 14.2346 16.8073 14.0862V14.0836H16.8099C18.1562 12.8101 19.0026 11.0002 19.0026 9.00024C19.0026 5.14347 15.8568 2.00805 12.0026 2.00805ZM12.0026 3.50805C15.0495 3.50805 17.5026 5.95597 17.5026 9.00024C17.5026 10.5784 16.8411 11.9898 15.7786 12.995C15.3802 13.37 15.1276 13.8544 15.0156 14.3622L14.4297 17.0002H9.57552L8.98958 14.3596C8.8776 13.8544 8.625 13.37 8.22656 12.995C7.16406 11.9898 6.5026 10.5784 6.5026 9.00024C6.5026 5.95597 8.95573 3.50805 12.0026 3.50805ZM0.752604 7.50024C0.481771 7.49764 0.231771 7.63826 0.0937501 7.87264C-0.0416667 8.10701 -0.0416667 8.39347 0.0937501 8.62785C0.231771 8.86222 0.481771 9.00284 0.752604 9.00024H2.2526C2.52344 9.00284 2.77344 8.86222 2.91146 8.62785C3.04687 8.39347 3.04687 8.10701 2.91146 7.87264C2.77344 7.63826 2.52344 7.49764 2.2526 7.50024H0.752604ZM21.7526 7.50024C21.4818 7.49764 21.2318 7.63826 21.0938 7.87264C20.9583 8.10701 20.9583 8.39347 21.0938 8.62785C21.2318 8.86222 21.4818 9.00284 21.7526 9.00024H23.2526C23.5234 9.00284 23.7734 8.86222 23.9115 8.62785C24.0469 8.39347 24.0469 8.10701 23.9115 7.87264C23.7734 7.63826 23.5234 7.49764 23.2526 7.50024H21.7526ZM19.8906 13.3883C19.5833 13.3883 19.3099 13.5732 19.1953 13.8544C19.0807 14.1383 19.1484 14.4612 19.3672 14.6747L20.0729 15.3831C20.263 15.5784 20.5417 15.6565 20.8047 15.5888C21.0677 15.5211 21.2734 15.3153 21.3411 15.0523C21.4089 14.7893 21.3307 14.5107 21.1354 14.3206L20.4271 13.6148C20.2865 13.469 20.0911 13.3883 19.8906 13.3883ZM4.09375 13.3883C3.89844 13.3935 3.71354 13.4742 3.57812 13.6148L2.86979 14.3206C2.67448 14.5107 2.59635 14.7893 2.66406 15.0523C2.73177 15.3153 2.9375 15.5211 3.20052 15.5888C3.46354 15.6565 3.74219 15.5784 3.93229 15.3831L4.63802 14.6747C4.85938 14.4586 4.92708 14.1305 4.80469 13.844C4.6849 13.5601 4.40365 13.3778 4.09375 13.3883ZM9.90885 18.5002H14.0964L13.7812 19.9143C13.7057 20.2607 13.4063 20.5002 13.0495 20.5002H10.9557C10.599 20.5002 10.2995 20.2607 10.224 19.9143L9.90885 18.5002Z" fill="#0D1011"/>
</g>
<defs>
<clipPath id="clip0_2362_433">
<rect width="24" height="24" fill="white"/>
</clipPath>
</defs>
</svg>
