<svg width="24" height="24" viewBox="0 0 24 24" fill="none" xmlns="http://www.w3.org/2000/svg">
<g id="like">
<path id="Vector" d="M13.4427 1.51055C13.2188 1.52617 12.9948 1.57826 12.7865 1.69284C12.3698 1.9168 12.1198 2.32305 11.9687 2.73972C11.9687 2.74492 11.9635 2.74492 11.9635 2.74492C11.9271 2.84909 11.9479 2.80221 11.9427 2.82305C11.9323 2.84909 11.9219 2.88555 11.9115 2.92721C11.8854 3.01055 11.8542 3.12513 11.8177 3.26055C11.7396 3.53659 11.6354 3.89597 11.5313 4.25013C11.3281 4.96367 11.1302 5.67201 11.1302 5.67201C11.1302 5.67201 11.1302 5.67201 11.1302 5.67722C11.0729 5.88034 11.0208 5.98451 11.0052 6.01576C11 6.01576 11 6.01576 11 6.02097C10.2656 7.1668 9.46875 8.32826 8.69792 9.50013H5.25C4.01563 9.50013 3 10.5158 3 11.7501V19.7501C3 20.9845 4.01563 22.0001 5.25 22.0001H7.25C7.88021 22.0001 8.44792 21.7345 8.85417 21.3126C10.0104 21.5626 11.2969 21.8387 12.349 22.0574C12.8958 22.1772 13.3802 22.2762 13.7448 22.3491C14.1094 22.422 14.2448 22.4637 14.4844 22.4845C14.6406 22.5001 14.7917 22.5053 14.9427 22.5053C17.0833 22.5053 18.974 21.0522 19.5208 18.9376C19.9427 17.3178 20.8021 13.9585 20.8021 13.9481C20.875 13.6876 20.9688 13.3439 20.9948 12.9272C21.0417 12.0366 20.7292 11.1668 20.1198 10.521C19.5 9.86472 18.6354 9.50013 17.7187 9.50013H15.7344C15.9115 8.86992 16.0833 8.26576 16.2083 7.77097C16.5104 6.58347 16.5833 5.52617 16.3958 4.51055C16.401 4.51055 16.401 4.51055 16.3958 4.51055C16.3073 4.00534 16.1354 3.26576 15.6094 2.58347C15.2292 2.08867 14.7031 1.7293 14.1094 1.58347C13.8958 1.52617 13.6667 1.50013 13.4427 1.51055ZM13.5417 3.00534C13.5781 3.00534 13.6406 3.01055 13.7448 3.03659C14.0104 3.1043 14.2188 3.23451 14.4219 3.50013C14.7188 3.88555 14.8438 4.3543 14.9219 4.77617C15.0625 5.55222 15.0208 6.36472 14.7552 7.40117C14.5781 8.1043 14.026 10.047 14.026 10.047C13.9635 10.271 14.0104 10.5158 14.151 10.7033C14.2917 10.8908 14.5156 11.0001 14.75 11.0001H17.7187C18.2448 11.0001 18.6979 11.198 19.0313 11.5522C19.3594 11.896 19.5208 12.3439 19.4948 12.8491C19.4844 13.0678 19.4271 13.297 19.3542 13.5522C19.3542 13.5574 19.3542 13.5626 19.3542 13.5626C19.3542 13.5626 18.4896 16.9428 18.0729 18.5574C17.6875 20.0314 16.4115 21.0053 14.9427 21.0053C14.8385 21.0053 14.7344 21.0001 14.6302 20.9897C14.7448 21.0001 14.401 20.9533 14.0417 20.8803C13.6875 20.8074 13.2031 20.7085 12.6563 20.5887C11.7031 20.3908 10.5417 20.1408 9.46875 19.9064C9.47396 19.8543 9.5 19.8074 9.5 19.7501V11.0053C10.3854 9.62513 11.3542 8.25013 12.2656 6.82826C12.4271 6.57305 12.5 6.32305 12.5729 6.08347C12.5729 6.07826 12.7708 5.37513 12.974 4.66159C13.0781 4.30222 13.1771 3.94805 13.2552 3.67201C13.2969 3.53659 13.3281 3.42201 13.3542 3.34388C13.3646 3.30221 13.375 3.27097 13.3802 3.24492C13.4583 3.03138 13.5104 3.00534 13.5052 3.01055C13.5 3.01055 13.5052 3.00534 13.5417 3.00534ZM5.25 11.0001H8V19.7501C8 20.172 7.67188 20.5001 7.25 20.5001H5.25C4.82813 20.5001 4.5 20.172 4.5 19.7501V11.7501C4.5 11.3283 4.82813 11.0001 5.25 11.0001Z" fill="#0D1011"/>
</g>
</svg>
