<svg width="24" height="24" viewBox="0 0 24 24" fill="none" xmlns="http://www.w3.org/2000/svg">
<g id="linked_file ">
<path id="Vector" d="M6.25 2C5.0095 2 4 3.0095 4 4.25V19.75C4 20.9905 5.0095 22 6.25 22H9.87891C9.55941 21.5515 9.31599 21.045 9.16699 20.5H6.25C5.8365 20.5 5.5 20.1635 5.5 19.75V4.25C5.5 3.8365 5.8365 3.5 6.25 3.5H12V7.75C12 8.9905 13.0095 10 14.25 10H18.5V14.5H19.25C19.505 14.5 19.7555 14.5206 20 14.5596V9.25C20 9.043 19.916 8.85548 19.7803 8.71973L13.2803 2.21973C13.1446 2.08398 12.9572 2 12.75 2H6.25ZM13.5 4.56055L17.4395 8.5H14.25C13.8365 8.5 13.5 8.1635 13.5 7.75V4.56055ZM13.75 15.5C11.682 15.5 10 17.182 10 19.25C10 21.318 11.682 23 13.75 23H14.75C15.1645 23 15.5 22.6645 15.5 22.25C15.5 21.8355 15.1645 21.5 14.75 21.5H13.75C12.5095 21.5 11.5 20.4905 11.5 19.25C11.5 18.0095 12.5095 17 13.75 17H14.75C15.1645 17 15.5 16.6645 15.5 16.25C15.5 15.8355 15.1645 15.5 14.75 15.5H13.75ZM18.25 15.5C17.8355 15.5 17.5 15.8355 17.5 16.25C17.5 16.6645 17.8355 17 18.25 17H19.25C20.4905 17 21.5 18.0095 21.5 19.25C21.5 20.4905 20.4905 21.5 19.25 21.5H18.25C17.8355 21.5 17.5 21.8355 17.5 22.25C17.5 22.6645 17.8355 23 18.25 23H19.25C21.318 23 23 21.318 23 19.25C23 17.182 21.318 15.5 19.25 15.5H18.25ZM13.75 18.5C13.3355 18.5 13 18.8355 13 19.25C13 19.6645 13.3355 20 13.75 20H19.25C19.6645 20 20 19.6645 20 19.25C20 18.8355 19.6645 18.5 19.25 18.5H13.75Z" fill="#0D1011"/>
</g>
</svg>
