<svg width="24" height="24" viewBox="0 0 24 24" fill="none" xmlns="http://www.w3.org/2000/svg">
<g id="link ">
<path id="Vector" d="M6.5 6.50008C3.47122 6.50008 1 8.9713 1 12.0001C1 15.0289 3.47122 17.5001 6.5 17.5001H8.75C8.84938 17.5015 8.94806 17.4831 9.04028 17.4461C9.13251 17.409 9.21645 17.354 9.28723 17.2842C9.358 17.2144 9.41421 17.1313 9.45257 17.0396C9.49093 16.9479 9.51068 16.8495 9.51068 16.7501C9.51068 16.6507 9.49093 16.5523 9.45257 16.4606C9.41421 16.3689 9.358 16.2857 9.28723 16.216C9.21645 16.1462 9.13251 16.0912 9.04028 16.0541C8.94806 16.017 8.84938 15.9987 8.75 16.0001H6.5C4.28178 16.0001 2.5 14.2183 2.5 12.0001C2.5 9.78185 4.28178 8.00007 6.5 8.00007H8.75C8.84938 8.00148 8.94806 7.98312 9.04028 7.94606C9.13251 7.909 9.21645 7.85398 9.28723 7.7842C9.358 7.71441 9.41421 7.63126 9.45257 7.53956C9.49093 7.44787 9.51068 7.34947 9.51068 7.25007C9.51068 7.15068 9.49093 7.05228 9.45257 6.96059C9.41421 6.86889 9.358 6.78574 9.28723 6.71595C9.21645 6.64617 9.13251 6.59115 9.04028 6.55409C8.94806 6.51703 8.84938 6.49867 8.75 6.50008H6.5ZM15.25 6.50008C15.1506 6.49867 15.0519 6.51703 14.9597 6.55409C14.8675 6.59115 14.7836 6.64617 14.7128 6.71595C14.642 6.78574 14.5858 6.86889 14.5474 6.96059C14.5091 7.05228 14.4893 7.15068 14.4893 7.25007C14.4893 7.34947 14.5091 7.44787 14.5474 7.53956C14.5858 7.63126 14.642 7.71441 14.7128 7.7842C14.7836 7.85398 14.8675 7.909 14.9597 7.94606C15.0519 7.98312 15.1506 8.00148 15.25 8.00007H17.5C19.7182 8.00007 21.5 9.78185 21.5 12.0001C21.5 14.2183 19.7182 16.0001 17.5 16.0001H15.25C15.1506 15.9987 15.0519 16.017 14.9597 16.0541C14.8675 16.0912 14.7836 16.1462 14.7128 16.216C14.642 16.2857 14.5858 16.3689 14.5474 16.4606C14.5091 16.5523 14.4893 16.6507 14.4893 16.7501C14.4893 16.8495 14.5091 16.9479 14.5474 17.0396C14.5858 17.1313 14.642 17.2144 14.7128 17.2842C14.7836 17.354 14.8675 17.409 14.9597 17.4461C15.0519 17.4831 15.1506 17.5015 15.25 17.5001H17.5C20.5288 17.5001 23 15.0289 23 12.0001C23 8.9713 20.5288 6.50008 17.5 6.50008H15.25ZM5.75 11.2501C5.65062 11.2487 5.55194 11.267 5.45972 11.3041C5.36749 11.3412 5.28355 11.3962 5.21277 11.466C5.142 11.5357 5.08579 11.6189 5.04743 11.7106C5.00907 11.8023 4.98932 11.9007 4.98932 12.0001C4.98932 12.0995 5.00907 12.1979 5.04743 12.2896C5.08579 12.3813 5.142 12.4644 5.21277 12.5342C5.28355 12.604 5.36749 12.659 5.45972 12.6961C5.55194 12.7331 5.65062 12.7515 5.75 12.7501H18.25C18.3494 12.7515 18.4481 12.7331 18.5403 12.6961C18.6325 12.659 18.7164 12.604 18.7872 12.5342C18.858 12.4644 18.9142 12.3813 18.9526 12.2896C18.9909 12.1979 19.0107 12.0995 19.0107 12.0001C19.0107 11.9007 18.9909 11.8023 18.9526 11.7106C18.9142 11.6189 18.858 11.5357 18.7872 11.466C18.7164 11.3962 18.6325 11.3412 18.5403 11.3041C18.4481 11.267 18.3494 11.2487 18.25 11.2501H5.75Z" fill="#0D1011"/>
</g>
</svg>
