<svg width="24" height="24" viewBox="0 0 24 24" fill="none" xmlns="http://www.w3.org/2000/svg">
<g id="link_broken">
<path id="Vector" d="M8.25 1.99242C7.95833 1.98721 7.69271 2.15388 7.5651 2.4169C7.4401 2.68253 7.47917 2.99503 7.66406 3.21898L9.66406 5.71898C9.92188 6.0419 10.3958 6.09398 10.7188 5.83617C11.0417 5.57836 11.0938 5.1044 10.8359 4.78148L8.83594 2.28148C8.69531 2.1018 8.47917 1.99503 8.25 1.99242ZM15.7266 1.99242C15.5052 2.00023 15.2995 2.107 15.1641 2.28148L13.1641 4.78148C12.9062 5.1044 12.9583 5.57836 13.2812 5.83617C13.6042 6.09398 14.0781 6.0419 14.3359 5.71898L16.3359 3.21898C16.5234 2.98982 16.5599 2.67211 16.4297 2.40909C16.2969 2.14346 16.0234 1.9794 15.7266 1.99242ZM6 7.00023C3.2474 7.00023 1 9.24763 1 12.0002C1 14.7528 3.2474 17.0002 6 17.0002H8.75C9.02083 17.0028 9.27083 16.8622 9.40885 16.6278C9.54427 16.3935 9.54427 16.107 9.40885 15.8726C9.27083 15.6383 9.02083 15.4976 8.75 15.5002H6C4.05729 15.5002 2.5 13.9429 2.5 12.0002C2.5 10.0575 4.05729 8.50023 6 8.50023H8.75C9.02083 8.50284 9.27083 8.36221 9.40885 8.12784C9.54427 7.89346 9.54427 7.607 9.40885 7.37263C9.27083 7.13825 9.02083 6.99763 8.75 7.00023H6ZM15.25 7.00023C14.9792 6.99763 14.7292 7.13825 14.5911 7.37263C14.4557 7.607 14.4557 7.89346 14.5911 8.12784C14.7292 8.36221 14.9792 8.50284 15.25 8.50023H18C19.9427 8.50023 21.5 10.0575 21.5 12.0002C21.5 13.9429 19.9427 15.5002 18 15.5002H15.25C14.9792 15.4976 14.7292 15.6383 14.5911 15.8726C14.4557 16.107 14.4557 16.3935 14.5911 16.6278C14.7292 16.8622 14.9792 17.0028 15.25 17.0002H18C20.7526 17.0002 23 14.7528 23 12.0002C23 9.24763 20.7526 7.00023 18 7.00023H15.25ZM13.75 17.9924C13.4583 17.9872 13.1927 18.1539 13.0651 18.4169C12.9401 18.6825 12.9792 18.995 13.1641 19.219L15.1641 21.719C15.4219 22.0419 15.8958 22.094 16.2188 21.8362C16.5417 21.5784 16.5938 21.1044 16.3359 20.7815L14.3359 18.2815C14.1953 18.1018 13.9792 17.995 13.75 17.9924ZM10.2266 17.9924C10.0052 18.0002 9.79948 18.107 9.66406 18.2815L7.66406 20.7815C7.40625 21.1044 7.45833 21.5784 7.78125 21.8362C8.10417 22.094 8.57813 22.0419 8.83594 21.719L10.8359 19.219C11.0234 18.9898 11.0599 18.6721 10.9297 18.4091C10.7969 18.1435 10.5234 17.9794 10.2266 17.9924Z" fill="#0D1011"/>
</g>
</svg>
