<svg width="24" height="24" viewBox="0 0 24 24" fill="none" xmlns="http://www.w3.org/2000/svg">
<g id="lock">
<path id="Vector" d="M12 2C9.79948 2 8 3.79948 8 6V8H6.25C5.01563 8 4 9.01563 4 10.25V19.75C4 20.9844 5.01563 22 6.25 22H17.75C18.9844 22 20 20.9844 20 19.75V10.25C20 9.01563 18.9844 8 17.75 8H16V6C16 3.79948 14.2005 2 12 2ZM12 3.5C13.3906 3.5 14.5 4.60937 14.5 6V8H9.5V6C9.5 4.60937 10.6094 3.5 12 3.5ZM6.25 9.5H17.75C18.1745 9.5 18.5 9.82552 18.5 10.25V19.75C18.5 20.1745 18.1745 20.5 17.75 20.5H6.25C5.82552 20.5 5.5 20.1745 5.5 19.75V10.25C5.5 9.82552 5.82552 9.5 6.25 9.5ZM12 13.5C11.1719 13.5 10.5 14.1719 10.5 15C10.5 15.8281 11.1719 16.5 12 16.5C12.8281 16.5 13.5 15.8281 13.5 15C13.5 14.1719 12.8281 13.5 12 13.5Z" fill="#0D1011"/>
</g>
</svg>
