<svg width="24" height="24" viewBox="0 0 24 24" fill="none" xmlns="http://www.w3.org/2000/svg">
<g id="logout_rounded ">
<path id="Vector" d="M12 2C6.48615 2 2 6.48615 2 12C2 17.5139 6.48615 22 12 22C15.1745 22 18.0078 20.5116 19.8379 18.2002C19.8995 18.123 19.9453 18.0345 19.9726 17.9396C19.9999 17.8447 20.0082 17.7453 19.9971 17.6472C19.9859 17.5491 19.9555 17.4542 19.9075 17.3678C19.8596 17.2815 19.795 17.2055 19.7176 17.1442C19.6402 17.0829 19.5515 17.0374 19.4565 17.0105C19.3615 16.9835 19.2621 16.9756 19.164 16.9872C19.066 16.9987 18.9712 17.0295 18.885 17.0778C18.7989 17.1261 18.7231 17.1909 18.6621 17.2686C17.1042 19.2362 14.7065 20.5 12 20.5C7.29685 20.5 3.5 16.7031 3.5 12C3.5 7.29685 7.29685 3.5 12 3.5C14.7065 3.5 17.1042 4.7638 18.6621 6.73145C18.7231 6.80908 18.7989 6.8739 18.885 6.92219C18.9712 6.97048 19.066 7.00128 19.164 7.01284C19.2621 7.02439 19.3615 7.01647 19.4565 6.98952C19.5515 6.96257 19.6402 6.91713 19.7176 6.85581C19.795 6.79448 19.8596 6.71848 19.9075 6.63216C19.9555 6.54583 19.9859 6.45089 19.9971 6.35278C20.0082 6.25467 19.9999 6.15531 19.9726 6.06042C19.9453 5.96553 19.8995 5.87696 19.8379 5.7998C18.0078 3.48845 15.1745 2 12 2ZM18.2422 8.24219C18.0929 8.24222 17.9471 8.28679 17.8233 8.37019C17.6995 8.45358 17.6034 8.57202 17.5473 8.71033C17.4912 8.84865 17.4776 9.00056 17.5084 9.14662C17.5391 9.29269 17.6127 9.42627 17.7197 9.53027L19.4385 11.249L9.25098 11.2402C9.1516 11.2387 9.05291 11.2569 8.96064 11.2939C8.86837 11.3308 8.78436 11.3857 8.7135 11.4554C8.64263 11.5251 8.58633 11.6082 8.54785 11.6998C8.50937 11.7915 8.48949 11.8899 8.48936 11.9892C8.48923 12.0886 8.50886 12.1871 8.5471 12.2788C8.58534 12.3705 8.64143 12.4538 8.71211 12.5236C8.78279 12.5935 8.86665 12.6486 8.95883 12.6858C9.051 12.723 9.14964 12.7415 9.24902 12.7402L19.4404 12.749L17.7197 14.4697C17.6477 14.5388 17.5903 14.6216 17.5507 14.7132C17.5111 14.8048 17.4902 14.9034 17.4892 15.0032C17.4882 15.1029 17.5071 15.2019 17.5448 15.2943C17.5825 15.3867 17.6383 15.4706 17.7088 15.5412C17.7794 15.6117 17.8633 15.6675 17.9557 15.7052C18.0481 15.7429 18.1471 15.7618 18.2468 15.7608C18.3466 15.7598 18.4452 15.7389 18.5368 15.6993C18.6284 15.6597 18.7112 15.6023 18.7803 15.5303L21.7803 12.5303C21.9209 12.3896 21.9999 12.1989 21.9999 12C21.9999 11.8011 21.9209 11.6104 21.7803 11.4697L18.7803 8.46973C18.7104 8.39773 18.6267 8.3405 18.5343 8.30142C18.4419 8.26233 18.3425 8.24219 18.2422 8.24219Z" fill="#0D1011"/>
</g>
</svg>
