<svg width="24" height="24" viewBox="0 0 24 24" fill="none" xmlns="http://www.w3.org/2000/svg">
<g id="manager_fill">
<path id="Vector" d="M12 1C9.23958 1 7 3.23958 7 6C7 8.76042 9.23958 11 12 11C14.7604 11 17 8.76042 17 6C17 3.23958 14.7604 1 12 1ZM18.1953 13H5.80469C4.8099 13 4 13.8932 4 14.9896V15.75C4 17.4115 4.94271 18.8438 6.65625 19.7865C8.08073 20.5703 9.97656 21 12 21C15.8542 21 20 19.3568 20 15.75V14.9896C20 13.8932 19.1901 13 18.1953 13ZM10.5286 19.4062L11.612 15.7917L10.9089 14.5H13.0911L12.388 15.7917L13.4714 19.4089C12.987 19.4661 12.4948 19.5 12 19.5C11.5052 19.5 11.013 19.4661 10.5286 19.4062Z" fill="#0D1011"/>
</g>
</svg>
