<svg width="24" height="24" viewBox="0 0 24 24" fill="none" xmlns="http://www.w3.org/2000/svg">
<g id="manager">
<path id="Vector" d="M12 1C9.25 1 7 3.25 7 6C7 8.75 9.25 11 12 11C14.75 11 17 8.75 17 6C17 3.25 14.75 1 12 1ZM12 2.5C13.9427 2.5 15.5 4.05729 15.5 6C15.5 7.94271 13.9427 9.5 12 9.5C10.0573 9.5 8.5 7.94271 8.5 6C8.5 4.05729 10.0573 2.5 12 2.5ZM5.98958 13C4.90104 13 4 13.901 4 14.9896V15.75C4 17.5521 5.14062 18.9479 6.65104 19.7813C8.16667 20.6146 10.0833 21 12 21C13.9167 21 15.8333 20.6146 17.349 19.7813C18.6354 19.0677 19.6094 17.9323 19.8802 16.5H20V14.9896C20 13.901 19.099 13 18.0104 13H5.98958ZM5.98958 14.5H10.8437L11.5729 16.0729L10.2552 19.3698C9.17187 19.2083 8.16667 18.9062 7.38021 18.4688C6.17187 17.8021 5.5 16.9479 5.5 15.75V14.9896C5.5 14.7083 5.70833 14.5 5.98958 14.5ZM13.1563 14.5H18.0104C18.2917 14.5 18.5 14.7083 18.5 14.9896V15.75C18.5 16.9479 17.8281 17.8021 16.6198 18.4688C15.8333 18.9062 14.8281 19.2083 13.7448 19.3698L12.4271 16.0729L13.1563 14.5Z" fill="#0D1011"/>
</g>
</svg>
