<svg width="24" height="24" viewBox="0 0 24 24" fill="none" xmlns="http://www.w3.org/2000/svg">
<g id="map_pin">
<path id="Vector" d="M12 2C9.25 2 7 4.25 7 7C7 9.49479 8.85417 11.5729 11.25 11.9375V21.25C11.2448 21.5208 11.3906 21.7708 11.6198 21.9062C11.8542 22.0469 12.1458 22.0469 12.3802 21.9062C12.6094 21.7708 12.7552 21.5208 12.75 21.25V11.9375C15.1458 11.5729 17 9.49479 17 7C17 4.25 14.75 2 12 2ZM12 3.5C13.9427 3.5 15.5 5.05729 15.5 7C15.5 8.91146 13.9896 10.4479 12.0885 10.4948C12.0573 10.4896 12.0208 10.4896 11.9896 10.4896C11.9583 10.4896 11.9323 10.4896 11.9063 10.4948C10.0104 10.4479 8.5 8.91146 8.5 7C8.5 5.05729 10.0573 3.5 12 3.5ZM10.75 5C10.3333 5 10 5.33333 10 5.75C10 6.16667 10.3333 6.5 10.75 6.5C11.1667 6.5 11.5 6.16667 11.5 5.75C11.5 5.33333 11.1667 5 10.75 5Z" fill="#0D1011"/>
</g>
</svg>
