<svg width="24" height="24" viewBox="0 0 24 24" fill="none" xmlns="http://www.w3.org/2000/svg">
<g id="Medium ">
<path id="Vector" d="M7.25 7.5625C9.86979 7.5625 12 9.69792 12 12.3125C12 14.9323 9.86979 17.0625 7.25 17.0625C4.63021 17.0625 2.5 14.9323 2.5 12.3125C2.5 9.69792 4.63021 7.5625 7.25 7.5625ZM7.25 6.0625C3.79687 6.0625 1 8.86458 1 12.3125C1 15.7656 3.79687 18.5625 7.25 18.5625C10.7031 18.5625 13.5 15.7656 13.5 12.3125C13.5 8.86458 10.7031 6.0625 7.25 6.0625ZM17 8.0625C17.3854 8.0625 18.5 9.52604 18.5 12.3125C18.5 15.1042 17.3854 16.5625 17 16.5625C16.6146 16.5625 15.5 15.1042 15.5 12.3125C15.5 9.52604 16.6146 8.0625 17 8.0625ZM17 6.5625C15.3438 6.5625 14 9.14063 14 12.3125C14 15.4896 15.3438 18.0625 17 18.0625C18.6563 18.0625 20 15.4896 20 12.3125C20 9.14063 18.6563 6.5625 17 6.5625ZM21.75 7.0625C21.0573 7.0625 20.5 9.41667 20.5 12.3125C20.5 15.2135 21.0573 17.5625 21.75 17.5625C22.4427 17.5625 23 15.2135 23 12.3125C23 9.41667 22.4427 7.0625 21.75 7.0625Z" fill="#0D1011"/>
</g>
</svg>
