<svg width="24" height="24" viewBox="0 0 24 24" fill="none" xmlns="http://www.w3.org/2000/svg">
<g id="Menu Vertical ">
<path id="Vector" d="M12 16.5C11.1719 16.5 10.5 17.1719 10.5 18C10.5 18.8281 11.1719 19.5 12 19.5C12.8281 19.5 13.5 18.8281 13.5 18C13.5 17.1719 12.8281 16.5 12 16.5ZM12 10.5C11.1719 10.5 10.5 11.1719 10.5 12C10.5 12.8281 11.1719 13.5 12 13.5C12.8281 13.5 13.5 12.8281 13.5 12C13.5 11.1719 12.8281 10.5 12 10.5ZM12 4.5C11.1719 4.5 10.5 5.17187 10.5 6C10.5 6.82813 11.1719 7.5 12 7.5C12.8281 7.5 13.5 6.82813 13.5 6C13.5 5.17187 12.8281 4.5 12 4.5Z" fill="#0D1011"/>
</g>
</svg>
