<svg width="24" height="24" viewBox="0 0 24 24" fill="none" xmlns="http://www.w3.org/2000/svg">
<g id="multiple_devices ">
<path id="Vector" d="M6.25 3C5.0095 3 4 4.0095 4 5.25V11.75C4 12.9905 5.0095 14 6.25 14H7.5V12.5H6.25C5.8365 12.5 5.5 12.1635 5.5 11.75V5.25C5.5 4.8365 5.8365 4.5 6.25 4.5H19.8623C19.5518 3.629 18.7265 3 17.75 3H6.25ZM10.75 5.5C9.5075 5.5 8.5 6.5075 8.5 7.75V15.25C8.5 16.4925 9.5075 17.5 10.75 17.5H12V15H10.5C10.224 15 10 14.776 10 14.5V7.75C10 7.336 10.336 7 10.75 7H18.75C19.164 7 19.5 7.336 19.5 7.75V8H21V7.75C21 6.5075 19.9925 5.5 18.75 5.5H10.75ZM15.25 9C14.0162 9 13 10.0162 13 11.25V18.75C13 19.9838 14.0162 21 15.25 21H19.75C20.9838 21 22 19.9838 22 18.75V11.25C22 10.0162 20.9838 9 19.75 9H15.25ZM15.25 10.5H19.75C20.1733 10.5 20.5 10.8268 20.5 11.25V18.75C20.5 19.1733 20.1733 19.5 19.75 19.5H15.25C14.8268 19.5 14.5 19.1733 14.5 18.75V11.25C14.5 10.8268 14.8268 10.5 15.25 10.5ZM2.75 14.5C2.3355 14.5 2 14.8355 2 15.25C2 15.6645 2.3355 16 2.75 16H7.5V14.5H2.75ZM16.75 17C16.6506 16.9986 16.5519 17.017 16.4597 17.054C16.3675 17.0911 16.2836 17.1461 16.2128 17.2159C16.142 17.2857 16.0858 17.3688 16.0474 17.4605C16.0091 17.5522 15.9893 17.6506 15.9893 17.75C15.9893 17.8494 16.0091 17.9478 16.0474 18.0395C16.0858 18.1312 16.142 18.2143 16.2128 18.2841C16.2836 18.3539 16.3675 18.4089 16.4597 18.446C16.5519 18.483 16.6506 18.5014 16.75 18.5H18.25C18.3494 18.5014 18.4481 18.483 18.5403 18.446C18.6325 18.4089 18.7164 18.3539 18.7872 18.2841C18.858 18.2143 18.9142 18.1312 18.9526 18.0395C18.9909 17.9478 19.0107 17.8494 19.0107 17.75C19.0107 17.6506 18.9909 17.5522 18.9526 17.4605C18.9142 17.3688 18.858 17.2857 18.7872 17.2159C18.7164 17.1461 18.6325 17.0911 18.5403 17.054C18.4481 17.017 18.3494 16.9986 18.25 17H16.75Z" fill="#0D1011"/>
</g>
</svg>
