<svg width="24" height="24" viewBox="0 0 24 24" fill="none" xmlns="http://www.w3.org/2000/svg">
<g id="notification_on" clip-path="url(#clip0_2362_1335)">
<path id="Vector" d="M1.73627 1.99332C1.58052 1.99487 1.42912 2.04488 1.30308 2.13639C1.17704 2.2279 1.08262 2.35638 1.03291 2.50399C0.983206 2.6516 0.980686 2.81103 1.0257 2.96014C1.07072 3.10924 1.16104 3.24064 1.28412 3.33609L3.78412 5.33609C3.93952 5.46041 4.13794 5.51791 4.33573 5.49593C4.53353 5.47395 4.71449 5.3743 4.83881 5.2189C4.96313 5.0635 5.02062 4.86508 4.99865 4.66729C4.97667 4.4695 4.87702 4.28854 4.72162 4.16421L2.22162 2.16421C2.08505 2.0518 1.91314 1.99127 1.73627 1.99332ZM22.247 1.99332C22.0779 1.99645 21.9147 2.05668 21.7841 2.16421L19.2841 4.16421C19.1287 4.28854 19.0291 4.4695 19.0071 4.66729C18.9851 4.86508 19.0426 5.0635 19.1669 5.2189C19.2913 5.3743 19.4722 5.47395 19.67 5.49593C19.8678 5.51791 20.0662 5.46041 20.2216 5.33609L22.7216 3.33609C22.8463 3.23948 22.9373 3.10604 22.9818 2.95474C23.0262 2.80343 23.0219 2.64196 22.9693 2.49328C22.9168 2.34459 22.8187 2.21625 22.689 2.12649C22.5593 2.03674 22.4047 1.99014 22.247 1.99332ZM12.0029 2.00015C7.86956 2.00015 4.50287 5.36684 4.50287 9.50015V13.5929L3.12201 16.7492C2.77207 17.5495 3.39384 18.5002 4.26752 18.5002H9.00287C9.00287 20.1481 10.3549 21.5002 12.0029 21.5002C13.6508 21.5002 15.0029 20.1481 15.0029 18.5002H19.7382C20.6119 18.5002 21.2337 17.5495 20.8837 16.7492L19.5029 13.5929V9.50015C19.5029 5.36684 16.1362 2.00015 12.0029 2.00015ZM12.0029 3.50015C15.3256 3.50015 18.0029 6.17746 18.0029 9.50015V13.7502C18.0027 13.8537 18.024 13.9561 18.0654 14.0509L19.3564 17.0002H12.0029H4.64935L5.94037 14.0509C5.98173 13.9561 6.00301 13.8537 6.00287 13.7502V9.50015C6.00287 6.17746 8.68018 3.50015 12.0029 3.50015ZM0.752869 8.00015C0.653485 7.99875 0.554813 8.01711 0.462587 8.05417C0.370361 8.09123 0.28642 8.14625 0.215643 8.21603C0.144866 8.28582 0.0886635 8.36897 0.0503027 8.46066C0.0119419 8.55236 -0.0078125 8.65076 -0.0078125 8.75015C-0.0078125 8.84955 0.0119419 8.94795 0.0503027 9.03964C0.0886635 9.13133 0.144866 9.21449 0.215643 9.28427C0.28642 9.35405 0.370361 9.40908 0.462587 9.44614C0.554813 9.4832 0.653485 9.50156 0.752869 9.50015H2.75287C2.85225 9.50156 2.95093 9.4832 3.04315 9.44614C3.13538 9.40908 3.21932 9.35405 3.2901 9.28427C3.36087 9.21449 3.41708 9.13133 3.45544 9.03964C3.4938 8.94795 3.51355 8.84955 3.51355 8.75015C3.51355 8.65076 3.4938 8.55236 3.45544 8.46066C3.41708 8.36897 3.36087 8.28582 3.2901 8.21603C3.21932 8.14625 3.13538 8.09123 3.04315 8.05417C2.95093 8.01711 2.85225 7.99875 2.75287 8.00015H0.752869ZM21.2529 8.00015C21.1535 7.99875 21.0548 8.01711 20.9626 8.05417C20.8704 8.09123 20.7864 8.14625 20.7156 8.21603C20.6449 8.28582 20.5887 8.36897 20.5503 8.46066C20.5119 8.55236 20.4922 8.65076 20.4922 8.75015C20.4922 8.84955 20.5119 8.94795 20.5503 9.03964C20.5887 9.13133 20.6449 9.21449 20.7156 9.28427C20.7864 9.35405 20.8704 9.40908 20.9626 9.44614C21.0548 9.4832 21.1535 9.50156 21.2529 9.50015H23.2529C23.3523 9.50156 23.4509 9.4832 23.5432 9.44614C23.6354 9.40908 23.7193 9.35405 23.7901 9.28427C23.8609 9.21449 23.9171 9.13133 23.9554 9.03964C23.9938 8.94795 24.0135 8.84955 24.0135 8.75015C24.0135 8.65076 23.9938 8.55236 23.9554 8.46066C23.9171 8.36897 23.8609 8.28582 23.7901 8.21603C23.7193 8.14625 23.6354 8.09123 23.5432 8.05417C23.4509 8.01711 23.3523 7.99875 23.2529 8.00015H21.2529ZM10.5029 18.5002H12.0029H13.5029C13.5029 19.3372 12.8399 20.0002 12.0029 20.0002C11.1658 20.0002 10.5029 19.3372 10.5029 18.5002Z" fill="#0D1011"/>
</g>
<defs>
<clipPath id="clip0_2362_1335">
<rect width="24" height="24" fill="white"/>
</clipPath>
</defs>
</svg>
