<svg width="24" height="24" viewBox="0 0 24 24" fill="none" xmlns="http://www.w3.org/2000/svg">
<g id="notification_off">
<path id="Vector" d="M21.2384 1.99348C21.0436 1.99915 20.8587 2.08041 20.7228 2.22004L2.22277 20.72C2.15079 20.7891 2.09333 20.8719 2.05374 20.9635C2.01415 21.0551 1.99324 21.1537 1.99223 21.2535C1.99121 21.3532 2.01012 21.4522 2.04783 21.5446C2.08555 21.637 2.14132 21.7209 2.21188 21.7915C2.28244 21.862 2.36637 21.9178 2.45875 21.9555C2.55113 21.9932 2.65011 22.0121 2.74989 22.0111C2.84967 22.0101 2.94824 21.9892 3.03984 21.9496C3.13143 21.91 3.21421 21.8526 3.28332 21.7806L6.06359 19.0003H9.00305C9.00305 20.6482 10.3551 22.0003 12.003 22.0003C13.651 22.0003 15.003 20.6482 15.003 19.0003H19.253C19.853 19.0003 20.4077 18.6957 20.7277 18.1907C21.0527 17.6807 21.0932 17.0505 20.8282 16.4905L19.503 13.8255V10.0003C19.503 8.73616 19.191 7.52939 18.6105 6.45344L21.7833 3.28058C21.8915 3.17521 21.9654 3.03962 21.9953 2.89157C22.0251 2.74351 22.0096 2.58989 21.9507 2.45081C21.8918 2.31172 21.7923 2.19366 21.6652 2.11206C21.5381 2.03046 21.3894 1.98913 21.2384 1.99348ZM12.003 2.50031C11.883 2.50031 11.7627 2.50508 11.6427 2.51008C7.6377 2.69508 4.50305 6.07074 4.50305 10.1907V13.8255L3.16809 16.5052C2.98309 16.9002 2.95324 17.3404 3.07824 17.7454L5.36828 15.4554L5.92297 14.3353C5.97797 14.2303 6.00305 14.1153 6.00305 14.0003V10.1907C6.00305 6.87574 8.51301 4.16019 11.713 4.00519C13.138 3.94019 14.4984 4.36027 15.6134 5.21027L16.6779 4.14484C15.3479 3.07484 13.718 2.50031 12.003 2.50031ZM17.4923 7.5716C17.8262 8.3261 18.003 9.15025 18.003 10.0003V14.0003C18.003 14.1153 18.0281 14.2303 18.0831 14.3353L19.4777 17.1448C19.5277 17.2498 19.488 17.3401 19.463 17.3851C19.438 17.4251 19.373 17.5003 19.253 17.5003H7.56359L17.4923 7.5716ZM10.503 19.0003H13.503C13.503 19.8374 12.8401 20.5003 12.003 20.5003C11.166 20.5003 10.503 19.8374 10.503 19.0003Z" fill="#0D1011"/>
</g>
</svg>
