<svg width="24" height="24" viewBox="0 0 24 24" fill="none" xmlns="http://www.w3.org/2000/svg">
<g id="notification">
<path id="Vector" d="M11.639 2.00847C7.5973 2.19884 4.50037 5.67138 4.50037 9.69011V13.3239L3.17518 15.9899C3.17285 15.9948 3.17057 15.9997 3.16834 16.0046C2.63521 17.1383 3.49823 18.4997 4.75135 18.4997H9.00037C9.00037 20.1476 10.3524 21.4997 12.0004 21.4997C13.6483 21.4997 15.0004 20.1476 15.0004 18.4997H19.2484C20.5015 18.4997 21.3657 17.1386 20.8324 16.0046C20.8302 15.9997 20.8279 15.9948 20.8256 15.9899L19.5004 13.3239V9.49968C19.5004 5.24658 15.932 1.80637 11.639 2.00847ZM11.7094 3.50652C15.1694 3.34363 18.0004 6.08078 18.0004 9.49968V13.4997C18.0003 13.6156 18.027 13.7299 18.0785 13.8337L19.475 16.6442C19.5648 16.8367 19.4609 16.9997 19.2484 16.9997H4.75135C4.53889 16.9997 4.43582 16.837 4.52576 16.6442V16.6432L5.92225 13.8337C5.97374 13.7299 6.00048 13.6156 6.00037 13.4997V9.69011C6.00037 6.43985 8.4901 3.65815 11.7094 3.50652ZM10.5004 18.4997H13.5004C13.5004 19.3368 12.8374 19.9997 12.0004 19.9997C11.1633 19.9997 10.5004 19.3368 10.5004 18.4997Z" fill="#0D1011"/>
</g>
</svg>
