<svg width="24" height="24" viewBox="0 0 24 24" fill="none" xmlns="http://www.w3.org/2000/svg">
<g id="payment">
<path id="Vector" d="M4.76563 2.49976C4.5625 2.49455 4.36979 2.57267 4.22396 2.7133C4.08333 2.85392 4 3.04663 4 3.24976V18.7498C4 20.2602 5.23958 21.4998 6.75 21.4998H17.25C18.7604 21.4998 20 20.2602 20 18.7498V3.24976C20 2.99455 19.8698 2.76017 19.6563 2.61955C19.4479 2.48413 19.1771 2.4633 18.9427 2.56226L16.9844 3.43726L14.776 2.55184C14.599 2.48413 14.401 2.48413 14.224 2.55184L12 3.44246L9.77604 2.55184C9.59896 2.48413 9.40104 2.48413 9.22396 2.55184L7.01563 3.43726L5.05208 2.56226C4.96354 2.5258 4.86458 2.49976 4.76563 2.49976ZM9.5 4.05705L11.724 4.94767C11.901 5.01538 12.099 5.01538 12.276 4.94767L14.5 4.05705L16.724 4.94767C16.9115 5.02059 17.1198 5.01538 17.3021 4.93726L18.5 4.40601V18.7498C18.5 19.4477 17.9479 19.9998 17.25 19.9998H6.75C6.05208 19.9998 5.5 19.4477 5.5 18.7498V4.40601L6.69792 4.93726C6.88021 5.01538 7.08854 5.02059 7.27604 4.94767L9.5 4.05705ZM7.75 8.49976C7.47917 8.49455 7.22917 8.64038 7.09375 8.86955C6.95313 9.10392 6.95313 9.39559 7.09375 9.62996C7.22917 9.85913 7.47917 10.005 7.75 9.99976H16.25C16.5208 10.005 16.7708 9.85913 16.9063 9.62996C17.0469 9.39559 17.0469 9.10392 16.9063 8.86955C16.7708 8.64038 16.5208 8.49455 16.25 8.49976H7.75ZM7.75 12.9998C7.47917 12.9945 7.22917 13.1404 7.09375 13.3695C6.95313 13.6039 6.95313 13.8956 7.09375 14.13C7.22917 14.3591 7.47917 14.505 7.75 14.4998H12.25C12.5208 14.505 12.7708 14.3591 12.9063 14.13C13.0469 13.8956 13.0469 13.6039 12.9063 13.3695C12.7708 13.1404 12.5208 12.9945 12.25 12.9998H7.75ZM15.25 12.9998C14.9792 12.9945 14.7292 13.1404 14.5937 13.3695C14.4531 13.6039 14.4531 13.8956 14.5937 14.13C14.7292 14.3591 14.9792 14.505 15.25 14.4998H16.25C16.5208 14.505 16.7708 14.3591 16.9063 14.13C17.0469 13.8956 17.0469 13.6039 16.9063 13.3695C16.7708 13.1404 16.5208 12.9945 16.25 12.9998H15.25ZM7.75 15.9998C7.47917 15.9945 7.22917 16.1404 7.09375 16.3695C6.95313 16.6039 6.95313 16.8956 7.09375 17.13C7.22917 17.3591 7.47917 17.505 7.75 17.4998H12.25C12.5208 17.505 12.7708 17.3591 12.9063 17.13C13.0469 16.8956 13.0469 16.6039 12.9063 16.3695C12.7708 16.1404 12.5208 15.9945 12.25 15.9998H7.75ZM15.25 15.9998C14.9792 15.9945 14.7292 16.1404 14.5937 16.3695C14.4531 16.6039 14.4531 16.8956 14.5937 17.13C14.7292 17.3591 14.9792 17.505 15.25 17.4998H16.25C16.5208 17.505 16.7708 17.3591 16.9063 17.13C17.0469 16.8956 17.0469 16.6039 16.9063 16.3695C16.7708 16.1404 16.5208 15.9945 16.25 15.9998H15.25Z" fill="#0D1011"/>
</g>
</svg>
