<svg width="24" height="24" viewBox="0 0 24 24" fill="none" xmlns="http://www.w3.org/2000/svg">
<g id="payouts">
<path id="Vector" d="M5.25 1.5C4.01042 1.5 3 2.51042 3 3.75V15.5H2.25C1.83594 15.5 1.5 15.8359 1.5 16.25V17.25C1.5 19.0417 2.95833 20.5 4.75 20.5H11.737C11.4922 20.0312 11.3047 19.5286 11.1797 19H4.75C3.78385 19 3 18.2161 3 17.25V17H11.026C11.0651 16.4818 11.1641 15.9792 11.3177 15.5H4.5V3.75C4.5 3.33594 4.83594 3 5.25 3H16.75C17.1641 3 17.5 3.33594 17.5 3.75V11C18.0182 11 18.5182 11.0677 19 11.1797V3.75C19 2.51042 17.9896 1.5 16.75 1.5H5.25ZM7.25 5.5C6.83594 5.5 6.5 5.83594 6.5 6.25C6.5 6.66406 6.83594 7 7.25 7C7.66406 7 8 6.66406 8 6.25C8 5.83594 7.66406 5.5 7.25 5.5ZM9.75 5.5C9.47917 5.4974 9.22917 5.63802 9.09115 5.8724C8.95573 6.10677 8.95573 6.39323 9.09115 6.6276C9.22917 6.86198 9.47917 7.0026 9.75 7H14.75C15.0208 7.0026 15.2708 6.86198 15.4089 6.6276C15.5443 6.39323 15.5443 6.10677 15.4089 5.8724C15.2708 5.63802 15.0208 5.4974 14.75 5.5H9.75ZM7.25 8.5C6.83594 8.5 6.5 8.83594 6.5 9.25C6.5 9.66406 6.83594 10 7.25 10C7.66406 10 8 9.66406 8 9.25C8 8.83594 7.66406 8.5 7.25 8.5ZM9.75 8.5C9.47917 8.4974 9.22917 8.63802 9.09115 8.8724C8.95573 9.10677 8.95573 9.39323 9.09115 9.6276C9.22917 9.86198 9.47917 10.0026 9.75 10H14.75C15.0208 10.0026 15.2708 9.86198 15.4089 9.6276C15.5443 9.39323 15.5443 9.10677 15.4089 8.8724C15.2708 8.63802 15.0208 8.4974 14.75 8.5H9.75ZM7.25 11.5C6.83594 11.5 6.5 11.8359 6.5 12.25C6.5 12.6641 6.83594 13 7.25 13C7.66406 13 8 12.6641 8 12.25C8 11.8359 7.66406 11.5 7.25 11.5ZM9.75 11.5C9.33594 11.5 9 11.8359 9 12.25C9 12.6641 9.33594 13 9.75 13H12.8151C13.4141 12.3776 14.1328 11.8724 14.9375 11.526C14.8776 11.5104 14.8151 11.5 14.75 11.5H9.75Z" fill="#0D1011"/>
<path id="Vector_2" d="M17.5 12C14.4635 12 12 14.4635 12 17.5C12 20.5365 14.4635 23 17.5 23C20.5365 23 23 20.5365 23 17.5C23 14.4635 20.5365 12 17.5 12ZM20.5 15C20.6276 15 20.7552 15.0495 20.8542 15.1458C21.0495 15.3411 21.0495 15.6589 20.8542 15.8542L16.8542 19.8542C16.7552 19.9505 16.6276 20 16.5 20C16.3724 20 16.2448 19.9505 16.1458 19.8542L14.1458 17.8542C13.9505 17.6589 13.9505 17.3411 14.1458 17.1458C14.3411 16.9505 14.6589 16.9505 14.8542 17.1458L16.5 18.7943L20.1458 15.1458C20.2448 15.0495 20.3724 15 20.5 15Z" fill="#0D1011"/>
</g>
</svg>
