<svg width="24" height="24" viewBox="0 0 24 24" fill="none" xmlns="http://www.w3.org/2000/svg">
<g id="payouts_filled">
<path id="Vector" d="M5.25 1.5C4.01042 1.5 3 2.51041 3 3.75V15.5H2.25C1.83594 15.5 1.5 15.8359 1.5 16.25V17.25C1.5 19.0417 2.95833 20.5 4.75 20.5H11.737C11.4922 20.0312 11.3047 19.5287 11.1797 19H4.75C3.78386 19 3 18.2162 3 17.25V17H11.026C11.1432 15.4505 11.8021 14.0547 12.8151 13H9.75C9.33593 13 9 12.6641 9 12.25C9 11.8359 9.33593 11.5 9.75 11.5H14.75C14.8151 11.5 14.8776 11.5104 14.9375 11.5261C15.724 11.1875 16.5886 11 17.5 11C18.0182 11 18.5182 11.0677 19 11.1797V3.75C19 2.51041 17.9896 1.5 16.75 1.5H5.25ZM7.25 5.5C7.6641 5.5 8.00003 5.83594 8.00003 6.25C8.00003 6.66406 7.6641 7 7.25 7C6.83594 7 6.5 6.66406 6.5 6.25C6.5 5.83594 6.83594 5.5 7.25 5.5ZM9.75 5.5H14.75C15.1641 5.5 15.5 5.83594 15.5 6.25C15.5 6.66406 15.1641 7 14.75 7H9.75C9.33593 7 9 6.66406 9 6.25C9 5.83594 9.33593 5.5 9.75 5.5ZM7.25 8.49997C7.6641 8.49997 8.00003 8.8359 8.00003 9.24997C8.00003 9.66405 7.6641 9.99998 7.25 9.99998C6.83594 9.99998 6.5 9.66405 6.5 9.24997C6.5 8.8359 6.83594 8.49997 7.25 8.49997ZM9.75 8.49997H14.75C15.1641 8.49997 15.5 8.8359 15.5 9.24997C15.5 9.66405 15.1641 9.99998 14.75 9.99998H9.75C9.33593 9.99998 9 9.66405 9 9.24997C9 8.8359 9.33593 8.49997 9.75 8.49997ZM7.25 11.5C7.6641 11.5 8.00003 11.8359 8.00003 12.25C8.00003 12.6641 7.6641 13 7.25 13C6.83594 13 6.5 12.6641 6.5 12.25C6.5 11.8359 6.83594 11.5 7.25 11.5Z" fill="#0D1011"/>
<path id="Vector_2" d="M17.5 12C14.4635 12 12 14.4635 12 17.5C12 20.5364 14.4635 23 17.5 23C20.5364 23 23 20.5364 23 17.5C23 14.4635 20.5364 12 17.5 12ZM20.5 15C20.6276 15 20.7552 15.0495 20.8542 15.1458C21.0495 15.3412 21.0495 15.6589 20.8542 15.8542L16.8541 19.8541C16.7552 19.9505 16.6276 20 16.5 20C16.3724 20 16.2448 19.9505 16.1458 19.8541L14.1458 17.8542C13.9505 17.6588 13.9505 17.3411 14.1458 17.1458C14.3411 16.9505 14.6588 16.9505 14.8542 17.1458L16.5 18.7942L20.1458 15.1458C20.2448 15.0495 20.3724 15 20.5 15Z" fill="#0D1011"/>
</g>
</svg>
