<svg width="24" height="24" viewBox="0 0 24 24" fill="none" xmlns="http://www.w3.org/2000/svg">
<g id="people_fill">
<path id="Vector" d="M12 3C10.3438 3 9 4.34375 9 6C9 7.65625 10.3438 9 12 9C13.6562 9 15 7.65625 15 6C15 4.34375 13.6562 3 12 3ZM5.5 4C4.11979 4 3 5.11979 3 6.5C3 7.88021 4.11979 9 5.5 9C6.88021 9 8 7.88021 8 6.5C8 5.11979 6.88021 4 5.5 4ZM18.5 4C17.1198 4 16 5.11979 16 6.5C16 7.88021 17.1198 9 18.5 9C19.8802 9 21 7.88021 21 6.5C21 5.11979 19.8802 4 18.5 4ZM12 21C9.51823 21 7.5 18.9818 7.5 16.5V11.75C7.5 10.7839 8.28385 10 9.25 10H14.75C15.7161 10 16.5 10.7839 16.5 11.75V16.5C16.5 18.9818 14.4818 21 12 21ZM6.5 16.5V11.75C6.5 11.0859 6.73698 10.4766 7.13021 10H3.75C2.78385 10 2 10.7839 2 11.75V15C2 17.2057 3.79427 19 6 19C6.35417 19 6.70052 18.9557 7.03125 18.8646C7.03125 18.8646 7.03646 18.862 7.03906 18.862C6.69792 18.1432 6.5 17.3464 6.5 16.5ZM17.5 16.5V11.75C17.5 11.0859 17.263 10.4766 16.8698 10H20.25C21.2161 10 22 10.7839 22 11.75V15C22 17.2057 20.2057 19 18 19C17.6458 19 17.2995 18.9557 16.9688 18.8646C16.9688 18.8646 16.9635 18.862 16.9609 18.862C17.3021 18.1432 17.5 17.3464 17.5 16.5Z" fill="#0D1011"/>
</g>
</svg>
