<svg width="24" height="24" viewBox="0 0 24 24" fill="none" xmlns="http://www.w3.org/2000/svg">
<g id="people ">
<path id="Vector" d="M12 3C11.0625 3 10.2656 3.38021 9.75 3.95313C9.23958 4.53125 9 5.27083 9 6C9 6.72917 9.23958 7.46875 9.75 8.04687C10.2656 8.61979 11.0625 9 12 9C12.9375 9 13.7344 8.61979 14.25 8.04687C14.7604 7.46875 15 6.72917 15 6C15 5.27083 14.7604 4.53125 14.25 3.95313C13.7344 3.38021 12.9375 3 12 3ZM5.5 4C4.72917 4 4.05729 4.31771 3.625 4.79687C3.19792 5.28125 3 5.89583 3 6.5C3 7.10417 3.19792 7.71875 3.625 8.20313C4.05729 8.68229 4.72917 9 5.5 9C6.27083 9 6.94271 8.68229 7.375 8.20313C7.80208 7.71875 8 7.10417 8 6.5C8 5.89583 7.80208 5.28125 7.375 4.79687C6.94271 4.31771 6.27083 4 5.5 4ZM18.5 4C17.7292 4 17.0573 4.31771 16.625 4.79687C16.1979 5.28125 16 5.89583 16 6.5C16 7.10417 16.1979 7.71875 16.625 8.20313C17.0573 8.68229 17.7292 9 18.5 9C19.2708 9 19.9427 8.68229 20.375 8.20313C20.8021 7.71875 21 7.10417 21 6.5C21 5.89583 20.8021 5.28125 20.375 4.79687C19.9427 4.31771 19.2708 4 18.5 4ZM12 4.5C12.5625 4.5 12.8906 4.68229 13.125 4.95313C13.3646 5.21875 13.5 5.60417 13.5 6C13.5 6.39583 13.3646 6.78125 13.125 7.04687C12.8906 7.31771 12.5625 7.5 12 7.5C11.4375 7.5 11.1094 7.31771 10.875 7.04687C10.6354 6.78125 10.5 6.39583 10.5 6C10.5 5.60417 10.6354 5.21875 10.875 4.95313C11.1094 4.68229 11.4375 4.5 12 4.5ZM5.5 5.5C5.89583 5.5 6.09896 5.61979 6.25 5.79687C6.40625 5.96875 6.5 6.22917 6.5 6.5C6.5 6.77083 6.40625 7.03125 6.25 7.20313C6.09896 7.38021 5.89583 7.5 5.5 7.5C5.10417 7.5 4.90104 7.38021 4.75 7.20313C4.59375 7.03125 4.5 6.77083 4.5 6.5C4.5 6.22917 4.59375 5.96875 4.75 5.79687C4.90104 5.61979 5.10417 5.5 5.5 5.5ZM18.5 5.5C18.8958 5.5 19.099 5.61979 19.25 5.79687C19.4063 5.96875 19.5 6.22917 19.5 6.5C19.5 6.77083 19.4063 7.03125 19.25 7.20313C19.099 7.38021 18.8958 7.5 18.5 7.5C18.1042 7.5 17.901 7.38021 17.75 7.20313C17.5938 7.03125 17.5 6.77083 17.5 6.5C17.5 6.22917 17.5938 5.96875 17.75 5.79687C17.901 5.61979 18.1042 5.5 18.5 5.5ZM3.75 10C2.78646 10 2 10.7865 2 11.75V15C2 17.2031 3.79687 19 6 19C6.35417 19 6.69792 18.9531 7.03125 18.8646C6.81771 18.4167 6.66667 17.9323 6.57813 17.4271C6.39583 17.474 6.19792 17.5 6 17.5C4.61979 17.5 3.5 16.3802 3.5 15V11.75C3.5 11.6094 3.60937 11.5 3.75 11.5H6.51563C6.5625 10.9323 6.78646 10.4167 7.13021 10H3.75ZM9.25 10C8.29167 10 7.5 10.7917 7.5 11.75V16.5C7.5 18.974 9.52604 21 12 21C14.474 21 16.5 18.974 16.5 16.5V11.75C16.5 10.7917 15.7083 10 14.75 10H9.25ZM16.8698 10C17.2135 10.4167 17.4375 10.9323 17.4844 11.5H20.25C20.3906 11.5 20.5 11.6094 20.5 11.75V15C20.5 16.3802 19.3802 17.5 18 17.5C17.8021 17.5 17.6042 17.474 17.4219 17.4271C17.3333 17.9323 17.1823 18.4167 16.9687 18.8646C17.3021 18.9531 17.6458 19 18 19C20.2031 19 22 17.2031 22 15V11.75C22 10.7865 21.2135 10 20.25 10H16.8698ZM9.25 11.5H14.75C14.8958 11.5 15 11.6042 15 11.75V16.5C15 18.1667 13.6667 19.5 12 19.5C10.3333 19.5 9 18.1667 9 16.5V11.75C9 11.6042 9.10417 11.5 9.25 11.5Z" fill="#0D1011"/>
</g>
</svg>
