<svg width="24" height="24" viewBox="0 0 24 24" fill="none" xmlns="http://www.w3.org/2000/svg">
<g id="Percentage ">
<path id="Vector" d="M18.7344 2.99197C18.513 2.99978 18.3073 3.10134 18.1693 3.27582L4.66927 19.7758C4.48698 19.9816 4.43229 20.2706 4.52604 20.5284C4.61979 20.7862 4.84896 20.9737 5.11979 21.0154C5.39323 21.0545 5.66406 20.9451 5.83073 20.7237L19.3307 4.22374C19.5208 3.99718 19.5599 3.68207 19.4323 3.41645C19.3021 3.14822 19.0286 2.98415 18.7344 2.99197ZM6.75 3.49978C4.96354 3.49978 3.5 4.96332 3.5 6.74978V8.74978C3.5 10.5362 4.96354 11.9998 6.75 11.9998C8.53646 11.9998 10 10.5362 10 8.74978V6.74978C10 4.96332 8.53646 3.49978 6.75 3.49978ZM6.75 4.99978C7.72135 4.99978 8.5 5.77843 8.5 6.74978V8.74978C8.5 9.72113 7.72135 10.4998 6.75 10.4998C5.77865 10.4998 5 9.72113 5 8.74978V6.74978C5 5.77843 5.77865 4.99978 6.75 4.99978ZM17.25 11.9998C15.4635 11.9998 14 13.4633 14 15.2498V17.2498C14 19.0362 15.4635 20.4998 17.25 20.4998C19.0365 20.4998 20.5 19.0362 20.5 17.2498V15.2498C20.5 13.4633 19.0365 11.9998 17.25 11.9998ZM17.25 13.4998C18.2214 13.4998 19 14.2784 19 15.2498V17.2498C19 18.2211 18.2214 18.9998 17.25 18.9998C16.2786 18.9998 15.5 18.2211 15.5 17.2498V15.2498C15.5 14.2784 16.2786 13.4998 17.25 13.4998Z" fill="#0D1011"/>
</g>
</svg>
