<svg width="24" height="24" viewBox="0 0 24 24" fill="none" xmlns="http://www.w3.org/2000/svg">
<g id="phone ">
<path id="Vector" d="M9.5227 2.00692C9.19357 1.98298 8.85633 2.01662 8.52563 2.11434L7.34204 2.46493C6.08081 2.83793 5.09537 3.83862 4.76196 5.10165C4.02167 7.91052 4.86853 11.2352 7.07251 14.9776C9.27338 18.7149 11.7812 21.0901 14.6135 21.8653C15.889 22.2144 17.2646 21.8809 18.2307 20.9835L19.1311 20.1485C20.1386 19.2131 20.2888 17.655 19.4749 16.5479L18.1741 14.7813C17.4768 13.8343 16.2477 13.431 15.1174 13.7706L13.0823 14.38C12.9968 14.4049 12.7924 14.2886 12.6145 14.1349L12.6135 14.1339C12.2967 13.8583 11.8576 13.3014 11.3879 12.505V12.504C10.8843 11.6486 10.6695 11.0892 10.5833 10.7589C10.497 10.4284 10.5179 10.3882 10.5305 10.2765C10.5371 10.2207 10.5636 10.1691 10.6086 10.128L10.6096 10.127L12.1272 8.73934C12.9966 7.94452 13.2591 6.67434 12.7688 5.60555L11.8538 3.60946V3.60848C11.423 2.66943 10.5098 2.07873 9.5227 2.00692ZM9.41431 3.50302C9.8734 3.53732 10.2962 3.81269 10.4895 4.23446L11.4055 6.23055C11.6272 6.71377 11.516 7.26672 11.1155 7.6329L9.5979 9.01962C9.2868 9.30328 9.08784 9.69002 9.04028 10.1075V10.1085C9.02789 10.2183 8.99861 10.6265 9.13208 11.1378C9.26555 11.649 9.5411 12.3252 10.095 13.2657H10.0959C10.6127 14.1422 11.1012 14.8081 11.6301 15.2677H11.6311C11.8029 15.4164 12.5228 16.1064 13.5022 15.8204L13.5051 15.8194L15.5491 15.2071C16.0798 15.0477 16.6473 15.2381 16.9661 15.671L18.2668 17.4376C18.6352 17.9394 18.5708 18.6216 18.1106 19.0489L17.2102 19.8849C16.6344 20.42 15.7793 20.6289 15.009 20.4181C12.7194 19.7913 10.4536 17.7627 8.36548 14.2169C6.27445 10.6663 5.62045 7.72959 6.21216 5.48446C6.40775 4.74349 7.00705 4.1284 7.76782 3.90341L8.95044 3.55282C9.10449 3.5073 9.26127 3.49158 9.41431 3.50302Z" fill="#0D1011"/>
</g>
</svg>
