<svg width="24" height="24" viewBox="0 0 24 24" fill="none" xmlns="http://www.w3.org/2000/svg">
<g id="Pie Chart ">
<path id="Vector" d="M13.75 1.5C13.3333 1.5 13 1.83333 13 2.25V10.25C13 10.6667 13.3333 11 13.75 11H21.75C22.1667 11 22.5 10.6667 22.5 10.25C22.5 5.42708 18.5729 1.5 13.75 1.5ZM14.5 3.07292C17.9063 3.42708 20.5729 6.09375 20.9271 9.5H14.5V3.07292ZM10.75 4.5C5.92708 4.5 2 8.42708 2 13.25C2 18.0729 5.92708 22 10.75 22C15.5729 22 19.5 18.0729 19.5 13.25C19.5 12.8333 19.1667 12.5 18.75 12.5H11.5V5.25C11.5 4.83333 11.1667 4.5 10.75 4.5ZM10 6.07292V13.25C10 13.6667 10.3333 14 10.75 14H17.9271C17.5469 17.6563 14.5052 20.5 10.75 20.5C6.73438 20.5 3.5 17.2656 3.5 13.25C3.5 9.49479 6.34375 6.45313 10 6.07292Z" fill="#0D1011"/>
</g>
</svg>
