<svg width="24" height="24" viewBox="0 0 24 24" fill="none" xmlns="http://www.w3.org/2000/svg">
<g id="Pinterest ">
<path id="Vector" d="M12 2C6.48437 2 2 6.48437 2 12C2 17.5156 6.48437 22 12 22C17.5156 22 22 17.5156 22 12C22 6.48437 17.5156 2 12 2ZM12 3.5C16.7031 3.5 20.5 7.29688 20.5 12C20.5 16.7031 16.7031 20.5 12 20.5C11.2813 20.5 10.5938 20.401 9.92708 20.2344C10.1667 19.75 10.3281 19.2656 10.4635 18.7656L10.9792 16.7292C11.5208 17.2396 12.2813 17.5 13.25 17.5C15.8698 17.5 18 14.8646 18 11.625C18 8.42188 15.4219 6 12 6C8.6875 6 6 8.52604 6 11.625C6 13.1146 6.57292 14.4688 7.58333 15.4427C7.70313 15.5573 7.91146 15.4896 7.94792 15.3281L8.22917 14.1667C8.26042 14.0469 8.22917 13.9219 8.16146 13.8177C7.80208 13.3073 7.5 12.5938 7.5 11.625C7.5 9.34896 9.52083 7.5 12 7.5C12.4115 7.5 16 7.61979 16 11.75C16 13.7969 15.0625 16 13 16C12.4792 15.9635 12.1094 15.7969 11.8958 15.5208C11.526 15.0313 11.6146 14.1979 11.724 13.7656L12.1094 12.2552C12.2083 11.8542 12.25 11.5156 12.25 11.224C12.25 10.25 11.6615 9.75 11 9.75C10.1094 9.75 9.5 10.6927 9.5 11.6406C9.5 12.1563 9.57813 12.7031 9.75 13.1979L8.61458 17.9063C8.61458 17.9063 8.5 18.2083 8.5 19.2083C8.5 19.3125 8.51562 19.5729 8.52604 19.7552C5.5625 18.4271 3.5 15.4635 3.5 12C3.5 7.29688 7.29688 3.5 12 3.5Z" fill="#0D1011"/>
</g>
</svg>
