<svg width="24" height="24" viewBox="0 0 24 24" fill="none" xmlns="http://www.w3.org/2000/svg">
<g id="Place Marker ">
<path id="Vector" d="M12 2C8.14063 2 5 5.14063 5 9C5 10.7344 5.63542 12.3229 6.67708 13.5417H6.68229C6.68229 13.5417 9.57292 16.9323 10.651 17.9583C11.401 18.6719 12.599 18.6719 13.349 17.9583C14.5625 16.8021 17.3177 13.5469 17.3229 13.5417C18.3646 12.3177 19 10.7292 19 9C19 5.14063 15.8594 2 12 2ZM12 3.5C15.0469 3.5 17.5 5.95313 17.5 9C17.5 10.3646 17.0052 11.6042 16.1771 12.5677C16.1771 12.5677 13.3177 15.9167 12.3125 16.875C12.1302 17.0521 11.8698 17.0521 11.6823 16.875C10.8594 16.0833 7.82292 12.5729 7.81771 12.5677C6.99479 11.6042 6.5 10.3646 6.5 9C6.5 5.95313 8.95313 3.5 12 3.5ZM12 6C11.0625 6 10.2656 6.38021 9.75 6.95313C9.23958 7.53125 9 8.27083 9 9C9 9.72917 9.23958 10.4688 9.75 11.0469C10.2656 11.6198 11.0625 12 12 12C12.9375 12 13.7344 11.6198 14.25 11.0469C14.7604 10.4688 15 9.72917 15 9C15 8.27083 14.7604 7.53125 14.25 6.95313C13.7344 6.38021 12.9375 6 12 6ZM12 7.5C12.5625 7.5 12.8906 7.68229 13.125 7.95313C13.3646 8.21875 13.5 8.60417 13.5 9C13.5 9.39583 13.3646 9.78125 13.125 10.0469C12.8906 10.3177 12.5625 10.5 12 10.5C11.4375 10.5 11.1094 10.3177 10.875 10.0469C10.6354 9.78125 10.5 9.39583 10.5 9C10.5 8.60417 10.6354 8.21875 10.875 7.95313C11.1094 7.68229 11.4375 7.5 12 7.5ZM6.38542 14.7187C4.11458 15.375 2.5 16.474 2.5 18C2.5 20.625 7.28125 22 12 22C16.7188 22 21.5 20.625 21.5 18C21.5 16.4792 19.8854 15.3802 17.6146 14.724C17.3281 15.0521 16.9323 15.4948 16.4948 15.9844C18.7083 16.5052 20 17.3438 20 18C20 19.0208 16.8854 20.5 12 20.5C7.11458 20.5 4 19.0208 4 18C4 17.3438 5.29167 16.5 7.51042 15.9792C7.07813 15.5 6.67708 15.0521 6.38542 14.7187Z" fill="#0D1011"/>
</g>
</svg>
