<svg width="24" height="24" viewBox="0 0 24 24" fill="none" xmlns="http://www.w3.org/2000/svg">
<g id="placeholder ">
<path id="Vector" d="M5.75014 2.99989C4.23972 2.99989 3.00014 4.23948 3.00014 5.74989V6.24989C2.99493 6.52072 3.14076 6.77072 3.36993 6.90614C3.6043 7.04677 3.89597 7.04677 4.13034 6.90614C4.35951 6.77072 4.50534 6.52072 4.50014 6.24989V5.74989C4.50014 5.05197 5.05222 4.49989 5.75014 4.49989H6.25014C6.52097 4.5051 6.77097 4.35927 6.90639 4.1301C7.04701 3.89572 7.04701 3.60406 6.90639 3.36968C6.77097 3.14052 6.52097 2.99468 6.25014 2.99989H5.75014ZM8.75013 2.99989C8.4793 2.99468 8.2293 3.14052 8.09388 3.36968C7.95326 3.60406 7.95326 3.89572 8.09388 4.1301C8.2293 4.35927 8.4793 4.5051 8.75013 4.49989H10.7501C11.021 4.5051 11.271 4.35927 11.4064 4.1301C11.547 3.89572 11.547 3.60406 11.4064 3.36968C11.271 3.14052 11.021 2.99468 10.7501 2.99989H8.75013ZM13.2501 2.99989C12.9793 2.99468 12.7293 3.14052 12.5939 3.36968C12.4533 3.60406 12.4533 3.89572 12.5939 4.1301C12.7293 4.35927 12.9793 4.5051 13.2501 4.49989H15.2501C15.521 4.5051 15.771 4.35927 15.9064 4.1301C16.047 3.89572 16.047 3.60406 15.9064 3.36968C15.771 3.14052 15.521 2.99468 15.2501 2.99989H13.2501ZM17.7501 2.99989C17.4793 2.99468 17.2293 3.14052 17.0939 3.36968C16.9533 3.60406 16.9533 3.89572 17.0939 4.1301C17.2293 4.35927 17.4793 4.5051 17.7501 4.49989H18.2501C18.9481 4.49989 19.5001 5.05197 19.5001 5.74989V6.24989C19.4949 6.52072 19.6408 6.77072 19.8699 6.90614C20.1043 7.04677 20.396 7.04677 20.6303 6.90614C20.8595 6.77072 21.0053 6.52072 21.0001 6.24989V5.74989C21.0001 4.23948 19.7606 2.99989 18.2501 2.99989H17.7501ZM3.73972 7.98948C3.32305 7.99468 2.99493 8.33843 3.00014 8.74989V10.7499C2.99493 11.0207 3.14076 11.2707 3.36993 11.4061C3.6043 11.5468 3.89597 11.5468 4.13034 11.4061C4.35951 11.2707 4.50534 11.0207 4.50014 10.7499V8.74989C4.50534 8.54677 4.42201 8.35406 4.28139 8.20822C4.13555 8.0676 3.94284 7.98427 3.73972 7.98948ZM20.2397 7.98948C19.8231 7.99468 19.4949 8.33843 19.5001 8.74989V10.7499C19.4949 11.0207 19.6408 11.2707 19.8699 11.4061C20.1043 11.5468 20.396 11.5468 20.6303 11.4061C20.8595 11.2707 21.0053 11.0207 21.0001 10.7499V8.74989C21.0053 8.54677 20.922 8.35406 20.7814 8.20822C20.6356 8.0676 20.4428 7.98427 20.2397 7.98948ZM3.73972 12.4895C3.32305 12.4947 2.99493 12.8384 3.00014 13.2499V15.2499C2.99493 15.5207 3.14076 15.7707 3.36993 15.9061C3.6043 16.0468 3.89597 16.0468 4.13034 15.9061C4.35951 15.7707 4.50534 15.5207 4.50014 15.2499V13.2499C4.50534 13.0468 4.42201 12.8541 4.28139 12.7082C4.13555 12.5676 3.94284 12.4843 3.73972 12.4895ZM20.2397 12.4895C19.8231 12.4947 19.4949 12.8384 19.5001 13.2499V15.2499C19.4949 15.5207 19.6408 15.7707 19.8699 15.9061C20.1043 16.0468 20.396 16.0468 20.6303 15.9061C20.8595 15.7707 21.0053 15.5207 21.0001 15.2499V13.2499C21.0053 13.0468 20.922 12.8541 20.7814 12.7082C20.6356 12.5676 20.4428 12.4843 20.2397 12.4895ZM3.73972 16.9895C3.32305 16.9947 2.99493 17.3384 3.00014 17.7499V18.2499C3.00014 19.7603 4.23972 20.9999 5.75014 20.9999H6.25014C6.52097 21.0051 6.77097 20.8593 6.90639 20.6301C7.04701 20.3957 7.04701 20.1041 6.90639 19.8697C6.77097 19.6405 6.52097 19.4947 6.25014 19.4999H5.75014C5.05222 19.4999 4.50014 18.9478 4.50014 18.2499V17.7499C4.50534 17.5468 4.42201 17.3541 4.28139 17.2082C4.13555 17.0676 3.94284 16.9843 3.73972 16.9895ZM20.2397 16.9895C19.8231 16.9947 19.4949 17.3384 19.5001 17.7499V18.2499C19.5001 18.9478 18.9481 19.4999 18.2501 19.4999H17.7501C17.4793 19.4947 17.2293 19.6405 17.0939 19.8697C16.9533 20.1041 16.9533 20.3957 17.0939 20.6301C17.2293 20.8593 17.4793 21.0051 17.7501 20.9999H18.2501C19.7606 20.9999 21.0001 19.7603 21.0001 18.2499V17.7499C21.0053 17.5468 20.922 17.3541 20.7814 17.2082C20.6356 17.0676 20.4428 16.9843 20.2397 16.9895ZM8.75013 19.4999C8.4793 19.4947 8.2293 19.6405 8.09388 19.8697C7.95326 20.1041 7.95326 20.3957 8.09388 20.6301C8.2293 20.8593 8.4793 21.0051 8.75013 20.9999H10.7501C11.021 21.0051 11.271 20.8593 11.4064 20.6301C11.547 20.3957 11.547 20.1041 11.4064 19.8697C11.271 19.6405 11.021 19.4947 10.7501 19.4999H8.75013ZM13.2501 19.4999C12.9793 19.4947 12.7293 19.6405 12.5939 19.8697C12.4533 20.1041 12.4533 20.3957 12.5939 20.6301C12.7293 20.8593 12.9793 21.0051 13.2501 20.9999H15.2501C15.521 21.0051 15.771 20.8593 15.9064 20.6301C16.047 20.3957 16.047 20.1041 15.9064 19.8697C15.771 19.6405 15.521 19.4947 15.2501 19.4999H13.2501Z" fill="#0D1011"/>
</g>
</svg>
