<svg width="24" height="24" viewBox="0 0 24 24" fill="none" xmlns="http://www.w3.org/2000/svg">
<g id="qr_code ">
<path id="Vector" d="M5.25 3C4.01625 3 3 4.01625 3 5.25V8.75C3 9.98375 4.01625 11 5.25 11H8.75C9.98375 11 11 9.98375 11 8.75V5.25C11 4.01625 9.98375 3 8.75 3H5.25ZM15.25 3C14.0162 3 13 4.01625 13 5.25V8.75C13 9.98375 14.0162 11 15.25 11H18.75C19.9838 11 21 9.98375 21 8.75V5.25C21 4.01625 19.9838 3 18.75 3H15.25ZM5.25 4.5H8.75C9.17325 4.5 9.5 4.82675 9.5 5.25V8.75C9.5 9.17325 9.17325 9.5 8.75 9.5H5.25C4.82675 9.5 4.5 9.17325 4.5 8.75V5.25C4.5 4.82675 4.82675 4.5 5.25 4.5ZM15.25 4.5H18.75C19.1733 4.5 19.5 4.82675 19.5 5.25V8.75C19.5 9.17325 19.1733 9.5 18.75 9.5H15.25C14.8268 9.5 14.5 9.17325 14.5 8.75V5.25C14.5 4.82675 14.8268 4.5 15.25 4.5ZM6 6V8H8V6H6ZM16 6V8H18V6H16ZM5.25 13C4.01625 13 3 14.0162 3 15.25V18.75C3 19.9838 4.01625 21 5.25 21H8.75C9.98375 21 11 19.9838 11 18.75V15.25C11 14.0162 9.98375 13 8.75 13H5.25ZM13 13V15.75H15.75V13H13ZM15.75 15.75V18.25H18.25V15.75H15.75ZM18.25 15.75H21V13H18.25V15.75ZM18.25 18.25V21H21V18.25H18.25ZM15.75 18.25H13V21H15.75V18.25ZM5.25 14.5H8.75C9.17325 14.5 9.5 14.8268 9.5 15.25V18.75C9.5 19.1733 9.17325 19.5 8.75 19.5H5.25C4.82675 19.5 4.5 19.1733 4.5 18.75V15.25C4.5 14.8268 4.82675 14.5 5.25 14.5ZM6 16V18H8V16H6Z" fill="#0D1011"/>
</g>
</svg>
