<svg width="24" height="24" viewBox="0 0 24 24" fill="none" xmlns="http://www.w3.org/2000/svg">
<g id="query_shield_fill">
<path id="Vector" d="M12.0234 1.00004C11.8307 0.994827 11.6432 1.06254 11.5 1.19274C11.5 1.19274 7.74479 4.50004 3.25 4.50004C2.83594 4.50004 2.5 4.83597 2.5 5.25004V11.3802C2.5 14.7188 4.04427 20.2136 11.7083 23.4401C11.8958 23.5209 12.1042 23.5209 12.2917 23.4401C19.9557 20.2136 21.5 14.7188 21.5 11.3802V5.25004C21.5 4.83597 21.1641 4.50004 20.75 4.50004C16.2552 4.50004 12.5 1.19274 12.5 1.19274C12.3698 1.07295 12.2005 1.00524 12.0234 1.00004ZM12 7.00004C13.6536 7.00004 15 8.34639 15 10C15 11.3776 14.25 12.0782 13.6484 12.6407C13.1276 13.1276 12.75 13.4792 12.75 14.25C12.75 14.6641 12.4141 15 12 15C11.5859 15 11.25 14.6641 11.25 14.25C11.25 12.8282 12.0104 12.1172 12.625 11.5443C13.1979 11.0052 13.5 10.6927 13.5 10C13.5 9.17191 12.8281 8.50004 12 8.50004C11.1719 8.50004 10.5 9.17191 10.5 10C10.5 10.4141 10.1641 10.75 9.75 10.75C9.33594 10.75 9 10.4141 9 10C9 8.34639 10.3464 7.00004 12 7.00004ZM12 16C12.5521 16 13 16.448 13 17C13 17.5521 12.5521 18 12 18C11.4479 18 11 17.5521 11 17C11 16.448 11.4479 16 12 16Z" fill="#0D1011"/>
</g>
</svg>
