<svg width="24" height="24" viewBox="0 0 24 24" fill="none" xmlns="http://www.w3.org/2000/svg">
<g id="query_shield">
<path id="Vector" d="M12.0244 1.00012C11.831 0.994086 11.6428 1.06301 11.499 1.1925C11.499 1.1925 7.74508 4.50012 3.25 4.50012C3.05109 4.50014 2.86034 4.57916 2.71969 4.71981C2.57904 4.86046 2.50002 5.05121 2.5 5.25012V11.38C2.5 14.719 4.04471 20.2133 11.709 23.4415C11.8011 23.4803 11.9 23.5003 12 23.5003C12.1 23.5003 12.1989 23.4803 12.291 23.4415C19.9553 20.2133 21.5 14.719 21.5 11.38V5.25012C21.5 5.05121 21.421 4.86046 21.2803 4.71981C21.1397 4.57916 20.9489 4.50014 20.75 4.50012C16.2549 4.50012 12.501 1.1925 12.501 1.1925C12.3697 1.07426 12.201 1.00613 12.0244 1.00012ZM12 2.71399C13.0315 3.5433 16.0556 5.66872 20 5.93762V11.38C20 14.2511 18.8967 18.883 12 21.9132C5.10328 18.883 4 14.2511 4 11.38V5.93762C7.94437 5.66872 10.9685 3.5433 12 2.71399ZM12 7.00012C10.3521 7.00012 9 8.35219 9 10.0001C8.99859 10.0995 9.01696 10.1982 9.05402 10.2904C9.09108 10.3826 9.1461 10.4666 9.21588 10.5373C9.28566 10.6081 9.36882 10.6643 9.46051 10.7027C9.5522 10.741 9.65061 10.7608 9.75 10.7608C9.84939 10.7608 9.9478 10.741 10.0395 10.7027C10.1312 10.6643 10.2143 10.6081 10.2841 10.5373C10.3539 10.4666 10.4089 10.3826 10.446 10.2904C10.483 10.1982 10.5014 10.0995 10.5 10.0001C10.5 9.16305 11.1629 8.50012 12 8.50012C12.8371 8.50012 13.5 9.16305 13.5 10.0001C13.5 10.7932 13.1783 11.0267 12.6133 11.5548C12.0482 12.0829 11.25 12.9034 11.25 14.2501C11.2486 14.3495 11.267 14.4482 11.304 14.5404C11.3411 14.6326 11.3961 14.7166 11.4659 14.7873C11.5357 14.8581 11.6188 14.9143 11.7105 14.9527C11.8022 14.991 11.9006 15.0108 12 15.0108C12.0994 15.0108 12.1978 14.991 12.2895 14.9527C12.3812 14.9143 12.4643 14.8581 12.5341 14.7873C12.6039 14.7166 12.6589 14.6326 12.696 14.5404C12.733 14.4482 12.7514 14.3495 12.75 14.2501C12.75 13.4203 13.0768 13.1739 13.6367 12.6505C14.1967 12.1272 15 11.3245 15 10.0001C15 8.35219 13.6479 7.00012 12 7.00012ZM12 16.0001C11.7348 16.0001 11.4804 16.1055 11.2929 16.293C11.1054 16.4805 11 16.7349 11 17.0001C11 17.2653 11.1054 17.5197 11.2929 17.7072C11.4804 17.8948 11.7348 18.0001 12 18.0001C12.2652 18.0001 12.5196 17.8948 12.7071 17.7072C12.8946 17.5197 13 17.2653 13 17.0001C13 16.7349 12.8946 16.4805 12.7071 16.293C12.5196 16.1055 12.2652 16.0001 12 16.0001Z" fill="#0D1011"/>
</g>
</svg>
