<svg width="24" height="24" viewBox="0 0 24 24" fill="none" xmlns="http://www.w3.org/2000/svg">
<g id="question_mark">
<path id="Vector" d="M11.9932 2.53147C11.889 2.52886 11.7848 2.5497 11.6885 2.59136C8.639 2.75282 6.15723 5.15907 5.99316 8.21115C5.97233 8.62261 6.28743 8.97678 6.7015 9.00022C7.11556 9.02105 7.46973 8.70595 7.49056 8.29188C7.61816 5.91688 9.5817 4.03147 11.9932 4.03147C14.4854 4.03147 16.501 6.04449 16.501 8.53407C16.501 10.6148 15.5973 11.3622 14.3864 12.3856C13.1755 13.4091 11.6338 14.6565 11.3083 17.1513C11.2692 17.4195 11.3786 17.6877 11.5921 17.8518C11.8057 18.0184 12.0921 18.0575 12.3421 17.9507C12.5921 17.8466 12.7666 17.6148 12.7952 17.344C13.0557 15.3596 14.113 14.5809 15.3551 13.5315C16.5947 12.482 18.001 11.1122 18.001 8.53407C18.001 5.34136 15.4567 2.76324 12.3005 2.59397C12.2041 2.5523 12.0999 2.53147 11.9932 2.53147ZM11.9984 20.5002C11.5843 20.5002 11.2484 20.8362 11.2484 21.2502C11.2484 21.6617 11.5843 22.0002 11.9984 22.0002C12.4124 22.0002 12.7484 21.6643 12.7484 21.2502C12.7484 20.8362 12.4124 20.5002 11.9984 20.5002Z" fill="#0D1011"/>
</g>
</svg>
