<svg width="24" height="24" viewBox="0 0 24 24" fill="none" xmlns="http://www.w3.org/2000/svg">
<g id="refund">
<path id="Vector" d="M3 10.0374C3 8.38767 3.62514 6.73791 4.87283 5.48357C7.3682 2.97227 11.4395 2.97227 13.9348 5.48357L21.2803 12.8656C21.4756 13.0568 21.5538 13.337 21.486 13.6014C21.4183 13.8659 21.2125 14.0728 20.9495 14.1409C20.6864 14.209 20.4077 14.1304 20.2175 13.934L12.8747 6.54937C10.9524 4.6168 7.85529 4.6168 5.93297 6.54937C4.01065 8.48195 4.01065 11.5955 5.93297 13.5281L10.4965 18.116V12.897C10.4939 12.6247 10.6346 12.3733 10.869 12.2345C11.1034 12.0983 11.39 12.0983 11.6244 12.2345C11.8588 12.3733 11.9995 12.6247 11.9969 12.897V19.8234C12.0359 20.0643 11.9578 20.3078 11.7885 20.4781C11.6166 20.6509 11.3743 20.7294 11.1373 20.6902H4.24508C4.04191 20.6928 3.84655 20.6142 3.70329 20.4702C3.56003 20.3236 3.48188 20.1272 3.48449 19.9229C3.4897 19.5091 3.83092 19.1766 4.24508 19.1818H9.43638L4.87283 14.5939C3.62514 13.3396 3 11.6898 3 10.0374Z" fill="#0D1011"/>
</g>
</svg>
