<svg width="24" height="24" viewBox="0 0 24 24" fill="none" xmlns="http://www.w3.org/2000/svg">
<g id="refund_fill">
<g id="refund_fill_2">
<path id="Subtract" fill-rule="evenodd" clip-rule="evenodd" d="M12 22C17.5228 22 22 17.5228 22 12C22 6.47715 17.5228 2 12 2C6.47715 2 2 6.47715 2 12C2 17.5228 6.47715 22 12 22ZM8.80867 16.0087C8.13461 15.3485 7.79688 14.4802 7.79688 13.6119C7.79688 12.7423 8.13461 11.874 8.80867 11.2138L11.0384 8.97001H8.46953C8.24578 8.97277 8.06143 8.62682 8.05862 8.40905C8.05721 8.30155 8.09943 8.19818 8.17683 8.121C8.25422 8.0452 8.35976 8.00385 8.46953 8.00523H12.193C12.3211 7.98455 12.452 8.0259 12.5448 8.11687C12.6363 8.20645 12.6785 8.33463 12.6574 8.46143V12.1069C12.6588 12.2502 12.5828 12.3825 12.4562 12.4556C12.3295 12.5272 12.1747 12.5272 12.0481 12.4556C11.9214 12.3825 11.8455 12.2502 11.8469 12.1069V9.53912L9.64916 11.6768C8.61063 12.6939 8.61063 14.2687 9.64916 15.2858C10.6877 16.3029 11.8521 16.3029 12.8906 15.2858L16.9553 11.4522C17.058 11.3489 17.3519 11.4164 17.494 11.4522C17.6362 11.4881 17.7473 11.5969 17.7839 11.7361C17.8205 11.8753 17.7783 12.0228 17.6728 12.1234L13.7044 16.0087C12.3563 17.3304 10.1568 17.3304 8.80867 16.0087Z" fill="#0D1011"/>
</g>
</g>
</svg>
