<svg width="24" height="24" viewBox="0 0 24 24" fill="none" xmlns="http://www.w3.org/2000/svg">
<g id="reload ">
<path id="Vector" d="M18.7383 2.98935C18.5395 2.99245 18.3502 3.07432 18.2117 3.21696C18.0733 3.35959 17.9971 3.55135 18 3.75009V5.30283C16.4079 3.87367 14.3047 3.00009 12 3.00009C7.0382 3.00009 3 7.03829 3 12.0001C3 16.9619 7.0382 21.0001 12 21.0001C16.9618 21.0001 21 16.9619 21 12.0001C21 11.5242 20.9524 11.0706 20.8867 10.6378C20.8749 10.5379 20.8432 10.4414 20.7933 10.3541C20.7435 10.2667 20.6766 10.1903 20.5966 10.1293C20.5166 10.0683 20.4252 10.024 20.3278 9.99909C20.2303 9.97415 20.1289 9.96907 20.0295 9.98413C19.93 9.9992 19.8346 10.0341 19.7489 10.0868C19.6633 10.1395 19.5891 10.2088 19.5307 10.2908C19.4724 10.3727 19.4312 10.4655 19.4094 10.5637C19.3877 10.6619 19.386 10.7635 19.4043 10.8624C19.4626 11.2466 19.5 11.624 19.5 12.0001C19.5 16.1513 16.1512 19.5001 12 19.5001C7.8488 19.5001 4.5 16.1513 4.5 12.0001C4.5 7.84889 7.8488 4.50009 12 4.50009C13.9671 4.50009 15.7402 5.26384 17.0752 6.50009H15.25C15.1506 6.49869 15.0519 6.51705 14.9597 6.55411C14.8675 6.59117 14.7836 6.64619 14.7128 6.71597C14.642 6.78575 14.5858 6.86891 14.5474 6.9606C14.5091 7.0523 14.4893 7.1507 14.4893 7.25009C14.4893 7.34949 14.5091 7.44789 14.5474 7.53958C14.5858 7.63127 14.642 7.71443 14.7128 7.78421C14.7836 7.85399 14.8675 7.90902 14.9597 7.94608C15.0519 7.98314 15.1506 8.0015 15.25 8.00009H18.75C18.9489 8.00007 19.1397 7.92105 19.2803 7.7804C19.421 7.63975 19.5 7.449 19.5 7.25009V3.75009C19.5014 3.64971 19.4827 3.55006 19.4449 3.45705C19.4071 3.36403 19.3511 3.27955 19.28 3.20861C19.209 3.13767 19.1245 3.0817 19.0314 3.04404C18.9383 3.00638 18.8387 2.98778 18.7383 2.98935Z" fill="#0D1011"/>
</g>
</svg>
