<svg width="24" height="24" viewBox="0 0 24 24" fill="none" xmlns="http://www.w3.org/2000/svg">
<g id="resize_verticle">
<path id="Vector" d="M15.9047 8.09529C16.0799 8.27523 16.3143 8.36283 16.5463 8.36283C16.7783 8.36283 17.0127 8.27523 17.1879 8.09529C17.543 7.74253 17.543 7.16484 17.1879 6.81207L12.6422 2.26635C12.2894 1.91122 11.7117 1.91122 11.3589 2.26635L6.81323 6.81207C6.45809 7.16484 6.45809 7.74253 6.81323 8.09529C7.16599 8.45043 7.74368 8.45043 8.09645 8.09529L11.0914 5.10269V18.8961L8.09645 15.9035C7.74368 15.5484 7.16599 15.5484 6.81323 15.9035C6.45809 16.2563 6.45809 16.834 6.81323 17.1867L11.3589 21.7325C11.5341 21.9124 11.7685 22 12.0006 22C12.2326 22 12.467 21.9124 12.6422 21.7325L17.1879 17.1867C17.543 16.834 17.543 16.2563 17.1879 15.9035C16.8351 15.5484 16.2574 15.5484 15.9047 15.9035L12.9097 18.8961V5.10269L15.9047 8.09529Z" fill="#0D1011"/>
</g>
</svg>
