<svg width="24" height="24" viewBox="0 0 24 24" fill="none" xmlns="http://www.w3.org/2000/svg">
<g id="resize_horizontal">
<path id="Vector" d="M6.81236 17.1885C6.98994 17.3685 7.22197 17.4561 7.45401 17.4561C7.68604 17.4561 7.91808 17.3685 8.09565 17.1885C8.45081 16.8357 8.45081 16.258 8.09565 15.9052L5.10288 12.9101H18.8971L15.9043 15.9052C15.5492 16.258 15.5492 16.8357 15.9043 17.1885C16.0819 17.3685 16.314 17.4561 16.546 17.4561C16.778 17.4561 17.0101 17.3685 17.1876 17.1885L21.7336 12.6425C22.0888 12.2897 22.0888 11.712 21.7336 11.3592L17.1876 6.81324C16.8349 6.45809 16.2571 6.45809 15.9043 6.81324C15.5492 7.16603 15.5492 7.74375 15.9043 8.09654L18.8971 11.0917H5.10288L8.09565 8.09654C8.45081 7.74375 8.45081 7.16603 8.09565 6.81324C7.74287 6.45809 7.16515 6.45809 6.81236 6.81324L2.26637 11.3592C1.91121 11.712 1.91121 12.2897 2.26637 12.6425L6.81236 17.1885Z" fill="#0D1011"/>
</g>
</svg>
