<svg width="24" height="24" viewBox="0 0 24 24" fill="none" xmlns="http://www.w3.org/2000/svg">
<g id="right_arrow">
<path id="Vector" d="M20.7057 11.2944L13.7057 4.29443C13.3177 3.90381 12.6823 3.90381 12.2943 4.29443C11.9036 4.68245 11.9036 5.31787 12.2943 5.70589L17.5859 11.0002H4C3.44792 11.0002 3 11.4481 3 12.0002C3 12.5522 3.44792 13.0002 4 13.0002H17.5859L12.2943 18.2944C11.9036 18.6825 11.9036 19.3179 12.2943 19.7059C12.4896 19.9038 12.7448 20.0002 13 20.0002C13.2552 20.0002 13.5104 19.9038 13.7057 19.7059L20.7057 12.7059C21.0964 12.3179 21.0964 11.6825 20.7057 11.2944Z" fill="#0D1011"/>
</g>
</svg>
