<svg width="24" height="24" viewBox="0 0 24 24" fill="none" xmlns="http://www.w3.org/2000/svg">
<g id="Sale Price Tag ">
<path id="Vector" d="M14.0026 2C13.2057 2 12.4453 2.3151 11.8802 2.88021L2.88281 11.8776C1.71615 13.0443 1.71615 14.9557 2.88281 16.1224L7.88021 21.1224C8.44531 21.6849 9.20573 22 10.0026 22C10.7995 22 11.5599 21.6849 12.125 21.1224L21.125 12.1224C21.6875 11.5573 22.0026 10.7943 22.0026 10V4.5C22.0026 3.1276 20.875 2 19.5026 2H14.0026ZM14.0026 3.5H19.5026C20.0599 3.5 20.5026 3.94271 20.5026 4.5V10C20.5026 10.4062 20.3516 10.7734 20.0625 11.0599L11.0625 20.0599C10.776 20.349 10.4089 20.5 10.0026 20.5C9.59635 20.5 9.22917 20.349 8.94271 20.0599L3.94271 15.0599C3.35156 14.4714 3.35156 13.5286 3.94271 12.9401L12.9427 3.9401C13.2292 3.65104 13.5964 3.5 14.0026 3.5ZM17.0026 5.5C16.1745 5.5 15.5026 6.17188 15.5026 7C15.5026 7.82813 16.1745 8.5 17.0026 8.5C17.8307 8.5 18.5026 7.82813 18.5026 7C18.5026 6.17188 17.8307 5.5 17.0026 5.5ZM11.2526 9C10.7005 9 10.2526 9.44792 10.2526 10C10.2526 10.5521 10.7005 11 11.2526 11C11.8047 11 12.2526 10.5521 12.2526 10C12.2526 9.44792 11.8047 9 11.2526 9ZM8.0026 12C7.73177 11.9974 7.48177 12.138 7.34375 12.3724C7.20833 12.6068 7.20833 12.8932 7.34375 13.1276C7.48177 13.362 7.73177 13.5026 8.0026 13.5H14.5026C14.7734 13.5026 15.0234 13.362 15.1615 13.1276C15.2969 12.8932 15.2969 12.6068 15.1615 12.3724C15.0234 12.138 14.7734 11.9974 14.5026 12H8.0026ZM11.2526 14.5C10.7005 14.5 10.2526 14.9479 10.2526 15.5C10.2526 16.0521 10.7005 16.5 11.2526 16.5C11.8047 16.5 12.2526 16.0521 12.2526 15.5C12.2526 14.9479 11.8047 14.5 11.2526 14.5Z" fill="#0D1011"/>
</g>
</svg>
