<svg width="24" height="24" viewBox="0 0 24 24" fill="none" xmlns="http://www.w3.org/2000/svg">
<g id="Schedule ">
<path id="Vector" d="M5.75 0C2.58333 0 0 2.58333 0 5.75C0 8.91667 2.58333 11.5 5.75 11.5C8.91667 11.5 11.5 8.91667 11.5 5.75C11.5 2.58333 8.91667 0 5.75 0ZM5.75 1.5C8.10417 1.5 10 3.39583 10 5.75C10 8.10417 8.10417 10 5.75 10C3.39583 10 1.5 8.10417 1.5 5.75C1.5 3.39583 3.39583 1.5 5.75 1.5ZM5.73958 2.48958C5.32292 2.49479 4.99479 2.83854 5 3.25V5.75C5 5.94792 5.07813 6.14063 5.21875 6.28125L6.21875 7.28125C6.40625 7.47396 6.6875 7.55729 6.94792 7.48437C7.21354 7.41667 7.41667 7.21354 7.48437 6.94792C7.55729 6.6875 7.47396 6.40625 7.28125 6.21875L6.5 5.4375V3.25C6.50521 3.04687 6.42188 2.85417 6.28125 2.70833C6.13542 2.56771 5.94271 2.48437 5.73958 2.48958ZM11.9115 3C12.1198 3.47396 12.2813 3.97396 12.3802 4.5H17.75C18.7135 4.5 19.5 5.28646 19.5 6.25V7H12.3802C12.2813 7.52604 12.1198 8.02604 11.9115 8.5H19.5V17.75C19.5 18.7135 18.7135 19.5 17.75 19.5H6.25C5.28646 19.5 4.5 18.7135 4.5 17.75V12.3802C3.97396 12.2813 3.47396 12.1198 3 11.9115V17.75C3 19.5417 4.45833 21 6.25 21H17.75C19.5417 21 21 19.5417 21 17.75V6.25C21 4.45833 19.5417 3 17.75 3H11.9115ZM12 10.5C11.3073 10.5 10.75 11.0573 10.75 11.75C10.75 12.4427 11.3073 13 12 13C12.6927 13 13.25 12.4427 13.25 11.75C13.25 11.0573 12.6927 10.5 12 10.5ZM16.25 10.5C15.5573 10.5 15 11.0573 15 11.75C15 12.4427 15.5573 13 16.25 13C16.9427 13 17.5 12.4427 17.5 11.75C17.5 11.0573 16.9427 10.5 16.25 10.5ZM7.75 15C7.05729 15 6.5 15.5573 6.5 16.25C6.5 16.9427 7.05729 17.5 7.75 17.5C8.44271 17.5 9 16.9427 9 16.25C9 15.5573 8.44271 15 7.75 15ZM12 15C11.3073 15 10.75 15.5573 10.75 16.25C10.75 16.9427 11.3073 17.5 12 17.5C12.6927 17.5 13.25 16.9427 13.25 16.25C13.25 15.5573 12.6927 15 12 15Z" fill="#0D1011"/>
</g>
</svg>
