<svg width="24" height="24" viewBox="0 0 24 24" fill="none" xmlns="http://www.w3.org/2000/svg">
<g id="security_shield ">
<path id="Vector" d="M12.0244 1.00012C11.831 0.994086 11.6428 1.06301 11.499 1.1925C11.499 1.1925 7.74508 4.50012 3.25 4.50012C3.05109 4.50014 2.86034 4.57916 2.71969 4.71981C2.57904 4.86046 2.50002 5.05121 2.5 5.25012V11.38C2.5 14.719 4.04471 20.2133 11.709 23.4415C11.8011 23.4803 11.9 23.5003 12 23.5003C12.1 23.5003 12.1989 23.4803 12.291 23.4415C19.9553 20.2133 21.5 14.719 21.5 11.38V5.25012C21.5 5.05121 21.421 4.86046 21.2803 4.71981C21.1397 4.57916 20.9489 4.50014 20.75 4.50012C16.2549 4.50012 12.501 1.1925 12.501 1.1925C12.3697 1.07426 12.201 1.00613 12.0244 1.00012ZM12 2.71399C13.0315 3.5433 16.0556 5.66872 20 5.93762V11.38C20 14.2511 18.8967 18.883 12 21.9132C5.10328 18.883 4 14.2511 4 11.38V5.93762C7.94437 5.66872 10.9685 3.5433 12 2.71399ZM12 6.00012C10.3521 6.00012 9 7.35219 9 9.00012V10.1398C8.13178 10.4527 7.5 11.2801 7.5 12.2501V14.7501C7.5 15.9839 8.51625 17.0001 9.75 17.0001H14.25C15.4838 17.0001 16.5 15.9839 16.5 14.7501V12.2501C16.5 11.2801 15.8682 10.4527 15 10.1398V9.00012C15 7.35219 13.6479 6.00012 12 6.00012ZM12 7.50012C12.8371 7.50012 13.5 8.16305 13.5 9.00012V10.0001H10.5V9.00012C10.5 8.16305 11.1629 7.50012 12 7.50012ZM9.75 11.5001H14.25C14.6732 11.5001 15 11.8269 15 12.2501V14.7501C15 15.1734 14.6732 15.5001 14.25 15.5001H9.75C9.32675 15.5001 9 15.1734 9 14.7501V12.2501C9 11.8269 9.32675 11.5001 9.75 11.5001ZM12 12.5001C11.7348 12.5001 11.4804 12.6055 11.2929 12.793C11.1054 12.9806 11 13.2349 11 13.5001C11 13.7653 11.1054 14.0197 11.2929 14.2072C11.4804 14.3948 11.7348 14.5001 12 14.5001C12.2652 14.5001 12.5196 14.3948 12.7071 14.2072C12.8946 14.0197 13 13.7653 13 13.5001C13 13.2349 12.8946 12.9806 12.7071 12.793C12.5196 12.6055 12.2652 12.5001 12 12.5001Z" fill="#0D1011"/>
</g>
</svg>
