<svg width="24" height="24" viewBox="0 0 24 24" fill="none" xmlns="http://www.w3.org/2000/svg">
<g id="sent ">
<path id="Vector" d="M2.72306 2.00101C2.60259 2.00538 2.48494 2.03873 2.38008 2.09823C2.27523 2.15773 2.18627 2.24163 2.12073 2.34281C2.05519 2.444 2.015 2.55949 2.00358 2.67951C1.99215 2.79952 2.00982 2.92052 2.0551 3.03226L5.69084 12L2.0551 20.9678C1.99776 21.109 1.98481 21.2644 2.01797 21.4131C2.05112 21.5619 2.12882 21.6971 2.24071 21.8006C2.35259 21.9041 2.49336 21.971 2.64426 21.9925C2.79516 22.014 2.94902 21.9891 3.08537 21.9209L21.5854 12.6709C21.71 12.6086 21.8148 12.5129 21.888 12.3944C21.9612 12.2759 22 12.1393 22 12C22 11.8607 21.9612 11.7242 21.888 11.6057C21.8148 11.4872 21.71 11.3914 21.5854 11.3291L3.08537 2.07913C2.97304 2.0232 2.84847 1.99633 2.72306 2.00101ZM4.19181 4.3096L19.5737 12L4.19181 19.6905L7.00627 12.75H13.7504C13.8498 12.7514 13.9485 12.7331 14.0407 12.696C14.1329 12.659 14.2169 12.6039 14.2876 12.5342C14.3584 12.4644 14.4146 12.3812 14.453 12.2895C14.4913 12.1978 14.5111 12.0994 14.5111 12C14.5111 11.9006 14.4913 11.8022 14.453 11.7105C14.4146 11.6188 14.3584 11.5357 14.2876 11.4659C14.2169 11.3961 14.1329 11.3411 14.0407 11.304C13.9485 11.267 13.8498 11.2486 13.7504 11.25H7.00627L4.19181 4.3096Z" fill="#0D1011"/>
</g>
</svg>
