<svg width="24" height="24" viewBox="0 0 24 24" fill="none" xmlns="http://www.w3.org/2000/svg">
<g id="Settings">
<path id="Vector" d="M12.0005 2C11.2114 2 10.451 2.09896 9.72706 2.26823C9.41716 2.34115 9.18539 2.60156 9.15154 2.91927L8.99268 4.36979C8.9406 4.84375 8.66456 5.26563 8.2505 5.50521C7.83643 5.74479 7.33383 5.77083 6.89633 5.57813L5.563 4.99219C5.27133 4.86198 4.93018 4.93229 4.71404 5.16406C3.67758 6.27083 2.8807 7.60677 2.43018 9.10156C2.33904 9.40625 2.44841 9.73437 2.70362 9.92187L3.88591 10.7891C4.27393 11.0729 4.5005 11.5208 4.5005 12C4.5005 12.4792 4.27393 12.9271 3.88591 13.2109L2.70362 14.0755C2.44841 14.263 2.33904 14.5938 2.43018 14.8984C2.8807 16.3906 3.67758 17.7292 4.71404 18.8359C4.93018 19.0677 5.27133 19.1354 5.563 19.0078L6.89633 18.4219C7.33383 18.2292 7.83643 18.2552 8.2505 18.4948C8.66456 18.7344 8.9406 19.1562 8.99268 19.6302L9.15154 21.0807C9.18539 21.3984 9.41456 21.6589 9.72446 21.7318C10.451 21.901 11.2114 22 12.0005 22C12.7896 22 13.55 21.901 14.2739 21.7318C14.5838 21.6589 14.8156 21.3984 14.8495 21.0807L15.0083 19.6302C15.0604 19.1562 15.3364 18.7344 15.7505 18.4948C16.1646 18.2552 16.6672 18.2292 17.1047 18.4219L18.438 19.0078C18.7297 19.1354 19.0708 19.0677 19.287 18.8359C20.3234 17.7292 21.1203 16.3906 21.5708 14.8984C21.662 14.5938 21.5526 14.263 21.2974 14.0755L20.1125 13.2109C19.7271 12.9271 19.5005 12.4792 19.5005 12C19.5005 11.5208 19.7271 11.0729 20.1125 10.7891L21.2974 9.92448C21.5526 9.73698 21.662 9.40625 21.5708 9.10156C21.1203 7.60937 20.3234 6.27083 19.287 5.16406C19.0708 4.93229 18.7297 4.86458 18.438 4.99219L17.1047 5.57813C16.6672 5.77083 16.1646 5.74479 15.7505 5.50521C15.3364 5.26563 15.0604 4.84375 15.0083 4.36979L14.8495 2.91667C14.8156 2.60156 14.5864 2.34115 14.2765 2.27083C13.55 2.09896 12.7896 2 12.0005 2ZM12.0005 3.5C12.4875 3.5 12.9562 3.58854 13.425 3.66927L13.5187 4.53125C13.6229 5.48177 14.175 6.32552 15.0005 6.80469C15.8286 7.28125 16.8338 7.33594 17.7088 6.95313L18.5005 6.60417C19.1099 7.33594 19.5916 8.16146 19.9302 9.0651L19.2271 9.58073C18.4562 10.1458 18.0005 11.0443 18.0005 12C18.0005 12.9557 18.4562 13.8542 19.2271 14.4193L19.9302 14.9349C19.5916 15.8385 19.1099 16.6641 18.5005 17.3958L17.7088 17.0469C16.8338 16.6641 15.8286 16.7188 15.0005 17.1953C14.175 17.6745 13.6229 18.5182 13.5187 19.4688L13.425 20.3307C12.9562 20.4115 12.4875 20.5 12.0005 20.5C11.5135 20.5 11.0448 20.4115 10.576 20.3307L10.4823 19.4688C10.3781 18.5182 9.82602 17.6745 9.0005 17.1953C8.17237 16.7188 7.16716 16.6641 6.29216 17.0469L5.5005 17.3958C4.89112 16.6667 4.40935 15.8385 4.07081 14.9349L4.77393 14.4193C5.54477 13.8542 6.0005 12.9557 6.0005 12C6.0005 11.0443 5.54477 10.1458 4.77393 9.58073L4.07081 9.0651C4.40935 8.15885 4.89112 7.33333 5.5005 6.60156L6.29216 6.95052C7.16716 7.33594 8.17237 7.28125 9.0005 6.80469C9.82602 6.32552 10.3781 5.48177 10.4823 4.53125L10.576 3.66927C11.0448 3.58854 11.5135 3.5 12.0005 3.5ZM12.0005 8C9.79998 8 8.0005 9.79948 8.0005 12C8.0005 14.2005 9.79998 16 12.0005 16C14.201 16 16.0005 14.2005 16.0005 12C16.0005 9.79948 14.201 8 12.0005 8ZM12.0005 9.5C13.3911 9.5 14.5005 10.6094 14.5005 12C14.5005 13.3906 13.3911 14.5 12.0005 14.5C10.6099 14.5 9.5005 13.3906 9.5005 12C9.5005 10.6094 10.6099 9.5 12.0005 9.5Z" fill="#0D1011"/>
</g>
</svg>
