<svg width="24" height="24" viewBox="0 0 24 24" fill="none" xmlns="http://www.w3.org/2000/svg">
<g id="share 2">
<path id="Vector" d="M17.7422 2.99219C17.4375 2.99219 17.1615 3.17708 17.0469 3.46094C16.9323 3.74219 17 4.06771 17.2188 4.28125L18.4401 5.5H17.75C11.8229 5.5 7 10.3229 7 16.25C6.9974 16.5208 7.13802 16.7708 7.3724 16.9089C7.60677 17.0443 7.89323 17.0443 8.1276 16.9089C8.36198 16.7708 8.5026 16.5208 8.5 16.25C8.5 11.1328 12.6328 7 17.75 7H18.4401L17.2188 8.21875C17.0234 8.40885 16.9453 8.6875 17.013 8.95052C17.0807 9.21354 17.2865 9.41927 17.5495 9.48698C17.8125 9.55469 18.0911 9.47656 18.2812 9.28125L20.7161 6.84375C20.901 6.70313 21.0104 6.48177 21.0104 6.2474C21.0078 6.01302 20.8984 5.79167 20.7109 5.65104L18.2812 3.21875C18.138 3.07552 17.9453 2.99219 17.7422 2.99219ZM6.25 3C4.46354 3 3 4.46354 3 6.25V17.75C3 19.5365 4.46354 21 6.25 21H17.75C19.5365 21 21 19.5365 21 17.75V13.75C21.0026 13.4792 20.862 13.2292 20.6276 13.0911C20.3932 12.9557 20.1068 12.9557 19.8724 13.0911C19.638 13.2292 19.4974 13.4792 19.5 13.75V17.75C19.5 18.724 18.724 19.5 17.75 19.5H6.25C5.27604 19.5 4.5 18.724 4.5 17.75V6.25C4.5 5.27604 5.27604 4.5 6.25 4.5H10.25C10.5208 4.5026 10.7708 4.36198 10.9089 4.1276C11.0443 3.89323 11.0443 3.60677 10.9089 3.3724C10.7708 3.13802 10.5208 2.9974 10.25 3H6.25Z" fill="#0D1011"/>
</g>
</svg>
