<svg width="24" height="24" viewBox="0 0 24 24" fill="none" xmlns="http://www.w3.org/2000/svg">
<g id="share 1">
<path id="Vector" d="M18 2.5C16.0755 2.5 14.5 4.07552 14.5 6C14.5 6.29167 14.599 6.55469 14.6693 6.82813L8.67187 9.82552C8.02865 9.03646 7.09115 8.5 6 8.5C4.07552 8.5 2.5 10.0755 2.5 12C2.5 13.9245 4.07552 15.5 6 15.5C7.09115 15.5 8.02865 14.9635 8.67187 14.1745L14.6693 17.1719C14.599 17.4453 14.5 17.7083 14.5 18C14.5 19.9245 16.0755 21.5 18 21.5C19.9245 21.5 21.5 19.9245 21.5 18C21.5 16.0755 19.9245 14.5 18 14.5C16.9089 14.5 15.9714 15.0365 15.3281 15.8255L9.33073 12.8281C9.40104 12.5547 9.5 12.2917 9.5 12C9.5 11.7083 9.40104 11.4453 9.33073 11.1719L15.3281 8.17448C15.9714 8.96354 16.9089 9.5 18 9.5C19.9245 9.5 21.5 7.92448 21.5 6C21.5 4.07552 19.9245 2.5 18 2.5ZM18 4C19.1146 4 20 4.88542 20 6C20 7.11458 19.1146 8 18 8C16.8854 8 16 7.11458 16 6C16 4.88542 16.8854 4 18 4ZM6 10C7.11458 10 8 10.8854 8 12C8 13.1146 7.11458 14 6 14C4.88542 14 4 13.1146 4 12C4 10.8854 4.88542 10 6 10ZM18 16C19.1146 16 20 16.8854 20 18C20 19.1146 19.1146 20 18 20C16.8854 20 16 19.1146 16 18C16 16.8854 16.8854 16 18 16Z" fill="#0D1011"/>
</g>
</svg>
