<svg width="24" height="24" viewBox="0 0 24 24" fill="none" xmlns="http://www.w3.org/2000/svg">
<g id="shield ">
<path id="Vector" d="M11.9996 2.50293C11.4766 2.50293 10.9532 2.66446 10.5114 2.9873C9.29363 3.877 7.05887 5.21401 4.58753 5.47168C3.67341 5.56719 2.96181 6.36829 3.00159 7.29785C3.40816 16.8116 9.46994 20.48 11.2496 21.3271C11.7213 21.5513 12.277 21.5513 12.7487 21.3271C14.5284 20.48 20.5901 16.8116 20.9967 7.29785V7.29688C21.0356 6.36766 20.3247 5.56726 19.4108 5.47168H19.4098C16.9389 5.21378 14.7045 3.87688 13.4869 2.9873C13.0451 2.66446 12.5227 2.50293 11.9996 2.50293ZM11.9996 3.99707C12.2094 3.99707 12.4186 4.06409 12.6022 4.19824C13.9384 5.17455 16.3549 6.66154 19.2545 6.96387H19.2555C19.4081 6.97974 19.5038 7.08891 19.4977 7.23438C19.1169 16.1343 13.5974 19.2612 12.1051 19.9717C12.0318 20.0065 11.9665 20.0065 11.8932 19.9717C10.4008 19.2611 4.88098 16.1342 4.50061 7.2334C4.4944 7.08828 4.58938 6.97981 4.7428 6.96387H4.74378C7.64343 6.66154 10.0598 5.17455 11.3961 4.19824C11.5797 4.06409 11.7899 3.99707 11.9996 3.99707Z" fill="#0D1011"/>
</g>
</svg>
