<svg width="24" height="24" viewBox="0 0 24 24" fill="none" xmlns="http://www.w3.org/2000/svg">
<g id="Shield_energy">
<path id="Vector" d="M12 1.5C11.7969 1.5 11.6042 1.58333 11.4609 1.72656C11.4609 1.72656 8.24479 5 3.75 5C3.33594 5 3 5.33594 3 5.75V10.25C3 11.8802 3.21615 14.0833 4.43229 16.2969C5.65104 18.5104 7.8724 20.6953 11.7083 22.3125C11.8958 22.3906 12.1042 22.3906 12.2917 22.3125C16.1276 20.6953 18.349 18.5104 19.5651 16.2969C20.7839 14.0833 21 11.8802 21 10.25V5.75C21 5.33594 20.6641 5 20.25 5C15.7552 5 12.5391 1.72656 12.5391 1.72656C12.3958 1.58333 12.2031 1.5 12 1.5ZM12 3.26042C13.0469 4.17708 15.7656 6.17448 19.5 6.4349V10.25C19.5 11.7474 19.3021 13.6641 18.2526 15.5729C17.2318 17.4245 15.3776 19.2943 12 20.7812C8.6224 19.2943 6.76823 17.4245 5.7474 15.5729C4.69792 13.6641 4.5 11.7474 4.5 10.25V6.4349C8.23438 6.17448 10.9531 4.17708 12 3.26042ZM12.2318 6.96354C12.2161 6.96354 12.2031 6.96354 12.1901 6.96615C12.099 6.97135 12.013 7.00521 11.9401 7.05729C11.9062 7.08073 11.875 7.10938 11.849 7.14063C11.8411 7.15104 11.8307 7.16146 11.8229 7.17448L8.59635 11.9375C8.4974 12.0755 8.47396 12.2552 8.53385 12.4141C8.59635 12.5703 8.73437 12.6875 8.90104 12.7214L11.276 13.1068L11.2708 16.5C11.2708 16.7161 11.4089 16.9089 11.6146 16.9766C11.6667 16.9922 11.7188 17 11.7708 17C11.9271 17 12.0781 16.9271 12.1745 16.7969L15.4062 12.0625C15.5052 11.9245 15.5286 11.7448 15.4661 11.5859C15.4062 11.4297 15.2682 11.3125 15.1016 11.2786L12.7266 10.8932L12.7318 7.5C12.7318 7.48698 12.7318 7.47656 12.7318 7.46354C12.7318 7.1901 12.513 6.96615 12.237 6.96354H12.2318Z" fill="#0D1011"/>
</g>
</svg>
