<svg width="24" height="24" viewBox="0 0 24 24" fill="none" xmlns="http://www.w3.org/2000/svg">
<g id="shield_lock ">
<path id="Vector" d="M12.0244 1.00012C11.831 0.994086 11.6428 1.06301 11.499 1.1925C11.499 1.1925 7.74508 4.50012 3.25 4.50012C3.05109 4.50014 2.86034 4.57916 2.71969 4.71981C2.57904 4.86046 2.50002 5.05121 2.5 5.25012V11.38C2.5 14.719 4.04471 20.2133 11.709 23.4415C11.8011 23.4803 11.9 23.5003 12 23.5003C12.1 23.5003 12.1989 23.4803 12.291 23.4415C19.9553 20.2133 21.5 14.719 21.5 11.38V5.25012C21.5 5.05121 21.421 4.86046 21.2803 4.71981C21.1397 4.57916 20.9489 4.50014 20.75 4.50012C16.2549 4.50012 12.501 1.1925 12.501 1.1925C12.3697 1.07426 12.201 1.00613 12.0244 1.00012ZM12 2.71399C13.0315 3.5433 16.0556 5.66872 20 5.93762V11.38C20 14.2511 18.8967 18.883 12 21.9132C5.10328 18.883 4 14.2511 4 11.38V5.93762C7.94437 5.66872 10.9685 3.5433 12 2.71399ZM12 8.00012C11.4753 8.00012 10.9639 8.16521 10.5382 8.47202C10.1126 8.77882 9.79422 9.21177 9.62829 9.70955C9.46237 10.2073 9.45727 10.7447 9.61372 11.2455C9.77017 11.7464 10.0802 12.1853 10.5 12.5001V15.0001C10.5 15.8286 11.1715 16.5001 12 16.5001C12.8285 16.5001 13.5 15.8286 13.5 15.0001V12.4962C13.9181 12.1809 14.2267 11.7422 14.3822 11.2421C14.5376 10.742 14.5321 10.2057 14.3663 9.70893C14.2006 9.21214 13.883 8.77994 13.4584 8.47334C13.0339 8.16673 12.5237 8.00121 12 8.00012Z" fill="#0D1011"/>
</g>
</svg>
