<svg width="24" height="24" viewBox="0 0 24 24" fill="none" xmlns="http://www.w3.org/2000/svg">
<g id="shield_lock_fill">
<path id="Vector" d="M12.0234 1.00004C11.8307 0.994827 11.6432 1.06254 11.5 1.19274C11.5 1.19274 7.74479 4.50004 3.25 4.50004C2.83594 4.50004 2.5 4.83597 2.5 5.25004V11.3802C2.5 14.7188 4.04427 20.2136 11.7083 23.4401C11.8958 23.5209 12.1042 23.5209 12.2917 23.4401C19.9557 20.2136 21.5 14.7188 21.5 11.3802V5.25004C21.5 4.83597 21.1641 4.50004 20.75 4.50004C16.2552 4.50004 12.5 1.19274 12.5 1.19274C12.3698 1.07295 12.2005 1.00524 12.0234 1.00004ZM12 8.00004C13.3802 8.00004 14.5 9.11983 14.5 10.5C14.5 11.3151 14.1042 12.0313 13.5 12.487V15C13.5 15.8282 12.8281 16.5 12 16.5C11.1719 16.5 10.5 15.8282 10.5 15V12.487C9.89583 12.0313 9.5 11.3151 9.5 10.5C9.5 9.11983 10.6198 8.00004 12 8.00004Z" fill="#0D1011"/>
</g>
</svg>
