<svg width="24" height="24" viewBox="0 0 24 24" fill="none" xmlns="http://www.w3.org/2000/svg">
<g id="Shield_energy_fill">
<path id="Vector" d="M20.25 5C15.7839 5 12.5703 1.76042 12.5391 1.72917C12.3984 1.58333 12.2031 1.5 12 1.5C11.7969 1.5 11.6042 1.58333 11.4635 1.72656C11.4297 1.76042 8.21615 5 3.75 5C3.33594 5 3 5.33594 3 5.75V10.25C3 15.8203 5.92969 19.8776 11.7083 22.3125C11.8021 22.3516 11.901 22.3698 12 22.3698C12.099 22.3698 12.1979 22.3516 12.2917 22.3125C18.0703 19.8776 21 15.8203 21 10.25V5.75C21 5.33594 20.6641 5 20.25 5ZM15.4062 12.0625L12.1745 16.7969C12.0781 16.9271 11.9271 17 11.7708 17C11.7188 17 11.6667 16.9922 11.6146 16.9766C11.4089 16.9089 11.2708 16.7161 11.2708 16.5L11.276 13.1068L8.90104 12.724C8.73177 12.6901 8.59635 12.5729 8.53385 12.4141C8.47135 12.2552 8.49479 12.0755 8.59635 11.9375L11.8229 7.17448C11.8307 7.16146 11.8411 7.15104 11.849 7.14063C11.8776 7.10677 11.9062 7.08073 11.9401 7.05729C12.0104 7.00521 12.0964 6.97135 12.1901 6.96615C12.2031 6.96354 12.2161 6.96354 12.2318 6.96354H12.2396C12.513 6.96615 12.7318 7.1901 12.7318 7.46354C12.7318 7.47656 12.7318 7.48698 12.7292 7.5L12.7266 10.8932L15.1016 11.276C15.2682 11.3099 15.4062 11.4271 15.4661 11.5859C15.5286 11.7448 15.5052 11.9245 15.4062 12.0625Z" fill="#0D1011"/>
</g>
</svg>
