<svg width="24" height="24" viewBox="0 0 24 24" fill="none" xmlns="http://www.w3.org/2000/svg">
<g id="shield_protect_fill">
<path id="Vector" d="M12.0234 1.00004C11.8307 0.994827 11.6432 1.06254 11.5 1.19274C11.5 1.19274 7.74479 4.50004 3.25 4.50004C2.83594 4.50004 2.5 4.83597 2.5 5.25004V11.3802C2.5 14.7188 4.04427 20.2136 11.7083 23.4401C11.8958 23.5209 12.1042 23.5209 12.2917 23.4401C19.9557 20.2136 21.5 14.7188 21.5 11.3802V5.25004C21.5 4.83597 21.1641 4.50004 20.75 4.50004C16.2552 4.50004 12.5 1.19274 12.5 1.19274C12.3698 1.07295 12.2005 1.00524 12.0234 1.00004ZM15.75 9.00004C15.9401 9.00004 16.1328 9.07295 16.2786 9.21879C16.5729 9.51306 16.5729 9.98701 16.2786 10.2813L11.2786 15.2813C11.1328 15.4271 10.9427 15.5 10.75 15.5C10.5573 15.5 10.3672 15.4271 10.2188 15.2813L7.71875 12.7813C7.42708 12.487 7.42708 12.0131 7.71875 11.7188C8.01302 11.4271 8.48698 11.4271 8.78125 11.7188L10.75 13.6901L15.2188 9.21879C15.3646 9.07295 15.5573 9.00004 15.75 9.00004Z" fill="#0D1011"/>
</g>
</svg>
