<svg width="24" height="24" viewBox="0 0 24 24" fill="none" xmlns="http://www.w3.org/2000/svg">
<g id="shield_protect ">
<path id="Vector" d="M12.0234 1.00004C11.8307 0.994827 11.6432 1.06254 11.5 1.19274C11.5 1.19274 7.74479 4.50004 3.25 4.50004C2.83594 4.50004 2.5 4.83597 2.5 5.25004V11.3802C2.5 14.7188 4.04427 20.2136 11.7083 23.4401C11.8958 23.5209 12.1042 23.5209 12.2917 23.4401C19.9557 20.2136 21.5 14.7188 21.5 11.3802V5.25004C21.5 4.83597 21.1641 4.50004 20.75 4.50004C16.2552 4.50004 12.5 1.19274 12.5 1.19274C12.3698 1.07295 12.2005 1.00524 12.0234 1.00004ZM12 2.71358C13.0312 3.54431 16.0547 5.66931 20 5.93754V11.3802C20 14.25 18.8958 18.8828 12 21.9141C5.10417 18.8828 4 14.25 4 11.3802V5.93754C7.94531 5.66931 10.9688 3.54431 12 2.71358ZM15.7344 8.99222C15.5417 9.00004 15.3568 9.08076 15.2188 9.21879L10.75 13.6901L8.78125 11.7188C8.59115 11.5235 8.3125 11.4453 8.04948 11.5131C7.78646 11.5808 7.58073 11.7865 7.51302 12.0495C7.44531 12.3125 7.52344 12.5912 7.71875 12.7813L10.2188 15.2813C10.513 15.573 10.987 15.573 11.2812 15.2813L16.2812 10.2813C16.5026 10.0651 16.5677 9.73441 16.4479 9.45056C16.3281 9.1667 16.0443 8.98441 15.7344 8.99222Z" fill="#0D1011"/>
</g>
</svg>
