<svg width="24" height="24" viewBox="0 0 24 24" fill="none" xmlns="http://www.w3.org/2000/svg">
<g id="shutdown ">
<path id="Vector" d="M11.9883 1.98935C11.7895 1.99245 11.6002 2.07432 11.4617 2.21696C11.3233 2.35959 11.2471 2.55135 11.25 2.75009V10.7501C11.2486 10.8495 11.267 10.9481 11.304 11.0404C11.3411 11.1326 11.3961 11.2165 11.4659 11.2873C11.5357 11.3581 11.6188 11.4143 11.7105 11.4527C11.8022 11.491 11.9006 11.5108 12 11.5108C12.0994 11.5108 12.1978 11.491 12.2895 11.4527C12.3812 11.4143 12.4643 11.3581 12.5341 11.2873C12.6039 11.2165 12.6589 11.1326 12.696 11.0404C12.733 10.9481 12.7514 10.8495 12.75 10.7501V2.75009C12.7514 2.64971 12.7327 2.55006 12.6949 2.45705C12.6571 2.36403 12.6011 2.27955 12.53 2.20861C12.459 2.13767 12.3745 2.0817 12.2814 2.04404C12.1883 2.00638 12.0887 1.98778 11.9883 1.98935ZM15.2549 4.66122C15.08 4.65777 14.9094 4.71553 14.7726 4.82453C14.6358 4.93352 14.5414 5.0869 14.5057 5.25813C14.4701 5.42936 14.4953 5.60768 14.5772 5.76225C14.6591 5.91681 14.7924 6.0379 14.9541 6.10458C17.6256 7.2507 19.5 9.90078 19.5 13.0001C19.5 17.1513 16.1512 20.5001 12 20.5001C7.8488 20.5001 4.5 17.1513 4.5 13.0001C4.5 9.90024 6.37429 7.25073 9.0459 6.10458C9.13644 6.06573 9.21845 6.00942 9.28723 5.93887C9.35601 5.86832 9.41022 5.78492 9.44677 5.69342C9.48331 5.60192 9.50148 5.50412 9.50023 5.40559C9.49898 5.30707 9.47833 5.20976 9.43948 5.11922C9.40062 5.02868 9.3443 4.94668 9.27375 4.8779C9.2032 4.80912 9.1198 4.75491 9.0283 4.71837C8.9368 4.68182 8.83899 4.66366 8.74047 4.66491C8.64195 4.66617 8.54464 4.68682 8.4541 4.72568C5.24471 6.10254 3 9.29495 3 13.0001C3 17.9619 7.0382 22.0001 12 22.0001C16.9618 22.0001 21 17.9619 21 13.0001C21 9.2954 18.7554 6.10256 15.5459 4.72568C15.4542 4.68494 15.3552 4.66302 15.2549 4.66122Z" fill="#0D1011"/>
</g>
</svg>
