<svg width="24" height="24" viewBox="0 0 24 24" fill="none" xmlns="http://www.w3.org/2000/svg">
<g id="single_choice ">
<path id="Vector" d="M5.25 2.5C3.7335 2.5 2.5 3.734 2.5 5.25C2.5 6.766 3.7335 8 5.25 8C6.7665 8 8 6.766 8 5.25C8 3.734 6.7665 2.5 5.25 2.5ZM10.25 4.5C10.1506 4.49859 10.0519 4.51696 9.95972 4.55402C9.86749 4.59108 9.78355 4.6461 9.71277 4.71588C9.642 4.78566 9.58579 4.86882 9.54743 4.96051C9.50907 5.0522 9.48932 5.15061 9.48932 5.25C9.48932 5.34939 9.50907 5.4478 9.54743 5.53949C9.58579 5.63118 9.642 5.71434 9.71277 5.78412C9.78355 5.8539 9.86749 5.90892 9.95972 5.94598C10.0519 5.98304 10.1506 6.00141 10.25 6H20.75C20.8494 6.00141 20.9481 5.98304 21.0403 5.94598C21.1325 5.90892 21.2164 5.8539 21.2872 5.78412C21.358 5.71434 21.4142 5.63118 21.4526 5.53949C21.4909 5.4478 21.5107 5.34939 21.5107 5.25C21.5107 5.15061 21.4909 5.0522 21.4526 4.96051C21.4142 4.86882 21.358 4.78566 21.2872 4.71588C21.2164 4.6461 21.1325 4.59108 21.0403 4.55402C20.9481 4.51696 20.8494 4.49859 20.75 4.5H10.25ZM5.25 9.25C4.39583 9.25 3.66024 9.59732 3.18945 10.127C2.71867 10.6566 2.5 11.3333 2.5 12C2.5 12.6667 2.71867 13.3434 3.18945 13.873C3.66024 14.4027 4.39583 14.75 5.25 14.75C6.10417 14.75 6.83976 14.4027 7.31055 13.873C7.78133 13.3434 8 12.6667 8 12C8 11.3333 7.78133 10.6566 7.31055 10.127C6.83976 9.59732 6.10417 9.25 5.25 9.25ZM5.25 10.75C5.72917 10.75 5.99357 10.9027 6.18945 11.123C6.38533 11.3434 6.5 11.6667 6.5 12C6.5 12.3333 6.38533 12.6566 6.18945 12.877C5.99357 13.0973 5.72917 13.25 5.25 13.25C4.77083 13.25 4.50643 13.0973 4.31055 12.877C4.11467 12.6566 4 12.3333 4 12C4 11.6667 4.11467 11.3434 4.31055 11.123C4.50643 10.9027 4.77083 10.75 5.25 10.75ZM10.25 11.25C10.1506 11.2486 10.0519 11.267 9.95972 11.304C9.86749 11.3411 9.78355 11.3961 9.71277 11.4659C9.642 11.5357 9.58579 11.6188 9.54743 11.7105C9.50907 11.8022 9.48932 11.9006 9.48932 12C9.48932 12.0994 9.50907 12.1978 9.54743 12.2895C9.58579 12.3812 9.642 12.4643 9.71277 12.5341C9.78355 12.6039 9.86749 12.6589 9.95972 12.696C10.0519 12.733 10.1506 12.7514 10.25 12.75H20.75C20.8494 12.7514 20.9481 12.733 21.0403 12.696C21.1325 12.6589 21.2164 12.6039 21.2872 12.5341C21.358 12.4643 21.4142 12.3812 21.4526 12.2895C21.4909 12.1978 21.5107 12.0994 21.5107 12C21.5107 11.9006 21.4909 11.8022 21.4526 11.7105C21.4142 11.6188 21.358 11.5357 21.2872 11.4659C21.2164 11.3961 21.1325 11.3411 21.0403 11.304C20.9481 11.267 20.8494 11.2486 20.75 11.25H10.25ZM5.25 16C4.39583 16 3.66024 16.3473 3.18945 16.877C2.71867 17.4066 2.5 18.0833 2.5 18.75C2.5 19.4167 2.71867 20.0934 3.18945 20.623C3.66024 21.1527 4.39583 21.5 5.25 21.5C6.10417 21.5 6.83976 21.1527 7.31055 20.623C7.78133 20.0934 8 19.4167 8 18.75C8 18.0833 7.78133 17.4066 7.31055 16.877C6.83976 16.3473 6.10417 16 5.25 16ZM5.25 17.5C5.72917 17.5 5.99357 17.6527 6.18945 17.873C6.38533 18.0934 6.5 18.4167 6.5 18.75C6.5 19.0833 6.38533 19.4066 6.18945 19.627C5.99357 19.8473 5.72917 20 5.25 20C4.77083 20 4.50643 19.8473 4.31055 19.627C4.11467 19.4066 4 19.0833 4 18.75C4 18.4167 4.11467 18.0934 4.31055 17.873C4.50643 17.6527 4.77083 17.5 5.25 17.5ZM10.25 18C10.1506 17.9986 10.0519 18.017 9.95972 18.054C9.86749 18.0911 9.78355 18.1461 9.71277 18.2159C9.642 18.2857 9.58579 18.3688 9.54743 18.4605C9.50907 18.5522 9.48932 18.6506 9.48932 18.75C9.48932 18.8494 9.50907 18.9478 9.54743 19.0395C9.58579 19.1312 9.642 19.2143 9.71277 19.2841C9.78355 19.3539 9.86749 19.4089 9.95972 19.446C10.0519 19.483 10.1506 19.5014 10.25 19.5H20.75C20.8494 19.5014 20.9481 19.483 21.0403 19.446C21.1325 19.4089 21.2164 19.3539 21.2872 19.2841C21.358 19.2143 21.4142 19.1312 21.4526 19.0395C21.4909 18.9478 21.5107 18.8494 21.5107 18.75C21.5107 18.6506 21.4909 18.5522 21.4526 18.4605C21.4142 18.3688 21.358 18.2857 21.2872 18.2159C21.2164 18.1461 21.1325 18.0911 21.0403 18.054C20.9481 18.017 20.8494 17.9986 20.75 18H10.25Z" fill="#0D1011"/>
</g>
</svg>
