<svg width="24" height="24" viewBox="0 0 24 24" fill="none" xmlns="http://www.w3.org/2000/svg">
<g id="smartphone_tablet ">
<path id="Vector" d="M5.25 2.5C4.01625 2.5 3 3.51625 3 4.75V15.25C3 16.4838 4.01625 17.5 5.25 17.5H10V16H5.25C4.82675 16 4.5 15.6732 4.5 15.25V4.75C4.5 4.32675 4.82675 4 5.25 4H14.75C15.1732 4 15.5 4.32675 15.5 4.75V5.5H17V4.75C17 3.51625 15.9838 2.5 14.75 2.5H5.25ZM13.25 6.5C12.0162 6.5 11 7.51625 11 8.75V19.25C11 20.4838 12.0162 21.5 13.25 21.5H18.75C19.9838 21.5 21 20.4838 21 19.25V8.75C21 7.51625 19.9838 6.5 18.75 6.5H13.25ZM13.25 8H18.75C19.1733 8 19.5 8.32675 19.5 8.75V19.25C19.5 19.6733 19.1733 20 18.75 20H13.25C12.8268 20 12.5 19.6733 12.5 19.25V8.75C12.5 8.32675 12.8268 8 13.25 8ZM8.75 13C8.336 13 8 13.3355 8 13.75C8 14.1645 8.336 14.5 8.75 14.5H10V13H8.75ZM15.25 17C15.1506 16.9986 15.0519 17.017 14.9597 17.054C14.8675 17.0911 14.7836 17.1461 14.7128 17.2159C14.642 17.2857 14.5858 17.3688 14.5474 17.4605C14.5091 17.5522 14.4893 17.6506 14.4893 17.75C14.4893 17.8494 14.5091 17.9478 14.5474 18.0395C14.5858 18.1312 14.642 18.2143 14.7128 18.2841C14.7836 18.3539 14.8675 18.4089 14.9597 18.446C15.0519 18.483 15.1506 18.5014 15.25 18.5H16.75C16.8494 18.5014 16.9481 18.483 17.0403 18.446C17.1325 18.4089 17.2164 18.3539 17.2872 18.2841C17.358 18.2143 17.4142 18.1312 17.4526 18.0395C17.4909 17.9478 17.5107 17.8494 17.5107 17.75C17.5107 17.6506 17.4909 17.5522 17.4526 17.4605C17.4142 17.3688 17.358 17.2857 17.2872 17.2159C17.2164 17.1461 17.1325 17.0911 17.0403 17.054C16.9481 17.017 16.8494 16.9986 16.75 17H15.25Z" fill="#0D1011"/>
</g>
</svg>
