<svg width="24" height="24" viewBox="0 0 24 24" fill="none" xmlns="http://www.w3.org/2000/svg">
<g id="star_fill">
<path id="Vector" d="M12.0048 2.50003C11.7184 2.49743 11.4553 2.65889 11.3277 2.91409L8.75221 8.06774L2.63503 9.00784C2.35638 9.05211 2.12461 9.24743 2.03607 9.51566C1.95013 9.78649 2.02044 10.0808 2.21836 10.2813L6.45013 14.5131L5.50742 20.6354C5.46576 20.9141 5.58294 21.1953 5.81211 21.3594C6.04388 21.5235 6.34596 21.5469 6.59596 21.4141L11.9996 18.5964L17.4033 21.4141C17.6533 21.5469 17.9553 21.5235 18.1871 21.3594C18.4163 21.1953 18.5335 20.9141 18.4918 20.6354L17.5491 14.5131L21.7809 10.2813C21.9788 10.0808 22.0491 9.78649 21.9632 9.51566C21.8746 9.24743 21.6428 9.05211 21.3642 9.00784L15.247 8.06774L12.6715 2.91409C12.5439 2.66149 12.2861 2.50264 12.0048 2.50003Z" fill="#0D1011"/>
</g>
</svg>
