<svg width="24" height="24" viewBox="0 0 24 24" fill="none" xmlns="http://www.w3.org/2000/svg">
<g id="Stopwatch ">
<path id="Vector" d="M9.25 1.50014C8.97917 1.49493 8.72917 1.64076 8.59375 1.86993C8.45313 2.1043 8.45313 2.39597 8.59375 2.63034C8.72917 2.85951 8.97917 3.00534 9.25 3.00014H14.75C15.0208 3.00534 15.2708 2.85951 15.4063 2.63034C15.5469 2.39597 15.5469 2.1043 15.4063 1.86993C15.2708 1.64076 15.0208 1.49493 14.75 1.50014H9.25ZM19.0573 3.48972C18.7552 3.49493 18.4792 3.68764 18.3698 3.96888C18.2604 4.25534 18.3333 4.57826 18.5521 4.78659L19.7292 5.92722C20.026 6.21888 20.5 6.21368 20.7865 5.9168C21.0781 5.61993 21.0729 5.14076 20.776 4.8543L19.599 3.71368C19.4583 3.56784 19.2604 3.48972 19.0573 3.48972ZM12 4.00014C7.03646 4.00014 3 8.03659 3 13.0001C3 17.9637 7.03646 22.0001 12 22.0001C16.9635 22.0001 21 17.9637 21 13.0001C21 8.03659 16.9635 4.00014 12 4.00014ZM12 5.50014C16.151 5.50014 19.5 8.84909 19.5 13.0001C19.5 17.1512 16.151 20.5001 12 20.5001C7.84896 20.5001 4.5 17.1512 4.5 13.0001C4.5 8.84909 7.84896 5.50014 12 5.50014ZM11.9896 6.98972C11.5729 6.99493 11.2448 7.33868 11.25 7.75013V13.2501C11.2448 13.521 11.3906 13.771 11.6198 13.9064C11.8542 14.047 12.1458 14.047 12.3802 13.9064C12.6094 13.771 12.7552 13.521 12.75 13.2501V7.75013C12.7552 7.54701 12.6719 7.3543 12.5313 7.20847C12.3854 7.06784 12.1927 6.98451 11.9896 6.98972Z" fill="#0D1011"/>
</g>
</svg>
