<svg width="24" height="24" viewBox="0 0 24 24" fill="none" xmlns="http://www.w3.org/2000/svg">
<g id="store">
<path id="Vector" d="M4.74974 2.5C3.79226 2.5 2.99974 3.29252 2.99974 4.25V5.60547L2.05345 7.97168C2.01167 8.07635 1.99401 8.18908 2.00179 8.30151C2.00957 8.41394 2.04258 8.52318 2.09837 8.62109C2.09837 8.62142 2.09837 8.62174 2.09837 8.62207C2.21251 9.41954 2.5318 10.1514 2.99974 10.7607V21.25C2.99976 21.4489 3.07878 21.6397 3.21943 21.7803C3.36008 21.921 3.55083 22 3.74974 22H20.2497C20.4486 22 20.6394 21.921 20.78 21.7803C20.9207 21.6397 20.9997 21.4489 20.9997 21.25V10.7627C21.4695 10.1516 21.7895 9.41648 21.9031 8.61621C21.9578 8.51877 21.99 8.41032 21.9975 8.29881C22.0049 8.18729 21.9873 8.07553 21.946 7.97168L20.9997 5.60547V4.25C20.9997 3.29252 20.2072 2.5 19.2497 2.5H4.74974ZM4.74974 4H19.2497C19.3973 4 19.4997 4.10248 19.4997 4.25V5.75C19.4998 5.84534 19.518 5.9398 19.5534 6.02832L20.4626 8.30176C20.3081 9.81774 19.0602 11 17.4997 11C16.6661 11 15.9201 10.6648 15.3767 10.1201C15.2408 9.98395 15.0578 9.90518 14.8656 9.90009C14.6733 9.895 14.4864 9.96398 14.3435 10.0928C13.7198 10.6565 12.9052 11 11.9997 11C11.0943 11 10.2797 10.6565 9.65599 10.0928C9.51311 9.96398 9.32622 9.895 9.13393 9.90009C8.94164 9.90518 8.75865 9.98395 8.62279 10.1201C8.07934 10.6648 7.33339 11 6.49974 11C4.93866 11 3.69092 9.81767 3.53685 8.30176L4.44603 6.02832C4.48146 5.9398 4.49969 5.84534 4.49974 5.75V4.25C4.49974 4.10248 4.60222 4 4.74974 4ZM14.7497 5C14.5508 5 14.3601 5.07902 14.2194 5.21967C14.0788 5.36032 13.9997 5.55109 13.9997 5.75C13.9997 5.94891 14.0788 6.13968 14.2194 6.28033C14.3601 6.42098 14.5508 6.5 14.7497 6.5C14.9487 6.5 15.1394 6.42098 15.2801 6.28033C15.4207 6.13968 15.4997 5.94891 15.4997 5.75C15.4997 5.55109 15.4207 5.36032 15.2801 5.21967C15.1394 5.07902 14.9487 5 14.7497 5ZM17.2497 5C17.0508 5 16.8601 5.07902 16.7194 5.21967C16.5788 5.36032 16.4997 5.55109 16.4997 5.75C16.4997 5.94891 16.5788 6.13968 16.7194 6.28033C16.8601 6.42098 17.0508 6.5 17.2497 6.5C17.4487 6.5 17.6394 6.42098 17.7801 6.28033C17.9207 6.13968 17.9997 5.94891 17.9997 5.75C17.9997 5.55109 17.9207 5.36032 17.7801 5.21967C17.6394 5.07902 17.4487 5 17.2497 5ZM9.16771 11.5273C9.98012 12.1005 10.9309 12.5 11.9997 12.5C13.0686 12.5 14.0194 12.1005 14.8318 11.5273C15.5871 12.099 16.4837 12.5 17.4997 12.5C18.2224 12.5 18.9004 12.3245 19.4997 12.0166V20.5H17.4997V14.75C17.4997 14.5511 17.4207 14.3603 17.28 14.2197C17.1394 14.079 16.9486 14 16.7497 14H11.2497C11.0508 14 10.8601 14.079 10.7194 14.2197C10.5788 14.3603 10.4998 14.5511 10.4997 14.75V20.5H4.49974V12.0166C5.09904 12.3246 5.77688 12.5 6.49974 12.5C7.51575 12.5 8.41241 12.099 9.16771 11.5273ZM11.9997 15.5H15.9997V20.5H11.9997V15.5Z" fill="#0D1011"/>
</g>
</svg>
