<svg width="24" height="24" viewBox="0 0 24 24" fill="none" xmlns="http://www.w3.org/2000/svg">
<g id="subtract ">
<path id="Vector" d="M3.25287 11.2501C3.15349 11.2487 3.05481 11.267 2.96259 11.3041C2.87036 11.3412 2.78642 11.3962 2.71564 11.466C2.64487 11.5357 2.58866 11.6189 2.5503 11.7106C2.51194 11.8023 2.49219 11.9007 2.49219 12.0001C2.49219 12.0995 2.51194 12.1979 2.5503 12.2896C2.58866 12.3813 2.64487 12.4644 2.71564 12.5342C2.78642 12.604 2.87036 12.659 2.96259 12.6961C3.05481 12.7331 3.15349 12.7515 3.25287 12.7501H20.7529C20.8523 12.7515 20.9509 12.7331 21.0432 12.6961C21.1354 12.659 21.2193 12.604 21.2901 12.5342C21.3609 12.4644 21.4171 12.3813 21.4554 12.2896C21.4938 12.1979 21.5135 12.0995 21.5135 12.0001C21.5135 11.9007 21.4938 11.8023 21.4554 11.7106C21.4171 11.6189 21.3609 11.5357 21.2901 11.466C21.2193 11.3962 21.1354 11.3412 21.0432 11.3041C20.9509 11.267 20.8523 11.2487 20.7529 11.2501H3.25287Z" fill="#0D1011"/>
</g>
</svg>
