<svg width="24" height="24" viewBox="0 0 24 24" fill="none" xmlns="http://www.w3.org/2000/svg">
<g id="success">
<path id="Vector" d="M12 2C6.48698 2 2 6.48698 2 12C2 17.513 6.48698 22 12 22C17.513 22 22 17.513 22 12C22 6.48698 17.513 2 12 2ZM12 3.5C16.7031 3.5 20.5 7.29688 20.5 12C20.5 16.7031 16.7031 20.5 12 20.5C7.29688 20.5 3.5 16.7031 3.5 12C3.5 7.29688 7.29688 3.5 12 3.5ZM15.7344 8.99219C15.5417 9 15.3568 9.08073 15.2188 9.21875L10.75 13.6901L8.78125 11.7188C8.59115 11.5234 8.3125 11.4453 8.04948 11.513C7.78646 11.5807 7.58073 11.7865 7.51302 12.0495C7.44531 12.3125 7.52344 12.5911 7.71875 12.7812L10.2188 15.2812C10.513 15.5729 10.987 15.5729 11.2812 15.2812L16.2812 10.2812C16.5026 10.0651 16.5677 9.73438 16.4479 9.45052C16.3281 9.16667 16.0443 8.98438 15.7344 8.99219Z" fill="#0D1011"/>
</g>
</svg>
