<svg width="24" height="24" viewBox="0 0 24 24" fill="none" xmlns="http://www.w3.org/2000/svg">
<g id="supervisor">
<path id="Vector" d="M12 2C9.2474 2 7 4.2474 7 7C7 9.7526 9.2474 12 12 12C14.7526 12 17 9.7526 17 7C17 4.2474 14.7526 2 12 2ZM12 3.5C13.9427 3.5 15.5 5.05729 15.5 7C15.5 8.94271 13.9427 10.5 12 10.5C10.0573 10.5 8.5 8.94271 8.5 7C8.5 5.05729 10.0573 3.5 12 3.5ZM5.98958 14C4.89844 14 4 14.8984 4 15.9896V16.75C4 18.5521 5.14063 19.9453 6.65365 20.7812C8.16667 21.6172 10.0833 22 12 22C13.9167 22 15.8333 21.6172 17.3464 20.7812C18.8594 19.9453 20 18.5521 20 16.75V15.9896C20 14.8984 19.1016 14 18.0104 14H5.98958ZM5.98958 15.5H18.0104C18.2891 15.5 18.5 15.7109 18.5 15.9896V16.75C18.5 17.9479 17.8281 18.8047 16.6224 19.4688C15.4167 20.1328 13.7083 20.5 12 20.5C10.2917 20.5 8.58333 20.1328 7.3776 19.4688C6.17188 18.8047 5.5 17.9479 5.5 16.75V15.9896C5.5 15.7109 5.71094 15.5 5.98958 15.5ZM13.75 16.5C13.4792 16.4974 13.2292 16.638 13.0911 16.8724C12.9557 17.1068 12.9557 17.3932 13.0911 17.6276C13.2292 17.862 13.4792 18.0026 13.75 18H15.75C16.0208 18.0026 16.2708 17.862 16.4089 17.6276C16.5443 17.3932 16.5443 17.1068 16.4089 16.8724C16.2708 16.638 16.0208 16.4974 15.75 16.5H13.75Z" fill="#0D1011"/>
</g>
</svg>
