<svg width="24" height="24" viewBox="0 0 24 24" fill="none" xmlns="http://www.w3.org/2000/svg">
<g id="supervisor_fill">
<path id="Vector" d="M12 12C9.24219 12 7 9.75781 7 7C7 4.24219 9.24219 2 12 2C14.7578 2 17 4.24219 17 7C17 9.75781 14.7578 12 12 12ZM18.0104 14H5.98958C4.89323 14 4 14.8932 4 15.9896V16.75C4 18.4062 4.94271 19.8385 6.65365 20.7812C8.07813 21.5677 9.97656 22 12 22C15.8516 22 20 20.3568 20 16.75V15.9896C20 14.8932 19.1068 14 18.0104 14ZM16.25 18H14.25C13.8359 18 13.5 17.6641 13.5 17.25C13.5 16.8359 13.8359 16.5 14.25 16.5H16.25C16.6641 16.5 17 16.8359 17 17.25C17 17.6641 16.6641 18 16.25 18Z" fill="#0D1011"/>
</g>
</svg>
