<svg width="24" height="24" viewBox="0 0 24 24" fill="none" xmlns="http://www.w3.org/2000/svg">
<g id="synchronize ">
<path id="Vector" d="M12.9854 0.992987C12.7906 0.998663 12.6056 1.07992 12.4697 1.21955L10.5342 3.1551C10.4809 3.19576 10.4332 3.24338 10.3926 3.2967L10.2197 3.46955C10.0791 3.61021 10.0001 3.80094 10.0001 3.99982C10.0001 4.1987 10.0791 4.38944 10.2197 4.5301L12.4697 6.7801C12.5388 6.85207 12.6216 6.90954 12.7132 6.94913C12.8048 6.98871 12.9034 7.00963 13.0032 7.01064C13.1029 7.01166 13.2019 6.99275 13.2943 6.95503C13.3867 6.91732 13.4706 6.86155 13.5412 6.79099C13.6117 6.72043 13.6675 6.6365 13.7052 6.54412C13.7429 6.45174 13.7618 6.35276 13.7608 6.25298C13.7598 6.1532 13.7389 6.05463 13.6993 5.96303C13.6597 5.87143 13.6023 5.78866 13.5303 5.71955L12.3271 4.51642C16.3246 4.68811 19.5 7.95906 19.5 11.9998C19.5 14.5378 18.2416 16.767 16.3174 18.1258C16.2369 18.1826 16.1684 18.2547 16.1158 18.338C16.0632 18.4213 16.0275 18.5141 16.0107 18.6112C15.994 18.7083 15.9965 18.8077 16.0182 18.9038C16.0399 18.9999 16.0803 19.0908 16.1371 19.1713C16.1939 19.2517 16.2661 19.3202 16.3494 19.3729C16.4326 19.4255 16.5255 19.4611 16.6226 19.4779C16.7197 19.4946 16.8191 19.492 16.9152 19.4703C17.0113 19.4486 17.1021 19.4082 17.1826 19.3514C19.4884 17.7232 21 15.0348 21 11.9998C21 7.29837 17.373 3.43229 12.7715 3.03889L13.5303 2.2801C13.6385 2.17472 13.7123 2.03913 13.7422 1.89108C13.7721 1.74303 13.7566 1.5894 13.6977 1.45032C13.6388 1.31124 13.5393 1.19317 13.4122 1.11157C13.2851 1.02997 13.1363 0.988639 12.9854 0.992987ZM7.28906 4.50568C7.12027 4.49873 6.95407 4.54897 6.81738 4.64826C4.51161 6.27647 3 8.9648 3 11.9998C3 16.7013 6.62702 20.5674 11.2285 20.9608L10.4697 21.7195C10.3977 21.7887 10.3403 21.8714 10.3007 21.963C10.2611 22.0546 10.2402 22.1532 10.2392 22.253C10.2382 22.3528 10.2571 22.4517 10.2948 22.5441C10.3325 22.6365 10.3883 22.7204 10.4588 22.791C10.5294 22.8615 10.6133 22.9173 10.7057 22.955C10.7981 22.9928 10.8971 23.0117 10.9968 23.0106C11.0966 23.0096 11.1952 22.9887 11.2868 22.9491C11.3784 22.9095 11.4612 22.8521 11.5303 22.7801L13.4658 20.8445C13.5191 20.8039 13.5668 20.7563 13.6074 20.7029L13.7803 20.5301C13.9209 20.3894 13.9999 20.1987 13.9999 19.9998C13.9999 19.8009 13.9209 19.6102 13.7803 19.4695L11.5303 17.2195C11.4604 17.1476 11.3767 17.0903 11.2843 17.0512C11.1919 17.0122 11.0925 16.992 10.9922 16.992C10.8429 16.992 10.6971 17.0366 10.5733 17.12C10.4495 17.2034 10.3534 17.3218 10.2973 17.4602C10.2412 17.5985 10.2276 17.7504 10.2584 17.8964C10.2891 18.0425 10.3627 18.1761 10.4697 18.2801L11.6729 19.4832C7.6754 19.3115 4.5 16.0406 4.5 11.9998C4.5 9.46184 5.75839 7.23263 7.68262 5.87385C7.81258 5.78477 7.91119 5.65704 7.96447 5.50876C8.01774 5.36049 8.02297 5.1992 7.97942 5.04778C7.93586 4.89637 7.84574 4.76251 7.72182 4.66521C7.5979 4.5679 7.44649 4.51209 7.28906 4.50568Z" fill="#0D1011"/>
</g>
</svg>
