<svg width="24" height="24" viewBox="0 0 24 24" fill="none" xmlns="http://www.w3.org/2000/svg">
<g id="team_fill">
<path id="Vector" d="M8 2.5C6.07031 2.5 4.5 4.07031 4.5 6C4.5 7.92969 6.07031 9.5 8 9.5C9.92969 9.5 11.5 7.92969 11.5 6C11.5 4.07031 9.92969 2.5 8 2.5ZM16 2.5C14.0703 2.5 12.5 4.07031 12.5 6C12.5 7.92969 14.0703 9.5 16 9.5C18.3542 9.5 20.9974 6.82552 21.2891 6.51823C21.5703 6.22917 21.5703 5.77083 21.2891 5.48177C20.9974 5.17448 18.3542 2.5 16 2.5ZM4.75 10.5C3.78385 10.5 3 11.2839 3 12.25V17C3 19.7578 5.24219 22 8 22C9.27083 22 10.4297 21.5208 11.3125 20.7344C10.4948 19.7083 10 18.4115 10 17V12.25C10 11.5859 10.237 10.9766 10.6302 10.5H4.75ZM12.75 10.5C11.7839 10.5 11 11.2839 11 12.25V17C11 19.7578 13.2422 22 16 22C18.7578 22 21 19.7578 21 17V12.25C21 11.2839 20.2161 10.5 19.25 10.5H12.75Z" fill="#0D1011"/>
</g>
</svg>
