<svg width="24" height="24" viewBox="0 0 24 24" fill="none" xmlns="http://www.w3.org/2000/svg">
<g id="TearOff Calendar ">
<path id="Vector" d="M6.25 3C4.46354 3 3 4.46354 3 6.25V17.75C3 19.5365 4.46354 21 6.25 21H17.75C19.5365 21 21 19.5365 21 17.75V6.25C21 4.46354 19.5365 3 17.75 3H6.25ZM6.25 4.5H17.75C18.724 4.5 19.5 5.27604 19.5 6.25V7H4.5V6.25C4.5 5.27604 5.27604 4.5 6.25 4.5ZM4.5 8.5H19.5V17.75C19.5 18.724 18.724 19.5 17.75 19.5H6.25C5.27604 19.5 4.5 18.724 4.5 17.75V8.5ZM13.75 12C12.7917 12 12 12.7917 12 13.75V15.75C12 16.7083 12.7917 17.5 13.75 17.5H15.75C16.7083 17.5 17.5 16.7083 17.5 15.75V13.75C17.5 12.7917 16.7083 12 15.75 12H13.75ZM13.75 13.5H15.75C15.8958 13.5 16 13.6042 16 13.75V15.75C16 15.8958 15.8958 16 15.75 16H13.75C13.6042 16 13.5 15.8958 13.5 15.75V13.75C13.5 13.6042 13.6042 13.5 13.75 13.5Z" fill="#0D1011"/>
</g>
</svg>
