<svg width="24" height="24" viewBox="0 0 24 24" fill="none" xmlns="http://www.w3.org/2000/svg">
<g id="tick">
<path id="Vector" d="M21.7306 4.49323C21.5358 4.49891 21.3509 4.58016 21.215 4.71979L8.24523 17.6895L2.77551 12.2198C2.7064 12.1478 2.62362 12.0903 2.53203 12.0508C2.44043 12.0112 2.34186 11.9903 2.24208 11.9892C2.1423 11.9882 2.04332 12.0071 1.95094 12.0449C1.85855 12.0826 1.77463 12.1383 1.70407 12.2089C1.63351 12.2795 1.57774 12.3634 1.54002 12.4558C1.5023 12.5482 1.4834 12.6471 1.48441 12.7469C1.48543 12.8467 1.50634 12.9453 1.54593 13.0369C1.58552 13.1285 1.64298 13.2112 1.71496 13.2803L7.71496 19.2803C7.85562 19.4209 8.04636 19.4999 8.24523 19.4999C8.44411 19.4999 8.63485 19.4209 8.77551 19.2803L22.2755 5.78034C22.3837 5.67496 22.4576 5.53938 22.4874 5.39132C22.5173 5.24327 22.5018 5.08965 22.4429 4.95056C22.384 4.81148 22.2845 4.69341 22.1574 4.61181C22.0303 4.53021 21.8816 4.48888 21.7306 4.49323Z" fill="#0D1011"/>
</g>
</svg>
