<svg width="24" height="24" viewBox="0 0 24 24" fill="none" xmlns="http://www.w3.org/2000/svg">
<g id="TikTok ">
<path id="Vector" d="M5.75 3C4.23958 3 3 4.23958 3 5.75V18.25C3 19.7604 4.23958 21 5.75 21H18.25C19.7604 21 21 19.7604 21 18.25V5.75C21 4.23958 19.7604 3 18.25 3H5.75ZM5.75 4.5H18.25C18.9479 4.5 19.5 5.05208 19.5 5.75V18.25C19.5 18.9479 18.9479 19.5 18.25 19.5H5.75C5.05208 19.5 4.5 18.9479 4.5 18.25V5.75C4.5 5.05208 5.05208 4.5 5.75 4.5ZM13.2187 6.51042C12.8229 6.53125 12.5052 6.85417 12.5 7.25V14C12.5 15.1146 11.6146 16 10.5 16C9.38542 16 8.5 15.1146 8.5 14C8.5 12.8854 9.38542 12 10.5 12C10.7708 12.0052 11.0208 11.8594 11.1563 11.6302C11.2969 11.3958 11.2969 11.1042 11.1563 10.8698C11.0208 10.6406 10.7708 10.4948 10.5 10.5C8.57813 10.5 7 12.0781 7 14C7 15.9219 8.57813 17.5 10.5 17.5C12.4219 17.5 14 15.9219 14 14V10.1667C14.6354 10.6563 15.3906 11 16.25 11C16.5208 11.0052 16.7708 10.8594 16.9063 10.6302C17.0469 10.3958 17.0469 10.1042 16.9063 9.86979C16.7708 9.64063 16.5208 9.49479 16.25 9.5C15 9.5 14 8.5 14 7.25C13.9948 7.04688 13.9115 6.85417 13.7656 6.71354C13.6198 6.57813 13.4219 6.50521 13.2187 6.51042Z" fill="#0D1011"/>
</g>
</svg>
