<svg width="24" height="24" viewBox="0 0 24 24" fill="none" xmlns="http://www.w3.org/2000/svg">
<g id="tip">
<path id="Vector" d="M10.882 2.50496C10.1433 2.50496 9.4041 2.78454 8.84494 3.34383C7.72552 4.46258 7.72552 6.30027 8.84494 7.41902V7.42L12.7209 11.2813C12.8615 11.4213 13.0518 11.4999 13.2502 11.4999C13.4486 11.4999 13.6389 11.4213 13.7795 11.2813L17.6555 7.42V7.41902C18.7746 6.3006 18.7749 4.46365 17.6565 3.3448C16.5379 2.22491 14.6998 2.22491 13.5813 3.3448L13.2502 3.64949L12.9192 3.3448C12.3599 2.78486 11.6212 2.50496 10.882 2.50496ZM15.6194 3.99519C15.9713 3.99519 16.3227 4.13182 16.5949 4.40437L16.5959 4.40535C17.1413 4.95037 17.1408 5.81221 16.5959 6.3575L13.2502 9.69051L9.90451 6.35848V6.3575C9.35963 5.81221 9.35916 4.95037 9.90451 4.40535L9.90549 4.40437C10.1777 4.13182 10.53 3.99617 10.882 3.99617C11.2341 3.99617 11.5854 4.13182 11.8576 4.40437C11.8647 4.41135 11.8718 4.41819 11.8791 4.42488L12.7414 5.22176C12.88 5.34967 13.0616 5.4207 13.2502 5.4207C13.4388 5.4207 13.6204 5.34967 13.759 5.22176L14.6213 4.42488C14.6286 4.41819 14.6358 4.41135 14.6428 4.40437C14.915 4.13182 15.2674 3.99519 15.6194 3.99519ZM20.8069 11.0098C20.2468 11.0147 19.7148 11.2367 19.2424 11.588C18.7353 11.9647 17.2094 13.1041 15.8889 14.0899C15.6025 13.1758 14.7532 12.5001 13.7502 12.5001H11.5539C10.1483 12.5001 9.49298 12.3862 8.9299 12.2667C8.36682 12.1472 7.8236 12.0001 6.9133 12.0001C4.97091 12.0001 3.50638 13.2466 2.54709 14.3956C1.5878 15.5446 1.0676 16.6925 1.0676 16.6925C1.02672 16.7821 1.00391 16.8789 1.00046 16.9774C0.99701 17.0759 1.01299 17.174 1.04749 17.2663C1.08199 17.3586 1.13433 17.4432 1.20152 17.5153C1.26872 17.5873 1.34945 17.6454 1.4391 17.6863C1.52876 17.7271 1.62559 17.7499 1.72405 17.7533C1.82252 17.7568 1.92069 17.7408 2.01297 17.7062C2.10525 17.6717 2.18982 17.6194 2.26186 17.5522C2.3339 17.4849 2.392 17.4042 2.43283 17.3145C2.43283 17.3145 2.88237 16.335 3.69846 15.3575C4.51454 14.38 5.63019 13.5001 6.9133 13.5001C7.67399 13.5001 8.00358 13.603 8.61838 13.7335C9.23317 13.864 10.062 14.0001 11.5539 14.0001H13.7502C14.1735 14.0001 14.5002 14.3268 14.5002 14.7501C14.5002 14.9848 14.3973 15.1872 14.2356 15.3233L14.2151 15.3389C14.2006 15.3501 14.1866 15.3619 14.1731 15.3741L14.1721 15.3751C14.0529 15.4544 13.9084 15.5001 13.7502 15.5001H10.2502C10.1508 15.4987 10.0522 15.517 9.95993 15.5541C9.8677 15.5912 9.78376 15.6462 9.71299 15.716C9.64221 15.7857 9.58601 15.8689 9.54765 15.9606C9.50928 16.0523 9.48953 16.1507 9.48953 16.2501C9.48953 16.3495 9.50928 16.4479 9.54765 16.5396C9.58601 16.6313 9.64221 16.7144 9.71299 16.7842C9.78376 16.854 9.8677 16.909 9.95993 16.9461C10.0522 16.9831 10.1508 17.0015 10.2502 17.0001H13.7502C14.2205 17.0001 14.6579 16.8508 15.0207 16.5997L15.0227 16.5987C15.054 16.5817 15.084 16.5624 15.1125 16.5411C15.1125 16.5411 19.3882 13.3483 20.1369 12.7921V12.7911C20.419 12.5813 20.6551 12.5113 20.8205 12.5098C20.9859 12.5084 21.1094 12.5485 21.2805 12.7198C21.5757 13.0147 21.5739 13.4676 21.2863 13.7667C18.6088 16.0182 16.9244 17.5185 15.8117 18.3975C14.6852 19.2875 14.2127 19.5001 13.7502 19.5001C11.9242 19.5001 9.90055 19.0001 7.75021 19.0001C6.50021 19.0001 5.6216 19.6719 5.1506 20.2999C4.6796 20.9279 4.52267 21.5684 4.52267 21.5684C4.4962 21.6648 4.48927 21.7656 4.50228 21.8647C4.51529 21.9638 4.54799 22.0593 4.59845 22.1456C4.64891 22.2319 4.71612 22.3073 4.79611 22.3673C4.87611 22.4272 4.96729 22.4706 5.06428 22.4948C5.16128 22.519 5.26214 22.5236 5.36093 22.5083C5.45973 22.4929 5.55446 22.458 5.63956 22.4056C5.72467 22.3531 5.79843 22.2842 5.8565 22.2028C5.91458 22.1214 5.9558 22.0293 5.97775 21.9317C5.97775 21.9317 6.07082 21.5723 6.34982 21.2003C6.62882 20.8283 7.00021 20.5001 7.75021 20.5001C9.65388 20.5001 11.6683 21.0001 13.7502 21.0001C14.7012 21.0001 15.5426 20.5223 16.7414 19.5753C17.9251 18.6402 19.5879 17.155 22.2492 14.9171C22.2818 14.8942 22.3125 14.8687 22.341 14.8409C22.3445 14.8374 22.3454 14.8326 22.3488 14.8292L22.3508 14.8311L22.3772 14.8038C22.4503 14.7275 22.5066 14.6367 22.5422 14.5372C23.1655 13.661 23.1247 12.4422 22.341 11.6593C21.9267 11.2445 21.367 11.005 20.8069 11.0098Z" fill="#0D1011"/>
</g>
</svg>
