<svg width="24" height="24" viewBox="0 0 24 24" fill="none" xmlns="http://www.w3.org/2000/svg">
<g id="Today ">
<path id="Vector" d="M6.25 3C4.46354 3 3 4.46354 3 6.25V17.75C3 19.5365 4.46354 21 6.25 21H17.75C19.5365 21 21 19.5365 21 17.75V6.25C21 4.46354 19.5365 3 17.75 3H6.25ZM6.25 4.5H17.75C18.724 4.5 19.5 5.27604 19.5 6.25V7H4.5V6.25C4.5 5.27604 5.27604 4.5 6.25 4.5ZM4.5 8.5H19.5V17.75C19.5 18.724 18.724 19.5 17.75 19.5H6.25C5.27604 19.5 4.5 18.724 4.5 17.75V8.5ZM15.7708 10.4896C15.5521 10.4896 15.3385 10.5833 15.1927 10.75L11.2187 15.1615L9.28125 13.2187C9.09375 13.026 8.8125 12.9427 8.55208 13.0156C8.28646 13.0833 8.08333 13.2865 8.01563 13.5521C7.94271 13.8125 8.02604 14.0938 8.21875 14.2813L10.7187 16.7813C10.8646 16.9271 11.0625 17.0052 11.2708 17C11.474 16.9948 11.6719 16.9063 11.8073 16.75L16.3073 11.75C16.5104 11.5365 16.5625 11.2188 16.4479 10.9479C16.3333 10.6771 16.0677 10.4948 15.7708 10.4896Z" fill="#0D1011"/>
</g>
</svg>
