<svg width="24" height="24" viewBox="0 0 24 24" fill="none" xmlns="http://www.w3.org/2000/svg">
<g id="trash ">
<path id="Vector" d="M12.0029 2C10.2487 2 8.78807 3.31072 8.54291 5H5.12201C5.07943 4.99271 5.0363 4.98912 4.9931 4.98926C4.95578 4.99006 4.91857 4.99365 4.88178 5H3.25287C3.15349 4.99859 3.05481 5.01696 2.96259 5.05402C2.87036 5.09108 2.78642 5.1461 2.71564 5.21588C2.64487 5.28566 2.58866 5.36882 2.5503 5.46051C2.51194 5.5522 2.49219 5.65061 2.49219 5.75C2.49219 5.84939 2.51194 5.9478 2.5503 6.03949C2.58866 6.13118 2.64487 6.21434 2.71564 6.28412C2.78642 6.3539 2.87036 6.40892 2.96259 6.44598C3.05481 6.48304 3.15349 6.50141 3.25287 6.5H4.32221L5.58099 19.5146C5.71653 20.918 6.90876 22 8.3183 22H15.6865C17.0961 22 18.2883 20.9181 18.4238 19.5146L19.6835 6.5H20.7529C20.8523 6.50141 20.9509 6.48304 21.0432 6.44598C21.1354 6.40892 21.2193 6.3539 21.2901 6.28412C21.3609 6.21434 21.4171 6.13118 21.4554 6.03949C21.4938 5.9478 21.5135 5.84939 21.5135 5.75C21.5135 5.65061 21.4938 5.5522 21.4554 5.46051C21.4171 5.36882 21.3609 5.28566 21.2901 5.21588C21.2193 5.1461 21.1354 5.09108 21.0432 5.05402C20.9509 5.01696 20.8523 4.99859 20.7529 5H19.1249C19.0454 4.98709 18.9643 4.98709 18.8847 5H15.4628C15.2177 3.31072 13.757 2 12.0029 2ZM12.0029 3.5C12.9424 3.5 13.7133 4.13408 13.9335 5H10.0722C10.2925 4.13408 11.0633 3.5 12.0029 3.5ZM5.82806 6.5H18.1767L16.9306 19.3701C16.8681 20.0177 16.3369 20.5 15.6865 20.5H8.3183C7.66884 20.5 7.13662 20.0168 7.07416 19.3701L5.82806 6.5ZM10.2412 8.98926C10.0424 8.99236 9.85302 9.07423 9.7146 9.21686C9.57617 9.3595 9.50002 9.55125 9.50287 9.75V17.25C9.50146 17.3494 9.51983 17.4481 9.55689 17.5403C9.59395 17.6325 9.64897 17.7164 9.71875 17.7872C9.78853 17.858 9.87169 17.9142 9.96338 17.9526C10.0551 17.9909 10.1535 18.0107 10.2529 18.0107C10.3523 18.0107 10.4507 17.9909 10.5424 17.9526C10.6341 17.9142 10.7172 17.858 10.787 17.7872C10.8568 17.7164 10.9118 17.6325 10.9489 17.5403C10.9859 17.4481 11.0043 17.3494 11.0029 17.25V9.75C11.0043 9.64962 10.9856 9.54997 10.9478 9.45695C10.91 9.36394 10.8539 9.27946 10.7829 9.20852C10.7119 9.13758 10.6273 9.08161 10.5343 9.04395C10.4412 9.00629 10.3415 8.98769 10.2412 8.98926ZM13.7412 8.98926C13.5424 8.99236 13.353 9.07423 13.2146 9.21686C13.0762 9.3595 13 9.55125 13.0029 9.75V17.25C13.0015 17.3494 13.0198 17.4481 13.0569 17.5403C13.0939 17.6325 13.149 17.7164 13.2188 17.7872C13.2885 17.858 13.3717 17.9142 13.4634 17.9526C13.5551 17.9909 13.6535 18.0107 13.7529 18.0107C13.8523 18.0107 13.9507 17.9909 14.0424 17.9526C14.1341 17.9142 14.2172 17.858 14.287 17.7872C14.3568 17.7164 14.4118 17.6325 14.4489 17.5403C14.4859 17.4481 14.5043 17.3494 14.5029 17.25V9.75C14.5043 9.64962 14.4856 9.54997 14.4478 9.45695C14.41 9.36394 14.3539 9.27946 14.2829 9.20852C14.2119 9.13758 14.1273 9.08161 14.0343 9.04395C13.9412 9.00629 13.8415 8.98769 13.7412 8.98926Z" fill="#0D1011"/>
</g>
</svg>
