<svg width="24" height="24" viewBox="0 0 24 24" fill="none" xmlns="http://www.w3.org/2000/svg">
<g id="tune ">
<path id="Vector" d="M16.2529 3C15.3987 3 14.6631 3.34732 14.1923 3.87695C13.9002 4.2056 13.7368 4.59556 13.6308 5H2.75287C2.65349 4.99859 2.55481 5.01696 2.46259 5.05402C2.37036 5.09108 2.28642 5.1461 2.21564 5.21588C2.14487 5.28566 2.08866 5.36882 2.0503 5.46051C2.01194 5.5522 1.99219 5.65061 1.99219 5.75C1.99219 5.84939 2.01194 5.9478 2.0503 6.03949C2.08866 6.13118 2.14487 6.21434 2.21564 6.28412C2.28642 6.3539 2.37036 6.40892 2.46259 6.44598C2.55481 6.48304 2.65349 6.50141 2.75287 6.5H13.6308C13.7368 6.90444 13.9002 7.2944 14.1923 7.62305C14.6631 8.15268 15.3987 8.5 16.2529 8.5C17.107 8.5 17.8426 8.15268 18.3134 7.62305C18.6055 7.2944 18.769 6.90444 18.8749 6.5H21.2529C21.3523 6.50141 21.4509 6.48304 21.5432 6.44598C21.6354 6.40892 21.7193 6.3539 21.7901 6.28412C21.8609 6.21434 21.9171 6.13118 21.9554 6.03949C21.9938 5.9478 22.0135 5.84939 22.0135 5.75C22.0135 5.65061 21.9938 5.5522 21.9554 5.46051C21.9171 5.36882 21.8609 5.28566 21.7901 5.21588C21.7193 5.1461 21.6354 5.09108 21.5432 5.05402C21.4509 5.01696 21.3523 4.99859 21.2529 5H18.8749C18.769 4.59556 18.6055 4.2056 18.3134 3.87695C17.8426 3.34732 17.107 3 16.2529 3ZM16.2529 4.5C16.732 4.5 16.9964 4.65268 17.1923 4.87305C17.3882 5.09341 17.5029 5.41667 17.5029 5.75C17.5029 6.08333 17.3882 6.40659 17.1923 6.62695C16.9964 6.84732 16.732 7 16.2529 7C15.7737 7 15.5093 6.84732 15.3134 6.62695C15.1175 6.40659 15.0029 6.08333 15.0029 5.75C15.0029 5.41667 15.1175 5.09341 15.3134 4.87305C15.5093 4.65268 15.7737 4.5 16.2529 4.5ZM7.75287 9.25C6.8987 9.25 6.16311 9.59732 5.69232 10.127C5.40019 10.4556 5.23677 10.8456 5.1308 11.25H2.75287C2.65349 11.2486 2.55481 11.267 2.46259 11.304C2.37036 11.3411 2.28642 11.3961 2.21564 11.4659C2.14487 11.5357 2.08866 11.6188 2.0503 11.7105C2.01194 11.8022 1.99219 11.9006 1.99219 12C1.99219 12.0994 2.01194 12.1978 2.0503 12.2895C2.08866 12.3812 2.14487 12.4643 2.21564 12.5341C2.28642 12.6039 2.37036 12.6589 2.46259 12.696C2.55481 12.733 2.65349 12.7514 2.75287 12.75H5.1308C5.23677 13.1544 5.40019 13.5444 5.69232 13.873C6.16311 14.4027 6.8987 14.75 7.75287 14.75C8.60704 14.75 9.34263 14.4027 9.81342 13.873C10.1055 13.5444 10.269 13.1544 10.3749 12.75H21.2529C21.3523 12.7514 21.4509 12.733 21.5432 12.696C21.6354 12.6589 21.7193 12.6039 21.7901 12.5341C21.8609 12.4643 21.9171 12.3812 21.9554 12.2895C21.9938 12.1978 22.0135 12.0994 22.0135 12C22.0135 11.9006 21.9938 11.8022 21.9554 11.7105C21.9171 11.6188 21.8609 11.5357 21.7901 11.4659C21.7193 11.3961 21.6354 11.3411 21.5432 11.304C21.4509 11.267 21.3523 11.2486 21.2529 11.25H10.3749C10.269 10.8456 10.1055 10.4556 9.81342 10.127C9.34263 9.59732 8.60704 9.25 7.75287 9.25ZM7.75287 10.75C8.23204 10.75 8.49644 10.9027 8.69232 11.123C8.8882 11.3434 9.00287 11.6667 9.00287 12C9.00287 12.3333 8.8882 12.6566 8.69232 12.877C8.49644 13.0973 8.23204 13.25 7.75287 13.25C7.2737 13.25 7.00929 13.0973 6.81342 12.877C6.61754 12.6566 6.50287 12.3333 6.50287 12C6.50287 11.6667 6.61754 11.3434 6.81342 11.123C7.00929 10.9027 7.2737 10.75 7.75287 10.75ZM15.2529 15.5C14.3987 15.5 13.6631 15.8473 13.1923 16.377C12.9002 16.7056 12.7368 17.0956 12.6308 17.5H2.75287C2.65349 17.4986 2.55481 17.517 2.46259 17.554C2.37036 17.5911 2.28642 17.6461 2.21564 17.7159C2.14487 17.7857 2.08866 17.8688 2.0503 17.9605C2.01194 18.0522 1.99219 18.1506 1.99219 18.25C1.99219 18.3494 2.01194 18.4478 2.0503 18.5395C2.08866 18.6312 2.14487 18.7143 2.21564 18.7841C2.28642 18.8539 2.37036 18.9089 2.46259 18.946C2.55481 18.983 2.65349 19.0014 2.75287 19H12.6308C12.7368 19.4044 12.9002 19.7944 13.1923 20.123C13.6631 20.6527 14.3987 21 15.2529 21C16.107 21 16.8426 20.6527 17.3134 20.123C17.6055 19.7944 17.769 19.4044 17.8749 19H21.2529C21.3523 19.0014 21.4509 18.983 21.5432 18.946C21.6354 18.9089 21.7193 18.8539 21.7901 18.7841C21.8609 18.7143 21.9171 18.6312 21.9554 18.5395C21.9938 18.4478 22.0135 18.3494 22.0135 18.25C22.0135 18.1506 21.9938 18.0522 21.9554 17.9605C21.9171 17.8688 21.8609 17.7857 21.7901 17.7159C21.7193 17.6461 21.6354 17.5911 21.5432 17.554C21.4509 17.517 21.3523 17.4986 21.2529 17.5H17.8749C17.769 17.0956 17.6055 16.7056 17.3134 16.377C16.8426 15.8473 16.107 15.5 15.2529 15.5ZM15.2529 17C15.732 17 15.9964 17.1527 16.1923 17.373C16.3882 17.5934 16.5029 17.9167 16.5029 18.25C16.5029 18.5833 16.3882 18.9066 16.1923 19.127C15.9964 19.3473 15.732 19.5 15.2529 19.5C14.7737 19.5 14.5093 19.3473 14.3134 19.127C14.1175 18.9066 14.0029 18.5833 14.0029 18.25C14.0029 17.9167 14.1175 17.5934 14.3134 17.373C14.5093 17.1527 14.7737 17 15.2529 17Z" fill="#0D1011"/>
</g>
</svg>
