<svg width="24" height="24" viewBox="0 0 24 24" fill="none" xmlns="http://www.w3.org/2000/svg">
<g id="TwitterX ">
<path id="Vector" d="M6.25 3C4.46354 3 3 4.46354 3 6.25V17.75C3 19.5365 4.46354 21 6.25 21H17.75C19.5365 21 21 19.5365 21 17.75V6.25C21 4.46354 19.5365 3 17.75 3H6.25ZM6.25 4.5H17.75C18.724 4.5 19.5 5.27604 19.5 6.25V17.75C19.5 18.724 18.724 19.5 17.75 19.5H6.25C5.27604 19.5 4.5 18.724 4.5 17.75V6.25C4.5 5.27604 5.27604 4.5 6.25 4.5ZM6.91667 7L10.7813 12.526L6.91146 17H7.93229L11.2344 13.1771L13.9115 17H17.1302L13.0104 11.1146L16.5677 7H15.5677L12.5625 10.474L10.1354 7H6.91667ZM8.46875 7.84896H9.75L15.5729 16.151H14.2917L8.46875 7.84896Z" fill="#0D1011"/>
</g>
</svg>
