<svg width="24" height="24" viewBox="0 0 24 24" fill="none" xmlns="http://www.w3.org/2000/svg">
<g id="u_turn_to_left ">
<path id="Vector" d="M8.73521 2.99299C8.54043 2.99866 8.3555 3.07992 8.21958 3.21955L3.21958 8.21955C3.07898 8.36021 3 8.55094 3 8.74982C3 8.9487 3.07898 9.13944 3.21958 9.2801L8.21958 14.2801C8.28869 14.3521 8.37147 14.4095 8.46306 14.4491C8.55466 14.4887 8.65323 14.5096 8.75301 14.5106C8.85279 14.5117 8.95177 14.4928 9.04415 14.455C9.13654 14.4173 9.22046 14.3615 9.29102 14.291C9.36158 14.2204 9.41735 14.1365 9.45507 14.0441C9.49278 13.9517 9.51169 13.8528 9.51068 13.753C9.50966 13.6532 9.48875 13.5546 9.44916 13.463C9.40957 13.3714 9.35211 13.2887 9.28013 13.2195L5.5604 9.49982H14.4999C17.27 9.49982 19.4999 11.7297 19.4999 14.4998C19.4999 17.27 17.27 19.4998 14.4999 19.4998H10.7499C10.6505 19.4984 10.5518 19.5168 10.4596 19.5538C10.3673 19.5909 10.2834 19.6459 10.2126 19.7157C10.1419 19.7855 10.0856 19.8686 10.0473 19.9603C10.0089 20.052 9.98917 20.1504 9.98917 20.2498C9.98917 20.3492 10.0089 20.4476 10.0473 20.5393C10.0856 20.631 10.1419 20.7142 10.2126 20.7839C10.2834 20.8537 10.3673 20.9087 10.4596 20.9458C10.5518 20.9829 10.6505 21.0012 10.7499 20.9998H14.4999C18.0807 20.9998 20.9999 18.0807 20.9999 14.4998C20.9999 10.919 18.0807 7.99982 14.4999 7.99982H5.5604L9.28013 4.2801C9.38833 4.17472 9.4622 4.03913 9.49206 3.89108C9.52193 3.74303 9.50641 3.5894 9.44752 3.45032C9.38864 3.31124 9.28914 3.19317 9.16204 3.11157C9.03495 3.02997 8.88618 2.98864 8.73521 2.99299Z" fill="#0D1011"/>
</g>
</svg>
