<svg width="24" height="24" viewBox="0 0 24 24" fill="none" xmlns="http://www.w3.org/2000/svg">
<g id="u_turn_to_right ">
<path id="Vector" d="M15.2422 2.99219C15.0929 2.99222 14.9471 3.03679 14.8233 3.12019C14.6995 3.20358 14.6034 3.32202 14.5473 3.46033C14.4912 3.59865 14.4776 3.75056 14.5084 3.89662C14.5391 4.04269 14.6127 4.17627 14.7197 4.28027L18.4395 8H9.5C5.91913 8 3 10.9191 3 14.5C3 18.0809 5.91913 21 9.5 21H13.25C13.3494 21.0014 13.4481 20.983 13.5403 20.946C13.6325 20.9089 13.7164 20.8539 13.7872 20.7841C13.858 20.7143 13.9142 20.6312 13.9526 20.5395C13.9909 20.4478 14.0107 20.3494 14.0107 20.25C14.0107 20.1506 13.9909 20.0522 13.9526 19.9605C13.9142 19.8688 13.858 19.7857 13.7872 19.7159C13.7164 19.6461 13.6325 19.5911 13.5403 19.554C13.4481 19.517 13.3494 19.4986 13.25 19.5H9.5C6.72987 19.5 4.5 17.2701 4.5 14.5C4.5 11.7299 6.72987 9.5 9.5 9.5H18.4395L14.7197 13.2197C14.6477 13.2888 14.5903 13.3716 14.5507 13.4632C14.5111 13.5548 14.4902 13.6534 14.4892 13.7532C14.4882 13.8529 14.5071 13.9519 14.5448 14.0443C14.5825 14.1367 14.6383 14.2206 14.7088 14.2912C14.7794 14.3617 14.8633 14.4175 14.9557 14.4552C15.0481 14.4929 15.1471 14.5118 15.2468 14.5108C15.3466 14.5098 15.4452 14.4889 15.5368 14.4493C15.6284 14.4097 15.7112 14.3523 15.7803 14.2803L20.7803 9.28027C20.9209 9.13962 20.9999 8.94888 20.9999 8.75C20.9999 8.55112 20.9209 8.36038 20.7803 8.21973L15.7803 3.21973C15.7104 3.14773 15.6267 3.0905 15.5343 3.05142C15.4419 3.01233 15.3425 2.99219 15.2422 2.99219Z" fill="#0D1011"/>
</g>
</svg>
