<svg width="24" height="24" viewBox="0 0 24 24" fill="none" xmlns="http://www.w3.org/2000/svg">
<g id="up_arrow">
<path id="Vector" d="M5.70443 11.2469L10.9987 6.23336V20.0526C10.9987 20.5756 11.4466 21 11.9987 21C12.5508 21 12.9987 20.5756 12.9987 20.0526V6.23336L18.293 11.2493C18.4857 11.4344 18.7435 11.5257 18.9987 11.5257C19.2539 11.5257 19.5117 11.4344 19.7044 11.2469C20.0951 10.8792 20.0951 10.2772 19.7044 9.9096L12.7044 3.27757C12.3164 2.90748 11.681 2.90748 11.293 3.27757L4.29297 9.9096C3.90234 10.2772 3.90234 10.8792 4.29297 11.2469C4.68099 11.617 5.31641 11.617 5.70443 11.2469Z" fill="#0D1011"/>
</g>
</svg>
