<svg width="24" height="24" viewBox="0 0 24 24" fill="none" xmlns="http://www.w3.org/2000/svg">
<g id="up_left_arrow">
<path id="Vector" d="M17.7943 19.2057C17.9896 19.4036 18.2448 19.5 18.5 19.5C18.7552 19.5 19.0104 19.4036 19.2057 19.2057C19.5964 18.8177 19.5964 18.1823 19.2057 17.7943L7.91406 6.5H12.5C13.0521 6.5 13.5 6.05208 13.5 5.5C13.5 4.94792 13.0521 4.5 12.5 4.5H5.5C5.4349 4.5 5.36979 4.50781 5.30469 4.51823C5.27344 4.52604 5.2474 4.53646 5.21875 4.54427C5.1849 4.55469 5.15104 4.5625 5.11719 4.57552C5.08333 4.59115 5.05208 4.60937 5.02083 4.6276C4.99479 4.64063 4.96875 4.65365 4.94531 4.66927C4.83594 4.74219 4.74219 4.83594 4.66927 4.94531C4.65365 4.96875 4.64063 4.99479 4.6276 5.02083C4.60937 5.05208 4.59115 5.08333 4.57552 5.11719C4.5625 5.15104 4.55469 5.1849 4.54427 5.21875C4.53646 5.2474 4.52604 5.27344 4.51823 5.30469C4.50781 5.36979 4.5 5.4349 4.5 5.5V12.5C4.5 13.0521 4.94792 13.5 5.5 13.5C6.05208 13.5 6.5 13.0521 6.5 12.5V7.91406L17.7943 19.2057Z" fill="#0D1011"/>
</g>
</svg>
