<svg width="24" height="24" viewBox="0 0 24 24" fill="none" xmlns="http://www.w3.org/2000/svg">
<g id="up_right_arrow">
<path id="Vector" d="M18.4987 13.5C19.0508 13.5 19.4987 13.0521 19.4987 12.5V5.5C19.4987 5.4349 19.4909 5.36979 19.4805 5.30469C19.4727 5.27344 19.4622 5.2474 19.4544 5.21875C19.444 5.1849 19.4362 5.15104 19.4232 5.11719C19.4076 5.08333 19.3893 5.05208 19.3711 5.01823C19.3581 4.99479 19.3477 4.96875 19.3294 4.94531C19.2565 4.83594 19.1628 4.74219 19.0534 4.66927C19.0299 4.65104 19.0039 4.64063 18.9805 4.6276C18.9466 4.60937 18.9154 4.59115 18.8815 4.57552C18.8477 4.5625 18.8138 4.55469 18.7799 4.54427C18.7513 4.53646 18.7253 4.52604 18.694 4.51823C18.6289 4.50781 18.5638 4.5 18.4987 4.5H11.4987C10.9466 4.5 10.4987 4.94792 10.4987 5.5C10.4987 6.05208 10.9466 6.5 11.4987 6.5H16.0846L4.79297 17.7943C4.40234 18.1823 4.40234 18.8177 4.79297 19.2057C4.98828 19.4036 5.24349 19.5 5.4987 19.5C5.75391 19.5 6.00911 19.4036 6.20443 19.2057L17.4987 7.91406V12.5C17.4987 13.0521 17.9466 13.5 18.4987 13.5Z" fill="#0D1011"/>
</g>
</svg>
