<svg width="24" height="24" viewBox="0 0 24 24" fill="none" xmlns="http://www.w3.org/2000/svg">
<g id="upload_file ">
<path id="Vector" d="M6.25 2C5.01625 2 4 3.01625 4 4.25V19.75C4 20.9838 5.01625 22 6.25 22H17.75C18.9838 22 20 20.9838 20 19.75V9.25C20 9.0511 19.9209 8.86036 19.7803 8.71973L19.7725 8.71191L13.2803 2.21973C13.1396 2.07907 12.9489 2.00004 12.75 2H6.25ZM6.25 3.5H12V7.75C12 8.98375 13.0162 10 14.25 10H18.5V19.75C18.5 20.1733 18.1732 20.5 17.75 20.5H6.25C5.82675 20.5 5.5 20.1733 5.5 19.75V4.25C5.5 3.82675 5.82675 3.5 6.25 3.5ZM13.5 4.56055L17.4395 8.5H14.25C13.8268 8.5 13.5 8.17325 13.5 7.75V4.56055ZM11.9893 10.5C11.7941 10.5029 11.6077 10.5817 11.4697 10.7197L9.46973 12.7197C9.39775 12.7888 9.34028 12.8716 9.3007 12.9632C9.26111 13.0548 9.24019 13.1534 9.23918 13.2532C9.23817 13.3529 9.25707 13.4519 9.29479 13.5443C9.33251 13.6367 9.38828 13.7206 9.45883 13.7912C9.52939 13.8617 9.61332 13.9175 9.7057 13.9552C9.79808 13.9929 9.89706 14.0118 9.99684 14.0108C10.0966 14.0098 10.1952 13.9889 10.2868 13.9493C10.3784 13.9097 10.4612 13.8523 10.5303 13.7803L11.25 13.0605V15.75C11.2486 15.8494 11.267 15.9481 11.304 16.0403C11.3411 16.1325 11.3961 16.2164 11.4659 16.2872C11.5357 16.358 11.6188 16.4142 11.7105 16.4526C11.8022 16.4909 11.9006 16.5107 12 16.5107C12.0994 16.5107 12.1978 16.4909 12.2895 16.4526C12.3812 16.4142 12.4643 16.358 12.5341 16.2872C12.6039 16.2164 12.6589 16.1325 12.696 16.0403C12.733 15.9481 12.7514 15.8494 12.75 15.75V13.0605L13.4697 13.7803C13.5388 13.8523 13.6216 13.9097 13.7132 13.9493C13.8048 13.9889 13.9034 14.0098 14.0032 14.0108C14.1029 14.0118 14.2019 13.9929 14.2943 13.9552C14.3867 13.9175 14.4706 13.8617 14.5412 13.7912C14.6117 13.7206 14.6675 13.6367 14.7052 13.5443C14.7429 13.4519 14.7618 13.3529 14.7608 13.2532C14.7598 13.1534 14.7389 13.0548 14.6993 12.9632C14.6597 12.8716 14.6023 12.7888 14.5303 12.7197L12.5303 10.7197C12.4594 10.6488 12.375 10.5928 12.282 10.5551C12.1891 10.5173 12.0895 10.4986 11.9893 10.5ZM8.75 17.5C8.65062 17.4986 8.55194 17.517 8.45972 17.554C8.36749 17.5911 8.28355 17.6461 8.21277 17.7159C8.142 17.7857 8.08579 17.8688 8.04743 17.9605C8.00907 18.0522 7.98932 18.1506 7.98932 18.25C7.98932 18.3494 8.00907 18.4478 8.04743 18.5395C8.08579 18.6312 8.142 18.7143 8.21277 18.7841C8.28355 18.8539 8.36749 18.9089 8.45972 18.946C8.55194 18.983 8.65062 19.0014 8.75 19H15.25C15.3494 19.0014 15.4481 18.983 15.5403 18.946C15.6325 18.9089 15.7164 18.8539 15.7872 18.7841C15.858 18.7143 15.9142 18.6312 15.9526 18.5395C15.9909 18.4478 16.0107 18.3494 16.0107 18.25C16.0107 18.1506 15.9909 18.0522 15.9526 17.9605C15.9142 17.8688 15.858 17.7857 15.7872 17.7159C15.7164 17.6461 15.6325 17.5911 15.5403 17.554C15.4481 17.517 15.3494 17.4986 15.25 17.5H8.75Z" fill="#0D1011"/>
</g>
</svg>
