<svg width="24" height="24" viewBox="0 0 24 24" fill="none" xmlns="http://www.w3.org/2000/svg">
<g id="Upload ">
<path id="Vector" d="M11.9896 3.00006C11.7943 3.00267 11.6068 3.08079 11.4688 3.21881L8.46875 6.21881C8.27344 6.40892 8.19531 6.68756 8.26302 6.95058C8.33073 7.2136 8.53646 7.41933 8.79948 7.48704C9.0625 7.55475 9.34115 7.47663 9.53125 7.28131L11.25 5.55996V16.2501C11.2474 16.5209 11.388 16.7709 11.6224 16.9089C11.8568 17.0443 12.1432 17.0443 12.3776 16.9089C12.612 16.7709 12.7526 16.5209 12.75 16.2501V5.55996L14.4688 7.28131C14.6589 7.47663 14.9375 7.55475 15.2005 7.48704C15.4635 7.41933 15.6693 7.2136 15.737 6.95058C15.8047 6.68756 15.7266 6.40892 15.5312 6.21881L12.5312 3.21881C12.388 3.07558 12.1927 2.99746 11.9896 3.00006ZM5.75 8.50006C4.23958 8.50006 3 9.73965 3 11.2501V18.2501C3 19.7605 4.23958 21.0001 5.75 21.0001H18.25C19.7604 21.0001 21 19.7605 21 18.2501V11.2501C21 9.73965 19.7604 8.50006 18.25 8.50006H17.25C16.9792 8.49746 16.7292 8.63808 16.5911 8.87246C16.4557 9.10683 16.4557 9.39329 16.5911 9.62767C16.7292 9.86204 16.9792 10.0027 17.25 10.0001H18.25C18.9479 10.0001 19.5 10.5521 19.5 11.2501V18.2501C19.5 18.948 18.9479 19.5001 18.25 19.5001H5.75C5.05208 19.5001 4.5 18.948 4.5 18.2501V11.2501C4.5 10.5521 5.05208 10.0001 5.75 10.0001H6.75C7.02083 10.0027 7.27083 9.86204 7.40885 9.62767C7.54427 9.39329 7.54427 9.10683 7.40885 8.87246C7.27083 8.63808 7.02083 8.49746 6.75 8.50006H5.75Z" fill="#0D1011"/>
</g>
</svg>
