<svg width="24" height="24" viewBox="0 0 24 24" fill="none" xmlns="http://www.w3.org/2000/svg">
<g id="user ">
<path id="Vector" d="M12 2C9.24746 2 7 4.24746 7 7C7 9.75254 9.24746 12 12 12C14.7525 12 17 9.75254 17 7C17 4.24746 14.7525 2 12 2ZM12 3.5C13.9419 3.5 15.5 5.05812 15.5 7C15.5 8.94188 13.9419 10.5 12 10.5C10.0581 10.5 8.5 8.94188 8.5 7C8.5 5.05812 10.0581 3.5 12 3.5ZM6.25 14C5.01765 14 4 15.0176 4 16.25V16.8496C4 18.3203 4.93619 19.638 6.35938 20.5449C7.78256 21.4519 9.72791 22 12 22C14.2721 22 16.2174 21.4519 17.6406 20.5449C19.0638 19.638 20 18.3203 20 16.8496V16.25C20 15.0176 18.9824 14 17.75 14H6.25ZM6.25 15.5H17.75C18.2176 15.5 18.5 15.7824 18.5 16.25V16.8496C18.5 17.679 17.9608 18.5622 16.834 19.2803C15.7072 19.9983 14.0279 20.5 12 20.5C9.97209 20.5 8.29283 19.9983 7.16602 19.2803C6.0392 18.5622 5.5 17.679 5.5 16.8496V16.25C5.5 15.7824 5.78235 15.5 6.25 15.5Z" fill="#0D1011"/>
</g>
</svg>
