<svg width="24" height="24" viewBox="0 0 24 24" fill="none" xmlns="http://www.w3.org/2000/svg">
<g id="Verified Account ">
<path id="Vector" d="M12 2C10.5729 2 9.35938 2.82813 8.72917 4.01042C7.41146 3.54687 5.89583 3.79687 4.84896 4.84896C3.79687 5.89583 3.55208 7.41146 4.01042 8.72917C2.82813 9.35938 2 10.5729 2 12C2 13.4271 2.82813 14.6406 4.01042 15.2708C3.54687 16.5885 3.79687 18.1042 4.84896 19.151C5.89583 20.2031 7.41146 20.4479 8.72917 19.9896C9.35938 21.1719 10.5729 22 12 22C13.4271 22 14.6406 21.1719 15.2708 19.9896C16.5885 20.4531 18.1042 20.2031 19.151 19.151C20.2031 18.1042 20.4479 16.5885 19.9896 15.2708C21.1719 14.6406 22 13.4271 22 12C22 10.5729 21.1719 9.35938 19.9896 8.72917C20.4531 7.41146 20.2031 5.89583 19.151 4.84896C18.1042 3.79687 16.5885 3.55208 15.2708 4.01042C14.6406 2.82813 13.4271 2 12 2ZM12 3.5C13.0469 3.5 13.9115 4.20833 14.1719 5.16667C14.2344 5.39583 14.401 5.58333 14.625 5.67187C14.8438 5.75521 15.0938 5.72917 15.2969 5.60417C16.1667 5.05208 17.3281 5.14583 18.0885 5.91146C18.8542 6.67188 18.9479 7.83333 18.3958 8.70313C18.2708 8.90625 18.2448 9.15625 18.3281 9.38021C18.4167 9.59896 18.6042 9.76563 18.8333 9.82813C19.7917 10.0885 20.5 10.9531 20.5 12C20.5 13.0469 19.7917 13.9115 18.8333 14.1719C18.6042 14.2344 18.4167 14.401 18.3281 14.625C18.2448 14.8438 18.2708 15.0938 18.3958 15.2969C18.9479 16.1667 18.8542 17.3281 18.0885 18.0885C17.3281 18.8542 16.1667 18.9479 15.2969 18.3958C15.0938 18.2708 14.8437 18.2448 14.6198 18.3281C14.401 18.4167 14.2344 18.6042 14.1719 18.8333C13.9115 19.7917 13.0469 20.5 12 20.5C10.9531 20.5 10.0885 19.7917 9.82813 18.8333C9.76563 18.6042 9.59896 18.4167 9.375 18.3281C9.15625 18.2448 8.90625 18.2708 8.70313 18.3958C7.83333 18.9479 6.67188 18.8542 5.91146 18.0885C5.14583 17.3281 5.05208 16.1667 5.60417 15.2969C5.72917 15.0938 5.75521 14.8437 5.67187 14.6198C5.58333 14.401 5.39583 14.2344 5.16667 14.1719C4.20833 13.9115 3.5 13.0469 3.5 12C3.5 10.9531 4.20833 10.0885 5.16667 9.82813C5.39583 9.76563 5.58333 9.59896 5.67187 9.375C5.75521 9.15625 5.72917 8.90625 5.60417 8.70313C5.05208 7.83333 5.14583 6.67188 5.91146 5.91146C6.67188 5.14583 7.83333 5.05208 8.70313 5.60417C8.90625 5.72917 9.15625 5.75521 9.38021 5.67187C9.59896 5.58333 9.76563 5.39583 9.82813 5.16667C10.0885 4.20833 10.9531 3.5 12 3.5ZM15.7344 8.99479C15.5417 9 15.3542 9.07813 15.2187 9.21875L10.75 13.6875L8.78125 11.7187C8.59375 11.526 8.3125 11.4427 8.05208 11.5156C7.78646 11.5833 7.58333 11.7865 7.51563 12.0521C7.44271 12.3125 7.52604 12.5938 7.71875 12.7813L10.2188 15.2813C10.5104 15.5729 10.9896 15.5729 11.2813 15.2813L16.2813 10.2813C16.5 10.0625 16.5677 9.73438 16.4479 9.44792C16.3281 9.16667 16.0469 8.98438 15.7344 8.99479Z" fill="#0D1011"/>
</g>
</svg>
