<svg width="24" height="24" viewBox="0 0 24 24" fill="none" xmlns="http://www.w3.org/2000/svg">
<g id="video_call ">
<path id="Vector" d="M5.25 4.5C3.46403 4.5 2 5.96403 2 7.75V16.25C2 18.036 3.46403 19.5 5.25 19.5H13.75C15.536 19.5 17 18.036 17 16.25V15.5752L20.8643 17.8936C20.9781 17.9618 21.108 17.9986 21.2407 18.0002C21.3735 18.0019 21.5042 17.9683 21.6197 17.9028C21.7352 17.8374 21.8312 17.7425 21.898 17.6278C21.9649 17.5131 22 17.3827 22 17.25V6.75C22 6.64959 21.9799 6.5502 21.9408 6.45772C21.9017 6.36523 21.8445 6.28154 21.7724 6.21159C21.7004 6.14165 21.615 6.08688 21.5214 6.05053C21.4278 6.01419 21.3279 5.997 21.2275 6C21.0993 6.00384 20.9743 6.04049 20.8643 6.10645L17 8.4248V7.75C17 5.96403 15.536 4.5 13.75 4.5H5.25ZM5.25 6H13.75C14.725 6 15.5 6.77497 15.5 7.75V9.72656V14.2412V16.25C15.5 17.225 14.725 18 13.75 18H5.25C4.27497 18 3.5 17.225 3.5 16.25V7.75C3.5 6.77497 4.27497 6 5.25 6ZM20.5 8.0752V15.9248L17 13.8252V10.1748L20.5 8.0752Z" fill="#0D1011"/>
</g>
</svg>
