<svg width="24" height="24" viewBox="0 0 24 24" fill="none" xmlns="http://www.w3.org/2000/svg">
<g id="Voucher ">
<path id="Vector" d="M3.25 5C2.29167 5 1.5 5.79167 1.5 6.75V9.25C1.5 9.46094 1.58854 9.66146 1.74479 9.80469C1.90104 9.94531 2.10937 10.0156 2.31771 9.9974C2.3099 9.9974 2.3724 10 2.5 10C3.61458 10 4.5 10.8854 4.5 12C4.5 13.1146 3.61458 14 2.5 14H2.25C1.83594 14 1.5 14.3359 1.5 14.75V17.25C1.5 18.2083 2.29167 19 3.25 19H20.75C21.7083 19 22.5 18.2083 22.5 17.25V14.75C22.5 14.3359 22.1641 14 21.75 14H21.5C20.3854 14 19.5 13.1146 19.5 12C19.5 10.8854 20.3854 10 21.5 10H21.75C22.1641 10 22.5 9.66406 22.5 9.25V6.75C22.5 5.79167 21.7083 5 20.75 5H3.25ZM3.25 6.5H20.75C20.8984 6.5 21 6.60156 21 6.75V8.60156C19.3203 8.85417 18 10.2526 18 12C18 13.7474 19.3203 15.1458 21 15.3984V17.25C21 17.3984 20.8984 17.5 20.75 17.5H3.25C3.10156 17.5 3 17.3984 3 17.25V15.3984C4.67969 15.1458 6 13.7474 6 12C6 10.2526 4.67969 8.85417 3 8.60156V6.75C3 6.60156 3.10156 6.5 3.25 6.5ZM14.7344 8.49219C14.5417 8.5 14.3568 8.58073 14.2188 8.71875L8.71875 14.2188C8.52344 14.4089 8.44531 14.6875 8.51302 14.9505C8.58073 15.2135 8.78646 15.4193 9.04948 15.487C9.3125 15.5547 9.59115 15.4766 9.78125 15.2812L15.2812 9.78125C15.5026 9.5651 15.5677 9.23438 15.4479 8.95052C15.3281 8.66667 15.0443 8.48438 14.7344 8.49219ZM9.5 8.5C8.94792 8.5 8.5 8.94792 8.5 9.5C8.5 10.0521 8.94792 10.5 9.5 10.5C10.0521 10.5 10.5 10.0521 10.5 9.5C10.5 8.94792 10.0521 8.5 9.5 8.5ZM14.5 13.5C13.9479 13.5 13.5 13.9479 13.5 14.5C13.5 15.0521 13.9479 15.5 14.5 15.5C15.0521 15.5 15.5 15.0521 15.5 14.5C15.5 13.9479 15.0521 13.5 14.5 13.5Z" fill="#0D1011"/>
</g>
</svg>
