<svg width="24" height="24" viewBox="0 0 24 24" fill="none" xmlns="http://www.w3.org/2000/svg">
<g id="warning_shield ">
<path id="Vector" d="M12.0244 1.00012C11.831 0.994086 11.6428 1.06301 11.499 1.1925C11.499 1.1925 7.74508 4.50012 3.25 4.50012C3.05109 4.50014 2.86034 4.57916 2.71969 4.71981C2.57904 4.86046 2.50002 5.05121 2.5 5.25012V11.38C2.5 14.719 4.04471 20.2133 11.709 23.4415C11.8011 23.4803 11.9 23.5003 12 23.5003C12.1 23.5003 12.1989 23.4803 12.291 23.4415C19.9553 20.2133 21.5 14.719 21.5 11.38V5.25012C21.5 5.05121 21.421 4.86046 21.2803 4.71981C21.1397 4.57916 20.9489 4.50014 20.75 4.50012C16.2549 4.50012 12.501 1.1925 12.501 1.1925C12.3697 1.07426 12.201 1.00613 12.0244 1.00012ZM12 2.71399C13.0315 3.5433 16.0556 5.66872 20 5.93762V11.38C20 14.2511 18.8967 18.883 12 21.9132C5.10328 18.883 4 14.2511 4 11.38V5.93762C7.94437 5.66872 10.9685 3.5433 12 2.71399ZM11.9883 7.48938C11.7895 7.49248 11.6002 7.57435 11.4617 7.71699C11.3233 7.85962 11.2471 8.05138 11.25 8.25012V13.2501C11.2486 13.3495 11.267 13.4482 11.304 13.5404C11.3411 13.6326 11.3961 13.7166 11.4659 13.7873C11.5357 13.8581 11.6188 13.9143 11.7105 13.9527C11.8022 13.991 11.9006 14.0108 12 14.0108C12.0994 14.0108 12.1978 13.991 12.2895 13.9527C12.3812 13.9143 12.4643 13.8581 12.5341 13.7873C12.6039 13.7166 12.6589 13.6326 12.696 13.5404C12.733 13.4482 12.7514 13.3495 12.75 13.2501V8.25012C12.7514 8.14974 12.7327 8.05009 12.6949 7.95708C12.6571 7.86406 12.6011 7.77958 12.53 7.70864C12.459 7.6377 12.3745 7.58173 12.2814 7.54407C12.1883 7.50641 12.0887 7.48781 11.9883 7.48938ZM12 15.5001C11.7348 15.5001 11.4804 15.6055 11.2929 15.793C11.1054 15.9806 11 16.2349 11 16.5001C11 16.7653 11.1054 17.0197 11.2929 17.2072C11.4804 17.3948 11.7348 17.5001 12 17.5001C12.2652 17.5001 12.5196 17.3948 12.7071 17.2072C12.8946 17.0197 13 16.7653 13 16.5001C13 16.2349 12.8946 15.9806 12.7071 15.793C12.5196 15.6055 12.2652 15.5001 12 15.5001Z" fill="#0D1011"/>
</g>
</svg>
