<svg width="24" height="24" viewBox="0 0 24 24" fill="none" xmlns="http://www.w3.org/2000/svg">
<g id="warning_shield_fill">
<path id="Vector" d="M12.0234 1.00004C11.8307 0.994827 11.6432 1.06254 11.5 1.19274C11.5 1.19274 7.74479 4.50004 3.25 4.50004C2.83594 4.50004 2.5 4.83597 2.5 5.25004V11.3802C2.5 14.7188 4.04427 20.2136 11.7083 23.4401C11.8958 23.5209 12.1042 23.5209 12.2917 23.4401C19.9557 20.2136 21.5 14.7188 21.5 11.3802V5.25004C21.5 4.83597 21.1641 4.50004 20.75 4.50004C16.2552 4.50004 12.5 1.19274 12.5 1.19274C12.3698 1.07295 12.2005 1.00524 12.0234 1.00004ZM12 7.50004C12.4141 7.50004 12.75 7.83597 12.75 8.25004V13.25C12.75 13.6641 12.4141 14 12 14C11.5859 14 11.25 13.6641 11.25 13.25V8.25004C11.25 7.83597 11.5859 7.50004 12 7.50004ZM12 15.5C12.5521 15.5 13 15.948 13 16.5C13 17.0521 12.5521 17.5 12 17.5C11.4479 17.5 11 17.0521 11 16.5C11 15.948 11.4479 15.5 12 15.5Z" fill="#0D1011"/>
</g>
</svg>
