<svg width="24" height="24" viewBox="0 0 24 24" fill="none" xmlns="http://www.w3.org/2000/svg">
<g id="WhatsApp ">
<path id="Vector" d="M12 2C6.48698 2 2 6.48437 2 12C2 13.6354 2.43229 15.1667 3.13021 16.5312L2.04687 20.4141C1.79427 21.3151 2.6849 22.2057 3.58854 21.9531L7.47135 20.8698C8.83594 21.5677 10.3646 22 12 22C17.513 22 22 17.513 22 12C22 6.48437 17.513 2 12 2ZM12 3.5C16.7031 3.5 20.5 7.29688 20.5 12C20.5 16.7031 16.7031 20.5 12 20.5C10.5 20.5 9.09635 20.1094 7.8724 19.4271C7.69792 19.3307 7.49479 19.3073 7.30469 19.3594L3.61198 20.3906L4.64323 16.6979C4.69531 16.5078 4.67187 16.3047 4.57552 16.1302C3.89063 14.9063 3.5 13.5 3.5 12C3.5 7.29688 7.29688 3.5 12 3.5ZM8.61979 7.5C8.46094 7.5 8.20312 7.5599 7.98437 7.79948C7.76562 8.03646 7.14844 8.61458 7.14844 9.78906C7.14844 10.9635 8.0026 12.099 8.1224 12.2578C8.24219 12.4167 9.77344 14.9062 12.2005 15.862C14.2188 16.6589 14.6276 16.5 15.0651 16.4609C15.5052 16.4219 16.4792 15.8828 16.6797 15.3255C16.8776 14.7682 16.8776 14.2891 16.8203 14.1901C16.7604 14.0911 16.6016 14.0312 16.362 13.9115C16.1224 13.7917 14.9505 13.2161 14.7318 13.1354C14.5104 13.0573 14.3516 13.0156 14.1927 13.2552C14.0339 13.4948 13.5755 14.0313 13.4375 14.1901C13.2969 14.3516 13.1589 14.3698 12.9193 14.25C12.6797 14.1302 11.9115 13.8802 10.9974 13.0651C10.2891 12.4323 9.8099 11.651 9.67187 11.4115C9.53125 11.1745 9.65625 11.0443 9.77604 10.9245C9.88281 10.8177 10.013 10.6458 10.1328 10.5078C10.2526 10.3672 10.2917 10.2682 10.3724 10.1094C10.4505 9.95052 10.4115 9.8099 10.3516 9.6901C10.2917 9.57292 9.82813 8.39063 9.61458 7.91927C9.4375 7.52083 9.2474 7.51302 9.07813 7.50521C8.9401 7.5 8.77865 7.5 8.61979 7.5Z" fill="#0D1011"/>
</g>
</svg>
