<svg width="24" height="24" viewBox="0 0 24 24" fill="none" xmlns="http://www.w3.org/2000/svg">
<g id="word_file ">
<path id="Vector" d="M6.25 2C5.01625 2 4 3.01625 4 4.25V19.75C4 20.9838 5.01625 22 6.25 22H17.75C18.9838 22 20 20.9838 20 19.75V9.25C20 9.0511 19.9209 8.86036 19.7803 8.71973L19.7725 8.71191L13.2803 2.21973C13.1396 2.07907 12.9489 2.00004 12.75 2H6.25ZM6.25 3.5H12V7.75C12 8.98375 13.0162 10 14.25 10H18.5V19.75C18.5 20.1733 18.1732 20.5 17.75 20.5H6.25C5.82675 20.5 5.5 20.1733 5.5 19.75V4.25C5.5 3.82675 5.82675 3.5 6.25 3.5ZM13.5 4.56055L17.4395 8.5H14.25C13.8268 8.5 13.5 8.17325 13.5 7.75V4.56055ZM8.625 11.9912C8.52706 11.9908 8.43039 12.0134 8.34279 12.0571C8.25518 12.1009 8.17909 12.1647 8.12065 12.2433C8.06221 12.3219 8.02305 12.4131 8.00633 12.5096C7.98962 12.6061 7.99581 12.7052 8.02441 12.7988L9.39941 17.5488C9.4371 17.679 9.51605 17.7933 9.62437 17.8747C9.73269 17.9561 9.86452 18 10 18H10.5C10.6355 18 10.7673 17.9561 10.8756 17.8747C10.9839 17.7933 11.0629 17.679 11.1006 17.5488L12 14.4414L12.8994 17.5488C12.9371 17.679 13.0161 17.7933 13.1244 17.8747C13.2327 17.9561 13.3645 18 13.5 18H14C14.1355 18 14.2673 17.9561 14.3756 17.8747C14.4839 17.7933 14.5629 17.679 14.6006 17.5488L15.9756 12.7988C15.9984 12.72 16.0055 12.6373 15.9964 12.5557C15.9874 12.4741 15.9623 12.3951 15.9227 12.3232C15.8831 12.2512 15.8296 12.1878 15.7655 12.1365C15.7014 12.0852 15.6278 12.0471 15.5489 12.0243C15.47 12.0014 15.3874 11.9944 15.3058 12.0035C15.2242 12.0126 15.1451 12.0376 15.0732 12.0773C15.0013 12.1169 14.9379 12.1704 14.8866 12.2345C14.8354 12.2987 14.7972 12.3723 14.7744 12.4512L13.75 15.9912L12.7256 12.4512C12.6879 12.321 12.6089 12.2067 12.5006 12.1253C12.3923 12.0439 12.2605 12 12.125 12H11.875C11.7395 12 11.6077 12.0439 11.4994 12.1253C11.3911 12.2067 11.3121 12.321 11.2744 12.4512L10.25 15.9912L9.22559 12.4512C9.1895 12.3194 9.11124 12.2031 9.00278 12.12C8.89431 12.037 8.76162 11.9917 8.625 11.9912Z" fill="#0D1011"/>
</g>
</svg>
