<svg width="330" height="330" viewBox="0 0 330 330" fill="none" xmlns="http://www.w3.org/2000/svg">
<path d="M3 51V35C3 17.3269 17.3269 3 35 3H51" stroke="#D2DDF1" stroke-width="6" stroke-linecap="round"/>
<path d="M51 327L35 327C17.3269 327 3 312.673 3 295L3 279" stroke="#D2DDF1" stroke-width="6" stroke-linecap="round"/>
<path d="M327 279L327 295C327 312.673 312.673 327 295 327L279 327" stroke="#D2DDF1" stroke-width="6" stroke-linecap="round"/>
<path d="M279 3L295 3C312.673 3 327 17.3269 327 35L327 51" stroke="#D2DDF1" stroke-width="6" stroke-linecap="round"/>
<path d="M279.786 155.773C279.881 157.81 279.944 159.857 279.976 161.915L278.476 161.938C278.492 162.956 278.5 163.977 278.5 165C278.5 166.023 278.492 167.044 278.476 168.062L279.976 168.085C279.944 170.143 279.881 172.191 279.786 174.227L278.288 174.157C278.193 176.196 278.066 178.224 277.909 180.24L279.405 180.357C279.244 182.412 279.052 184.455 278.829 186.485L277.338 186.321C277.115 188.353 276.86 190.372 276.574 192.377L278.059 192.588C277.768 194.628 277.446 196.652 277.093 198.661L275.616 198.402C275.262 200.414 274.877 202.41 274.462 204.389L275.93 204.697C275.507 206.712 275.053 208.71 274.568 210.69L273.111 210.333C272.625 212.315 272.109 214.28 271.562 216.225L273.006 216.631C272.448 218.616 271.859 220.581 271.24 222.525L269.811 222.07C269.19 224.017 268.539 225.943 267.858 227.848L269.27 228.353C268.576 230.294 267.851 232.212 267.095 234.106L265.702 233.551C264.945 235.448 264.159 237.321 263.342 239.169L264.714 239.776C263.882 241.661 263.018 243.52 262.126 245.352L260.777 244.695C259.883 246.531 258.959 248.339 258.005 250.118L259.327 250.826C258.354 252.643 257.351 254.43 256.318 256.186L255.025 255.426C253.991 257.186 252.927 258.914 251.835 260.609L253.097 261.421C251.981 263.154 250.835 264.854 249.661 266.518L248.435 265.654C247.26 267.321 246.056 268.953 244.824 270.547L246.011 271.464C244.751 273.096 243.462 274.689 242.145 276.244L241 275.274C239.683 276.83 238.338 278.345 236.966 279.819L238.064 280.841C236.659 282.35 235.226 283.816 233.767 285.239L232.72 284.164C231.262 285.586 229.777 286.962 228.266 288.292L229.257 289.418C227.71 290.78 226.137 292.094 224.537 293.359L223.607 292.182C222.012 293.443 220.392 294.654 218.748 295.814L219.612 297.04C217.929 298.227 216.221 299.36 214.488 300.439L213.695 299.166C211.973 300.238 210.227 301.256 208.459 302.216L209.175 303.534C207.368 304.516 205.538 305.439 203.685 306.302L203.052 304.942C201.218 305.796 199.363 306.59 197.487 307.323L198.033 308.72C196.121 309.466 194.189 310.15 192.237 310.768L191.784 309.338C189.862 309.947 187.921 310.492 185.962 310.971L186.318 312.428C184.33 312.914 182.324 313.333 180.302 313.684L180.045 312.206C178.066 312.549 176.07 312.826 174.059 313.034L174.213 314.526C172.184 314.735 170.14 314.877 168.082 314.947L168.03 313.448C167.024 313.483 166.013 313.5 165 313.5C163.987 313.5 162.976 313.483 161.97 313.448L161.918 314.947C159.86 314.877 157.816 314.735 155.787 314.526L155.941 313.034C153.93 312.826 151.934 312.549 149.955 312.206L149.698 313.684C147.676 313.333 145.67 312.914 143.682 312.428L144.038 310.971C142.079 310.492 140.138 309.947 138.216 309.338L137.763 310.768C135.811 310.15 133.879 309.466 131.967 308.72L132.513 307.323C130.637 306.59 128.782 305.796 126.948 304.942L126.315 306.302C124.462 305.439 122.632 304.516 120.825 303.534L121.541 302.216C119.773 301.256 118.027 300.238 116.305 299.166L115.512 300.439C113.779 299.36 112.071 298.227 110.388 297.04L111.252 295.814C109.608 294.654 107.988 293.443 106.393 292.182L105.463 293.359C103.863 292.094 102.29 290.78 100.743 289.418L101.734 288.292C100.223 286.962 98.7382 285.586 97.2799 284.164L96.2329 285.239C94.7736 283.816 93.3411 282.35 91.9365 280.841L93.0344 279.819C91.6624 278.345 90.3171 276.83 88.9995 275.274L87.855 276.244C86.5383 274.689 85.2493 273.096 83.9891 271.464L85.1762 270.547C83.9445 268.953 82.7403 267.321 81.5647 265.654L80.3388 266.518C79.1649 264.854 78.0194 263.154 76.9034 261.421L78.1645 260.609C77.0726 258.914 76.0091 257.186 74.9749 255.426L73.6818 256.186C72.6493 254.43 71.6459 252.643 70.6726 250.826L71.9948 250.118C71.0415 248.339 70.1172 246.531 69.2228 244.695L67.8744 245.352C66.9816 243.52 66.1183 241.661 65.2856 239.776L66.6577 239.17C65.8414 237.321 65.0545 235.448 64.2981 233.551L62.9047 234.106C62.1495 232.212 61.4243 230.294 60.7301 228.353L62.1425 227.848C61.4612 225.943 60.81 224.017 60.1895 222.07L58.7603 222.525C58.1408 220.581 57.5517 218.616 56.9939 216.631L58.438 216.225C57.8912 214.28 57.3747 212.315 56.8891 210.333L55.4322 210.69C54.9473 208.71 54.4931 206.712 54.0703 204.697L55.5383 204.389C55.1229 202.41 54.738 200.413 54.3844 198.402L52.907 198.661C52.5538 196.652 52.2316 194.628 51.9409 192.588L53.4259 192.377C53.1402 190.372 52.8853 188.353 52.6618 186.321L51.1708 186.485C50.9476 184.455 50.7555 182.412 50.5953 180.357L52.0908 180.24C51.9336 178.224 51.8073 176.196 51.7124 174.157L50.214 174.227C50.1193 172.19 50.0557 170.143 50.0238 168.085L51.5237 168.062C51.5079 167.044 51.5 166.023 51.5 165C51.5 163.977 51.5079 162.956 51.5237 161.938L50.0238 161.915C50.0557 159.857 50.1193 157.81 50.214 155.773L51.7124 155.843C51.8073 153.804 51.9336 151.776 52.0908 149.76L50.5953 149.643C50.7555 147.588 50.9476 145.545 51.1708 143.515L52.6618 143.679C52.8853 141.647 53.1402 139.628 53.4259 137.623L51.9409 137.412C52.2316 135.372 52.5538 133.348 52.907 131.339L54.3844 131.598C54.738 129.586 55.1229 127.59 55.5383 125.611L54.0703 125.303C54.4931 123.288 54.9473 121.29 55.4322 119.31L56.8891 119.667C57.3747 117.685 57.8912 115.72 58.438 113.775L56.9939 113.369C57.5517 111.384 58.1408 109.419 58.7603 107.475L60.1895 107.93C60.81 105.983 61.4612 104.057 62.1425 102.152L60.7301 101.647C61.4243 99.7064 62.1495 97.7883 62.9047 95.894L64.2981 96.4494C65.0545 94.5519 65.8414 92.6786 66.6577 90.8305L65.2856 90.2244C66.1183 88.3393 66.9815 86.48 67.8744 84.6477L69.2228 85.3048C70.1172 83.4694 71.0415 81.6615 71.9948 79.8823L70.6726 79.1739C71.6459 77.3574 72.6493 75.5702 73.6818 73.8137L74.9749 74.5738C76.0091 72.8145 77.0726 71.0864 78.1645 69.3909L76.9034 68.5788C78.0194 66.8459 79.1649 65.1464 80.3388 63.4816L81.5647 64.346C82.7402 62.679 83.9445 61.0475 85.1762 59.4527L83.9891 58.5358C85.2493 56.9043 86.5383 55.3107 87.855 53.7563L88.9995 54.7258C90.3171 53.1703 91.6624 51.6549 93.0344 50.181L91.9365 49.159C93.3411 47.65 94.7736 46.1836 96.2329 44.7614L97.2799 45.8356C98.7382 44.4143 100.223 43.0379 101.734 41.708L100.743 40.5822C102.29 39.2203 103.863 37.9061 105.463 36.6414L106.393 37.818C107.988 36.5567 109.608 35.3455 111.252 34.1861L110.388 32.9603C112.071 31.7734 113.779 30.6397 115.512 29.5609L116.305 30.8341C118.027 29.7616 119.773 28.7443 121.541 27.7841L120.825 26.466C122.632 25.4844 124.462 24.5613 126.315 23.6983L126.948 25.058C128.782 24.2038 130.637 23.4096 132.513 22.6774L131.967 21.2801C133.879 20.5337 135.811 19.8503 137.763 19.232L138.216 20.662C140.138 20.0531 142.079 19.5083 144.038 19.0294L143.682 17.5724C145.67 17.0863 147.676 16.667 149.698 16.3162L149.955 17.7941C151.934 17.4508 153.93 17.1743 155.941 16.9664L155.787 15.4744C157.816 15.2645 159.86 15.1234 161.918 15.0528L161.97 16.5519C162.976 16.5174 163.987 16.5 165 16.5C166.013 16.5 167.024 16.5174 168.03 16.5519L168.082 15.0528C170.14 15.1234 172.184 15.2646 174.213 15.4744L174.059 16.9664C176.07 17.1743 178.066 17.4508 180.045 17.7942L180.302 16.3162C182.324 16.667 184.33 17.0863 186.318 17.5724L185.962 19.0294C187.921 19.5083 189.862 20.0531 191.784 20.662L192.237 19.232C194.189 19.8504 196.121 20.5337 198.033 21.2801L197.487 22.6774C199.363 23.4096 201.218 24.2038 203.052 25.0581L203.685 23.6983C205.538 24.5613 207.368 25.4844 209.175 26.466L208.459 27.7841C210.227 28.7443 211.973 29.7616 213.695 30.8342L214.488 29.5609C216.221 30.6397 217.929 31.7734 219.612 32.9603L218.748 34.1861C220.392 35.3455 222.012 36.5567 223.607 37.818L224.537 36.6414C226.137 37.9061 227.71 39.2203 229.257 40.5822L228.266 41.708C229.777 43.0379 231.262 44.4143 232.72 45.8356L233.767 44.7614C235.226 46.1836 236.659 47.65 238.064 49.159L236.966 50.181C238.338 51.6549 239.683 53.1703 241 54.7258L242.145 53.7563C243.462 55.3107 244.751 56.9043 246.011 58.5358L244.824 59.4527C246.056 61.0475 247.26 62.679 248.435 64.346L249.661 63.4816C250.835 65.1463 251.981 66.8458 253.097 68.5787L251.835 69.3909C252.927 71.0864 253.991 72.8145 255.025 74.5738L256.318 73.8137C257.351 75.5702 258.354 77.3574 259.327 79.1739L258.005 79.8823C258.958 81.6615 259.883 83.4694 260.777 85.3048L262.126 84.6477C263.018 86.48 263.882 88.3393 264.714 90.2244L263.342 90.8305C264.159 92.6786 264.945 94.5519 265.702 96.4494L267.095 95.8939C267.851 97.7883 268.576 99.7064 269.27 101.647L267.858 102.152C268.539 104.057 269.19 105.983 269.811 107.93L271.24 107.475C271.859 109.419 272.448 111.384 273.006 113.369L271.562 113.775C272.109 115.72 272.625 117.685 273.111 119.667L274.568 119.31C275.053 121.29 275.507 123.288 275.93 125.303L274.462 125.611C274.877 127.59 275.262 129.587 275.616 131.598L277.093 131.339C277.446 133.348 277.768 135.372 278.059 137.412L276.574 137.623C276.86 139.628 277.115 141.647 277.338 143.679L278.829 143.515C279.052 145.545 279.244 147.588 279.405 149.643L277.909 149.76C278.066 151.776 278.193 153.804 278.288 155.843L279.786 155.773Z" stroke="white" stroke-width="3" stroke-dasharray="6 6"/>
</svg>
